<svg id="svg" version="1.1" xmlns="http://www.w3.org/2000/svg" xmlns:xlink="http://www.w3.org/1999/xlink" width="400" height="523.7113402061856" viewBox="0, 0, 400,523.7113402061856"><g id="svgg"><path id="path0" d="M311.341 145.197 C 310.157 145.675,309.921 146.172,309.754 148.544 C 309.410 153.417,309.230 156.255,309.215 157.024 C 309.190 158.358,308.338 159.150,306.000 160.012 C 303.595 160.899,297.600 161.561,297.600 160.940 C 297.600 160.725,296.499 160.632,295.048 160.725 C 293.645 160.814,291.592 160.693,290.485 160.456 C 288.897 160.115,288.235 160.141,287.337 160.578 C 284.732 161.846,281.171 163.169,277.600 164.195 C 273.470 165.381,272.313 166.073,273.117 166.877 C 273.973 167.733,273.691 169.522,272.586 170.246 C 271.047 171.254,263.207 170.850,261.088 169.654 C 260.256 169.184,259.025 168.800,258.351 168.800 C 256.582 168.800,248.800 160.755,248.800 158.926 C 248.800 158.720,248.420 158.143,247.955 157.644 L 247.110 156.737 246.055 157.703 C 244.235 159.370,237.776 161.310,234.330 161.225 C 233.302 161.200,232.346 161.364,232.207 161.589 C 232.067 161.815,231.279 162.000,230.456 162.000 C 229.633 162.000,228.789 162.152,228.580 162.337 C 228.371 162.522,227.134 162.902,225.832 163.181 C 223.650 163.648,223.209 163.944,220.224 166.944 C 215.644 171.547,211.743 174.601,209.193 175.580 C 207.987 176.043,206.640 176.586,206.200 176.785 C 203.775 177.887,200.121 178.395,197.774 177.958 C 194.537 177.355,189.562 177.671,188.195 178.567 C 187.419 179.075,186.526 179.232,184.965 179.135 C 183.502 179.043,182.746 179.161,182.616 179.500 C 182.511 179.775,182.231 180.000,181.993 180.000 C 181.756 180.000,180.583 180.626,179.388 181.391 C 177.124 182.839,175.492 183.437,174.300 183.256 C 173.915 183.198,173.600 183.341,173.600 183.575 C 173.600 183.809,173.251 184.000,172.824 184.000 C 172.397 184.000,171.936 184.180,171.800 184.400 C 171.078 185.567,167.319 184.832,166.179 183.300 C 165.565 182.475,164.476 181.198,163.759 180.461 C 162.506 179.174,160.400 175.412,160.400 174.460 C 160.400 174.207,160.220 174.000,160.000 174.000 C 159.780 174.000,159.600 173.726,159.600 173.392 C 159.600 173.058,159.150 172.071,158.600 171.200 C 158.050 170.329,157.600 169.528,157.600 169.420 C 157.600 169.313,156.827 168.004,155.883 166.512 C 154.938 165.021,153.839 163.165,153.440 162.389 C 152.219 160.017,149.665 159.330,147.581 160.813 C 146.953 161.261,145.475 162.053,144.297 162.574 C 140.795 164.123,137.600 167.836,137.600 170.357 C 137.600 170.581,137.060 171.681,136.400 172.800 C 135.740 173.919,135.200 174.965,135.200 175.123 C 135.200 177.152,129.351 181.998,126.900 182.000 C 126.222 182.000,126.270 182.594,126.995 183.196 C 129.581 185.342,129.456 187.351,126.671 188.411 C 125.972 188.677,124.637 189.233,123.704 189.647 C 122.712 190.088,121.095 190.400,119.804 190.400 C 117.028 190.400,116.736 191.338,119.300 192.021 C 121.469 192.599,122.083 192.916,122.411 193.627 C 122.557 193.942,122.884 194.603,123.138 195.095 C 124.103 196.963,123.715 198.586,121.792 200.725 C 120.797 201.831,119.624 203.548,119.185 204.540 C 118.085 207.028,115.272 210.513,114.580 210.248 C 114.275 210.131,113.919 210.207,113.789 210.417 C 113.659 210.628,113.919 210.800,114.367 210.800 C 115.973 210.800,117.161 213.894,116.419 216.143 C 115.267 219.632,109.835 219.712,104.721 216.316 C 101.968 214.488,101.554 214.543,99.448 217.017 C 97.686 219.087,93.620 222.000,92.492 222.000 C 92.078 222.000,91.317 222.450,90.800 223.000 C 90.283 223.550,89.700 224.000,89.504 224.000 C 89.307 224.000,88.557 224.450,87.836 225.000 C 87.114 225.550,86.316 226.000,86.062 226.000 C 85.808 226.000,85.600 226.156,85.600 226.347 C 85.600 226.728,83.076 228.500,80.661 229.815 C 79.689 230.345,78.805 231.274,78.261 232.338 C 76.937 234.928,74.892 237.253,71.918 239.550 C 70.428 240.701,68.729 242.308,68.144 243.121 C 67.558 243.935,65.710 245.950,64.036 247.600 C 60.658 250.931,58.842 253.161,58.119 254.866 C 57.855 255.490,57.450 256.000,57.219 256.000 C 56.989 256.000,56.800 256.248,56.800 256.550 C 56.800 257.181,58.505 257.600,61.070 257.600 C 63.261 257.600,63.784 258.575,64.373 263.759 C 64.853 267.987,65.101 268.456,67.737 270.143 C 68.901 270.887,71.194 272.824,72.835 274.448 C 74.475 276.071,76.716 278.060,77.816 278.866 C 78.915 279.672,80.154 280.707,80.569 281.166 C 81.268 281.939,81.753 282.000,87.153 282.000 C 96.756 282.000,100.876 283.207,102.151 286.395 C 102.651 287.644,103.006 288.000,103.754 288.000 C 105.354 288.000,105.640 290.369,104.646 295.400 C 104.104 298.145,101.829 304.630,101.146 305.380 C 100.956 305.589,100.799 306.039,100.798 306.380 C 100.796 306.721,100.526 307.516,100.198 308.146 C 99.869 308.776,99.600 310.141,99.600 311.179 C 99.600 312.217,99.467 313.199,99.305 313.362 C 98.976 313.691,98.947 313.879,98.861 316.324 C 98.827 317.272,98.651 317.955,98.468 317.842 C 98.286 317.729,98.181 318.034,98.235 318.519 C 98.289 319.003,98.348 319.625,98.367 319.900 C 98.385 320.175,98.895 320.406,99.500 320.414 C 100.105 320.421,102.040 320.796,103.800 321.247 C 108.988 322.575,109.065 322.574,113.800 321.002 C 118.988 319.281,122.811 317.559,124.780 316.058 C 126.129 315.030,126.563 314.799,129.400 313.600 C 130.060 313.321,130.960 312.937,131.400 312.747 C 133.470 311.851,137.032 310.800,137.996 310.800 C 138.585 310.800,139.195 310.671,139.353 310.514 C 139.877 309.989,143.375 309.236,145.400 309.211 C 146.500 309.197,149.020 308.920,151.000 308.595 C 155.597 307.839,158.845 307.841,160.662 308.600 C 161.451 308.930,162.695 309.200,163.425 309.200 C 164.155 309.200,164.864 309.380,165.000 309.600 C 165.136 309.820,166.218 310.000,167.404 310.000 C 169.927 310.000,173.505 310.861,175.671 311.990 C 176.512 312.429,177.200 312.625,177.200 312.427 C 177.200 311.466,180.828 310.683,184.180 310.920 C 186.709 311.098,187.646 311.026,187.977 310.628 C 188.237 310.315,189.758 309.994,191.708 309.840 C 193.518 309.697,195.900 309.482,197.000 309.361 C 200.953 308.929,201.901 311.778,199.232 316.071 C 198.123 317.856,198.000 318.373,198.000 321.265 C 198.000 325.027,197.771 325.455,193.419 329.841 C 189.399 333.892,182.254 342.014,181.094 343.851 C 180.130 345.378,179.876 346.350,179.278 350.800 C 179.115 352.010,178.869 353.180,178.731 353.400 C 178.594 353.620,178.277 356.230,178.027 359.200 C 177.439 366.190,177.132 367.219,174.878 369.748 C 168.548 376.854,165.906 380.358,165.190 382.600 C 164.136 385.902,162.737 389.824,162.375 390.495 C 162.169 390.877,162.000 392.017,162.000 393.028 C 162.000 394.323,161.852 394.816,161.500 394.696 C 161.225 394.602,161.056 394.137,161.125 393.663 C 161.194 393.188,161.059 392.800,160.825 392.800 C 160.591 392.800,160.400 393.430,160.400 394.200 C 160.400 395.093,160.578 395.564,160.891 395.500 C 161.930 395.288,161.593 397.283,160.149 399.888 C 157.342 404.949,154.560 407.961,147.899 413.147 C 145.534 414.988,143.600 416.626,143.600 416.788 C 143.600 417.358,137.896 423.200,137.340 423.200 C 136.353 423.200,130.722 427.740,129.568 429.467 C 129.220 429.987,126.098 433.319,122.630 436.870 C 119.162 440.422,116.142 443.704,115.919 444.164 C 115.696 444.624,113.418 446.760,110.857 448.912 C 108.296 451.064,105.010 453.944,103.556 455.312 C 102.101 456.680,100.003 458.595,98.893 459.566 C 96.300 461.836,96.710 462.586,100.322 462.177 C 102.909 461.884,104.841 462.596,107.591 464.857 C 109.280 466.245,110.620 466.308,111.978 465.064 C 114.753 462.521,116.965 462.938,120.200 466.612 C 121.300 467.861,123.555 470.259,125.212 471.941 C 126.869 473.624,128.457 475.463,128.741 476.028 C 129.705 477.944,128.853 487.263,127.476 489.877 C 126.666 491.415,125.127 500.762,125.250 503.400 C 125.261 503.620,125.348 505.600,125.445 507.800 C 125.542 510.000,125.778 512.160,125.970 512.600 C 126.162 513.040,126.607 514.057,126.959 514.860 C 127.312 515.664,127.600 516.963,127.600 517.749 C 127.600 520.733,129.453 523.729,131.130 523.456 C 131.935 523.326,132.655 523.035,132.730 522.809 C 132.805 522.584,133.225 522.400,133.662 522.400 C 134.469 522.400,135.600 521.536,135.600 520.920 C 135.600 520.734,136.230 520.243,137.000 519.828 C 137.770 519.413,138.400 518.961,138.400 518.822 C 138.400 518.684,138.737 518.545,139.148 518.514 C 139.560 518.483,140.396 517.995,141.007 517.429 C 141.617 516.863,142.496 516.403,142.958 516.406 C 144.046 516.413,148.800 513.943,148.800 513.371 C 148.800 513.130,149.031 512.933,149.312 512.933 C 149.991 512.933,152.000 511.604,152.000 511.154 C 152.000 510.959,152.450 510.800,153.000 510.800 C 153.550 510.800,154.000 510.627,154.000 510.415 C 154.000 510.204,154.729 509.834,155.621 509.594 C 156.513 509.354,157.593 508.807,158.021 508.379 C 158.449 507.951,158.908 507.600,159.040 507.600 C 159.171 507.600,159.783 507.060,160.400 506.400 C 161.017 505.740,161.642 505.200,161.789 505.200 C 161.937 505.200,162.308 504.975,162.615 504.700 C 163.824 503.615,164.377 503.200,164.610 503.200 C 164.744 503.200,165.443 502.750,166.164 502.200 C 166.886 501.650,167.819 501.194,168.238 501.187 C 168.657 501.180,169.349 500.910,169.776 500.587 C 170.204 500.264,171.046 500.000,171.649 500.000 C 172.382 500.000,172.828 499.743,172.991 499.228 C 173.126 498.803,173.744 498.344,174.364 498.208 C 174.984 498.072,175.869 497.609,176.329 497.180 C 176.790 496.751,177.353 496.400,177.580 496.400 C 177.808 496.400,178.434 496.017,178.973 495.549 C 179.511 495.081,180.299 494.496,180.723 494.249 C 181.147 494.002,181.952 493.475,182.511 493.078 C 183.070 492.681,183.896 492.328,184.346 492.294 C 184.797 492.260,185.092 492.159,185.002 492.069 C 184.740 491.806,185.763 490.929,186.666 490.643 C 187.122 490.498,187.816 490.024,188.209 489.590 C 188.602 489.155,189.166 488.800,189.462 488.800 C 189.758 488.800,190.000 488.634,190.000 488.432 C 190.000 488.229,190.540 487.945,191.200 487.800 C 191.860 487.655,192.400 487.413,192.400 487.263 C 192.400 487.112,193.075 486.695,193.900 486.337 C 194.725 485.978,195.964 485.145,196.652 484.484 C 197.341 483.824,198.286 483.163,198.752 483.015 C 199.219 482.867,199.600 482.578,199.600 482.373 C 199.600 482.168,199.900 482.000,200.267 482.000 C 200.633 482.000,200.832 481.899,200.708 481.775 C 200.585 481.651,201.410 480.594,202.542 479.424 C 205.507 476.362,207.200 474.376,207.200 473.961 C 207.200 473.763,207.393 473.600,207.629 473.600 C 207.864 473.600,208.308 473.375,208.615 473.100 C 209.231 472.547,209.409 472.405,212.000 470.399 C 212.990 469.633,213.860 468.870,213.933 468.703 C 214.007 468.536,214.392 468.400,214.790 468.400 C 215.223 468.400,215.611 468.009,215.758 467.427 C 215.892 466.891,216.361 466.339,216.801 466.200 C 217.240 466.060,217.600 465.719,217.600 465.441 C 217.600 465.163,218.050 464.694,218.600 464.400 C 219.150 464.106,219.600 463.625,219.600 463.332 C 219.600 463.040,219.870 462.800,220.200 462.800 C 220.530 462.800,220.800 462.648,220.800 462.463 C 220.800 462.278,221.430 461.787,222.200 461.372 C 222.970 460.957,223.600 460.479,223.600 460.309 C 223.600 460.139,223.941 460.000,224.357 460.000 C 224.774 460.000,225.228 459.704,225.367 459.343 C 225.505 458.981,225.728 458.795,225.863 458.929 C 225.997 459.063,226.455 458.729,226.882 458.186 C 227.309 457.644,227.872 457.200,228.133 457.200 C 228.394 457.200,229.066 456.795,229.625 456.300 C 230.869 455.200,231.777 454.605,233.600 453.699 C 234.370 453.316,235.291 452.687,235.647 452.302 C 236.003 451.916,236.633 451.598,237.047 451.596 C 237.461 451.594,238.763 451.144,239.940 450.596 C 241.117 450.048,242.499 449.600,243.011 449.600 C 243.524 449.600,244.204 449.339,244.524 449.019 C 244.843 448.700,245.216 448.550,245.352 448.686 C 245.489 448.822,245.600 448.603,245.600 448.200 C 245.600 447.797,245.705 447.572,245.834 447.700 C 245.962 447.829,247.070 447.589,248.296 447.167 C 249.522 446.745,251.206 446.400,252.039 446.400 C 252.872 446.400,253.664 446.220,253.800 446.000 C 253.936 445.780,254.937 445.600,256.024 445.600 C 257.111 445.600,258.000 445.443,258.000 445.252 C 258.000 444.878,261.361 444.294,263.500 444.295 C 264.215 444.296,264.800 444.129,264.800 443.925 C 264.800 443.720,264.968 443.656,265.172 443.783 C 265.377 443.909,265.665 443.818,265.813 443.579 C 265.960 443.341,266.333 443.242,266.640 443.360 C 266.948 443.478,267.200 443.446,267.201 443.287 C 267.201 443.129,267.960 442.948,268.887 442.884 C 269.814 442.820,270.669 442.620,270.786 442.439 C 270.904 442.258,271.540 442.016,272.200 441.901 C 273.460 441.681,275.717 440.933,276.895 440.346 C 277.277 440.156,277.871 440.000,278.214 440.000 C 278.558 440.000,279.348 439.737,279.969 439.416 C 280.590 439.095,281.764 438.787,282.577 438.732 C 283.391 438.678,284.144 438.490,284.252 438.316 C 284.359 438.142,284.887 438.000,285.424 438.000 C 285.961 438.000,286.400 437.862,286.400 437.694 C 286.400 437.313,290.418 435.815,291.100 435.942 C 291.375 435.993,291.600 435.871,291.600 435.670 C 291.600 435.468,292.398 435.080,293.374 434.807 C 294.350 434.534,295.245 434.061,295.362 433.755 C 295.480 433.447,296.126 433.200,296.811 433.200 C 297.533 433.200,297.944 433.034,297.800 432.800 C 297.645 432.549,298.507 432.400,300.110 432.400 C 301.516 432.400,302.786 432.280,302.933 432.134 C 303.079 431.988,303.669 431.818,304.243 431.757 C 305.573 431.615,305.588 431.597,305.876 429.750 C 306.009 428.897,306.451 427.722,306.859 427.138 C 307.266 426.554,307.600 425.699,307.600 425.238 C 307.600 424.777,307.784 424.400,308.008 424.400 C 308.232 424.400,308.335 423.953,308.235 423.407 C 308.136 422.860,308.223 422.309,308.428 422.183 C 308.632 422.056,308.800 421.511,308.800 420.971 C 308.800 420.431,308.968 419.677,309.174 419.295 C 310.202 417.387,310.800 415.785,310.800 414.939 C 310.800 414.422,310.980 414.000,311.200 414.000 C 311.420 414.000,311.600 413.640,311.600 413.200 C 311.600 412.760,311.780 412.400,312.000 412.400 C 312.220 412.400,312.400 412.062,312.400 411.649 C 312.400 410.680,313.517 408.000,313.920 408.000 C 314.090 408.000,314.260 407.598,314.297 407.106 C 314.334 406.614,314.542 406.153,314.760 406.080 C 314.977 406.008,315.063 405.708,314.950 405.415 C 314.838 405.121,314.938 404.762,315.173 404.617 C 315.408 404.472,315.600 404.093,315.600 403.776 C 315.600 403.170,315.886 402.791,318.295 400.200 C 319.113 399.320,320.398 397.880,321.150 397.000 C 321.902 396.120,322.671 395.445,322.859 395.500 C 323.047 395.555,323.200 395.317,323.200 394.971 C 323.200 394.253,324.134 393.200,324.771 393.200 C 325.007 393.200,325.200 393.021,325.200 392.803 C 325.200 392.585,326.910 390.680,329.000 388.569 C 331.090 386.459,332.800 384.661,332.800 384.574 C 332.800 384.250,338.509 378.800,338.847 378.800 C 339.041 378.800,339.200 378.519,339.200 378.176 C 339.200 377.833,339.369 377.657,339.575 377.785 C 339.782 377.912,340.097 377.758,340.275 377.441 C 340.454 377.124,340.860 376.805,341.179 376.732 C 341.497 376.660,342.145 376.198,342.618 375.707 C 343.092 375.215,343.597 374.930,343.740 375.073 C 343.883 375.216,344.000 375.055,344.000 374.716 C 344.000 374.376,344.270 373.874,344.600 373.600 C 344.930 373.326,345.200 372.753,345.200 372.327 C 345.200 371.901,345.343 371.641,345.517 371.749 C 345.691 371.856,345.862 371.577,345.895 371.128 C 345.929 370.678,346.266 369.970,346.643 369.553 C 347.020 369.136,347.209 368.676,347.063 368.530 C 346.918 368.384,347.074 367.960,347.411 367.588 C 347.748 367.216,348.063 366.346,348.112 365.656 C 348.160 364.966,348.309 364.401,348.443 364.401 C 348.577 364.400,349.162 363.483,349.743 362.363 C 350.815 360.298,351.129 358.400,350.400 358.400 C 350.180 358.400,350.021 358.265,350.047 358.100 C 350.176 357.285,349.914 356.995,349.002 356.942 C 348.454 356.911,348.105 357.046,348.226 357.242 C 348.558 357.779,347.833 357.673,347.256 357.100 C 346.853 356.699,346.801 356.727,346.996 357.241 C 347.158 357.665,346.754 358.308,345.806 359.141 C 344.448 360.334,342.800 360.825,342.800 360.037 C 342.800 359.838,342.452 359.766,342.026 359.877 C 341.102 360.119,338.400 359.293,338.400 358.769 C 338.400 358.566,338.121 358.400,337.781 358.400 C 337.252 358.400,336.381 357.618,334.874 355.790 C 333.949 354.667,333.344 353.310,333.413 352.510 C 333.455 352.021,333.359 351.702,333.199 351.800 C 332.888 351.993,332.409 348.723,332.403 346.367 C 332.397 343.798,330.691 344.052,330.258 346.685 C 329.776 349.623,327.611 352.045,326.642 350.730 C 326.399 350.400,326.020 350.190,325.800 350.263 C 325.580 350.337,324.809 350.037,324.087 349.597 L 322.774 348.796 322.841 344.047 C 322.877 341.435,322.783 339.095,322.630 338.849 C 322.241 338.219,321.600 338.289,321.600 338.962 C 321.600 339.735,319.090 344.110,318.050 345.150 C 316.090 347.110,312.400 345.669,312.400 342.944 C 312.400 342.619,312.220 342.464,312.000 342.600 C 311.758 342.749,311.600 342.204,311.600 341.224 C 311.600 340.331,311.780 339.600,312.000 339.600 C 312.233 339.600,312.400 338.275,312.400 336.424 C 312.400 334.677,312.220 333.136,312.000 333.000 C 311.773 332.860,311.600 330.863,311.600 328.376 C 311.600 325.725,311.442 324.000,311.200 324.000 C 310.951 324.000,310.800 321.667,310.800 317.800 C 310.800 314.390,310.950 311.600,311.132 311.600 C 311.315 311.600,311.713 311.105,312.016 310.500 C 312.686 309.162,314.708 307.278,315.800 306.973 C 316.240 306.850,316.960 306.595,317.400 306.406 C 318.199 306.062,320.245 305.487,321.000 305.393 C 321.220 305.365,322.097 305.041,322.949 304.672 C 323.801 304.302,324.656 304.000,324.849 304.000 C 325.042 304.000,325.200 303.842,325.200 303.650 C 325.200 303.457,325.700 303.200,326.312 303.078 C 327.463 302.847,330.000 300.712,330.000 299.973 C 330.000 299.742,330.180 299.664,330.400 299.800 C 330.620 299.936,330.800 299.677,330.800 299.224 C 330.800 298.771,330.993 298.400,331.229 298.400 C 331.791 298.400,331.542 296.350,330.896 295.668 C 330.619 295.375,330.512 294.942,330.658 294.706 C 330.810 294.460,330.737 294.392,330.488 294.546 C 329.871 294.927,328.052 292.396,327.771 290.767 C 327.543 289.448,327.095 288.163,326.353 286.705 C 326.159 286.323,326.000 285.659,326.000 285.229 C 326.000 284.799,325.865 284.364,325.700 284.262 C 325.136 283.913,325.718 271.802,326.376 270.200 C 326.556 269.760,327.029 268.590,327.426 267.600 C 327.823 266.610,328.520 265.380,328.974 264.868 C 329.428 264.355,329.746 263.815,329.680 263.668 C 329.614 263.520,330.019 262.825,330.580 262.121 C 331.141 261.418,331.600 260.653,331.600 260.421 C 331.600 260.190,331.827 260.000,332.105 260.000 C 332.383 260.000,332.948 259.550,333.361 259.000 C 333.774 258.450,334.345 258.000,334.629 258.000 C 334.913 258.000,335.261 257.637,335.402 257.194 C 335.543 256.751,335.822 256.490,336.024 256.615 C 336.225 256.739,336.617 256.648,336.895 256.413 C 339.345 254.337,339.700 254.184,341.639 254.369 C 341.990 254.402,342.507 254.153,342.788 253.815 C 343.068 253.477,343.805 253.200,344.425 253.200 C 345.045 253.200,345.664 253.020,345.800 252.800 C 345.936 252.580,346.532 252.394,347.124 252.387 C 347.716 252.380,348.549 252.110,348.976 251.787 C 349.404 251.464,350.154 251.200,350.643 251.200 C 351.133 251.200,351.597 251.010,351.674 250.778 C 351.751 250.546,352.081 250.303,352.407 250.239 C 352.733 250.174,353.270 250.008,353.600 249.870 C 354.496 249.496,361.744 248.845,362.162 249.102 C 362.361 249.224,362.395 249.116,362.238 248.862 C 361.962 248.415,365.174 248.201,369.300 248.392 C 370.125 248.430,370.800 248.293,370.800 248.088 C 370.800 247.883,372.269 247.592,374.065 247.443 C 376.592 247.232,377.818 246.903,379.490 245.985 C 380.869 245.228,382.228 244.800,383.251 244.800 C 386.407 244.800,387.168 243.429,385.616 240.534 C 385.185 239.730,384.943 238.893,385.078 238.674 C 385.216 238.451,385.121 238.401,384.864 238.561 C 384.591 238.729,384.223 238.450,383.961 237.873 C 383.307 236.439,383.999 235.495,386.684 234.160 C 387.958 233.526,389.090 232.903,389.200 232.775 C 389.527 232.393,390.969 231.866,391.400 231.970 C 391.620 232.023,391.674 231.940,391.519 231.786 C 391.067 231.333,394.305 229.194,395.412 229.214 C 395.525 229.216,396.072 228.764,396.627 228.209 C 397.182 227.654,398.089 227.200,398.642 227.200 C 399.210 227.200,399.540 227.026,399.400 226.800 C 399.264 226.580,399.343 226.400,399.576 226.400 C 399.809 226.400,399.988 225.725,399.973 224.900 C 399.948 223.528,399.909 223.477,399.512 224.300 C 399.068 225.220,398.400 225.520,398.400 224.800 C 398.400 224.580,398.040 224.400,397.600 224.400 C 397.160 224.400,396.800 224.580,396.800 224.800 C 396.800 225.020,396.651 225.200,396.469 225.200 C 396.287 225.200,396.218 224.657,396.315 223.994 C 396.502 222.724,395.749 220.400,395.151 220.400 C 394.958 220.400,394.800 219.860,394.800 219.200 C 394.800 218.540,394.661 218.000,394.491 218.000 C 394.028 218.000,392.284 214.347,391.150 211.000 C 390.852 210.120,390.291 209.109,389.904 208.753 C 389.517 208.397,389.200 207.847,389.200 207.531 C 389.200 207.214,388.750 206.345,388.200 205.600 C 387.650 204.855,387.200 204.010,387.200 203.722 C 387.200 203.435,387.020 203.200,386.800 203.200 C 386.580 203.200,386.400 202.851,386.400 202.424 C 386.400 201.997,386.208 201.528,385.973 201.383 C 385.738 201.238,385.634 200.889,385.741 200.608 C 385.849 200.327,385.773 199.933,385.571 199.731 C 385.370 199.530,385.165 198.891,385.117 198.311 C 385.070 197.732,384.907 197.334,384.757 197.427 C 384.327 197.693,384.000 196.488,384.000 194.634 C 384.000 193.699,383.902 192.836,383.783 192.717 C 383.664 192.597,383.498 189.372,383.415 185.550 C 383.264 178.671,383.210 178.068,382.616 176.695 C 382.447 176.306,382.501 175.760,382.737 175.476 C 382.971 175.194,383.161 174.611,383.159 174.182 C 383.144 170.444,383.304 169.575,384.133 168.903 C 384.610 168.516,385.255 167.705,385.568 167.100 C 385.880 166.495,386.375 166.000,386.668 166.000 C 386.960 166.000,387.200 165.820,387.200 165.600 C 387.200 165.380,387.516 165.200,387.903 165.200 C 388.497 165.200,389.799 163.977,391.639 161.691 C 391.864 161.411,392.200 161.277,392.387 161.392 C 392.573 161.507,392.627 161.226,392.507 160.767 C 392.229 159.702,391.363 159.366,390.578 160.018 C 390.115 160.403,389.854 160.414,389.503 160.063 C 388.814 159.374,388.400 159.501,388.400 160.400 C 388.400 160.933,388.133 161.200,387.600 161.200 C 387.160 161.200,386.800 161.347,386.800 161.526 C 386.800 161.706,386.081 162.257,385.202 162.751 C 383.628 163.636,382.560 163.597,383.024 162.672 C 383.154 162.413,382.903 162.605,382.466 163.100 C 381.760 163.900,381.280 164.003,378.136 164.030 L 374.600 164.060 372.980 166.130 C 371.177 168.434,370.222 168.774,368.298 167.798 C 367.584 167.436,366.055 167.038,364.900 166.914 C 363.745 166.790,362.800 166.554,362.800 166.391 C 362.800 166.227,362.442 166.000,362.005 165.885 C 361.115 165.653,360.400 164.116,360.400 162.436 C 360.400 161.179,359.263 159.957,357.909 159.759 C 357.409 159.686,356.640 159.544,356.200 159.444 C 355.760 159.343,354.984 159.247,354.476 159.231 C 353.968 159.214,353.649 159.045,353.766 158.855 C 353.884 158.665,352.949 158.399,351.690 158.264 C 350.430 158.128,348.545 157.912,347.500 157.782 C 345.294 157.507,344.720 158.959,346.472 160.378 C 347.919 161.549,345.472 165.939,343.281 166.104 C 342.797 166.140,342.400 166.321,342.400 166.506 C 342.400 167.203,339.527 168.000,337.013 168.000 C 335.538 168.000,334.400 168.174,334.400 168.400 C 334.400 168.620,334.040 168.800,333.600 168.800 C 333.160 168.800,332.800 169.003,332.800 169.251 C 332.800 169.552,332.124 169.637,330.766 169.506 C 329.580 169.392,328.955 169.452,329.266 169.649 C 329.644 169.889,329.521 169.990,328.844 169.994 C 328.318 169.997,327.688 170.241,327.444 170.536 C 326.422 171.770,323.525 172.419,321.600 171.846 L 319.800 171.309 319.858 169.416 C 319.911 167.675,320.987 164.783,321.700 164.467 C 321.865 164.393,322.000 163.975,322.000 163.538 C 322.000 163.101,322.270 162.473,322.600 162.143 C 322.930 161.813,323.200 161.196,323.200 160.771 C 323.200 160.347,323.380 160.000,323.600 160.000 C 323.820 160.000,324.000 159.469,324.000 158.820 C 324.000 156.482,320.465 154.829,315.813 154.991 C 314.147 155.049,312.685 154.937,312.564 154.742 C 312.443 154.547,312.177 154.491,311.972 154.617 C 311.493 154.913,311.493 154.188,311.973 153.295 C 312.178 152.913,312.659 151.124,313.043 149.320 C 313.428 147.516,313.894 146.135,314.081 146.250 C 314.554 146.543,314.290 145.466,313.800 145.106 C 313.286 144.729,312.423 144.761,311.341 145.197 " stroke="none" fill="#c3bbdb" fill-rule="evenodd"></path><path id="path1" d="M143.668 1.807 C 142.715 2.793,141.725 3.615,141.468 3.633 C 140.886 3.674,138.612 3.661,133.200 3.588 C 128.433 3.523,126.568 4.071,125.386 5.881 C 124.984 6.496,124.091 7.550,123.400 8.222 C 122.710 8.895,122.028 9.750,121.885 10.122 C 121.742 10.495,121.439 10.800,121.213 10.800 C 120.986 10.800,120.800 11.160,120.800 11.600 C 120.800 12.040,120.620 12.400,120.400 12.400 C 120.180 12.400,120.000 12.749,120.000 13.176 C 120.000 13.603,120.180 14.064,120.400 14.200 C 121.525 14.895,120.761 16.662,118.407 18.813 C 116.603 20.462,116.012 21.271,116.007 22.100 C 116.003 22.705,115.864 23.200,115.698 23.200 C 115.531 23.200,115.171 23.740,114.898 24.400 C 114.624 25.060,114.176 26.140,113.902 26.800 C 113.629 27.460,113.260 28.000,113.083 28.000 C 112.906 28.000,112.365 28.426,111.881 28.948 C 111.396 29.469,110.415 30.023,109.700 30.179 C 108.985 30.336,108.400 30.629,108.400 30.832 C 108.400 31.034,107.050 31.200,105.400 31.200 L 102.400 31.200 100.100 33.389 C 96.337 36.970,95.577 37.600,95.018 37.600 C 94.344 37.600,94.000 38.489,94.000 40.233 C 94.000 41.424,93.872 41.600,93.000 41.600 C 92.450 41.600,92.000 41.751,92.000 41.936 C 92.000 42.120,91.547 42.478,90.994 42.730 C 90.441 42.982,89.782 43.641,89.530 44.194 C 89.278 44.747,88.740 45.200,88.336 45.200 C 87.895 45.200,87.600 45.488,87.600 45.917 C 87.600 46.311,86.984 47.286,86.231 48.084 C 83.871 50.587,83.601 53.188,85.700 53.197 C 86.085 53.199,86.400 53.380,86.400 53.600 C 86.400 53.820,86.245 54.000,86.055 54.000 C 84.847 54.000,83.534 56.223,83.816 57.791 C 83.974 58.676,84.126 59.790,84.152 60.267 C 84.178 60.744,84.335 61.269,84.500 61.433 C 85.123 62.056,84.840 67.099,84.168 67.357 C 83.626 67.565,83.574 68.153,83.803 71.500 C 83.980 74.094,83.908 76.003,83.587 77.200 C 83.322 78.190,82.991 80.080,82.853 81.400 C 82.577 84.023,81.782 85.600,80.737 85.600 C 80.097 85.600,79.200 88.369,79.200 90.343 C 79.200 90.730,78.936 91.396,78.613 91.824 C 78.202 92.366,78.022 93.662,78.013 96.129 C 78.004 98.639,77.835 99.822,77.429 100.229 C 76.776 100.881,73.379 101.013,73.000 100.400 C 72.864 100.180,71.773 100.000,70.576 100.000 L 68.400 100.000 68.400 102.967 C 68.400 104.980,68.561 105.990,68.900 106.108 C 69.267 106.237,69.215 106.492,68.705 107.068 C 68.323 107.499,67.824 108.380,67.597 109.026 C 67.255 110.000,66.776 110.328,64.792 110.947 C 63.477 111.358,62.400 111.853,62.400 112.047 C 62.400 112.241,62.055 112.400,61.633 112.400 C 61.212 112.400,60.805 112.584,60.731 112.808 C 60.656 113.033,58.892 113.348,56.811 113.508 C 53.130 113.792,53.012 113.832,52.414 115.000 C 52.076 115.660,51.665 116.260,51.500 116.333 C 51.028 116.543,51.150 119.522,51.642 119.826 C 51.932 120.005,51.759 120.421,51.142 121.031 C 49.441 122.713,49.200 123.150,49.200 124.560 C 49.200 125.326,49.020 126.064,48.800 126.200 C 48.114 126.624,48.362 127.665,49.200 127.884 C 49.640 127.999,50.000 128.252,50.000 128.447 C 50.000 128.641,50.630 128.800,51.400 128.800 C 52.170 128.800,52.800 128.980,52.800 129.200 C 52.800 129.420,53.366 129.600,54.059 129.600 C 54.889 129.600,55.877 130.053,56.959 130.929 C 57.861 131.661,58.960 132.393,59.400 132.558 C 60.153 132.840,60.159 132.888,59.500 133.373 C 59.115 133.656,58.800 134.093,58.800 134.344 C 58.800 134.595,58.440 135.205,58.000 135.700 C 55.383 138.644,54.926 139.686,55.525 141.343 C 55.786 142.065,56.000 142.931,56.000 143.267 C 56.000 144.453,57.298 146.457,58.318 146.845 C 58.886 147.061,59.597 147.589,59.898 148.019 C 60.199 148.448,60.789 148.800,61.209 148.800 C 63.212 148.800,65.511 152.774,64.118 153.830 C 63.271 154.473,61.751 154.568,61.400 154.000 C 61.264 153.780,60.263 153.600,59.176 153.600 C 58.089 153.600,57.200 153.420,57.200 153.200 C 57.200 152.980,56.763 152.800,56.229 152.800 C 55.247 152.800,54.000 151.875,54.000 151.148 C 54.000 150.931,53.825 150.861,53.611 150.993 C 53.397 151.126,52.907 150.866,52.522 150.417 C 51.618 149.362,46.400 149.177,46.400 150.200 C 46.400 150.530,46.145 150.800,45.833 150.800 C 45.522 150.800,45.207 150.935,45.133 151.100 C 44.896 151.635,42.500 152.800,41.638 152.800 C 41.177 152.800,40.800 152.980,40.800 153.200 C 40.800 153.420,40.271 153.600,39.624 153.600 C 38.977 153.600,38.336 153.780,38.200 154.000 C 38.064 154.220,36.792 154.400,35.372 154.400 C 32.629 154.400,31.656 154.975,31.191 156.871 C 31.076 157.340,30.636 157.921,30.212 158.162 C 27.816 159.526,25.626 162.905,25.606 165.271 C 25.603 165.641,25.349 166.193,25.043 166.500 C 24.737 166.806,24.422 167.385,24.343 167.785 C 24.193 168.552,23.819 168.819,21.700 169.672 C 20.985 169.960,20.400 170.331,20.400 170.498 C 20.400 170.664,20.040 170.800,19.600 170.800 C 19.160 170.800,18.800 170.954,18.800 171.142 C 18.800 171.330,17.497 171.593,15.905 171.727 C 14.313 171.860,12.948 172.156,12.872 172.385 C 12.796 172.613,12.118 172.800,11.367 172.800 C 10.615 172.800,10.000 172.980,10.000 173.200 C 10.000 173.420,9.371 173.600,8.603 173.600 C 7.133 173.600,4.000 174.763,4.000 175.308 C 4.000 175.483,3.489 176.126,2.864 176.737 C 1.887 177.693,1.695 178.256,1.482 180.789 C 1.337 182.525,1.023 183.862,0.718 184.050 C 0.353 184.275,0.160 185.796,0.067 189.185 L -0.067 194.000 1.167 194.000 C 1.845 194.000,2.400 194.180,2.400 194.400 C 2.400 194.620,3.255 194.803,4.300 194.806 C 5.674 194.811,6.034 194.920,5.600 195.200 C 5.086 195.532,5.099 195.589,5.693 195.594 C 6.651 195.602,11.200 200.207,11.200 201.169 C 11.200 201.600,11.380 202.064,11.600 202.200 C 12.255 202.605,12.061 203.342,11.000 204.487 C 9.292 206.328,9.574 208.400,11.532 208.400 C 12.758 208.400,13.172 208.200,13.600 207.400 C 13.894 206.850,14.285 206.400,14.468 206.400 C 14.650 206.400,14.800 206.207,14.800 205.971 C 14.800 205.736,15.057 205.286,15.371 204.971 C 15.686 204.657,16.136 204.400,16.371 204.400 C 16.607 204.400,16.800 204.234,16.800 204.032 C 16.800 203.829,17.352 203.542,18.027 203.394 C 18.702 203.246,19.366 202.827,19.504 202.462 C 19.771 201.754,21.548 199.843,22.204 199.559 C 23.351 199.062,25.600 197.473,25.600 197.160 C 25.600 196.962,25.960 196.800,26.400 196.800 C 26.840 196.800,27.200 196.632,27.200 196.427 C 27.200 196.222,27.605 195.926,28.100 195.770 C 28.595 195.613,29.270 195.184,29.600 194.815 C 29.930 194.446,30.532 194.021,30.938 193.870 C 31.344 193.719,31.770 193.237,31.885 192.798 C 31.999 192.359,32.342 192.000,32.647 192.000 C 32.951 192.000,33.200 191.820,33.200 191.600 C 33.200 191.006,34.373 191.116,35.029 191.771 C 35.343 192.086,35.600 192.606,35.600 192.928 C 35.600 193.250,36.050 193.626,36.600 193.764 C 37.252 193.928,37.600 194.295,37.600 194.820 C 37.600 195.263,37.870 195.729,38.200 195.855 C 38.530 195.982,38.800 196.341,38.800 196.653 C 38.800 196.965,39.880 198.277,41.200 199.568 C 42.520 200.860,43.600 202.083,43.600 202.286 C 43.600 202.489,44.050 203.047,44.600 203.525 C 45.150 204.003,45.600 204.773,45.600 205.235 C 45.600 205.726,45.918 206.158,46.366 206.275 C 46.787 206.385,47.241 206.909,47.374 207.438 C 47.507 207.967,47.792 208.400,48.008 208.400 C 48.223 208.400,48.400 208.748,48.400 209.173 C 48.400 209.598,48.760 210.060,49.200 210.200 C 49.640 210.340,50.000 210.802,50.000 211.227 C 50.000 212.516,53.962 212.338,55.128 210.997 C 55.608 210.445,56.000 209.815,56.000 209.597 C 56.000 209.379,56.630 209.200,57.400 209.200 C 58.170 209.200,58.800 209.045,58.800 208.856 C 58.800 208.667,59.813 208.407,61.052 208.280 C 63.469 208.030,66.400 208.915,66.400 209.894 C 66.400 210.172,66.580 210.400,66.800 210.400 C 67.020 210.400,67.200 210.769,67.200 211.221 C 67.200 212.276,71.363 212.256,71.449 211.200 C 71.527 210.258,72.542 208.000,72.888 208.000 C 73.059 208.000,73.200 207.640,73.200 207.200 C 73.200 206.760,73.367 206.400,73.571 206.400 C 73.775 206.400,74.070 205.377,74.226 204.127 C 74.421 202.572,74.795 201.569,75.410 200.954 C 75.904 200.460,76.553 199.503,76.852 198.828 C 77.151 198.152,77.531 197.600,77.698 197.600 C 77.864 197.600,78.000 197.240,78.000 196.800 C 78.000 196.360,78.180 196.000,78.400 196.000 C 78.620 196.000,78.800 195.100,78.800 194.000 L 78.800 192.000 81.900 191.953 C 83.605 191.927,85.206 191.930,85.458 191.961 C 86.093 192.037,86.800 189.825,86.800 187.764 C 86.800 186.820,86.980 185.936,87.200 185.800 C 87.420 185.664,87.600 185.084,87.600 184.511 C 87.600 183.310,88.793 180.400,89.286 180.400 C 89.817 180.400,92.952 178.267,93.500 177.533 C 93.776 177.165,94.541 176.745,95.200 176.600 C 95.860 176.455,96.400 176.171,96.400 175.968 C 96.400 175.766,97.210 175.600,98.200 175.600 C 99.190 175.600,100.000 175.420,100.000 175.200 C 100.000 174.980,100.270 174.800,100.600 174.800 C 100.930 174.800,101.200 174.628,101.200 174.418 C 101.200 174.208,101.875 173.928,102.700 173.796 C 103.525 173.664,104.513 173.386,104.895 173.178 C 105.277 172.970,105.950 172.800,106.390 172.800 C 107.296 172.800,108.800 171.656,108.800 170.967 C 108.800 170.717,109.250 170.174,109.800 169.761 C 110.350 169.348,110.800 168.881,110.800 168.724 C 110.800 168.009,114.986 164.343,116.045 164.131 C 116.689 164.002,117.314 163.740,117.432 163.548 C 117.550 163.357,118.231 163.200,118.944 163.200 C 119.657 163.200,120.411 163.038,120.620 162.840 C 120.829 162.643,122.305 162.354,123.900 162.200 L 126.800 161.919 126.800 164.352 C 126.800 166.633,126.864 166.801,127.832 167.044 C 129.157 167.376,133.359 166.892,133.533 166.386 C 133.607 166.174,133.894 166.000,134.171 166.000 C 134.449 166.000,135.002 165.640,135.400 165.200 C 135.865 164.687,136.632 164.400,137.542 164.400 C 138.645 164.400,138.853 164.507,138.480 164.880 C 138.216 165.144,138.000 165.684,138.000 166.080 C 138.000 166.476,137.820 166.800,137.600 166.800 C 137.380 166.800,137.200 167.102,137.200 167.472 C 137.200 168.389,136.304 170.800,135.963 170.800 C 135.811 170.800,135.574 171.250,135.436 171.800 C 135.298 172.350,135.008 172.800,134.792 172.800 C 134.577 172.800,134.400 173.160,134.400 173.600 C 134.400 174.040,134.240 174.400,134.043 174.400 C 133.847 174.400,133.574 174.850,133.436 175.400 C 133.298 175.950,133.008 176.400,132.792 176.400 C 132.577 176.400,132.400 176.582,132.400 176.803 C 132.400 177.633,130.243 179.600,129.334 179.600 C 128.820 179.600,128.400 179.780,128.400 180.000 C 128.400 180.220,127.879 180.400,127.243 180.400 C 125.951 180.400,125.600 180.962,125.600 183.033 C 125.600 183.858,125.798 184.401,126.100 184.403 C 126.914 184.408,127.550 186.158,126.943 186.724 C 126.663 186.986,126.246 187.200,126.017 187.200 C 125.788 187.200,125.600 187.380,125.600 187.600 C 125.600 187.820,125.276 188.000,124.880 188.000 C 124.484 188.000,123.946 188.214,123.683 188.477 C 123.415 188.745,121.629 189.029,119.603 189.126 L 116.000 189.298 116.000 190.649 C 116.000 191.583,116.185 192.000,116.600 192.000 C 116.930 192.000,117.200 192.151,117.200 192.336 C 117.200 192.760,119.013 193.600,119.930 193.600 C 120.817 193.600,122.000 194.975,122.000 196.005 C 122.000 196.442,122.180 196.800,122.400 196.800 C 123.417 196.800,122.761 197.821,119.800 200.850 C 119.140 201.525,118.600 202.225,118.600 202.406 C 118.600 202.586,118.465 202.868,118.300 203.033 C 118.135 203.198,118.000 203.753,118.000 204.267 C 118.000 204.780,117.820 205.200,117.600 205.200 C 117.380 205.200,117.200 205.388,117.200 205.617 C 117.200 205.846,116.846 206.413,116.414 206.877 C 115.981 207.341,115.722 207.874,115.837 208.061 C 115.953 208.247,115.737 208.400,115.357 208.400 C 114.977 208.400,114.779 208.512,114.916 208.650 C 115.054 208.787,114.798 209.197,114.348 209.562 L 113.530 210.224 114.375 210.288 C 115.386 210.364,117.979 207.266,119.185 204.540 C 119.624 203.548,120.797 201.831,121.792 200.725 C 123.715 198.586,124.103 196.963,123.138 195.095 C 122.884 194.603,122.557 193.942,122.411 193.627 C 122.083 192.916,121.469 192.599,119.300 192.021 C 116.736 191.338,117.028 190.400,119.804 190.400 C 121.095 190.400,122.712 190.088,123.704 189.647 C 124.637 189.233,125.972 188.677,126.671 188.411 C 129.456 187.351,129.581 185.342,126.995 183.196 C 126.270 182.594,126.222 182.000,126.900 182.000 C 129.351 181.998,135.200 177.152,135.200 175.123 C 135.200 174.965,135.740 173.919,136.400 172.800 C 137.060 171.681,137.600 170.581,137.600 170.357 C 137.600 167.836,140.795 164.123,144.297 162.574 C 145.475 162.053,146.953 161.261,147.581 160.813 C 149.665 159.330,152.219 160.017,153.440 162.389 C 153.839 163.165,154.938 165.021,155.883 166.512 C 156.827 168.004,157.600 169.313,157.600 169.420 C 157.600 169.528,158.050 170.329,158.600 171.200 C 159.150 172.071,159.600 173.058,159.600 173.392 C 159.600 173.726,159.780 174.000,160.000 174.000 C 160.220 174.000,160.400 174.207,160.400 174.460 C 160.400 175.412,162.506 179.174,163.759 180.461 C 164.476 181.198,165.565 182.475,166.179 183.300 C 167.319 184.832,171.078 185.567,171.800 184.400 C 171.936 184.180,172.397 184.000,172.824 184.000 C 173.251 184.000,173.600 183.809,173.600 183.575 C 173.600 183.341,173.915 183.198,174.300 183.256 C 175.492 183.437,177.124 182.839,179.388 181.391 C 180.583 180.626,181.756 180.000,181.993 180.000 C 182.231 180.000,182.511 179.775,182.616 179.500 C 182.746 179.161,183.502 179.043,184.965 179.135 C 186.526 179.232,187.419 179.075,188.195 178.567 C 189.562 177.671,194.537 177.355,197.774 177.958 C 200.121 178.395,203.775 177.887,206.200 176.785 C 206.640 176.586,207.987 176.043,209.193 175.580 C 211.743 174.601,215.644 171.547,220.224 166.944 C 223.209 163.944,223.650 163.648,225.832 163.181 C 227.134 162.902,228.371 162.522,228.580 162.337 C 228.789 162.152,229.633 162.000,230.456 162.000 C 231.279 162.000,232.067 161.815,232.207 161.589 C 232.346 161.364,233.302 161.200,234.330 161.225 C 237.776 161.310,244.235 159.370,246.055 157.703 L 247.110 156.737 247.955 157.644 C 248.420 158.143,248.800 158.720,248.800 158.926 C 248.800 160.755,256.582 168.800,258.351 168.800 C 259.025 168.800,260.256 169.184,261.088 169.654 C 263.207 170.850,271.047 171.254,272.586 170.246 C 273.691 169.522,273.973 167.733,273.117 166.877 C 272.313 166.073,273.470 165.381,277.600 164.195 C 281.171 163.169,284.732 161.846,287.337 160.578 C 288.235 160.141,288.897 160.115,290.485 160.456 C 291.592 160.693,293.645 160.814,295.048 160.725 C 296.499 160.632,297.600 160.725,297.600 160.940 C 297.600 161.561,303.595 160.899,306.000 160.012 C 308.338 159.150,309.190 158.358,309.215 157.024 C 309.224 156.571,309.316 154.940,309.420 153.400 C 309.954 145.487,309.879 145.806,311.341 145.171 C 311.915 144.921,311.203 144.879,309.200 145.043 C 307.550 145.178,306.020 145.423,305.800 145.587 C 304.834 146.306,303.712 146.272,303.235 145.508 C 302.498 144.328,303.682 142.000,305.019 142.000 C 305.558 142.000,306.000 141.841,306.000 141.647 C 306.000 141.452,306.360 141.199,306.800 141.084 C 308.073 140.751,307.723 138.652,306.100 136.887 C 305.825 136.588,305.600 135.951,305.600 135.471 C 305.599 134.992,305.149 134.077,304.600 133.438 C 303.630 132.311,303.432 131.581,303.584 129.700 C 303.624 129.205,303.493 128.800,303.293 128.800 C 303.092 128.800,302.690 128.080,302.400 127.200 C 302.110 126.320,301.733 125.600,301.563 125.600 C 301.393 125.600,301.126 125.195,300.970 124.700 C 300.813 124.205,300.351 123.509,299.943 123.153 C 299.534 122.797,299.200 122.207,299.200 121.841 C 299.200 121.474,298.930 121.071,298.600 120.945 C 298.270 120.818,298.000 120.462,298.000 120.153 C 298.000 119.844,296.560 118.155,294.800 116.400 C 293.040 114.645,291.600 113.050,291.600 112.856 C 291.600 112.662,290.880 111.805,290.000 110.952 C 289.121 110.098,288.401 109.175,288.400 108.900 C 288.400 108.625,288.040 108.400,287.600 108.400 C 287.160 108.400,286.800 108.228,286.800 108.018 C 286.800 107.808,286.350 107.186,285.800 106.636 C 285.250 106.086,284.800 105.448,284.800 105.218 C 284.800 104.988,284.642 104.800,284.449 104.800 C 284.256 104.800,284.019 103.146,283.922 101.124 C 283.811 98.790,283.574 97.391,283.273 97.291 C 283.013 97.204,282.800 96.878,282.800 96.567 C 282.800 96.255,282.632 96.000,282.427 96.000 C 282.222 96.000,281.926 95.595,281.770 95.100 C 281.613 94.605,281.151 93.909,280.743 93.553 C 280.334 93.197,280.000 92.724,280.000 92.502 C 280.000 92.280,279.730 91.874,279.400 91.600 C 279.070 91.326,278.800 90.776,278.800 90.378 C 278.800 89.980,278.449 89.543,278.020 89.406 C 277.592 89.270,277.130 88.808,276.994 88.380 C 276.857 87.951,276.398 87.600,275.973 87.600 C 275.387 87.600,275.200 87.320,275.200 86.443 C 275.200 85.204,274.174 84.466,273.453 85.187 C 273.226 85.414,272.253 85.600,271.291 85.600 C 270.270 85.600,269.293 85.850,268.943 86.200 C 268.613 86.530,267.906 86.800,267.371 86.800 C 266.837 86.800,266.395 87.025,266.388 87.300 C 266.381 87.577,266.194 87.488,265.968 87.100 C 265.744 86.715,265.299 86.400,264.980 86.400 C 264.661 86.400,264.400 86.076,264.400 85.680 C 264.400 83.982,261.332 83.207,260.916 84.800 C 260.801 85.240,260.458 85.600,260.153 85.600 C 259.849 85.600,259.600 85.777,259.600 85.992 C 259.600 86.208,259.150 86.498,258.600 86.636 C 258.050 86.774,257.600 87.047,257.600 87.243 C 257.600 87.440,257.240 87.600,256.800 87.600 C 256.360 87.600,256.000 87.765,256.000 87.968 C 256.000 88.403,252.977 89.206,250.300 89.482 C 249.255 89.589,248.400 89.840,248.400 90.039 C 248.400 90.237,247.050 90.400,245.400 90.400 C 243.750 90.400,242.400 90.232,242.400 90.027 C 242.400 89.822,242.003 89.528,241.519 89.374 C 240.452 89.036,239.545 88.188,239.886 87.848 C 240.022 87.711,239.833 87.600,239.467 87.600 C 239.100 87.600,238.800 87.414,238.800 87.187 C 238.800 86.666,236.336 84.212,235.805 84.205 C 235.588 84.202,235.174 83.705,234.884 83.100 C 234.594 82.495,234.116 82.000,233.823 82.000 C 233.529 82.000,233.171 81.372,233.027 80.605 C 232.881 79.827,232.419 79.024,231.983 78.791 C 231.476 78.520,231.200 77.954,231.200 77.186 C 231.200 76.534,231.020 76.000,230.800 76.000 C 230.578 76.000,230.400 74.933,230.400 73.600 C 230.400 71.307,230.356 71.200,229.400 71.200 C 228.850 71.200,228.400 71.020,228.400 70.800 C 228.400 70.580,228.207 70.400,227.971 70.400 C 227.418 70.400,226.400 69.382,226.400 68.829 C 226.400 68.593,226.234 68.400,226.032 68.400 C 225.829 68.400,225.535 67.815,225.378 67.100 C 225.221 66.386,224.783 65.531,224.404 65.200 C 224.025 64.870,223.582 64.150,223.419 63.600 C 223.257 63.050,222.629 62.150,222.024 61.600 C 221.389 61.022,220.806 59.966,220.644 59.100 C 220.490 58.275,220.192 57.600,219.982 57.600 C 219.772 57.600,219.600 57.240,219.600 56.800 C 219.600 56.360,219.462 56.000,219.294 56.000 C 219.126 56.000,218.675 55.275,218.291 54.389 C 217.871 53.421,217.195 52.626,216.596 52.399 C 216.048 52.190,215.600 51.856,215.600 51.655 C 215.600 51.455,214.970 50.992,214.200 50.627 C 213.430 50.261,212.800 49.791,212.800 49.581 C 212.800 49.372,212.511 49.200,212.158 49.200 C 211.804 49.200,211.161 48.750,210.729 48.200 C 210.296 47.650,209.595 47.200,209.171 47.200 C 208.735 47.200,208.400 46.925,208.400 46.569 C 208.400 45.837,205.549 42.800,204.862 42.800 C 204.608 42.800,204.400 42.530,204.400 42.200 C 204.400 41.870,204.130 41.600,203.800 41.600 C 203.470 41.600,203.200 41.345,203.200 41.033 C 203.200 40.722,202.975 40.384,202.700 40.283 C 202.300 40.137,202.300 39.994,202.700 39.570 C 203.573 38.644,203.308 37.600,202.200 37.600 C 201.650 37.600,201.200 37.420,201.200 37.200 C 201.200 36.980,200.840 36.800,200.400 36.800 C 199.960 36.800,199.600 36.620,199.600 36.400 C 199.600 36.169,198.333 36.000,196.600 36.000 C 194.867 36.000,193.600 36.169,193.600 36.400 C 193.600 36.620,193.150 36.800,192.600 36.800 C 192.050 36.800,191.600 36.962,191.600 37.159 C 191.600 37.543,186.507 38.199,184.740 38.042 C 184.156 37.990,183.561 38.140,183.416 38.374 C 183.088 38.905,178.400 38.943,178.400 38.414 C 178.400 38.201,177.496 37.908,176.391 37.761 C 175.286 37.614,174.285 37.338,174.167 37.147 C 174.049 36.956,173.434 36.800,172.800 36.800 C 172.166 36.800,171.550 36.643,171.432 36.452 C 171.224 36.116,168.352 35.622,165.734 35.472 C 165.038 35.433,164.333 35.265,164.168 35.100 C 164.002 34.935,163.556 34.800,163.176 34.800 C 162.336 34.800,162.000 34.013,162.000 32.047 C 162.000 31.229,161.800 30.360,161.556 30.116 C 161.097 29.657,162.218 27.200,162.886 27.200 C 163.059 27.200,163.200 25.220,163.200 22.800 C 163.200 20.380,163.043 18.400,162.852 18.400 C 162.660 18.400,162.386 17.517,162.243 16.438 C 162.040 14.913,161.718 14.267,160.795 13.538 C 160.142 13.022,159.606 12.305,159.604 11.943 C 159.602 11.578,159.156 11.175,158.600 11.036 C 158.050 10.898,157.600 10.608,157.600 10.392 C 157.600 10.177,157.412 10.000,157.183 10.000 C 156.759 10.000,155.947 9.414,155.081 8.483 C 154.611 7.978,151.297 4.675,150.301 3.719 C 149.529 2.978,148.800 2.057,148.800 1.821 C 148.800 -0.389,145.796 -0.397,143.668 1.807 M313.787 146.200 C 313.684 146.530,313.506 147.095,313.391 147.457 C 313.220 147.992,313.289 148.024,313.764 147.630 C 314.084 147.364,314.320 146.799,314.288 146.373 C 314.218 145.446,314.042 145.385,313.787 146.200 M344.800 158.976 C 344.800 159.733,344.977 160.462,345.194 160.597 C 345.583 160.836,345.539 161.421,345.017 163.000 C 344.677 164.026,341.926 166.000,340.836 166.000 C 340.376 166.000,340.000 166.162,340.000 166.361 C 340.000 166.821,338.019 167.515,337.100 167.376 C 336.715 167.318,336.400 167.435,336.400 167.635 C 336.400 168.206,339.476 168.063,341.013 167.420 C 341.776 167.102,342.400 166.690,342.400 166.506 C 342.400 166.321,342.797 166.140,343.281 166.104 C 345.472 165.939,347.919 161.549,346.472 160.378 C 345.982 159.981,345.600 159.218,345.600 158.636 C 345.600 158.066,345.420 157.600,345.200 157.600 C 344.980 157.600,344.800 158.219,344.800 158.976 M348.800 157.753 C 348.800 157.838,349.250 157.993,349.800 158.098 C 350.350 158.203,350.800 158.134,350.800 157.945 C 350.800 157.755,350.350 157.600,349.800 157.600 C 349.250 157.600,348.800 157.669,348.800 157.753 M387.100 160.120 C 386.495 160.359,386.000 160.700,386.000 160.877 C 386.000 161.055,385.730 161.200,385.400 161.200 C 385.070 161.200,384.800 161.368,384.800 161.573 C 384.800 161.988,383.225 162.618,382.600 162.453 C 382.380 162.395,382.498 162.650,382.862 163.021 C 383.532 163.704,386.800 162.464,386.800 161.526 C 386.800 161.347,387.160 161.200,387.600 161.200 C 388.133 161.200,388.400 160.933,388.400 160.400 C 388.400 159.960,388.355 159.619,388.300 159.643 C 388.245 159.666,387.705 159.881,387.100 160.120 M389.520 160.080 C 389.893 160.453,390.107 160.453,390.480 160.080 C 390.853 159.707,390.747 159.600,390.000 159.600 C 389.253 159.600,389.147 159.707,389.520 160.080 M392.255 160.198 C 392.390 160.550,392.220 161.144,391.878 161.519 C 391.536 161.894,390.801 162.695,390.246 163.300 C 389.691 163.905,389.386 164.400,389.570 164.400 C 390.641 164.400,393.180 160.282,392.405 159.803 C 392.175 159.661,392.112 159.827,392.255 160.198 M323.109 160.963 C 322.977 161.654,323.077 161.868,323.462 161.721 C 324.053 161.494,324.213 160.000,323.647 160.000 C 323.452 160.000,323.210 160.434,323.109 160.963 M379.000 163.600 C 378.398 163.859,378.670 163.951,380.100 163.972 C 381.145 163.987,382.000 163.820,382.000 163.600 C 382.000 163.120,380.118 163.120,379.000 163.600 M372.900 164.756 C 372.168 165.087,371.600 165.644,371.600 166.029 C 371.600 166.763,370.828 167.200,369.534 167.200 C 369.071 167.200,368.804 167.411,368.900 167.700 C 369.304 168.911,371.295 168.217,372.921 166.299 C 374.745 164.148,374.742 163.922,372.900 164.756 M362.800 166.400 C 362.800 166.620,363.171 166.800,363.624 166.800 C 364.077 166.800,364.336 166.620,364.200 166.400 C 364.064 166.180,363.693 166.000,363.376 166.000 C 363.059 166.000,362.800 166.180,362.800 166.400 M383.862 169.131 C 383.498 169.534,383.211 170.209,383.225 170.631 C 383.246 171.248,383.328 171.203,383.641 170.400 C 383.855 169.850,384.328 169.175,384.692 168.900 C 385.055 168.625,385.166 168.400,384.938 168.400 C 384.710 168.400,384.226 168.729,383.862 169.131 M329.600 169.206 C 329.600 169.437,329.084 169.520,328.400 169.400 C 327.681 169.273,327.200 169.361,327.200 169.618 C 327.200 169.854,327.035 169.945,326.832 169.820 C 326.630 169.695,326.193 169.864,325.861 170.196 C 325.529 170.528,324.974 170.800,324.629 170.800 C 324.283 170.800,324.000 170.980,324.000 171.200 C 324.000 171.420,323.415 171.611,322.700 171.625 C 321.462 171.650,321.446 171.669,322.361 172.035 C 323.422 172.459,326.636 171.511,327.444 170.536 C 327.689 170.241,328.994 169.884,330.344 169.743 C 333.086 169.456,333.681 168.800,331.200 168.800 C 330.320 168.800,329.600 168.983,329.600 169.206 M382.534 175.827 C 382.402 176.172,382.498 176.658,382.747 176.907 C 383.084 177.244,383.200 177.084,383.200 176.280 C 383.200 175.077,382.901 174.873,382.534 175.827 M384.000 196.308 C 384.000 196.494,384.240 196.975,384.533 197.376 C 384.921 197.906,385.067 197.950,385.067 197.535 C 385.067 197.222,384.827 196.741,384.533 196.467 C 384.240 196.193,384.000 196.121,384.000 196.308 M114.138 211.801 C 114.392 212.351,114.915 212.903,115.300 213.028 C 116.033 213.265,116.293 214.800,115.600 214.800 C 115.380 214.800,115.200 214.993,115.200 215.229 C 115.200 215.732,114.515 216.403,113.290 217.100 C 112.241 217.696,109.600 217.768,109.600 217.200 C 109.600 216.980,109.150 216.800,108.600 216.800 C 108.050 216.800,107.600 216.620,107.600 216.400 C 107.600 216.180,107.262 216.000,106.849 216.000 C 106.436 216.000,105.874 215.730,105.600 215.400 C 105.326 215.070,104.931 214.800,104.722 214.800 C 104.514 214.800,104.073 214.530,103.743 214.200 C 102.615 213.072,100.867 213.461,99.245 215.200 C 98.425 216.080,97.539 216.800,97.277 216.800 C 97.015 216.800,96.800 217.038,96.800 217.328 C 96.800 217.927,95.013 219.600,94.373 219.600 C 94.142 219.600,94.051 219.760,94.172 219.955 C 94.413 220.345,93.110 220.786,91.687 220.795 C 91.186 220.798,90.672 221.069,90.546 221.398 C 90.419 221.726,90.155 221.896,89.958 221.774 C 89.761 221.652,89.600 221.726,89.600 221.937 C 89.600 222.266,87.401 223.838,86.217 224.355 C 86.006 224.447,85.378 224.945,84.821 225.461 C 84.264 225.978,83.647 226.400,83.450 226.400 C 83.253 226.400,82.675 226.850,82.165 227.400 C 81.655 227.950,80.870 228.400,80.419 228.400 C 79.969 228.400,79.600 228.580,79.600 228.800 C 79.600 229.020,79.270 229.200,78.868 229.200 C 78.133 229.200,77.494 230.140,76.969 231.992 C 76.814 232.538,76.173 233.465,75.544 234.052 C 74.915 234.640,74.400 235.311,74.400 235.542 C 74.400 236.127,72.472 238.000,71.870 238.000 C 71.599 238.000,71.117 238.360,70.800 238.800 C 70.483 239.240,69.993 239.600,69.712 239.600 C 69.430 239.600,69.200 239.768,69.200 239.973 C 69.200 240.178,68.837 240.461,68.394 240.602 C 67.951 240.743,67.692 241.025,67.818 241.229 C 67.944 241.433,67.857 241.600,67.624 241.600 C 67.391 241.600,67.200 241.830,67.200 242.112 C 67.200 242.393,66.840 242.883,66.400 243.200 C 65.960 243.517,65.600 244.001,65.600 244.274 C 65.600 244.548,65.218 244.976,64.752 245.226 C 63.583 245.851,59.601 249.945,59.596 250.526 C 59.594 250.787,59.046 251.432,58.377 251.961 C 57.707 252.489,57.254 253.164,57.368 253.461 C 57.482 253.757,57.401 254.000,57.187 254.000 C 56.974 254.000,56.800 254.450,56.800 255.000 C 56.800 256.342,57.525 256.268,58.119 254.866 C 58.842 253.161,60.658 250.931,64.036 247.600 C 65.710 245.950,67.558 243.935,68.144 243.121 C 68.729 242.308,70.428 240.701,71.918 239.550 C 74.892 237.253,76.937 234.928,78.261 232.338 C 78.805 231.274,79.689 230.345,80.661 229.815 C 83.076 228.500,85.600 226.728,85.600 226.347 C 85.600 226.156,85.808 226.000,86.062 226.000 C 86.316 226.000,87.114 225.550,87.836 225.000 C 88.557 224.450,89.307 224.000,89.504 224.000 C 89.700 224.000,90.283 223.550,90.800 223.000 C 91.317 222.450,92.078 222.000,92.492 222.000 C 93.620 222.000,97.686 219.087,99.448 217.017 C 101.554 214.543,101.968 214.488,104.721 216.316 C 112.067 221.195,119.811 217.958,115.764 211.700 C 114.903 210.369,113.516 210.454,114.138 211.801 M391.792 212.819 C 392.185 214.113,392.667 214.608,392.667 213.718 C 392.667 213.328,392.403 212.746,392.081 212.423 C 391.566 211.909,391.531 211.957,391.792 212.819 M393.281 216.382 C 393.833 217.266,394.222 217.155,393.862 216.217 C 393.732 215.878,393.438 215.600,393.209 215.600 C 392.946 215.600,392.972 215.887,393.281 216.382 M398.400 224.400 C 398.400 225.354,399.014 225.461,399.357 224.567 C 399.700 223.673,399.673 223.600,399.000 223.600 C 398.667 223.600,398.400 223.956,398.400 224.400 M397.212 227.584 C 396.888 227.789,396.744 228.078,396.893 228.226 C 397.041 228.374,397.453 228.204,397.810 227.848 C 398.513 227.144,398.157 226.987,397.212 227.584 M391.200 231.525 C 390.650 232.087,390.515 232.312,390.900 232.024 C 391.285 231.737,391.605 231.659,391.612 231.851 C 391.619 232.043,391.815 231.871,392.049 231.470 C 392.693 230.361,392.316 230.386,391.200 231.525 M381.015 245.176 C 380.887 245.382,381.147 245.524,381.591 245.491 C 382.036 245.457,382.400 245.288,382.400 245.115 C 382.400 244.673,381.296 244.721,381.015 245.176 M370.800 248.000 C 370.800 248.220,371.070 248.400,371.400 248.400 C 371.730 248.400,372.000 248.220,372.000 248.000 C 372.000 247.780,371.730 247.600,371.400 247.600 C 371.070 247.600,370.800 247.780,370.800 248.000 M342.826 253.769 C 342.439 254.235,342.502 254.298,343.177 254.122 C 343.630 254.004,344.000 253.748,344.000 253.553 C 344.000 253.014,343.354 253.132,342.826 253.769 M56.800 257.950 C 56.800 258.734,57.013 258.800,59.553 258.800 C 62.585 258.800,62.782 258.987,62.795 261.876 C 62.798 262.578,62.980 263.264,63.200 263.400 C 63.420 263.536,63.600 264.537,63.600 265.624 C 63.600 266.711,63.780 267.600,64.000 267.600 C 64.220 267.600,64.400 267.945,64.400 268.367 C 64.400 269.823,64.866 270.400,66.043 270.400 C 66.805 270.400,67.200 270.605,67.200 271.000 C 67.200 271.330,67.425 271.602,67.700 271.604 C 67.975 271.606,68.625 272.146,69.145 272.804 C 69.665 273.462,70.340 274.000,70.645 274.000 C 70.950 274.000,71.200 274.270,71.200 274.600 C 71.200 274.930,71.470 275.200,71.800 275.200 C 72.130 275.200,72.400 275.393,72.400 275.629 C 72.400 276.182,73.418 277.200,73.971 277.200 C 74.207 277.200,74.400 277.474,74.400 277.809 C 74.400 278.143,74.895 278.638,75.500 278.909 C 76.759 279.471,77.669 280.139,79.308 281.700 L 80.462 282.800 86.551 282.800 C 89.900 282.800,92.811 282.959,93.020 283.154 C 93.229 283.348,94.509 283.610,95.865 283.735 C 98.843 284.010,101.600 286.157,101.600 288.200 C 101.600 288.606,102.007 288.800,102.860 288.800 L 104.120 288.800 103.852 292.900 C 103.705 295.155,103.408 297.060,103.192 297.133 C 102.976 297.207,102.800 297.702,102.800 298.233 C 102.800 298.765,102.628 299.200,102.419 299.200 C 101.969 299.200,101.136 301.972,101.439 302.462 C 101.553 302.648,101.457 302.800,101.224 302.800 C 100.991 302.800,100.800 303.070,100.800 303.400 C 100.800 303.730,100.620 304.000,100.400 304.000 C 100.180 304.000,100.000 304.551,100.000 305.224 C 100.000 306.047,99.849 306.354,99.538 306.162 C 99.263 305.991,99.185 306.051,99.345 306.311 C 99.492 306.549,99.430 306.858,99.207 306.996 C 98.983 307.134,98.800 307.858,98.800 308.605 C 98.800 309.351,98.585 310.434,98.323 311.010 C 97.934 311.864,97.952 312.126,98.423 312.429 C 98.902 312.737,98.909 312.859,98.460 313.148 C 98.082 313.392,97.962 314.171,98.060 315.749 C 98.177 317.623,98.090 318.001,97.547 318.001 C 96.723 318.000,96.370 319.671,97.010 320.546 C 97.273 320.906,97.837 321.200,98.264 321.200 C 98.691 321.200,99.211 321.360,99.420 321.556 C 100.492 322.559,111.600 323.719,111.600 322.828 C 111.600 322.593,111.735 322.437,111.900 322.483 C 112.601 322.676,115.600 321.957,115.600 321.595 C 115.600 321.378,115.962 321.200,116.405 321.200 C 116.848 321.200,117.523 321.042,117.905 320.850 C 118.287 320.657,119.635 320.178,120.900 319.785 C 122.165 319.392,123.200 318.919,123.200 318.735 C 123.200 318.551,123.545 318.400,123.967 318.400 C 124.388 318.400,124.793 318.264,124.867 318.097 C 125.184 317.375,128.388 315.200,129.134 315.200 C 129.584 315.200,130.064 315.020,130.200 314.800 C 130.336 314.580,130.887 314.400,131.424 314.400 C 131.961 314.400,132.400 314.220,132.400 314.000 C 132.400 313.780,132.850 313.600,133.400 313.600 C 133.950 313.600,134.400 313.428,134.400 313.218 C 134.400 313.008,135.075 312.725,135.900 312.588 C 136.725 312.452,138.120 312.003,139.000 311.589 C 139.882 311.175,142.036 310.720,143.800 310.575 C 145.560 310.430,147.540 310.215,148.200 310.097 C 148.860 309.979,150.795 309.805,152.500 309.711 C 154.205 309.616,155.600 309.373,155.600 309.170 C 155.600 308.966,156.230 308.800,157.000 308.800 C 157.770 308.800,158.400 308.980,158.400 309.200 C 158.400 309.420,158.835 309.600,159.367 309.600 C 159.898 309.600,160.393 309.775,160.467 309.989 C 160.540 310.202,162.580 310.484,165.000 310.614 C 167.420 310.744,169.760 311.001,170.200 311.184 C 170.640 311.368,171.680 311.817,172.510 312.183 C 173.341 312.548,174.691 312.791,175.510 312.724 L 177.000 312.600 175.485 311.874 C 173.214 310.786,169.825 310.000,167.404 310.000 C 166.218 310.000,165.136 309.820,165.000 309.600 C 164.864 309.380,164.155 309.200,163.425 309.200 C 162.695 309.200,161.451 308.930,160.662 308.600 C 158.845 307.841,155.597 307.839,151.000 308.595 C 149.020 308.920,146.500 309.197,145.400 309.211 C 143.375 309.236,139.877 309.989,139.353 310.514 C 139.195 310.671,138.585 310.800,137.996 310.800 C 136.997 310.800,133.353 311.889,131.300 312.800 C 130.805 313.020,129.905 313.404,129.300 313.654 C 126.709 314.722,126.126 315.032,124.780 316.058 C 122.811 317.559,118.988 319.281,113.800 321.002 C 109.065 322.574,108.988 322.575,103.800 321.247 C 102.040 320.796,100.126 320.421,99.547 320.414 C 98.423 320.399,97.853 319.363,98.415 318.357 C 98.586 318.051,98.797 316.861,98.883 315.714 C 98.969 314.566,99.165 313.501,99.320 313.347 C 99.474 313.193,99.600 312.217,99.600 311.179 C 99.600 310.141,99.869 308.776,100.198 308.146 C 100.526 307.516,100.796 306.721,100.798 306.380 C 100.799 306.039,100.956 305.589,101.146 305.380 C 101.829 304.630,104.104 298.145,104.646 295.400 C 105.640 290.369,105.354 288.000,103.754 288.000 C 103.006 288.000,102.651 287.644,102.151 286.395 C 100.876 283.207,96.756 282.000,87.153 282.000 C 81.753 282.000,81.268 281.939,80.569 281.166 C 80.154 280.707,78.915 279.672,77.816 278.866 C 76.716 278.060,74.475 276.071,72.835 274.448 C 71.194 272.824,68.901 270.887,67.737 270.143 C 65.101 268.456,64.853 267.987,64.373 263.759 C 63.784 258.575,63.261 257.600,61.070 257.600 C 60.097 257.600,58.738 257.488,58.050 257.350 C 56.964 257.133,56.800 257.211,56.800 257.950 M329.853 262.975 C 329.333 263.768,329.316 263.930,329.768 263.757 C 330.081 263.637,330.446 263.256,330.578 262.912 C 330.977 261.872,330.551 261.909,329.853 262.975 M328.800 265.000 C 328.392 265.491,328.420 265.600,328.951 265.600 C 329.308 265.600,329.600 265.330,329.600 265.000 C 329.600 264.670,329.532 264.400,329.449 264.400 C 329.366 264.400,329.074 264.670,328.800 265.000 M325.646 275.867 C 325.621 276.124,325.484 276.664,325.341 277.067 C 325.140 277.636,325.194 277.697,325.579 277.342 C 325.852 277.091,325.989 276.551,325.884 276.142 C 325.779 275.734,325.672 275.610,325.646 275.867 M329.600 294.200 C 330.117 294.750,330.606 295.200,330.688 295.200 C 331.021 295.200,329.372 293.224,329.030 293.213 C 328.827 293.206,329.083 293.650,329.600 294.200 M194.800 309.600 C 194.250 309.776,192.607 309.938,191.149 309.960 C 189.365 309.987,188.341 310.189,188.018 310.578 C 187.638 311.036,186.837 311.107,184.180 310.920 C 180.742 310.677,177.200 311.473,177.200 312.487 C 177.200 313.023,180.944 312.554,181.133 311.995 C 181.299 311.504,184.400 311.467,184.400 311.955 C 184.400 312.460,186.957 312.876,188.176 312.570 C 188.823 312.408,189.200 312.035,189.200 311.557 C 189.200 310.889,189.543 310.793,192.100 310.742 C 193.695 310.710,195.720 310.650,196.600 310.608 C 199.531 310.470,200.826 312.084,199.000 313.600 C 198.670 313.874,198.400 314.393,198.400 314.753 C 198.400 315.113,198.057 315.622,197.637 315.884 C 196.979 316.295,196.855 316.951,196.737 320.647 C 196.642 323.619,196.447 324.985,196.100 325.100 C 195.825 325.192,195.600 325.612,195.600 326.033 C 195.600 326.455,195.422 326.800,195.205 326.800 C 194.702 326.800,191.635 328.911,191.615 329.271 C 191.607 329.421,190.790 330.388,189.800 331.422 C 188.810 332.455,188.000 333.456,188.000 333.647 C 188.000 333.838,186.740 335.245,185.200 336.773 C 183.660 338.300,182.400 339.722,182.400 339.932 C 182.400 340.143,182.130 340.418,181.800 340.545 C 181.470 340.671,181.200 341.051,181.200 341.387 C 181.200 341.724,180.948 342.000,180.639 342.000 C 179.989 342.000,179.200 344.005,179.200 345.660 C 179.200 346.287,179.020 346.800,178.800 346.800 C 178.578 346.800,178.400 347.859,178.400 349.176 C 178.400 350.483,178.239 351.652,178.042 351.774 C 177.845 351.895,177.592 352.671,177.480 353.497 C 177.367 354.324,177.172 355.540,177.046 356.200 C 176.921 356.860,176.731 359.245,176.624 361.500 C 176.463 364.905,176.292 365.749,175.615 366.476 C 175.167 366.957,174.800 367.474,174.800 367.624 C 174.800 367.775,173.905 368.776,172.810 369.849 C 171.716 370.922,170.816 371.947,170.810 372.127 C 170.805 372.306,170.172 373.116,169.403 373.927 C 168.635 374.737,168.005 375.544,168.003 375.719 C 168.002 375.895,167.550 376.455,167.000 376.965 C 166.450 377.475,166.000 378.077,166.000 378.303 C 166.000 378.529,165.730 378.818,165.400 378.945 C 165.070 379.071,164.800 379.631,164.800 380.187 C 164.800 380.744,164.620 381.200,164.400 381.200 C 164.180 381.200,164.000 381.740,164.000 382.400 C 164.000 383.060,163.820 383.600,163.600 383.600 C 163.380 383.600,163.200 384.125,163.200 384.767 C 163.200 385.408,163.065 385.993,162.900 386.067 C 162.292 386.337,161.200 388.901,161.200 390.059 C 161.200 390.715,161.014 391.601,160.786 392.026 C 160.493 392.573,160.501 392.800,160.811 392.800 C 161.053 392.800,161.194 393.188,161.125 393.663 C 161.056 394.137,161.225 394.602,161.500 394.696 C 161.852 394.816,162.000 394.323,162.000 393.028 C 162.000 392.017,162.169 390.877,162.375 390.495 C 162.737 389.824,164.136 385.902,165.190 382.600 C 165.906 380.358,168.548 376.854,174.878 369.748 C 177.132 367.219,177.439 366.190,178.027 359.200 C 178.277 356.230,178.594 353.620,178.731 353.400 C 178.869 353.180,179.115 352.010,179.278 350.800 C 179.876 346.350,180.130 345.378,181.094 343.851 C 182.254 342.014,189.399 333.892,193.419 329.841 C 197.771 325.455,198.000 325.027,198.000 321.265 C 198.000 318.373,198.123 317.856,199.232 316.071 C 202.314 311.113,200.113 307.898,194.800 309.600 M320.500 338.998 C 320.225 339.311,320.000 339.672,320.000 339.801 C 320.000 339.929,319.550 340.520,319.000 341.113 C 318.450 341.707,318.000 342.599,318.000 343.096 C 318.000 343.593,317.773 344.000,317.496 344.000 C 317.219 344.000,316.782 344.337,316.525 344.748 C 316.072 345.474,314.590 345.612,313.627 345.017 C 313.375 344.861,313.304 345.005,313.447 345.379 C 314.335 347.693,318.053 345.798,320.250 341.912 C 321.909 338.977,322.059 337.228,320.500 338.998 M329.196 346.014 C 328.894 347.122,328.412 348.224,328.124 348.463 C 327.836 348.702,327.600 349.146,327.600 349.449 C 327.600 349.752,327.315 350.000,326.967 350.000 C 326.618 350.000,326.408 350.225,326.500 350.500 C 327.098 352.293,329.803 349.570,330.260 346.717 C 330.491 345.272,331.572 344.105,332.147 344.681 C 332.286 344.820,332.400 344.723,332.400 344.467 C 332.400 342.778,329.726 344.069,329.196 346.014 M322.860 347.651 C 322.827 348.229,323.070 348.926,323.400 349.200 C 323.815 349.544,324.000 349.559,324.000 349.249 C 324.000 349.002,323.832 348.800,323.627 348.800 C 323.421 348.800,323.178 348.305,323.087 347.700 L 322.920 346.600 322.860 347.651 M333.564 353.800 C 334.258 355.157,334.787 355.822,334.794 355.344 C 334.797 355.094,334.430 354.464,333.977 353.944 C 333.331 353.202,333.242 353.171,333.564 353.800 M345.377 358.034 C 344.958 358.658,344.265 359.221,343.839 359.284 C 342.728 359.450,342.536 360.400,343.614 360.400 C 344.099 360.400,345.173 359.721,346.007 358.887 C 346.840 358.054,347.744 357.448,348.016 357.539 C 348.288 357.629,348.400 357.523,348.263 357.302 C 347.758 356.485,346.143 356.894,345.377 358.034 M328.500 388.998 C 327.931 389.645,327.861 390.000,328.304 390.000 C 328.471 390.000,328.832 389.640,329.107 389.200 C 329.678 388.287,329.251 388.145,328.500 388.998 M323.700 393.798 C 323.131 394.445,323.061 394.800,323.504 394.800 C 323.671 394.800,324.032 394.440,324.307 394.000 C 324.878 393.087,324.451 392.945,323.700 393.798 M160.399 396.202 C 160.180 396.780,160.000 397.510,160.000 397.826 C 160.000 398.142,159.820 398.400,159.600 398.400 C 159.380 398.400,159.200 398.670,159.200 399.000 C 159.200 399.330,159.057 399.600,158.882 399.600 C 158.707 399.600,158.232 400.406,157.825 401.391 C 157.419 402.376,156.762 403.285,156.364 403.411 C 155.966 403.538,155.530 403.992,155.394 404.420 C 155.257 404.849,154.978 405.200,154.773 405.200 C 154.568 405.200,154.400 405.426,154.400 405.701 C 154.400 406.312,152.249 408.400,151.620 408.400 C 151.372 408.400,150.680 408.850,150.084 409.400 C 146.530 412.677,145.741 413.282,144.090 413.995 C 143.589 414.211,143.062 414.706,142.918 415.094 C 142.773 415.482,142.328 416.091,141.928 416.447 C 141.527 416.803,141.200 417.282,141.200 417.512 C 141.200 418.274,136.781 422.400,135.965 422.400 C 135.127 422.400,133.200 424.060,133.200 424.782 C 133.200 425.012,132.847 425.200,132.416 425.200 C 131.984 425.200,131.399 425.472,131.116 425.804 C 130.832 426.137,129.925 427.106,129.100 427.957 C 128.275 428.809,127.600 429.615,127.600 429.748 C 127.600 430.142,122.780 434.800,122.373 434.800 C 122.168 434.800,122.000 434.975,122.000 435.189 C 122.000 435.402,120.650 436.932,119.000 438.587 C 117.350 440.242,116.000 441.778,116.000 441.999 C 116.000 442.445,112.867 445.600,112.424 445.600 C 112.270 445.600,111.766 446.005,111.303 446.500 C 110.840 446.995,109.466 448.285,108.249 449.367 C 107.032 450.449,106.120 451.471,106.224 451.638 C 106.327 451.806,106.094 452.044,105.706 452.169 C 105.094 452.365,104.332 452.922,102.117 454.792 C 101.851 455.016,101.446 455.200,101.217 455.200 C 100.988 455.200,100.800 455.547,100.800 455.972 C 100.800 456.468,100.478 456.790,99.900 456.872 C 99.330 456.953,98.954 457.321,98.875 457.877 C 98.791 458.471,98.306 458.901,97.375 459.208 C 95.855 459.710,95.467 461.464,96.557 462.900 C 97.147 463.677,100.563 463.908,101.000 463.200 C 101.136 462.980,101.517 462.800,101.847 462.800 C 102.177 462.800,102.336 462.980,102.200 463.200 C 102.064 463.420,102.301 463.600,102.727 463.600 C 103.153 463.600,103.726 463.870,104.000 464.200 C 104.274 464.530,104.770 464.800,105.103 464.800 C 105.436 464.800,106.125 465.250,106.635 465.800 C 107.424 466.652,107.916 466.800,109.952 466.800 C 112.025 466.800,112.446 466.667,113.129 465.800 C 113.671 465.111,114.307 464.800,115.177 464.800 C 116.008 464.800,116.754 465.141,117.365 465.800 C 117.875 466.350,118.496 466.800,118.746 466.800 C 118.996 466.800,119.200 467.038,119.200 467.328 C 119.200 467.618,119.605 468.220,120.100 468.666 C 120.595 469.111,121.258 469.854,121.573 470.317 C 121.888 470.779,122.293 471.066,122.473 470.955 C 122.653 470.844,122.800 471.013,122.800 471.330 C 122.800 471.648,123.250 472.203,123.800 472.563 C 124.350 472.924,124.800 473.484,124.800 473.809 C 124.800 474.134,125.038 474.400,125.328 474.400 C 126.720 474.400,127.651 476.408,127.941 480.035 C 128.098 481.996,128.085 483.600,127.913 483.600 C 127.741 483.600,127.600 484.410,127.600 485.400 C 127.600 486.390,127.420 487.200,127.200 487.200 C 126.980 487.200,126.800 487.560,126.800 488.000 C 126.800 488.440,126.641 488.800,126.446 488.800 C 126.251 488.800,125.968 489.790,125.817 491.000 C 125.666 492.210,125.375 493.200,125.171 493.200 C 124.967 493.200,124.800 494.359,124.800 495.776 C 124.800 497.193,124.620 498.464,124.400 498.600 C 124.159 498.749,124.000 501.530,124.000 505.600 C 124.000 509.670,124.159 512.451,124.400 512.600 C 124.620 512.736,124.800 513.197,124.800 513.624 C 124.800 514.051,124.972 514.400,125.182 514.400 C 125.392 514.400,125.682 515.030,125.826 515.800 C 125.971 516.570,126.249 517.200,126.445 517.200 C 126.640 517.200,126.800 518.089,126.800 519.176 C 126.800 520.263,126.980 521.264,127.200 521.400 C 127.420 521.536,127.600 521.984,127.600 522.397 C 127.600 523.042,129.003 523.930,129.398 523.535 C 129.474 523.460,129.111 522.498,128.591 521.399 C 128.071 520.299,127.636 518.707,127.623 517.860 C 127.610 517.014,127.312 515.664,126.959 514.860 C 126.607 514.057,126.162 513.040,125.970 512.600 C 125.778 512.160,125.542 510.000,125.445 507.800 C 125.348 505.600,125.261 503.620,125.250 503.400 C 125.127 500.762,126.666 491.415,127.476 489.877 C 128.853 487.263,129.705 477.944,128.741 476.028 C 128.457 475.463,126.869 473.624,125.212 471.941 C 123.555 470.259,121.300 467.861,120.200 466.612 C 116.965 462.938,114.753 462.521,111.978 465.064 C 110.620 466.308,109.280 466.245,107.591 464.857 C 104.841 462.596,102.909 461.884,100.322 462.177 C 96.710 462.586,96.300 461.836,98.893 459.566 C 100.003 458.595,102.101 456.680,103.556 455.312 C 105.010 453.944,108.296 451.064,110.857 448.912 C 113.418 446.760,115.696 444.624,115.919 444.164 C 116.142 443.704,119.162 440.422,122.630 436.870 C 126.098 433.319,129.220 429.987,129.568 429.467 C 130.722 427.740,136.353 423.200,137.340 423.200 C 137.896 423.200,143.600 417.358,143.600 416.788 C 143.600 416.626,145.534 414.988,147.899 413.147 C 155.525 407.209,161.600 399.810,161.600 396.459 C 161.600 395.197,160.843 395.035,160.399 396.202 M320.295 397.999 C 319.414 398.981,319.079 399.600,319.429 399.600 C 319.743 399.600,320.000 399.411,320.000 399.181 C 320.000 398.950,320.478 398.319,321.063 397.777 C 321.647 397.235,322.037 396.704,321.929 396.595 C 321.821 396.487,321.086 397.119,320.295 397.999 M317.493 400.908 C 317.112 401.378,316.800 401.930,316.800 402.135 C 316.800 402.340,317.181 402.024,317.646 401.433 C 318.111 400.842,318.423 400.289,318.339 400.206 C 318.255 400.122,317.875 400.438,317.493 400.908 M312.679 410.157 C 312.515 410.574,312.475 411.009,312.591 411.124 C 312.955 411.489,313.276 410.891,313.124 410.131 C 312.983 409.435,312.962 409.436,312.679 410.157 M309.979 417.455 C 309.758 418.036,309.668 418.602,309.779 418.713 C 309.960 418.894,310.157 418.472,310.626 416.900 C 310.910 415.948,310.379 416.404,309.979 417.455 M267.200 443.300 C 267.200 443.723,268.707 443.675,268.974 443.242 C 269.095 443.046,268.746 442.911,268.198 442.942 C 267.649 442.974,267.200 443.135,267.200 443.300 M235.660 452.242 C 234.931 453.066,235.400 453.457,236.181 452.676 C 236.521 452.336,236.800 451.954,236.800 451.829 C 236.800 451.409,236.206 451.624,235.660 452.242 M227.002 457.998 C 226.603 458.439,226.407 458.800,226.567 458.800 C 226.988 458.800,228.128 457.595,227.912 457.379 C 227.811 457.278,227.402 457.556,227.002 457.998 M221.429 461.829 C 221.005 462.138,220.772 462.505,220.910 462.643 C 221.049 462.782,221.462 462.595,221.829 462.229 C 222.691 461.366,222.425 461.100,221.429 461.829 M210.843 471.244 C 210.317 471.671,209.957 472.090,210.043 472.176 C 210.130 472.261,210.630 471.982,211.157 471.556 C 211.683 471.129,212.043 470.710,211.957 470.624 C 211.870 470.539,211.370 470.818,210.843 471.244 M196.400 484.662 L 195.000 486.058 196.254 485.348 C 196.944 484.957,197.711 484.314,197.958 483.919 C 198.665 482.786,197.929 483.137,196.400 484.662 M182.576 492.980 C 181.827 493.540,181.832 493.552,182.706 493.332 C 183.205 493.206,183.710 492.945,183.830 492.752 C 184.168 492.204,183.436 492.338,182.576 492.980 M160.860 505.842 C 160.562 506.178,160.399 506.532,160.495 506.629 C 160.592 506.726,160.998 506.444,161.398 506.002 C 161.797 505.561,161.961 505.207,161.762 505.215 C 161.563 505.224,161.157 505.505,160.860 505.842 " stroke="none" fill="#e4bcb4" fill-rule="evenodd"></path></g></svg>