<?xml version="1.0" standalone="no"?>
<!DOCTYPE svg PUBLIC "-//W3C//DTD SVG 1.1//EN" "http://www.w3.org/Graphics/SVG/1.1/DTD/svg11.dtd" >
<svg xmlns="http://www.w3.org/2000/svg" xmlns:xlink="http://www.w3.org/1999/xlink" version="1.1">
<metadata>
Created by FontForge 20170731 at Thu Jan 12 21:08:46 2023
 By Aleksey,,,
Copyright (c) 2018 by MadeType. All rights reserved.
</metadata>
<defs>
<font id="MADEEvolveSans" horiz-adv-x="1177" >
  <font-face 
    font-family="MADE Evolve Sans"
    font-weight="400"
    font-stretch="normal"
    units-per-em="2048"
    panose-1="2 0 5 3 0 0 0 2 0 4"
    ascent="1638"
    descent="-410"
    x-height="987"
    cap-height="1434"
    bbox="-133 -463 2183 1999"
    underline-thickness="102"
    underline-position="-307"
    unicode-range="U+0020-F6C3"
  />
<missing-glyph horiz-adv-x="573" 
 />
    <glyph glyph-name=".notdef" horiz-adv-x="573" 
 />
    <glyph glyph-name=".null" horiz-adv-x="0" 
 />
    <glyph glyph-name="nonmarkingreturn" horiz-adv-x="682" 
 />
    <glyph glyph-name="space" unicode=" " horiz-adv-x="573" 
 />
    <glyph glyph-name="exclam" unicode="!" horiz-adv-x="450" 
d="M281 354h-113l-16 1080h147zM225 139q34 0 58 -24t24 -58q0 -35 -24 -59.5t-58 -24.5t-58 24.5t-24 59.5q0 34 24 58t58 24z" />
    <glyph glyph-name="quotedbl" unicode="&#x22;" horiz-adv-x="563" 
d="M119 1102l-37 344h160l-37 -344h-86zM358 1102l-36 344h159l-37 -344h-86z" />
    <glyph glyph-name="numbersign" unicode="#" horiz-adv-x="1527" 
d="M1436 856h-285l-66 -305h287l-31 -148h-286l-86 -403h-150l86 403h-395l-86 -403h-150l84 403h-297l31 148h299l64 305h-299l30 148h299l90 430h152l-90 -430h393l90 430h152l-90 -430h284zM936 551l63 305h-393l-65 -305h395z" />
    <glyph glyph-name="dollar" unicode="$" horiz-adv-x="1239" 
d="M1167 399q0 -93 -39 -170t-106 -127t-150.5 -79.5t-177.5 -36.5v-193h-149v197q-187 19 -308.5 105t-164.5 204l141 47q35 -86 121 -139.5t211 -67.5v523q-81 16 -142 35.5t-118.5 50t-94.5 70t-59 96.5t-22 128q-1 76 24.5 143t76.5 123t137 92t198 44v196h149v-200
q155 -19 267.5 -101t146.5 -200l-139 -47q-22 88 -96.5 136.5t-178.5 63.5v-508q81 -15 143 -32.5t127 -48t107 -69.5t69 -99.5t27 -135.5zM256 1042q0 -90 66.5 -143.5t222.5 -87.5v483q-141 -11 -215 -74.5t-74 -177.5zM694 135q47 4 90.5 15t87.5 32t76 50t52 72t20 95
q0 98 -75.5 148t-250.5 86v-498z" />
    <glyph glyph-name="percent" unicode="%" horiz-adv-x="1503" 
d="M1114 1434h176l-897 -1434h-174zM682 1135q0 -131 -90.5 -220.5t-218.5 -89.5q-130 0 -221 89.5t-91 220.5q0 132 91 221.5t221 89.5q129 0 219 -89.5t90 -221.5zM199 1135q0 -75 50.5 -124.5t123.5 -49.5q72 0 122 49.5t50 124.5t-50 124.5t-122 49.5
q-73 0 -123.5 -49.5t-50.5 -124.5zM1133 604q129 0 219 -88.5t90 -220.5t-90 -220.5t-219 -88.5q-130 0 -221 88.5t-91 220.5t91 220.5t221 88.5zM1133 121q72 0 122 49.5t50 124.5t-50 124.5t-122 49.5q-73 0 -124 -49.5t-51 -124.5t51 -124.5t124 -49.5z" />
    <glyph glyph-name="ampersand" unicode="&#x26;" horiz-adv-x="1392" 
d="M1049 328q295 -301 323 -328h-205q-42 39 -213 213q-181 -221 -411 -240q-125 -10 -232.5 28t-167.5 128q-111 168 -20 395q36 93 105.5 167.5t168.5 148.5q-90 119 -121 198q-33 82 -22.5 159.5t49 137.5t106.5 96.5t150 36.5q146 0 226.5 -108.5t43.5 -253.5
q-39 -148 -223 -293q134 -162 336 -375q31 45 82 135h170q-108 -188 -145 -245zM559 1321q-46 0 -82 -22.5t-52 -56.5t-20.5 -74.5t11.5 -77.5q19 -56 98 -162q148 116 172 205q22 78 -15.5 133t-111.5 55zM532 121q169 13 318 198q-207 217 -363 404q-174 -132 -221 -258
q-53 -147 19 -252q29 -44 93.5 -71.5t153.5 -20.5z" />
    <glyph glyph-name="quotesingle" unicode="'" horiz-adv-x="323" 
d="M119 1102l-37 344h160l-37 -344h-86z" />
    <glyph glyph-name="parenleft" unicode="(" horiz-adv-x="614" 
d="M594 1456q-142 -170 -220 -400.5t-83.5 -464t62 -462.5t202.5 -397l-115 -92q-152 189 -228 439t-67 531q9 268 97 514.5t237 425.5z" />
    <glyph glyph-name="parenright" unicode=")" horiz-adv-x="612" 
d="M174 1550q152 -187 228 -438t65 -532q-9 -269 -96.5 -515.5t-237.5 -424.5l-113 94q142 170 220 400.5t83 464t-62.5 462.5t-203.5 397z" />
    <glyph glyph-name="asterisk" unicode="*" horiz-adv-x="727" 
d="M666 1217l-205 -89l205 -88l-74 -129l-180 133l26 -221h-149l26 221l-180 -133l-74 129l205 88l-205 89l74 129l180 -134l-26 222h149l-26 -222l180 134z" />
    <glyph glyph-name="plus" unicode="+" horiz-adv-x="1081" 
d="M938 700v-147h-324v-324h-147v324h-324v147h324v324h147v-324h324z" />
    <glyph glyph-name="comma" unicode="," horiz-adv-x="339" 
d="M123 106h156l-142 -344h-96z" />
    <glyph glyph-name="hyphen" unicode="-" horiz-adv-x="962" 
d="M143 700h676v-147h-676v147z" />
    <glyph glyph-name="period" unicode="." horiz-adv-x="391" 
d="M205 139q35 0 59.5 -24t24.5 -58q0 -35 -24.5 -59.5t-59.5 -24.5q-34 0 -58 24.5t-24 59.5q0 34 24 58t58 24z" />
    <glyph glyph-name="slash" unicode="/" horiz-adv-x="790" 
d="M614 1538h156l-614 -1853h-156z" />
    <glyph glyph-name="zero" unicode="0" horiz-adv-x="1087" 
d="M545 1442q81 0 148.5 -30t112 -78t78.5 -115t52.5 -132.5t30 -139.5t15 -127.5t3.5 -104.5q0 -49 -4 -104t-16.5 -128.5t-32.5 -140t-54.5 -133.5t-78.5 -115.5t-109.5 -79t-144.5 -30.5t-144.5 30.5t-110 79t-79.5 115t-55 134t-32.5 140.5t-17 128t-4.5 104
q0 51 3.5 104.5t15 127.5t30.5 139.5t53 132.5t79 115t112.5 78t149.5 30zM545 131q137 0 211.5 158.5t74.5 425.5q0 271 -72 425t-214 154q-144 0 -216.5 -154t-72.5 -425q0 -266 76 -425t213 -159z" />
    <glyph glyph-name="one" unicode="1" horiz-adv-x="692" 
d="M360 1434h148v-1434h-148v1108q-47 -48 -132.5 -92.5t-145.5 -50.5v112q59 16 120.5 74.5t104.5 136t53 146.5z" />
    <glyph glyph-name="two" unicode="2" horiz-adv-x="1001" 
d="M899 147v-147h-797q0 88 24 171t71.5 159.5t97.5 138.5t121 137q125 130 185.5 216t84.5 179q34 137 -24.5 219.5t-172.5 82.5q-190 0 -249 -240l-131 31q8 49 26 96t50 94t73.5 82.5t101.5 57.5t129 22q191 0 293 -118t66 -324q-24 -132 -101.5 -242.5t-226.5 -259.5
q-90 -92 -146.5 -174.5t-88.5 -180.5h614z" />
    <glyph glyph-name="three" unicode="3" horiz-adv-x="1044" 
d="M705 782q117 -36 187.5 -139t70.5 -229q0 -118 -52 -214t-156 -155t-241 -59q-129 0 -243 60t-169 159l140 69q36 -67 108.5 -108t163.5 -41q135 0 215 80.5t80 204.5q0 132 -79.5 213.5t-223.5 81.5h-115v137h121q108 0 176 75t68 175q0 104 -64.5 158.5t-173.5 54.5
q-195 0 -254 -191l-135 27q33 141 139 223t250 82q180 0 281.5 -99t101.5 -247q0 -101 -56.5 -190t-139.5 -128z" />
    <glyph glyph-name="four" unicode="4" horiz-adv-x="1169" 
d="M1067 508v-150h-193v-358h-147v358h-625v150l625 926h147v-926h193zM281 508h446v661z" />
    <glyph glyph-name="five" unicode="5" horiz-adv-x="1036" 
d="M500 938q97 7 179.5 -27t137.5 -99t86 -154.5t31 -192.5q0 -95 -29 -180.5t-83.5 -152.5t-142.5 -106.5t-198 -39.5q-131 0 -237 64t-166 157l125 78q36 -64 114.5 -113t163.5 -49q130 0 213 90t86 250q1 158 -75 245t-205 87q-79 0 -138 -42.5t-88 -95.5l-137 23
l121 754h629v-150h-512l-68 -422q87 67 193 76z" />
    <glyph glyph-name="six" unicode="6" horiz-adv-x="1103" 
d="M530 881q87 12 169.5 -8t150.5 -69.5t109.5 -139t41.5 -207.5q0 -201 -120.5 -336t-315.5 -135q-75 0 -145.5 27t-135 88.5t-108.5 151t-62.5 224.5t-2.5 299q15 145 50.5 261t83.5 192t108.5 126t123.5 71t131 20q28 -1 55.5 -5t49.5 -10.5t45 -16.5t39.5 -19t35 -22
t29.5 -21.5t25 -22t19.5 -19.5t15.5 -16.5t10 -11.5l-105 -100q-16 21 -28.5 34.5t-40 37t-64.5 36.5t-80 13q-88 0 -156 -50.5t-109.5 -137.5t-65 -187.5t-31.5 -216.5q43 60 112.5 108t165.5 62zM526 129q91 -18 168 26t118.5 124.5t41.5 173.5q0 142 -81.5 214t-207.5 72
q-93 0 -179.5 -62.5t-127.5 -152.5q4 -74 20.5 -137t47 -117.5t82 -91t118.5 -49.5z" />
    <glyph glyph-name="seven" unicode="7" horiz-adv-x="991" 
d="M82 1434h827v-150l-573 -1284h-162l574 1284h-666v150z" />
    <glyph glyph-name="eight" unicode="8" horiz-adv-x="1103" 
d="M743 780q124 -45 201.5 -145.5t77.5 -235.5q0 -58 -15.5 -114.5t-52 -111t-89 -96t-133.5 -66.5t-179 -25q-99 0 -180 25t-134 66.5t-89.5 96t-52 111t-15.5 114.5q0 135 77.5 236t202.5 145q-93 43 -143.5 125t-50.5 178q0 49 12 97.5t41 97.5t71.5 85.5t110 59.5
t150.5 23t150 -23t109.5 -59.5t71 -85.5t40.5 -97.5t12 -97.5q0 -96 -50.5 -178t-142.5 -125zM307 1085q0 -98 64 -167.5t182 -69.5t182 69.5t64 167.5q0 106 -69 166t-177 60t-177 -60t-69 -166zM553 125q137 2 228 76.5t91 201.5q0 131 -89.5 213t-229.5 82
q-141 0 -231.5 -82t-90.5 -213q0 -127 92 -201.5t230 -76.5z" />
    <glyph glyph-name="nine" unicode="9" horiz-adv-x="1103" 
d="M545 1446q75 0 145 -27t133.5 -89t106.5 -151.5t61 -225t2 -300.5q-18 -179 -67.5 -313t-119 -209.5t-147 -111t-163.5 -33.5q-181 2 -318 154q-4 5 -6 7l102 91q18 -21 29.5 -32t40 -33.5t65.5 -34t80 -11.5q70 0 128.5 34t98.5 90.5t69 134.5t45 160.5t22 174.5
q-42 -61 -112.5 -109.5t-166.5 -60.5q-87 -13 -169.5 7t-150.5 69.5t-109.5 139.5t-41.5 208q0 130 54.5 237t156.5 170.5t232 63.5zM539 692q94 0 180 62t127 153q-4 73 -20.5 136t-47 117.5t-82 92t-118.5 50.5q-91 18 -168 -26.5t-118.5 -125t-41.5 -172.5
q0 -143 81.5 -215t207.5 -72z" />
    <glyph glyph-name="colon" unicode=":" horiz-adv-x="430" 
d="M184 840q-34 0 -58 24t-24 58t24 58t58 24t58 -24t24 -58t-24 -58t-58 -24zM184 139q34 0 58 -24t24 -58q0 -35 -24 -59.5t-58 -24.5t-58 24.5t-24 59.5q0 34 24 58t58 24z" />
    <glyph glyph-name="semicolon" unicode=";" horiz-adv-x="430" 
d="M29 -238l84 344h153l-141 -344h-96zM184 840q-34 0 -58 24t-24 58t24 58t58 24t58 -24t24 -58t-24 -58t-58 -24z" />
    <glyph glyph-name="less" unicode="&#x3c;" horiz-adv-x="989" 
d="M846 1038v-164l-533 -258l533 -260v-163l-703 339v166z" />
    <glyph glyph-name="equal" unicode="=" horiz-adv-x="1081" 
d="M143 860h795v-149h-795v149zM143 377v147h795v-147h-795z" />
    <glyph glyph-name="greater" unicode="&#x3e;" horiz-adv-x="989" 
d="M143 1038l703 -340v-166l-703 -339v163l535 260l-535 258v164z" />
    <glyph glyph-name="question" unicode="?" horiz-adv-x="911" 
d="M393 139q34 0 58 -24t24 -58q0 -35 -24 -59.5t-58 -24.5t-58 24.5t-24 59.5q0 34 24 58t58 24zM457 1446q76 0 143.5 -23.5t121.5 -69.5t82.5 -123t22.5 -175q-8 -103 -61.5 -196.5t-140.5 -196.5q-42 -50 -63 -77t-49 -70t-40.5 -82t-13.5 -79h-144q1 54 16 105
t46 101.5t56 84t69 86.5q80 93 128.5 173t53.5 159q19 240 -227 240q-92 0 -159 -70.5t-89 -169.5l-127 31q25 146 125.5 249t249.5 103z" />
    <glyph glyph-name="at" unicode="@" horiz-adv-x="1916" 
d="M1800 543q12 -149 -16.5 -279t-95.5 -203q-40 -44 -99.5 -68t-127.5 -15t-118 57t-73 133q-58 -75 -144 -117.5t-190 -42.5q-192 0 -318 134t-126 329t126 328t318 133q180 0 301 -121v107h131v-461q0 -271 68 -330q30 -30 76 -25.5t85 48.5q48 52 66.5 155t7.5 225
q-28 298 -218 466.5t-495 168.5q-93 0 -181 -18t-176.5 -61.5t-158.5 -109t-123.5 -168t-74.5 -230.5q-32 -202 29.5 -368t205.5 -280q156 -123 366 -143.5t423 68.5l49 -121q-124 -61 -289 -75.5t-337.5 28.5t-293.5 141q-172 139 -245.5 336.5t-34.5 435.5
q35 211 151.5 369.5t294.5 242.5t395 84q177 0 330 -59.5t260 -162t173 -239.5t79 -292zM936 139q136 0 216.5 94.5t80.5 237.5t-80.5 237.5t-216.5 94.5q-137 0 -223 -95t-86 -237t86 -237t223 -95z" />
    <glyph glyph-name="A" unicode="A" horiz-adv-x="1341" 
d="M1116 0l-155 416h-580l-156 -416h-164l541 1434h135l543 -1434h-164zM436 563h469l-235 635z" />
    <glyph glyph-name="B" unicode="B" horiz-adv-x="1214" 
d="M889 776q110 -49 171.5 -143t61.5 -211q0 -88 -27.5 -163t-81.5 -133.5t-142.5 -92t-202.5 -33.5h-535v1434h500q204 0 305.5 -104.5t101.5 -270.5q0 -89 -39.5 -162.5t-111.5 -120.5zM623 1286l-340 -2v-453h325q143 0 208 62.5t65 165.5q0 105 -58 166t-200 61z
M664 147q145 0 222 78t77 197q0 118 -78 196t-230 78h-372v-549h381z" />
    <glyph glyph-name="C" unicode="C" horiz-adv-x="1452" 
d="M799 129q145 0 265.5 66.5t195.5 181.5l131 -66q-94 -151 -249.5 -239t-342.5 -88q-148 0 -280 58t-225 156t-147.5 233t-54.5 284t54.5 284t147.5 233t225 156t280 58q187 0 342.5 -88t249.5 -240l-131 -63q-75 113 -196 179t-265 66q-159 0 -286.5 -78.5t-198 -212
t-70.5 -294.5t70.5 -295t198 -212.5t286.5 -78.5z" />
    <glyph glyph-name="D" unicode="D" horiz-adv-x="1378" 
d="M573 1434q163 0 300.5 -57t229 -154.5t142.5 -228.5t51 -279t-51.5 -278.5t-144 -227t-229.5 -153t-298 -56.5h-440v1434h440zM561 147q134 0 244.5 44.5t182.5 122t111.5 180.5t39.5 221q0 158 -68.5 287t-201.5 206.5t-306 77.5h-282v-1139h280z" />
    <glyph glyph-name="E" unicode="E" 
d="M270 147h805v-147h-952v1434h940v-148h-793v-495h729v-148h-729v-496z" />
    <glyph glyph-name="F" unicode="F" horiz-adv-x="1093" 
d="M1063 1286h-793v-495h656v-148h-656v-643h-147v1434h940v-148z" />
    <glyph glyph-name="G" unicode="G" horiz-adv-x="1464" 
d="M1372 735v-424q-94 -151 -249.5 -239t-342.5 -88q-148 0 -280 58t-225.5 156t-148 233t-54.5 284t54.5 284t148 233t225.5 156t280 58q187 0 341.5 -88t250.5 -240l-131 -63q-77 113 -197 179t-264 66q-159 0 -287 -78.5t-199 -212t-71 -294.5t71 -295t199 -212.5
t287 -78.5q132 0 251.5 59.5t193.5 155.5v244h-449v147h596z" />
    <glyph glyph-name="H" unicode="H" horiz-adv-x="1351" 
d="M1071 1434h148v-1434h-148v643h-790v-643h-148v1434h148v-643h790v643z" />
    <glyph glyph-name="I" unicode="I" horiz-adv-x="413" 
d="M133 1434h148v-1434h-148v1434z" />
    <glyph glyph-name="J" unicode="J" horiz-adv-x="833" 
d="M711 1434v-1051q0 -191 -86.5 -295t-253.5 -104q-113 0 -203.5 51t-124.5 104l109 86q33 -38 88 -66t125 -28q94 0 145 61t51 187v1055h150z" />
    <glyph glyph-name="K" unicode="K" horiz-adv-x="1216" 
d="M1016 0l-516 721l-217 -242v-479h-150v1434h150v-734l663 734h197l-541 -600l594 -834h-180z" />
    <glyph glyph-name="L" unicode="L" horiz-adv-x="1024" 
d="M270 147h713v-147h-860v1434h147v-1287z" />
    <glyph glyph-name="M" unicode="M" horiz-adv-x="1673" 
d="M1403 1434h137v-1434h-149v1149l-506 -791h-101l-501 791v-1149h-150v1434h137l566 -893z" />
    <glyph glyph-name="N" unicode="N" horiz-adv-x="1355" 
d="M1075 1434h148v-1434h-136l-806 1163v-1163h-148v1434h135l807 -1160v1160z" />
    <glyph glyph-name="O" unicode="O" horiz-adv-x="1574" 
d="M788 1446q148 0 278 -58t221 -156.5t143.5 -233t52.5 -283.5t-52.5 -283.5t-143.5 -233t-221 -156.5t-278 -58q-197 0 -357.5 98.5t-249.5 265.5t-89 367t89 367t249.5 265.5t357.5 98.5zM788 129q157 0 282 79t193 212.5t68 294.5t-68 294.5t-193 212t-282 78.5
q-158 0 -283.5 -78.5t-193 -212t-67.5 -294.5q0 -162 67.5 -295t193 -212t283.5 -79z" />
    <glyph glyph-name="P" unicode="P" horiz-adv-x="1202" 
d="M672 1434q131 0 234 -61t158.5 -162t55.5 -222q0 -184 -128 -314t-320 -130h-389v-545h-150v1434h539zM672 692q131 0 213 86.5t82 210.5t-81 210.5t-214 86.5h-389v-594h389z" />
    <glyph glyph-name="Q" unicode="Q" horiz-adv-x="1552" 
d="M1470 715q0 -138 -45 -264.5t-127 -225.5l162 -159l-106 -105l-162 162q-180 -137 -416 -137q-197 0 -357 98t-248.5 264.5t-88.5 366.5t88.5 367t248.5 265.5t357 98.5t357 -98.5t248.5 -265.5t88.5 -367zM776 131q177 0 311 98l-157 158l104 105l160 -160
q125 159 125 383q0 162 -67.5 295t-192.5 211.5t-283 78.5t-283 -78.5t-192.5 -211.5t-67.5 -295q0 -161 67.5 -293.5t192.5 -211.5t283 -79z" />
    <glyph glyph-name="R" unicode="R" horiz-adv-x="1212" 
d="M1155 0h-170l-307 545h-8h-389v-545h-148v1434h537q131 0 234.5 -61t159.5 -162t56 -222q0 -141 -79 -255t-210 -161zM281 1286v-594h389q133 0 215 86.5t82 210.5t-82 210.5t-215 86.5h-389z" />
    <glyph glyph-name="S" unicode="S" horiz-adv-x="1220" 
d="M633 795q64 -10 113 -20.5t106 -27.5t99 -37t83.5 -50t67 -66.5t41.5 -86t16 -108.5q0 -100 -44.5 -180.5t-118.5 -131t-166.5 -77t-192.5 -26.5q-228 0 -378 91t-198 224l142 49q43 -103 155.5 -160t274.5 -57q62 0 124 14.5t120.5 43.5t95.5 84t37 126q0 47 -16 81.5
t-44 59t-80 44.5t-111 34t-151 31q-94 17 -162 35t-137 49t-112.5 71t-70.5 100.5t-28 137.5q-1 81 30 153t91.5 129t160.5 90.5t228 33.5q184 0 317.5 -86.5t174.5 -220.5l-142 -49q-13 56 -47.5 97.5t-83 65t-103 34.5t-116.5 11q-170 0 -266 -66t-96 -192
q0 -104 88.5 -157t298.5 -90z" />
    <glyph glyph-name="T" unicode="T" horiz-adv-x="1120" 
d="M1079 1434v-148h-444v-1286h-148v1286h-446v148h1038z" />
    <glyph glyph-name="U" unicode="U" horiz-adv-x="1310" 
d="M1040 1434h148v-859q0 -149 -40.5 -264t-112.5 -185.5t-166 -106t-207 -35.5t-209 34.5t-170.5 103.5t-117 183.5t-42.5 263.5v865h147v-871q0 -206 111.5 -319t280.5 -113q166 0 272 114t106 318v871z" />
    <glyph glyph-name="V" unicode="V" horiz-adv-x="1230" 
d="M1067 1434h164l-547 -1434h-135l-549 1434h166l450 -1198z" />
    <glyph glyph-name="W" unicode="W" horiz-adv-x="2004" 
d="M1825 1434h160l-463 -1434h-150l-366 1192l-367 -1192h-150l-469 1434h166l381 -1190l367 1190h143l367 -1190z" />
    <glyph glyph-name="X" unicode="X" horiz-adv-x="1277" 
d="M1257 0h-182l-436 608l-436 -608h-183l527 735l-498 699h182l408 -570l408 570h182l-500 -699z" />
    <glyph glyph-name="Y" unicode="Y" horiz-adv-x="1144" 
d="M1145 1434l-498 -889v-545h-149v543l-498 891h170l401 -719l404 719h170z" />
    <glyph glyph-name="Z" unicode="Z" horiz-adv-x="1198" 
d="M242 150h915v-150h-1116v150l899 1136h-838v148h1026v-148z" />
    <glyph glyph-name="bracketleft" unicode="[" horiz-adv-x="643" 
d="M561 1389h-270v-1557h270v-147h-418v1853h418v-149z" />
    <glyph glyph-name="backslash" unicode="\" horiz-adv-x="790" 
d="M176 1538l615 -1853h-156l-615 1853h156z" />
    <glyph glyph-name="bracketright" unicode="]" horiz-adv-x="645" 
d="M352 1389h-270v149h420v-1853h-420v147h270v1557z" />
    <glyph glyph-name="asciicircum" unicode="^" horiz-adv-x="962" 
d="M870 864h-165l-224 414l-223 -414h-166l305 570h168z" />
    <glyph glyph-name="underscore" unicode="_" horiz-adv-x="1173" 
d="M41 -57h1092v-148h-1092v148z" />
    <glyph glyph-name="grave" unicode="`" horiz-adv-x="520" 
d="M258 1434l160 -281h-113l-203 281h156z" />
    <glyph glyph-name="a" unicode="a" horiz-adv-x="962" 
d="M870 0h-147v119q-154 -133 -344 -133q-141 0 -229.5 67.5t-88.5 188.5q0 142 109.5 217.5t345.5 113.5q118 19 165 45t46 74q-1 23 -6 44.5t-20 46.5t-39 43t-65 30t-95 12q-62 0 -108 -14t-73 -40.5t-41.5 -53t-25.5 -62.5l-131 31q11 52 38 99t72 86.5t115.5 63
t157.5 23.5q171 0 266.5 -90.5t95.5 -248.5zM391 125q146 0 241.5 83.5t94.5 215.5v45q-7 -1 -190 -31q-170 -28 -245 -68t-75 -118q0 -38 19.5 -65.5t50 -39.5t56 -17t48.5 -5z" />
    <glyph glyph-name="b" unicode="b" horiz-adv-x="1120" 
d="M586 1001q138 0 244.5 -68.5t162.5 -183.5t56 -257q0 -141 -56 -255.5t-162.5 -182.5t-244.5 -68q-205 0 -326 147v-133h-147v1434h147v-582q123 149 326 149zM586 129q147 0 230 102.5t83 260.5q0 159 -83 262.5t-230 103.5q-148 0 -234 -104t-86 -262q0 -157 86 -260
t234 -103z" />
    <glyph glyph-name="c" unicode="c" horiz-adv-x="993" 
d="M537 129q89 0 160 38.5t116 108.5l129 -63q-63 -106 -168.5 -166.5t-236.5 -60.5q-209 0 -342.5 146t-133.5 360q0 141 59 257t168.5 184t246.5 68q132 0 238 -62t169 -169l-129 -61q-46 70 -117 109.5t-161 39.5q-147 0 -235.5 -104.5t-88.5 -261.5q0 -156 88.5 -259.5
t237.5 -103.5z" />
    <glyph glyph-name="d" unicode="d" horiz-adv-x="1110" 
d="M850 1434h147v-1434h-147v133q-118 -147 -326 -147q-138 0 -244.5 68t-162.5 182.5t-56 255.5q0 142 56 257t162.5 183.5t244.5 68.5q206 0 326 -149v582zM524 129q148 0 234 103t86 260q0 158 -86 262t-234 104q-147 0 -230 -103.5t-83 -262.5q0 -158 83 -260.5
t230 -102.5z" />
    <glyph glyph-name="e" unicode="e" horiz-adv-x="1048" 
d="M530 1001q206 0 326.5 -145t120.5 -364q0 -8 -1 -26t-1 -26h-760q15 -137 104 -224t224 -87q178 0 272 147l129 -63q-63 -107 -166 -167t-235 -60q-208 0 -345 146.5t-137 359.5q0 216 131 362.5t338 146.5zM530 858q-122 0 -203.5 -74.5t-105.5 -195.5h604
q-23 123 -98 196.5t-197 73.5z" />
    <glyph glyph-name="f" unicode="f" horiz-adv-x="612" 
d="M385 1278q-26 -22 -33.5 -56.5t-7.5 -103.5v-131h191v-147h-191v-840h-147v840h-146v147h146v135q0 160 52.5 235.5t153.5 88.5q54 5 123 -14.5t117 -61.5l-82 -113q-45 35 -100 39t-76 -18z" />
    <glyph glyph-name="g" unicode="g" horiz-adv-x="1110" 
d="M848 987h149v-946q0 -237 -123.5 -370.5t-345.5 -133.5q-128 0 -239.5 59t-171.5 158l123 74q41 -67 119.5 -107t168.5 -40q153 0 236.5 94.5t83.5 277.5v80q-118 -147 -324 -147q-138 0 -244.5 68t-162.5 182.5t-56 255.5q0 142 56 257t162.5 183.5t244.5 68.5
q206 0 324 -147v133zM524 129q147 0 232.5 103t85.5 260t-86 261.5t-232 104.5q-147 0 -230 -103.5t-83 -262.5q0 -158 83 -260.5t230 -102.5z" />
    <glyph glyph-name="h" unicode="h" horiz-adv-x="1024" 
d="M547 1001q375 0 375 -456v-545h-148v545q0 309 -250 309q-119 0 -190.5 -81.5t-71.5 -240.5v-532h-149v1434h149v-562q110 129 285 129z" />
    <glyph glyph-name="i" unicode="i" horiz-adv-x="391" 
d="M121 0v987h149v-987h-149zM195 1176q-34 0 -58 23.5t-24 57.5q0 35 24 59.5t58 24.5q35 0 59.5 -24.5t24.5 -59.5q0 -34 -24.5 -57.5t-59.5 -23.5z" />
    <glyph glyph-name="j" unicode="j" horiz-adv-x="417" 
d="M221 1176q-34 0 -58 23.5t-24 57.5q0 35 24 59.5t58 24.5q35 0 59.5 -24.5t24.5 -59.5q0 -34 -24.5 -57.5t-59.5 -23.5zM147 -133v1120h150v-1124q0 -164 -53 -237.5t-156 -86.5q-49 -5 -108.5 15.5t-112.5 62.5l84 113q29 -25 60 -35t55 -6t40 18q26 22 33.5 56.5
t7.5 103.5z" />
    <glyph glyph-name="k" unicode="k" horiz-adv-x="968" 
d="M756 0l-348 479l-148 -160v-319h-147v1434h147v-897l416 450h201l-367 -397l428 -590h-182z" />
    <glyph glyph-name="l" unicode="l" horiz-adv-x="372" 
d="M113 1536h147v-1536h-147v1536z" />
    <glyph glyph-name="m" unicode="m" horiz-adv-x="1611" 
d="M1143 1001q79 0 139.5 -21t111.5 -70.5t78 -141.5t27 -223v-545h-147v545q0 161 -56 235t-176 74q-116 0 -177.5 -80.5t-61.5 -241.5v-532h-148v545q0 161 -56.5 235t-176.5 74q-116 0 -177 -80.5t-61 -241.5v-532h-149v987h149v-100q97 114 262 114q222 0 305 -172
q53 81 133 126.5t181 45.5z" />
    <glyph glyph-name="n" unicode="n" horiz-adv-x="1034" 
d="M547 1001q375 0 375 -456v-545h-148v545q0 309 -252 309q-119 0 -190.5 -82.5t-71.5 -239.5v-532h-147v987h147v-115q113 129 287 129z" />
    <glyph glyph-name="o" unicode="o" horiz-adv-x="1099" 
d="M547 1001q139 0 249.5 -68t171 -184t60.5 -257t-60.5 -256.5t-171 -183.5t-249.5 -68q-138 0 -247 68t-168.5 183.5t-59.5 256.5t59.5 257t169 184t246.5 68zM547 129q149 0 240.5 103.5t91.5 259.5t-91.5 261t-240.5 105q-148 0 -237 -104.5t-89 -261.5
q0 -156 88.5 -259.5t237.5 -103.5z" />
    <glyph glyph-name="p" unicode="p" horiz-adv-x="1120" 
d="M586 1001q138 0 244.5 -68.5t162.5 -183.5t56 -257t-56 -257t-162.5 -183t-244.5 -68q-203 0 -326 149v-579h-147v1433h147v-135q123 149 326 149zM586 129q147 0 230 102.5t83 260.5q0 159 -83 262.5t-230 103.5q-146 0 -232 -104.5t-86 -261.5t85.5 -260t232.5 -103z
" />
    <glyph glyph-name="q" unicode="q" horiz-adv-x="1116" 
d="M856 987h148v-1433h-148v579q-120 -149 -326 -149q-208 0 -338.5 146t-130.5 362q0 217 130.5 363t338.5 146q206 0 326 -149v135zM530 129q148 0 234 103t86 260q0 158 -86 262t-234 104q-147 0 -230 -103.5t-83 -262.5q0 -158 83 -260.5t230 -102.5z" />
    <glyph glyph-name="r" unicode="r" horiz-adv-x="630" 
d="M537 1001q23 0 73 -4l-28 -149q-30 6 -68 6q-119 0 -190.5 -82.5t-71.5 -239.5v-532h-150v987h150v-115q110 129 285 129z" />
    <glyph glyph-name="s" unicode="s" horiz-adv-x="872" 
d="M455 569q56 -12 100.5 -25.5t92.5 -37t80 -53t52.5 -74t20.5 -98.5q0 -75 -31 -133.5t-83 -93t-115 -52.5t-132 -18q-140 0 -244.5 63.5t-144.5 167.5l135 55q23 -66 89.5 -102.5t164.5 -36.5q35 0 68.5 7t67 22.5t54.5 46.5t21 74q0 58 -46.5 87.5t-178.5 57.5
q-42 8 -66 13.5t-65 17t-66.5 23t-57.5 31t-51.5 42t-36 55t-22.5 70.5q-19 133 80 228t262 95q128 0 221.5 -57.5t127.5 -155.5l-138 -53q-39 113 -208 119q-102 3 -155 -42.5t-42 -109.5q3 -19 11.5 -34.5t26.5 -27.5t35 -21t49.5 -18.5t55.5 -15.5t68 -16z" />
    <glyph glyph-name="t" unicode="t" horiz-adv-x="653" 
d="M547 174l76 -113q-50 -41 -116 -61t-116 -14q-103 11 -156 85t-53 236v531h-151v149h151v217l150 41v-258h209v-149h-209v-527q0 -68 7 -102.5t32 -56.5q17 -14 46 -18t65 6t65 34z" />
    <glyph glyph-name="u" unicode="u" horiz-adv-x="1024" 
d="M764 987h147v-987h-147v115q-111 -131 -281 -131q-62 0 -115 12.5t-103 45t-85 83t-56.5 131.5t-21.5 186v545h150v-545q0 -309 250 -309q119 0 190.5 81.5t71.5 240.5v532z" />
    <glyph glyph-name="v" unicode="v" horiz-adv-x="917" 
d="M737 987h160l-360 -987h-158l-359 987h158l281 -780z" />
    <glyph glyph-name="w" unicode="w" horiz-adv-x="1454" 
d="M1290 987h154l-320 -987h-149l-248 748l-248 -748h-149l-320 987h156l242 -747l247 747h144l248 -747z" />
    <glyph glyph-name="x" unicode="x" horiz-adv-x="931" 
d="M922 0h-183l-274 381l-272 -381h-183l365 508l-344 479h182l252 -352l252 352h184l-344 -479z" />
    <glyph glyph-name="y" unicode="y" horiz-adv-x="907" 
d="M739 987h158l-346 -956q-96 -252 -166 -350q-109 -145 -307 -93l26 146q37 -7 62 -7.5t49.5 8.5t42.5 26t38.5 51.5t39.5 77.5t45 110l-361 987h160l279 -780z" />
    <glyph glyph-name="z" unicode="z" horiz-adv-x="899" 
d="M254 147h594v-147h-787v147l566 691h-537v149h729v-149z" />
    <glyph glyph-name="braceleft" unicode="{" horiz-adv-x="712" 
d="M631 1407q-30 0 -47.5 -1t-42 -4t-39 -11t-32 -20.5t-27 -32.5t-18.5 -48t-13 -67t-4 -88q0 -8 0.5 -58.5t0 -67t-2 -64t-5 -69t-9 -62t-15 -64t-22.5 -52.5t-31 -49.5t-41 -36.5q23 -16 41 -36.5t31 -50t22.5 -52.5t15 -63.5t9 -62.5t5 -69.5t2 -64t0 -67t-0.5 -58.5
q0 -49 4 -88t13 -67t18.5 -48t27 -32.5t32 -20.5t39 -11t42 -4t47.5 -1v-150q-130 0 -207 36.5t-117.5 130t-40.5 255.5q0 27 0.5 75t0.5 77t-0.5 71.5t-3.5 69.5t-8 60t-14.5 52.5t-22.5 38t-32 27t-43 8.5v88q24 0 43 8.5t32 27t22.5 38.5t14.5 53t8 59.5t3.5 69.5t0.5 72
t-0.5 77t-0.5 75q0 122 21.5 204t68 130t112.5 67.5t163 19.5v-149z" />
    <glyph glyph-name="bar" unicode="|" horiz-adv-x="518" 
d="M184 1538h150v-1853h-150v1853z" />
    <glyph glyph-name="braceright" unicode="}" horiz-adv-x="714" 
d="M82 1407v149q98 0 164 -19.5t113 -67.5t68.5 -129.5t21.5 -204.5q0 -28 -0.5 -75t-1 -76.5t0.5 -72t3.5 -70t8 -60t14.5 -52.5t22 -38.5t32 -27t43 -8.5v-88q-24 0 -43 -8.5t-32 -26.5t-22 -38.5t-14.5 -53t-8 -59.5t-3.5 -69.5t-0.5 -72t1 -76.5t0.5 -75
q0 -123 -21.5 -204.5t-68 -129.5t-113 -68t-164.5 -20v150q30 0 47.5 1t42.5 4t39.5 11t32 20.5t27.5 32.5t19 48t13 67t4 88q0 13 -0.5 59t0 66.5t1.5 64.5t4.5 68.5l9 63t15.5 63.5t22.5 53t31 49t41.5 37q-23 16 -41.5 37t-31 49t-22.5 53t-15.5 63t-9 62.5t-4.5 68.5
t-1.5 64.5t0 66.5t0.5 59q0 49 -4 88t-13 67t-19 48t-27.5 32.5t-32 20.5t-39.5 11t-42.5 4t-47.5 1z" />
    <glyph glyph-name="asciitilde" unicode="~" horiz-adv-x="1132" 
d="M891 715l139 -45q-36 -76 -103.5 -127t-166.5 -47q-45 1 -108 21t-113 46q-104 55 -154 55q-79 0 -137 -86l-146 46q21 38 42 66t54 56.5t79.5 44t103.5 15.5q105 0 227 -66q87 -46 152 -51q87 -8 131 72z" />
    <glyph glyph-name="exclamdown" unicode="&#xa1;" horiz-adv-x="430" 
d="M170 647h113l16 -1077h-147zM225 864q-34 0 -58 24t-24 58t24 58t58 24t58 -24t24 -58t-24 -58t-58 -24z" />
    <glyph glyph-name="cent" unicode="&#xa2;" horiz-adv-x="1026" 
d="M598 131q74 7 135.5 46.5t100.5 101.5l131 -62q-60 -99 -154.5 -160t-212.5 -71v-193h-149v203q-165 38 -266 177t-101 323t101 321.5t266 175.5v201h149v-190q117 -9 212 -70t155 -160l-131 -63q-39 62 -99.5 101t-136.5 48v-729zM231 496q0 -125 58.5 -220.5
t159.5 -130.5v699q-101 -35 -159.5 -130t-58.5 -218z" />
    <glyph glyph-name="sterling" unicode="&#xa3;" horiz-adv-x="1095" 
d="M395 147h660v-147h-1014v147h205v408h-158v147h158v238q0 248 110 377t289 129q116 0 211 -66t152 -194l-125 -58q-91 170 -232 170q-256 0 -256 -358v-238h406v-147h-406v-408z" />
    <glyph glyph-name="currency" unicode="&#xa4;" horiz-adv-x="1331" 
d="M1102 731q0 -137 -80 -250l186 -182l-104 -104l-184 182q-116 -82 -254 -82t-254 82l-185 -182l-104 104l184 182q-78 115 -78 250t78 250l-184 182l104 105l185 -183q116 82 254 82t254 -82l184 183l104 -105l-186 -182q80 -113 80 -250zM389 731q0 -121 79 -205
t198 -84q118 0 197 84t79 205t-79 205t-197 84q-119 0 -198 -84t-79 -205z" />
    <glyph glyph-name="yen" unicode="&#xa5;" horiz-adv-x="1226" 
d="M1186 1434l-459 -820h307v-147h-346v-105h346v-147h-346v-215h-147v215h-348v147h348v105h-348v147h307l-459 820h170l401 -719l404 719h170z" />
    <glyph glyph-name="brokenbar" unicode="&#xa6;" horiz-adv-x="518" 
d="M184 1538h150v-678h-150v678zM184 -315v675h150v-675h-150z" />
    <glyph glyph-name="section" unicode="&#xa7;" horiz-adv-x="1169" 
d="M1040 610q20 -132 -35 -234.5t-153 -162.5q98 -101 98 -254q0 -104 -52 -183t-133.5 -118t-178.5 -39q-177 0 -285 121q-66 79 -84 172l141 41q15 -78 74.5 -132t153.5 -54q90 0 151 56.5t64 141.5q2 44 -11.5 80t-34 61.5t-63.5 52.5t-80 44.5t-104 46.5q-47 20 -72 31
t-68.5 33.5t-68.5 40t-58.5 45.5t-52.5 56t-36 66t-23 80q-20 132 35 234.5t153 162.5q-96 103 -96 254q0 155 107 248.5t258 93.5q96 0 167.5 -36t116.5 -86q61 -70 84 -173l-143 -40q-15 79 -73 132.5t-152 53.5q-91 0 -151.5 -56.5t-65.5 -142.5q-1 -37 6 -67t27.5 -56
t41 -45t61 -40.5t72 -36.5t87.5 -39q36 -15 55.5 -24t53.5 -25.5t54 -28.5t49.5 -31t48 -36.5t40 -41t35 -48t24.5 -55t16 -63.5zM276 625q11 -78 77.5 -127t213.5 -111q130 -61 152 -74q80 27 136 100.5t40 174.5q-5 33 -21 61.5t-38 49.5t-61.5 44t-75.5 40t-95 42
q-126 59 -151 74q-81 -25 -137 -98.5t-40 -175.5z" />
    <glyph glyph-name="dieresis" unicode="&#xa8;" horiz-adv-x="681" 
d="M186 1391q34 0 58 -24.5t24 -59.5q0 -34 -24 -58t-58 -24t-59 24t-25 58q0 35 25 59.5t59 24.5zM496 1391q35 0 59.5 -24.5t24.5 -59.5q0 -34 -24.5 -58t-59.5 -24q-34 0 -58 24t-24 58q0 35 24 59.5t58 24.5z" />
    <glyph glyph-name="copyright" unicode="&#xa9;" horiz-adv-x="1650" 
d="M825 1458q202 0 373 -99.5t271 -270.5t100 -373q0 -151 -59 -289t-158.5 -237.5t-237.5 -158.5t-289 -59q-202 0 -373 100t-270.5 271t-99.5 373q0 151 59 288.5t158.5 237t237 158.5t288.5 59zM825 102q124 0 237 48.5t194 131t128.5 195.5t47.5 238q0 166 -80.5 307
t-220.5 223t-306 82t-305.5 -82t-220 -222.5t-80.5 -307.5q0 -125 47.5 -238t128.5 -195.5t193.5 -131t236.5 -48.5zM834 1004q-117 0 -186.5 -83t-69.5 -208q0 -124 70 -206.5t188 -82.5q143 0 219 119l102 -51q-50 -85 -133.5 -133t-187.5 -48q-166 0 -272.5 116
t-106.5 286q0 171 106 288t271 117q105 0 188.5 -49t134.5 -135l-102 -49q-78 119 -221 119z" />
    <glyph glyph-name="guillemotleft" unicode="&#xab;" horiz-adv-x="1038" 
d="M553 870l-229 -321l229 -324h-182l-228 324l228 321h182zM895 870l-229 -321l229 -324h-182l-228 324l228 321h182z" />
    <glyph glyph-name="registered" unicode="&#xae;" horiz-adv-x="1650" 
d="M825 1458q202 0 373 -99.5t271 -270.5t100 -373q0 -151 -59 -289t-158.5 -237.5t-237.5 -158.5t-289 -59q-202 0 -373 100t-270.5 271t-99.5 373q0 151 59 288.5t158.5 237t237 158.5t288.5 59zM825 102q124 0 237 48.5t194 131t128.5 195.5t47.5 238q0 166 -80.5 307
t-220.5 223t-306 82t-306 -82t-221 -223t-81 -307t81 -307.5t221 -223.5t306 -82zM1135 862q0 -78 -37 -135.5t-103 -85.5l166 -293h-131l-149 268h-15h-190v-268h-115v760h305q114 0 191.5 -67t77.5 -179zM676 993v-264h190q70 0 110 33.5t40 99.5q0 64 -41 97.5t-109 33.5
h-190z" />
    <glyph glyph-name="macron" unicode="&#xaf;" horiz-adv-x="716" 
d="M102 1386h512v-147h-512v147z" />
    <glyph glyph-name="degree" unicode="&#xb0;" horiz-adv-x="825" 
d="M412 1462q129 0 220 -89t91 -220q0 -132 -91 -221.5t-220 -89.5t-219.5 89.5t-90.5 221.5q0 131 90.5 220t219.5 89zM412 979q73 0 123.5 49.5t50.5 124.5t-50.5 124.5t-123.5 49.5t-123.5 -49.5t-50.5 -124.5t50.5 -124.5t123.5 -49.5z" />
    <glyph glyph-name="plusminus" unicode="&#xb1;" horiz-adv-x="1081" 
d="M614 856h324v-149h-324v-322h-147v322h-324v149h324v324h147v-324zM143 117v147h795v-147h-795z" />
    <glyph glyph-name="acute" unicode="&#xb4;" horiz-adv-x="520" 
d="M262 1434h156l-203 -281h-113z" />
    <glyph glyph-name="paragraph" unicode="&#xb6;" horiz-adv-x="1150" 
d="M1049 1434v-148h-111v-1601h-147v1601h-203v-1601h-148v1063q-151 0 -244.5 99t-93.5 243q0 140 99.5 242t238.5 102h609z" />
    <glyph glyph-name="cedilla" unicode="&#xb8;" horiz-adv-x="548" 
d="M264 -115q89 10 135.5 -31.5t46.5 -107.5q0 -43 -21 -81t-58 -60q-57 -32 -126.5 -26.5t-138.5 48.5l45 82q49 -36 108 -37.5t87 41.5q14 26 6 52t-35 36q-59 19 -100 -20l-86 61l80 156h112z" />
    <glyph glyph-name="guillemotright" unicode="&#xbb;" horiz-adv-x="1038" 
d="M324 870l229 -321l-229 -324h-181l228 324l-228 321h181zM666 870l229 -321l-229 -324h-181l228 324l-228 321h181z" />
    <glyph glyph-name="questiondown" unicode="&#xbf;" horiz-adv-x="870" 
d="M516 864q-34 0 -58 24t-24 58t24 58t58 24q35 0 59.5 -24t24.5 -58t-24.5 -58t-59.5 -24zM702 -61l127 -31q-12 -69 -42.5 -131t-77 -111.5t-112.5 -78.5t-142 -29t-144 23.5t-122.5 69.5t-83 123t-21.5 175q7 102 60 194.5t141 196.5q57 68 84.5 103.5t55 93.5t28.5 110
h141q-1 -54 -15.5 -104.5t-44.5 -99.5t-56.5 -84.5t-69.5 -86.5q-41 -50 -64.5 -80.5t-54 -77t-46 -90t-18.5 -85.5q-9 -126 53 -183t177 -57q92 0 158.5 70.5t88.5 169.5z" />
    <glyph glyph-name="Agrave" unicode="&#xc0;" horiz-adv-x="1341" 
d="M1116 0l-155 416h-580l-156 -416h-164l541 1434h135l543 -1434h-164zM436 563h469l-235 635zM563 1843l160 -280h-113l-202 280h155z" />
    <glyph glyph-name="Aacute" unicode="&#xc1;" horiz-adv-x="1341" 
d="M1116 0l-155 416h-580l-156 -416h-164l541 1434h135l543 -1434h-164zM436 563h469l-235 635zM797 1843h155l-202 -280h-113z" />
    <glyph glyph-name="Acircumflex" unicode="&#xc2;" horiz-adv-x="1341" 
d="M1116 0l-155 416h-580l-156 -416h-164l541 1434h135l543 -1434h-164zM436 563h469l-235 635zM958 1563h-172l-116 163l-117 -163h-170l217 280h139z" />
    <glyph glyph-name="Atilde" unicode="&#xc3;" horiz-adv-x="1341" 
d="M1116 0l-155 416h-580l-156 -416h-164l541 1434h135l543 -1434h-164zM436 563h469l-235 635zM864 1782l135 -41q-25 -80 -63.5 -123.5t-87 -49.5t-98.5 8t-109 48q-57 37 -102 30t-80 -69l-121 64q58 119 151 147t203 -35q29 -16 46 -24t40 -15t37 -3t27.5 19.5
t21.5 43.5z" />
    <glyph glyph-name="Adieresis" unicode="&#xc4;" horiz-adv-x="1341" 
d="M1116 0l-155 416h-580l-156 -416h-164l541 1434h135l543 -1434h-164zM436 563h469l-235 635zM516 1800q34 0 58 -24.5t24 -59.5q0 -34 -24 -58t-58 -24t-59 24t-25 58q0 35 25 59.5t59 24.5zM825 1800q35 0 59.5 -24.5t24.5 -59.5q0 -34 -24.5 -58t-59.5 -24
q-34 0 -58 24t-24 58q0 35 24 59.5t58 24.5z" />
    <glyph glyph-name="Aring" unicode="&#xc5;" horiz-adv-x="1341" 
d="M1116 0l-155 416h-580l-156 -416h-164l541 1434h135l543 -1434h-164zM436 563h469l-235 635zM672 1999q94 0 159.5 -66.5t65.5 -160.5t-66 -161t-159 -67q-95 0 -161.5 67t-66.5 161t66.5 160.5t161.5 66.5zM672 1665q43 0 74.5 31.5t31.5 75.5t-31.5 75t-74.5 31
q-45 0 -77 -31t-32 -75t32.5 -75.5t76.5 -31.5z" />
    <glyph glyph-name="AE" unicode="&#xc6;" horiz-adv-x="2035" 
d="M1128 147h805v-147h-952v416h-604l-217 -416h-160l752 1434h1169v-148h-793v-495h730v-148h-730v-496zM455 563h526v723h-150z" />
    <glyph glyph-name="Ccedilla" unicode="&#xc7;" horiz-adv-x="1443" 
d="M788 131q146 0 266 65.5t197 180.5l131 -66q-93 -148 -244 -235t-333 -90l-51 -101q89 10 136.5 -31.5t47.5 -107.5q0 -43 -22 -81t-60 -60q-57 -32 -126 -26.5t-136 48.5l43 82q51 -36 108.5 -37.5t85.5 41.5q14 26 6.5 52t-34.5 36q-59 19 -98 -20l-89 61l78 150
q-176 23 -316 124.5t-218 259t-78 341.5q0 199 91.5 366.5t254 266t360.5 98.5q188 0 343 -88t251 -240l-131 -65q-77 115 -197 180t-266 65q-158 0 -285.5 -78t-198.5 -211t-71 -294t71 -295t198.5 -212.5t285.5 -78.5z" />
    <glyph glyph-name="Egrave" unicode="&#xc8;" 
d="M270 147h805v-147h-952v1434h940v-148h-793v-495h729v-148h-729v-496zM557 1843l160 -280h-113l-203 280h156z" />
    <glyph glyph-name="Eacute" unicode="&#xc9;" 
d="M270 147h805v-147h-952v1434h940v-148h-793v-495h729v-148h-729v-496zM684 1843h156l-203 -280h-113z" />
    <glyph glyph-name="Ecircumflex" unicode="&#xca;" 
d="M270 147h805v-147h-952v1434h940v-148h-793v-495h729v-148h-729v-496zM907 1563h-172l-117 163l-116 -163h-170l217 280h139z" />
    <glyph glyph-name="Edieresis" unicode="&#xcb;" 
d="M270 147h805v-147h-952v1434h940v-148h-793v-495h729v-148h-729v-496zM455 1800q34 0 58 -24.5t24 -59.5q0 -34 -24 -58t-58 -24t-59 24t-25 58q0 35 25 59.5t59 24.5zM764 1800q35 0 59.5 -24.5t24.5 -59.5q0 -34 -24.5 -58t-59.5 -24q-34 0 -58 24t-24 58q0 35 24 59.5
t58 24.5z" />
    <glyph glyph-name="Igrave" unicode="&#xcc;" horiz-adv-x="413" 
d="M133 1434h148v-1434h-148v1434zM102 1843l160 -280h-112l-203 280h155z" />
    <glyph glyph-name="Iacute" unicode="&#xcd;" horiz-adv-x="413" 
d="M133 1434h148v-1434h-148v1434zM311 1843h156l-203 -280h-112z" />
    <glyph glyph-name="Icircumflex" unicode="&#xce;" horiz-adv-x="415" 
d="M135 1434h148v-1434h-148v1434zM498 1563h-172l-117 163l-117 -163h-170l217 280h140z" />
    <glyph glyph-name="Idieresis" unicode="&#xcf;" horiz-adv-x="446" 
d="M154 1434h147v-1434h-147v1434zM74 1800q34 0 58 -24.5t24 -59.5q0 -34 -24 -58t-58 -24t-59 24t-25 58q0 35 25 59.5t59 24.5zM383 1800q35 0 59.5 -24.5t24.5 -59.5q0 -34 -24.5 -58t-59.5 -24q-34 0 -58 24t-24 58q0 35 24 59.5t58 24.5z" />
    <glyph glyph-name="Eth" unicode="&#xd0;" horiz-adv-x="1449" 
d="M645 1434q164 0 301.5 -57t229 -154.5t142 -228.5t50.5 -279t-51.5 -278.5t-143.5 -227t-228.5 -153t-297.5 -56.5h-442v643h-185v148h185v643h440zM633 147q178 0 312.5 77t203 205t68.5 286t-69.5 287t-204 206.5t-308.5 77.5h-281v-495h342v-148h-342v-496h279z" />
    <glyph glyph-name="Ntilde" unicode="&#xd1;" horiz-adv-x="1355" 
d="M1075 1434h148v-1434h-136l-806 1163v-1163h-148v1434h135l807 -1160v1160zM895 1782l135 -41q-25 -80 -63.5 -123.5t-87 -49.5t-98.5 8t-109 48q-57 37 -102.5 30t-80.5 -69l-120 64q58 119 151 147t203 -35q29 -16 46 -24t40 -15t37 -3t27.5 19.5t21.5 43.5z" />
    <glyph glyph-name="Ograve" unicode="&#xd2;" horiz-adv-x="1574" 
d="M788 1446q148 0 278 -58t221 -156.5t143.5 -233t52.5 -283.5t-52.5 -283.5t-143.5 -233t-221 -156.5t-278 -58q-197 0 -357.5 98.5t-249.5 265.5t-89 367t89 367t249.5 265.5t357.5 98.5zM788 129q157 0 282 79t193 212.5t68 294.5t-68 294.5t-193 212t-282 78.5
q-158 0 -283.5 -78.5t-193 -212t-67.5 -294.5q0 -162 67.5 -295t193 -212t283.5 -79zM705 1843l159 -280h-112l-203 280h156z" />
    <glyph glyph-name="Oacute" unicode="&#xd3;" horiz-adv-x="1574" 
d="M788 1446q148 0 278 -58t221 -156.5t143.5 -233t52.5 -283.5t-52.5 -283.5t-143.5 -233t-221 -156.5t-278 -58q-197 0 -357.5 98.5t-249.5 265.5t-89 367t89 367t249.5 265.5t357.5 98.5zM788 129q157 0 282 79t193 212.5t68 294.5t-68 294.5t-193 212t-282 78.5
q-158 0 -283.5 -78.5t-193 -212t-67.5 -294.5q0 -162 67.5 -295t193 -212t283.5 -79zM911 1843h156l-203 -280h-112z" />
    <glyph glyph-name="Ocircumflex" unicode="&#xd4;" horiz-adv-x="1574" 
d="M788 1446q148 0 278 -58t221 -156.5t143.5 -233t52.5 -283.5t-52.5 -283.5t-143.5 -233t-221 -156.5t-278 -58q-197 0 -357.5 98.5t-249.5 265.5t-89 367t89 367t249.5 265.5t357.5 98.5zM788 129q157 0 282 79t193 212.5t68 294.5t-68 294.5t-193 212t-282 78.5
q-158 0 -283.5 -78.5t-193 -212t-67.5 -294.5q0 -162 67.5 -295t193 -212t283.5 -79zM1075 1563h-172l-117 163l-116 -163h-170l217 280h139z" />
    <glyph glyph-name="Otilde" unicode="&#xd5;" horiz-adv-x="1574" 
d="M788 1446q148 0 278 -58t221 -156.5t143.5 -233t52.5 -283.5t-52.5 -283.5t-143.5 -233t-221 -156.5t-278 -58q-197 0 -357.5 98.5t-249.5 265.5t-89 367t89 367t249.5 265.5t357.5 98.5zM788 129q157 0 282 79t193 212.5t68 294.5t-68 294.5t-193 212t-282 78.5
q-158 0 -283.5 -78.5t-193 -212t-67.5 -294.5q0 -162 67.5 -295t193 -212t283.5 -79zM983 1782l135 -41q-25 -80 -63.5 -123.5t-87 -49.5t-98.5 8t-109 48q-57 37 -102 30t-80 -69l-121 64q58 119 151 147t203 -35q29 -16 46 -24t40 -15t37 -3t27.5 19.5t21.5 43.5z" />
    <glyph glyph-name="Odieresis" unicode="&#xd6;" horiz-adv-x="1574" 
d="M788 1446q148 0 278 -58t221 -156.5t143.5 -233t52.5 -283.5t-52.5 -283.5t-143.5 -233t-221 -156.5t-278 -58q-197 0 -357.5 98.5t-249.5 265.5t-89 367t89 367t249.5 265.5t357.5 98.5zM788 129q157 0 282 79t193 212.5t68 294.5t-68 294.5t-193 212t-282 78.5
q-158 0 -283.5 -78.5t-193 -212t-67.5 -294.5q0 -162 67.5 -295t193 -212t283.5 -79zM633 1800q34 0 58 -24.5t24 -59.5q0 -34 -24 -58t-58 -24t-59 24t-25 58q0 35 25 59.5t59 24.5zM942 1800q35 0 59.5 -24.5t24.5 -59.5q0 -34 -24.5 -58t-59.5 -24q-34 0 -58 24t-24 58
q0 35 24 59.5t58 24.5z" />
    <glyph glyph-name="multiply" unicode="&#xd7;" horiz-adv-x="1011" 
d="M868 885l-258 -258l258 -258l-106 -105l-256 258l-256 -258l-107 105l258 258l-258 258l107 104l256 -258l256 258z" />
    <glyph glyph-name="Oslash" unicode="&#xd8;" horiz-adv-x="1589" 
d="M1497 1384l-172 -190q164 -200 164 -479q0 -200 -88.5 -366.5t-248.5 -264.5t-357 -98q-241 0 -428 147l-164 -182l-111 98l170 189q-162 205 -162 477q0 149 52.5 283.5t143.5 233t221 156.5t278 58q241 0 426 -148l165 185zM252 715q0 -212 110 -365l760 840
q-138 110 -327 110q-158 0 -283 -78.5t-192.5 -211.5t-67.5 -295zM1337 715q0 212 -112 368l-760 -841q143 -111 330 -111q158 0 283 79t192 211.5t67 293.5z" />
    <glyph glyph-name="Ugrave" unicode="&#xd9;" horiz-adv-x="1310" 
d="M1040 1434h148v-859q0 -149 -40.5 -264t-112.5 -185.5t-166 -106t-207 -35.5t-209 34.5t-170.5 103.5t-117 183.5t-42.5 263.5v865h147v-871q0 -206 111.5 -319t280.5 -113q166 0 272 114t106 318v871zM571 1843l160 -280h-113l-202 280h155z" />
    <glyph glyph-name="Uacute" unicode="&#xda;" horiz-adv-x="1310" 
d="M1040 1434h148v-859q0 -149 -40.5 -264t-112.5 -185.5t-166 -106t-207 -35.5t-209 34.5t-170.5 103.5t-117 183.5t-42.5 263.5v865h147v-871q0 -206 111.5 -319t280.5 -113q166 0 272 114t106 318v871zM750 1843h155l-203 -280h-112z" />
    <glyph glyph-name="Ucircumflex" unicode="&#xdb;" horiz-adv-x="1310" 
d="M1040 1434h148v-859q0 -149 -40.5 -264t-112.5 -185.5t-166 -106t-207 -35.5t-209 34.5t-170.5 103.5t-117 183.5t-42.5 263.5v865h147v-871q0 -206 111.5 -319t280.5 -113q166 0 272 114t106 318v871zM944 1563h-172l-117 163l-116 -163h-170l217 280h139z" />
    <glyph glyph-name="Udieresis" unicode="&#xdc;" horiz-adv-x="1310" 
d="M1040 1434h148v-859q0 -149 -40.5 -264t-112.5 -185.5t-166 -106t-207 -35.5t-209 34.5t-170.5 103.5t-117 183.5t-42.5 263.5v865h147v-871q0 -206 111.5 -319t280.5 -113q166 0 272 114t106 318v871zM502 1800q34 0 58 -24.5t24 -59.5q0 -34 -24 -58t-58 -24t-59 24
t-25 58q0 35 25 59.5t59 24.5zM811 1800q35 0 59.5 -24.5t24.5 -59.5q0 -34 -24.5 -58t-59.5 -24q-34 0 -58 24t-24 58q0 35 24 59.5t58 24.5z" />
    <glyph glyph-name="Yacute" unicode="&#xdd;" horiz-adv-x="1144" 
d="M1145 1434l-498 -889v-545h-149v543l-498 891h170l401 -719l404 719h170zM698 1843h156l-203 -280h-112z" />
    <glyph glyph-name="Thorn" unicode="&#xde;" horiz-adv-x="1202" 
d="M672 1155q197 0 322.5 -126.5t125.5 -311.5q0 -184 -127.5 -311t-320.5 -127h-389v-279h-150v1434h150v-279h389zM672 426q132 0 213.5 84t81.5 207q0 124 -81 207.5t-214 83.5h-389v-582h389z" />
    <glyph glyph-name="germandbls" unicode="&#xdf;" horiz-adv-x="1007" 
d="M647 782q131 -33 210 -136.5t79 -231.5q0 -183 -126.5 -305.5t-350.5 -122.5v135q148 0 236.5 78t88.5 211q0 137 -87.5 217t-237.5 80v135q109 0 175 72.5t66 177.5q0 102 -54 159.5t-154 57.5q-109 0 -172.5 -89t-63.5 -268v-952h-143v977q0 122 31.5 215t86 147
t120.5 80.5t141 26.5q111 0 193 -49t121.5 -126.5t39.5 -170.5q0 -102 -55.5 -190t-143.5 -128z" />
    <glyph glyph-name="agrave" unicode="&#xe0;" horiz-adv-x="962" 
d="M870 0h-147v119q-154 -133 -344 -133q-141 0 -229.5 67.5t-88.5 188.5q0 142 109.5 217.5t345.5 113.5q118 19 165 45t46 74q-1 23 -6 44.5t-20 46.5t-39 43t-65 30t-95 12q-62 0 -108 -14t-73 -40.5t-41.5 -53t-25.5 -62.5l-131 31q11 52 38 99t72 86.5t115.5 63
t157.5 23.5q171 0 266.5 -90.5t95.5 -248.5zM391 125q146 0 241.5 83.5t94.5 215.5v45q-7 -1 -190 -31q-170 -28 -245 -68t-75 -118q0 -38 19.5 -65.5t50 -39.5t56 -17t48.5 -5zM444 1434l160 -281h-112l-203 281h155z" />
    <glyph glyph-name="aacute" unicode="&#xe1;" horiz-adv-x="962" 
d="M870 0h-147v119q-154 -133 -344 -133q-141 0 -229.5 67.5t-88.5 188.5q0 142 109.5 217.5t345.5 113.5q118 19 165 45t46 74q-1 23 -6 44.5t-20 46.5t-39 43t-65 30t-95 12q-62 0 -108 -14t-73 -40.5t-41.5 -53t-25.5 -62.5l-131 31q11 52 38 99t72 86.5t115.5 63
t157.5 23.5q171 0 266.5 -90.5t95.5 -248.5zM391 125q146 0 241.5 83.5t94.5 215.5v45q-7 -1 -190 -31q-170 -28 -245 -68t-75 -118q0 -38 19.5 -65.5t50 -39.5t56 -17t48.5 -5zM592 1434h156l-203 -281h-113z" />
    <glyph glyph-name="acircumflex" unicode="&#xe2;" horiz-adv-x="962" 
d="M870 0h-147v119q-154 -133 -344 -133q-141 0 -229.5 67.5t-88.5 188.5q0 142 109.5 217.5t345.5 113.5q118 19 165 45t46 74q-1 23 -6 44.5t-20 46.5t-39 43t-65 30t-95 12q-62 0 -108 -14t-73 -40.5t-41.5 -53t-25.5 -62.5l-131 31q11 52 38 99t72 86.5t115.5 63
t157.5 23.5q171 0 266.5 -90.5t95.5 -248.5zM391 125q146 0 241.5 83.5t94.5 215.5v45q-7 -1 -190 -31q-170 -28 -245 -68t-75 -118q0 -38 19.5 -65.5t50 -39.5t56 -17t48.5 -5zM795 1153h-172l-117 164l-117 -164h-170l217 281h139z" />
    <glyph glyph-name="atilde" unicode="&#xe3;" horiz-adv-x="962" 
d="M870 0h-147v119q-154 -133 -344 -133q-141 0 -229.5 67.5t-88.5 188.5q0 142 109.5 217.5t345.5 113.5q118 19 165 45t46 74q-1 23 -6 44.5t-20 46.5t-39 43t-65 30t-95 12q-62 0 -108 -14t-73 -40.5t-41.5 -53t-25.5 -62.5l-131 31q11 52 38 99t72 86.5t115.5 63
t157.5 23.5q171 0 266.5 -90.5t95.5 -248.5zM391 125q146 0 241.5 83.5t94.5 215.5v45q-7 -1 -190 -31q-170 -28 -245 -68t-75 -118q0 -38 19.5 -65.5t50 -39.5t56 -17t48.5 -5zM686 1372l135 -41q-25 -80 -63.5 -123.5t-87 -49.5t-98.5 8t-109 48q-57 37 -102 30t-80 -68
l-121 63q58 119 151 147.5t203 -34.5q25 -14 38.5 -20.5t34 -15t33 -8t26.5 5t23.5 19.5t16.5 39z" />
    <glyph glyph-name="adieresis" unicode="&#xe4;" horiz-adv-x="962" 
d="M870 0h-147v119q-154 -133 -344 -133q-141 0 -229.5 67.5t-88.5 188.5q0 142 109.5 217.5t345.5 113.5q118 19 165 45t46 74q-1 23 -6 44.5t-20 46.5t-39 43t-65 30t-95 12q-62 0 -108 -14t-73 -40.5t-41.5 -53t-25.5 -62.5l-131 31q11 52 38 99t72 86.5t115.5 63
t157.5 23.5q171 0 266.5 -90.5t95.5 -248.5zM391 125q146 0 241.5 83.5t94.5 215.5v45q-7 -1 -190 -31q-170 -28 -245 -68t-75 -118q0 -38 19.5 -65.5t50 -39.5t56 -17t48.5 -5zM352 1391q34 0 58 -24.5t24 -59.5q0 -34 -24 -58t-58 -24t-59 24t-25 58q0 35 25 59.5t59 24.5
zM662 1391q35 0 59 -24.5t24 -59.5q0 -34 -24 -58t-59 -24q-34 0 -58 24t-24 58q0 35 24 59.5t58 24.5z" />
    <glyph glyph-name="aring" unicode="&#xe5;" horiz-adv-x="962" 
d="M870 0h-147v119q-154 -133 -344 -133q-141 0 -229.5 67.5t-88.5 188.5q0 142 109.5 217.5t345.5 113.5q118 19 165 45t46 74q-1 23 -6 44.5t-20 46.5t-39 43t-65 30t-95 12q-62 0 -108 -14t-73 -40.5t-41.5 -53t-25.5 -62.5l-131 31q11 52 38 99t72 86.5t115.5 63
t157.5 23.5q171 0 266.5 -90.5t95.5 -248.5zM391 125q146 0 241.5 83.5t94.5 215.5v45q-7 -1 -190 -31q-170 -28 -245 -68t-75 -118q0 -38 19.5 -65.5t50 -39.5t56 -17t48.5 -5zM487 1589q94 0 160 -66.5t66 -160.5t-66 -160.5t-160 -66.5q-95 0 -161 66.5t-66 160.5
t66 160.5t161 66.5zM487 1255q43 0 75 31.5t32 75.5t-32 75t-75 31q-44 0 -76 -31t-32 -75t32 -75.5t76 -31.5z" />
    <glyph glyph-name="ae" unicode="&#xe6;" horiz-adv-x="1708" 
d="M1192 1001q138 0 240 -68.5t153 -183t51 -257.5q0 -36 -2 -52h-757q14 -136 103 -223.5t224 -87.5q180 0 271 147l131 -63q-65 -107 -168 -167t-234 -60q-134 0 -242 64t-169 173q-31 -57 -80 -106q-138 -131 -342 -131q-141 0 -230.5 67t-89.5 187q0 143 109.5 219
t345.5 114q120 19 167 44.5t46 74.5q-1 30 -10.5 57t-32 56t-70 46t-114.5 17q-62 0 -108 -14.5t-72.5 -41t-41 -53t-24.5 -61.5l-133 31q12 53 39 99t72 86t115.5 63.5t158.5 23.5q121 0 204 -47t123 -135q63 86 157.5 134t209.5 48zM1192 858q-122 0 -203.5 -74.5
t-105.5 -195.5h602q-21 123 -95.5 196.5t-197.5 73.5zM719 424v43q-28 -5 -93 -14.5t-98 -14.5q-171 -28 -245 -68t-74 -118q0 -39 19.5 -66.5t50 -39.5t56 -16.5t48.5 -4.5q147 0 242 83t94 216z" />
    <glyph glyph-name="ccedilla" unicode="&#xe7;" horiz-adv-x="993" 
d="M537 129q90 0 161.5 38.5t114.5 108.5l129 -63q-60 -101 -158 -161t-221 -66l-49 -101q88 10 135 -31.5t47 -107.5q0 -43 -21.5 -81t-58.5 -60q-57 -32 -127 -26.5t-137 48.5l45 82q49 -36 108 -37.5t87 41.5q14 26 6 52t-35 36q-60 18 -100 -20l-86 61l76 150
q-175 29 -283.5 169t-108.5 331q0 141 59 257.5t169 185.5t248 69q130 0 236 -62.5t169 -169.5l-129 -63q-44 71 -115.5 111t-160.5 40q-148 0 -237 -105.5t-89 -262.5q0 -156 88.5 -259.5t237.5 -103.5z" />
    <glyph glyph-name="egrave" unicode="&#xe8;" horiz-adv-x="1048" 
d="M530 1001q206 0 326.5 -145t120.5 -364q0 -8 -1 -26t-1 -26h-760q15 -137 104 -224t224 -87q178 0 272 147l129 -63q-63 -107 -166 -167t-235 -60q-208 0 -345 146.5t-137 359.5q0 216 131 362.5t338 146.5zM530 858q-122 0 -203.5 -74.5t-105.5 -195.5h604
q-23 123 -98 196.5t-197 73.5zM457 1434l159 -281h-112l-203 281h156z" />
    <glyph glyph-name="eacute" unicode="&#xe9;" horiz-adv-x="1048" 
d="M530 1001q206 0 326.5 -145t120.5 -364q0 -8 -1 -26t-1 -26h-760q15 -137 104 -224t224 -87q178 0 272 147l129 -63q-63 -107 -166 -167t-235 -60q-208 0 -345 146.5t-137 359.5q0 216 131 362.5t338 146.5zM530 858q-122 0 -203.5 -74.5t-105.5 -195.5h604
q-23 123 -98 196.5t-197 73.5zM645 1434h156l-203 -281h-113z" />
    <glyph glyph-name="ecircumflex" unicode="&#xea;" horiz-adv-x="1048" 
d="M530 1001q206 0 326.5 -145t120.5 -364q0 -8 -1 -26t-1 -26h-760q15 -137 104 -224t224 -87q178 0 272 147l129 -63q-63 -107 -166 -167t-235 -60q-208 0 -345 146.5t-137 359.5q0 216 131 362.5t338 146.5zM530 858q-122 0 -203.5 -74.5t-105.5 -195.5h604
q-23 123 -98 196.5t-197 73.5zM827 1153h-172l-116 164l-117 -164h-170l217 281h139z" />
    <glyph glyph-name="edieresis" unicode="&#xeb;" horiz-adv-x="1048" 
d="M530 1001q206 0 326.5 -145t120.5 -364q0 -8 -1 -26t-1 -26h-760q15 -137 104 -224t224 -87q178 0 272 147l129 -63q-63 -107 -166 -167t-235 -60q-208 0 -345 146.5t-137 359.5q0 216 131 362.5t338 146.5zM530 858q-122 0 -203.5 -74.5t-105.5 -195.5h604
q-23 123 -98 196.5t-197 73.5zM385 1391q34 0 58 -24.5t24 -59.5q0 -34 -24 -58t-58 -24t-59 24t-25 58q0 35 25 59.5t59 24.5zM694 1391q35 0 59.5 -24.5t24.5 -59.5q0 -34 -24.5 -58t-59.5 -24q-34 0 -58 24t-24 58q0 35 24 59.5t58 24.5z" />
    <glyph glyph-name="igrave" unicode="&#xec;" horiz-adv-x="405" 
d="M143 0v987h150v-987h-150zM115 1434l159 -281h-112l-203 281h156z" />
    <glyph glyph-name="iacute" unicode="&#xed;" horiz-adv-x="391" 
d="M123 0v987h149v-987h-149zM303 1434h156l-203 -281h-113z" />
    <glyph glyph-name="icircumflex" unicode="&#xee;" horiz-adv-x="432" 
d="M162 0v987h149v-987h-149zM524 1153h-172l-116 164l-117 -164h-170l217 281h139z" />
    <glyph glyph-name="idieresis" unicode="&#xef;" horiz-adv-x="391" 
d="M123 0v987h149v-987h-149zM43 1391q34 0 58 -24.5t24 -59.5q0 -34 -24 -58t-58 -24t-59 24t-25 58q0 35 25 59.5t59 24.5zM352 1391q35 0 59.5 -24.5t24.5 -59.5q0 -34 -24.5 -58t-59.5 -24q-34 0 -58 24t-24 58q0 35 24 59.5t58 24.5z" />
    <glyph glyph-name="eth" unicode="&#xf0;" horiz-adv-x="1122" 
d="M975 1040q80 -204 75.5 -411t-87.5 -377q-130 -266 -422 -266q-208 0 -344 146.5t-136 359.5q0 141 59 257t168.5 184t246.5 68q225 0 364 -172q-19 132 -98 259t-201 215l-182 -187l-101 101l158 159q-118 54 -244 66l19 135q168 -24 321 -102l187 190l100 -100
l-164 -166q189 -141 281 -359zM541 129q149 0 237 103t88 260q0 169 -89.5 267.5t-241.5 98.5q-147 0 -235.5 -104.5t-88.5 -261.5q0 -156 90.5 -259.5t239.5 -103.5z" />
    <glyph glyph-name="ntilde" unicode="&#xf1;" horiz-adv-x="1034" 
d="M547 1001q375 0 375 -456v-545h-148v545q0 309 -252 309q-119 0 -190.5 -82.5t-71.5 -239.5v-532h-147v987h147v-115q113 129 287 129zM713 1372l135 -41q-25 -80 -63.5 -123.5t-87.5 -49.5t-99 8t-109 48q-57 37 -102 30t-80 -68l-121 63q58 119 151.5 147.5
t203.5 -34.5q25 -14 38.5 -20.5t34 -15t33 -8t26.5 5t23.5 19.5t16.5 39z" />
    <glyph glyph-name="ograve" unicode="&#xf2;" horiz-adv-x="1099" 
d="M547 1001q139 0 249.5 -68t171 -184t60.5 -257t-60.5 -256.5t-171 -183.5t-249.5 -68q-138 0 -247 68t-168.5 183.5t-59.5 256.5t59.5 257t169 184t246.5 68zM547 129q149 0 240.5 103.5t91.5 259.5t-91.5 261t-240.5 105q-148 0 -237 -104.5t-89 -261.5
q0 -156 88.5 -259.5t237.5 -103.5zM446 1434l160 -281h-112l-203 281h155z" />
    <glyph glyph-name="oacute" unicode="&#xf3;" horiz-adv-x="1099" 
d="M547 1001q139 0 249.5 -68t171 -184t60.5 -257t-60.5 -256.5t-171 -183.5t-249.5 -68q-138 0 -247 68t-168.5 183.5t-59.5 256.5t59.5 257t169 184t246.5 68zM547 129q149 0 240.5 103.5t91.5 259.5t-91.5 261t-240.5 105q-148 0 -237 -104.5t-89 -261.5
q0 -156 88.5 -259.5t237.5 -103.5zM676 1434h155l-202 -281h-113z" />
    <glyph glyph-name="ocircumflex" unicode="&#xf4;" horiz-adv-x="1099" 
d="M547 1001q139 0 249.5 -68t171 -184t60.5 -257t-60.5 -256.5t-171 -183.5t-249.5 -68q-138 0 -247 68t-168.5 183.5t-59.5 256.5t59.5 257t169 184t246.5 68zM547 129q149 0 240.5 103.5t91.5 259.5t-91.5 261t-240.5 105q-148 0 -237 -104.5t-89 -261.5
q0 -156 88.5 -259.5t237.5 -103.5zM838 1153h-172l-117 164l-117 -164h-170l217 281h139z" />
    <glyph glyph-name="otilde" unicode="&#xf5;" horiz-adv-x="1099" 
d="M547 1001q139 0 249.5 -68t171 -184t60.5 -257t-60.5 -256.5t-171 -183.5t-249.5 -68q-138 0 -247 68t-168.5 183.5t-59.5 256.5t59.5 257t169 184t246.5 68zM547 129q149 0 240.5 103.5t91.5 259.5t-91.5 261t-240.5 105q-148 0 -237 -104.5t-89 -261.5
q0 -156 88.5 -259.5t237.5 -103.5zM745 1372l136 -41q-25 -80 -63.5 -123.5t-87.5 -49.5t-99 8t-109 48q-57 37 -102 30t-80 -68l-121 63q58 119 151 147.5t203 -34.5q25 -14 38.5 -20.5t34 -15t33 -8t26.5 5t23.5 19.5t16.5 39z" />
    <glyph glyph-name="odieresis" unicode="&#xf6;" horiz-adv-x="1099" 
d="M547 1001q139 0 249.5 -68t171 -184t60.5 -257t-60.5 -256.5t-171 -183.5t-249.5 -68q-138 0 -247 68t-168.5 183.5t-59.5 256.5t59.5 257t169 184t246.5 68zM547 129q149 0 240.5 103.5t91.5 259.5t-91.5 261t-240.5 105q-148 0 -237 -104.5t-89 -261.5
q0 -156 88.5 -259.5t237.5 -103.5zM395 1391q34 0 58 -24.5t24 -59.5q0 -34 -24 -58t-58 -24t-59 24t-25 58q0 35 25 59.5t59 24.5zM705 1391q35 0 59 -24.5t24 -59.5q0 -34 -24 -58t-59 -24q-34 0 -58 24t-24 58q0 35 24 59.5t58 24.5z" />
    <glyph glyph-name="divide" unicode="&#xf7;" horiz-adv-x="1081" 
d="M143 700h795v-147h-795v147zM541 893q-34 0 -58 24t-24 58t24 58t58 24t58 -24t24 -58t-24 -58t-58 -24zM541 362q34 0 58 -24t24 -59q0 -34 -24 -58t-58 -24t-58 24t-24 58q0 35 24 59t58 24z" />
    <glyph glyph-name="oslash" unicode="&#xf8;" horiz-adv-x="1099" 
d="M1049 938l-119 -133q96 -140 96 -313q0 -213 -136.5 -359.5t-344.5 -146.5q-155 0 -277 88l-112 -123l-109 98l117 131q-94 137 -94 312q0 141 59 257t168.5 184t247.5 68q157 0 280 -90l113 125zM219 492q0 -113 47 -199l461 510q-77 55 -182 55q-148 0 -237 -104.5
t-89 -261.5zM877 492q0 108 -50 200l-462 -512q76 -51 180 -51q149 0 240.5 103.5t91.5 259.5z" />
    <glyph glyph-name="ugrave" unicode="&#xf9;" horiz-adv-x="1024" 
d="M764 987h147v-987h-147v115q-111 -131 -281 -131q-62 0 -115 12.5t-103 45t-85 83t-56.5 131.5t-21.5 186v545h150v-545q0 -309 250 -309q119 0 190.5 81.5t71.5 240.5v532zM444 1434l160 -281h-112l-203 281h155z" />
    <glyph glyph-name="uacute" unicode="&#xfa;" horiz-adv-x="1024" 
d="M764 987h147v-987h-147v115q-111 -131 -281 -131q-62 0 -115 12.5t-103 45t-85 83t-56.5 131.5t-21.5 186v545h150v-545q0 -309 250 -309q119 0 190.5 81.5t71.5 240.5v532zM612 1434h156l-203 -281h-112z" />
    <glyph glyph-name="ucircumflex" unicode="&#xfb;" horiz-adv-x="1024" 
d="M764 987h147v-987h-147v115q-111 -131 -281 -131q-62 0 -115 12.5t-103 45t-85 83t-56.5 131.5t-21.5 186v545h150v-545q0 -309 250 -309q119 0 190.5 81.5t71.5 240.5v532zM815 1153h-172l-117 164l-116 -164h-170l217 281h139z" />
    <glyph glyph-name="udieresis" unicode="&#xfc;" horiz-adv-x="1024" 
d="M764 987h147v-987h-147v115q-111 -131 -281 -131q-62 0 -115 12.5t-103 45t-85 83t-56.5 131.5t-21.5 186v545h150v-545q0 -309 250 -309q119 0 190.5 81.5t71.5 240.5v532zM373 1391q34 0 58 -24.5t24 -59.5q0 -34 -24 -58t-58 -24t-59 24t-25 58q0 35 25 59.5t59 24.5z
M682 1391q35 0 59.5 -24.5t24.5 -59.5q0 -34 -24.5 -58t-59.5 -24q-34 0 -58 24t-24 58q0 35 24 59.5t58 24.5z" />
    <glyph glyph-name="yacute" unicode="&#xfd;" horiz-adv-x="907" 
d="M739 987h158l-346 -956q-96 -252 -166 -350q-109 -145 -307 -93l26 146q37 -7 62 -7.5t49.5 8.5t42.5 26t38.5 51.5t39.5 77.5t45 110l-361 987h160l279 -780zM563 1434h156l-203 -281h-113z" />
    <glyph glyph-name="thorn" unicode="&#xfe;" horiz-adv-x="1120" 
d="M586 1001q138 0 244.5 -68.5t162.5 -183.5t56 -257q0 -141 -56 -255.5t-162.5 -182.5t-244.5 -68q-208 0 -326 147v-579h-147v1880h147v-582q120 149 326 149zM586 129q147 0 230 102.5t83 260.5q0 159 -83 262.5t-230 103.5q-148 0 -234 -104t-86 -262q0 -157 86 -260
t234 -103z" />
    <glyph glyph-name="ydieresis" unicode="&#xff;" horiz-adv-x="907" 
d="M739 987h158l-346 -956q-96 -252 -166 -350q-109 -145 -307 -93l26 146q37 -7 62 -7.5t49.5 8.5t42.5 26t38.5 51.5t39.5 77.5t45 110l-361 987h160l279 -780zM305 1391q34 0 58 -24.5t24 -59.5q0 -34 -24 -58t-58 -24t-59 24t-25 58q0 35 25 59.5t59 24.5zM614 1391
q35 0 59.5 -24.5t24.5 -59.5q0 -34 -24.5 -58t-59.5 -24q-34 0 -58 24t-24 58q0 35 24 59.5t58 24.5z" />
    <glyph glyph-name="Amacron" unicode="&#x100;" horiz-adv-x="1341" 
d="M1116 0l-155 416h-580l-156 -416h-164l541 1434h135l543 -1434h-164zM436 563h469l-235 635zM416 1796h512v-147h-512v147z" />
    <glyph glyph-name="amacron" unicode="&#x101;" horiz-adv-x="962" 
d="M870 0h-147v119q-154 -133 -344 -133q-141 0 -229.5 67.5t-88.5 188.5q0 142 109.5 217.5t345.5 113.5q118 19 165 45t46 74q-1 23 -6 44.5t-20 46.5t-39 43t-65 30t-95 12q-62 0 -108 -14t-73 -40.5t-41.5 -53t-25.5 -62.5l-131 31q11 52 38 99t72 86.5t115.5 63
t157.5 23.5q171 0 266.5 -90.5t95.5 -248.5zM391 125q146 0 241.5 83.5t94.5 215.5v45q-7 -1 -190 -31q-170 -28 -245 -68t-75 -118q0 -38 19.5 -65.5t50 -39.5t56 -17t48.5 -5zM242 1386h512v-147h-512v147z" />
    <glyph glyph-name="Abreve" unicode="&#x102;" horiz-adv-x="1341" 
d="M1116 0l-155 416h-580l-156 -416h-164l541 1434h135l543 -1434h-164zM436 563h469l-235 635zM791 1843h129q0 -115 -68.5 -191.5t-179.5 -76.5q-112 0 -180 76.5t-68 191.5h129q0 -63 31.5 -103t87.5 -40q53 0 86 40.5t33 102.5z" />
    <glyph glyph-name="abreve" unicode="&#x103;" horiz-adv-x="962" 
d="M870 0h-147v119q-154 -133 -344 -133q-141 0 -229.5 67.5t-88.5 188.5q0 142 109.5 217.5t345.5 113.5q118 19 165 45t46 74q-1 23 -6 44.5t-20 46.5t-39 43t-65 30t-95 12q-62 0 -108 -14t-73 -40.5t-41.5 -53t-25.5 -62.5l-131 31q11 52 38 99t72 86.5t115.5 63
t157.5 23.5q171 0 266.5 -90.5t95.5 -248.5zM391 125q146 0 241.5 83.5t94.5 215.5v45q-7 -1 -190 -31q-170 -28 -245 -68t-75 -118q0 -38 19.5 -65.5t50 -39.5t56 -17t48.5 -5zM635 1434h129q0 -115 -69 -192t-179 -77q-112 0 -180 77t-68 192h129q0 -63 31.5 -103.5
t87.5 -40.5q53 0 86 41t33 103z" />
    <glyph glyph-name="Aogonek" unicode="&#x104;" horiz-adv-x="1341" 
d="M1100 -238q14 -40 67 -42t90 24v-141q-49 -19 -94 -19q-81 0 -134 51t-46 134q5 73 56.5 137.5t99.5 93.5h-23l-155 416h-580l-156 -416h-164l543 1434h135l541 -1434h-18q-72 -33 -128.5 -106t-33.5 -132zM436 563h471l-235 635z" />
    <glyph glyph-name="aogonek" unicode="&#x105;" horiz-adv-x="964" 
d="M700 -238q16 -40 68.5 -42t89.5 24v-141q-49 -19 -94 -19q-81 0 -134 51t-46 134q7 74 58 138.5t97 92.5h-16v119q-154 -133 -342 -133q-141 0 -230.5 67t-89.5 187q0 143 109.5 219t345.5 114q120 19 167 44.5t46 74.5q-1 30 -10.5 57t-32 56t-70 46t-114.5 17
q-62 0 -108 -14t-72.5 -40t-41 -53t-24.5 -63l-133 31q12 53 39 99.5t72 87t115.5 64.5t158.5 24q170 0 266 -92t96 -250l2 -662h-10q-72 -33 -128.5 -106t-33.5 -132zM729 424v45q-30 -6 -98.5 -16.5t-91.5 -14.5q-171 -28 -245.5 -68t-74.5 -118q0 -38 19.5 -65.5
t50 -39.5t56 -17t48.5 -5q146 0 241.5 83.5t94.5 215.5z" />
    <glyph glyph-name="Cacute" unicode="&#x106;" horiz-adv-x="1452" 
d="M799 129q145 0 265.5 66.5t195.5 181.5l131 -66q-94 -151 -249.5 -239t-342.5 -88q-148 0 -280 58t-225 156t-147.5 233t-54.5 284t54.5 284t147.5 233t225 156t280 58q187 0 342.5 -88t249.5 -240l-131 -63q-75 113 -196 179t-265 66q-159 0 -286.5 -78.5t-198 -212
t-70.5 -294.5t70.5 -295t198 -212.5t286.5 -78.5zM887 1843h155l-202 -280h-113z" />
    <glyph glyph-name="cacute" unicode="&#x107;" horiz-adv-x="993" 
d="M537 129q89 0 160 38.5t116 108.5l129 -63q-63 -106 -168.5 -166.5t-236.5 -60.5q-209 0 -342.5 146t-133.5 360q0 141 59 257t168.5 184t246.5 68q132 0 238 -62t169 -169l-129 -61q-46 70 -117 109.5t-161 39.5q-147 0 -235.5 -104.5t-88.5 -261.5q0 -156 88.5 -259.5
t237.5 -103.5zM627 1434h155l-202 -281h-113z" />
    <glyph glyph-name="Ccircumflex" unicode="&#x108;" horiz-adv-x="1452" 
d="M799 129q145 0 265.5 66.5t195.5 181.5l131 -66q-94 -151 -249.5 -239t-342.5 -88q-148 0 -280 58t-225 156t-147.5 233t-54.5 284t54.5 284t147.5 233t225 156t280 58q187 0 342.5 -88t249.5 -240l-131 -63q-75 113 -196 179t-265 66q-159 0 -286.5 -78.5t-198 -212
t-70.5 -294.5t70.5 -295t198 -212.5t286.5 -78.5zM1092 1563h-172l-117 163l-117 -163h-170l217 280h139z" />
    <glyph glyph-name="ccircumflex" unicode="&#x109;" horiz-adv-x="993" 
d="M537 129q89 0 160 38.5t116 108.5l129 -63q-63 -106 -168.5 -166.5t-236.5 -60.5q-209 0 -342.5 146t-133.5 360q0 141 59 257t168.5 184t246.5 68q132 0 238 -62t169 -169l-129 -61q-46 70 -117 109.5t-161 39.5q-147 0 -235.5 -104.5t-88.5 -261.5q0 -156 88.5 -259.5
t237.5 -103.5zM811 1153h-172l-117 164l-116 -164h-170l217 281h139z" />
    <glyph glyph-name="Cdotaccent" unicode="&#x10a;" horiz-adv-x="1452" 
d="M799 129q145 0 265.5 66.5t195.5 181.5l131 -66q-94 -151 -249.5 -239t-342.5 -88q-148 0 -280 58t-225 156t-147.5 233t-54.5 284t54.5 284t147.5 233t225 156t280 58q187 0 342.5 -88t249.5 -240l-131 -63q-75 113 -196 179t-265 66q-159 0 -286.5 -78.5t-198 -212
t-70.5 -294.5t70.5 -295t198 -212.5t286.5 -78.5zM803 1800q34 0 58 -24.5t24 -59.5q0 -34 -24 -58t-58 -24t-58 24t-24 58q0 35 24 59.5t58 24.5z" />
    <glyph glyph-name="cdotaccent" unicode="&#x10b;" horiz-adv-x="993" 
d="M537 129q89 0 160 38.5t116 108.5l129 -63q-63 -106 -168.5 -166.5t-236.5 -60.5q-209 0 -342.5 146t-133.5 360q0 141 59 257t168.5 184t246.5 68q132 0 238 -62t169 -169l-129 -61q-46 70 -117 109.5t-161 39.5q-147 0 -235.5 -104.5t-88.5 -261.5q0 -156 88.5 -259.5
t237.5 -103.5zM522 1391q34 0 58 -24.5t24 -59.5q0 -34 -24 -58t-58 -24t-58 24t-24 58q0 35 24 59.5t58 24.5z" />
    <glyph glyph-name="Ccaron" unicode="&#x10c;" horiz-adv-x="1452" 
d="M799 129q145 0 265.5 66.5t195.5 181.5l131 -66q-94 -151 -249.5 -239t-342.5 -88q-148 0 -280 58t-225 156t-147.5 233t-54.5 284t54.5 284t147.5 233t225 156t280 58q187 0 342.5 -88t249.5 -240l-131 -63q-75 113 -196 179t-265 66q-159 0 -286.5 -78.5t-198 -212
t-70.5 -294.5t70.5 -295t198 -212.5t286.5 -78.5zM1092 1843l-220 -280h-139l-219 280h172l117 -166l117 166h172z" />
    <glyph glyph-name="ccaron" unicode="&#x10d;" horiz-adv-x="993" 
d="M537 129q89 0 160 38.5t116 108.5l129 -63q-63 -106 -168.5 -166.5t-236.5 -60.5q-209 0 -342.5 146t-133.5 360q0 141 59 257t168.5 184t246.5 68q132 0 238 -62t169 -169l-129 -61q-46 70 -117 109.5t-161 39.5q-147 0 -235.5 -104.5t-88.5 -261.5q0 -156 88.5 -259.5
t237.5 -103.5zM811 1434l-219 -281h-139l-220 281h173l116 -166l117 166h172z" />
    <glyph glyph-name="Dcaron" unicode="&#x10e;" horiz-adv-x="1378" 
d="M573 1434q163 0 300.5 -57t229 -154.5t142.5 -228.5t51 -279t-51.5 -278.5t-144 -227t-229.5 -153t-298 -56.5h-440v1434h440zM561 147q134 0 244.5 44.5t182.5 122t111.5 180.5t39.5 221q0 158 -68.5 287t-201.5 206.5t-306 77.5h-282v-1139h280zM901 1843l-219 -280
h-139l-219 280h172l116 -166l117 166h172z" />
    <glyph glyph-name="dcaron" unicode="&#x10f;" horiz-adv-x="1255" 
d="M850 1434h147v-1434h-147v133q-118 -147 -326 -147q-138 0 -244.5 68t-162.5 182.5t-56 255.5q0 142 56 257t162.5 183.5t244.5 68.5q206 0 326 -149v582zM524 129q148 0 234 103t86 260q0 158 -86 262t-234 104q-147 0 -230 -103.5t-83 -262.5q0 -158 83 -260.5
t230 -102.5zM1141 1090l82 344h155l-141 -344h-96z" />
    <glyph glyph-name="Dcroat" unicode="&#x110;" horiz-adv-x="1449" 
d="M645 1434q164 0 301.5 -57t229 -154.5t142 -228.5t50.5 -279t-51.5 -278.5t-143.5 -227t-228.5 -153t-297.5 -56.5h-442v643h-185v148h185v643h440zM633 147q178 0 312.5 77t203 205t68.5 286t-69.5 287t-204 206.5t-308.5 77.5h-281v-495h342v-148h-342v-496h279z" />
    <glyph glyph-name="dcroat" unicode="&#x111;" horiz-adv-x="1110" 
d="M1176 1282v-147h-179v-1135h-147v133q-118 -147 -326 -147q-138 0 -244.5 68t-162.5 182.5t-56 255.5q0 142 56 257t162.5 183.5t244.5 68.5q206 0 326 -149v283h-240v147h240v152h147v-152h179zM524 129q148 0 234 103t86 260q0 158 -86 262t-234 104
q-147 0 -230 -103.5t-83 -262.5q0 -158 83 -260.5t230 -102.5z" />
    <glyph glyph-name="Emacron" unicode="&#x112;" 
d="M270 147h805v-147h-952v1434h940v-148h-793v-495h729v-148h-729v-496zM365 1796h512v-147h-512v147z" />
    <glyph glyph-name="emacron" unicode="&#x113;" horiz-adv-x="1048" 
d="M530 1001q206 0 326.5 -145t120.5 -364q0 -8 -1 -26t-1 -26h-760q15 -137 104 -224t224 -87q178 0 272 147l129 -63q-63 -107 -166 -167t-235 -60q-208 0 -345 146.5t-137 359.5q0 216 131 362.5t338 146.5zM530 858q-122 0 -203.5 -74.5t-105.5 -195.5h604
q-23 123 -98 196.5t-197 73.5zM285 1386h512v-147h-512v147z" />
    <glyph glyph-name="Ebreve" unicode="&#x114;" 
d="M270 147h805v-147h-952v1434h940v-148h-793v-495h729v-148h-729v-496zM739 1843h129q0 -115 -68.5 -191.5t-178.5 -76.5q-112 0 -180 76.5t-68 191.5h129q0 -63 31.5 -103t87.5 -40q53 0 85.5 40.5t32.5 102.5z" />
    <glyph glyph-name="ebreve" unicode="&#x115;" horiz-adv-x="1048" 
d="M530 1001q206 0 326.5 -145t120.5 -364q0 -8 -1 -26t-1 -26h-760q15 -137 104 -224t224 -87q178 0 272 147l129 -63q-63 -107 -166 -167t-235 -60q-208 0 -345 146.5t-137 359.5q0 216 131 362.5t338 146.5zM530 858q-122 0 -203.5 -74.5t-105.5 -195.5h604
q-23 123 -98 196.5t-197 73.5zM659 1434h129q0 -115 -68.5 -192t-178.5 -77q-112 0 -180 77t-68 192h129q0 -63 31.5 -103.5t87.5 -40.5q53 0 85.5 40.5t32.5 103.5z" />
    <glyph glyph-name="Edotaccent" unicode="&#x116;" 
d="M270 147h805v-147h-952v1434h940v-148h-793v-495h729v-148h-729v-496zM621 1800q34 0 57.5 -24.5t23.5 -59.5q0 -34 -23.5 -58t-57.5 -24t-58 24t-24 58q0 35 24 59.5t58 24.5z" />
    <glyph glyph-name="edotaccent" unicode="&#x117;" horiz-adv-x="1048" 
d="M530 1001q206 0 326.5 -145t120.5 -364q0 -8 -1 -26t-1 -26h-760q15 -137 104 -224t224 -87q178 0 272 147l129 -63q-63 -107 -166 -167t-235 -60q-208 0 -345 146.5t-137 359.5q0 216 131 362.5t338 146.5zM530 858q-122 0 -203.5 -74.5t-105.5 -195.5h604
q-23 123 -98 196.5t-197 73.5zM541 1391q34 0 58 -24.5t24 -59.5q0 -34 -24 -58t-58 -24t-58 24t-24 58q0 35 24 59.5t58 24.5z" />
    <glyph glyph-name="Eogonek" unicode="&#x118;" 
d="M270 147h805v-147q-72 -33 -128.5 -106t-33.5 -132q14 -40 67.5 -42t90.5 24v-141q-49 -19 -94 -19q-81 0 -134 51t-46 134q5 73 56.5 138t98.5 93h-829v1434h942v-148h-795v-495h729v-148h-729v-496z" />
    <glyph glyph-name="eogonek" unicode="&#x119;" horiz-adv-x="1048" 
d="M530 1004q138 0 240.5 -69.5t154.5 -184.5t52 -258q0 -20 -4 -52h-758q14 -137 102.5 -224t225.5 -87q179 0 270 147l131 -63q-52 -83 -123 -137q-88 -84 -147 -172.5t-39 -141.5q16 -40 68.5 -42t91.5 24v-141q-52 -19 -97 -19q-81 0 -134 51t-46 134q8 113 135 229
q-53 -12 -110 -12q-139 0 -249.5 67.5t-171.5 183t-61 255.5q0 141 57.5 257.5t165.5 185.5t246 69zM530 860q-124 0 -204.5 -74.5t-104.5 -195.5h602q-21 123 -95.5 196.5t-197.5 73.5z" />
    <glyph glyph-name="Ecaron" unicode="&#x11a;" 
d="M270 147h805v-147h-952v1434h940v-148h-793v-495h729v-148h-729v-496zM909 1843l-219 -280h-139l-219 280h172l117 -166l116 166h172z" />
    <glyph glyph-name="ecaron" unicode="&#x11b;" horiz-adv-x="1048" 
d="M530 1001q206 0 326.5 -145t120.5 -364q0 -8 -1 -26t-1 -26h-760q15 -137 104 -224t224 -87q178 0 272 147l129 -63q-63 -107 -166 -167t-235 -60q-208 0 -345 146.5t-137 359.5q0 216 131 362.5t338 146.5zM530 858q-122 0 -203.5 -74.5t-105.5 -195.5h604
q-23 123 -98 196.5t-197 73.5zM829 1434l-219 -281h-139l-219 281h172l117 -166l116 166h172z" />
    <glyph glyph-name="Gcircumflex" unicode="&#x11c;" horiz-adv-x="1464" 
d="M1372 735v-424q-94 -151 -249.5 -239t-342.5 -88q-148 0 -280 58t-225.5 156t-148 233t-54.5 284t54.5 284t148 233t225.5 156t280 58q187 0 341.5 -88t250.5 -240l-131 -63q-77 113 -197 179t-264 66q-159 0 -287 -78.5t-199 -212t-71 -294.5t71 -295t199 -212.5
t287 -78.5q132 0 251.5 59.5t193.5 155.5v244h-449v147h596zM1051 1563h-172l-117 163l-117 -163h-170l217 280h139z" />
    <glyph glyph-name="gcircumflex" unicode="&#x11d;" horiz-adv-x="1110" 
d="M848 987h149v-946q0 -237 -123.5 -370.5t-345.5 -133.5q-128 0 -239.5 59t-171.5 158l123 74q41 -67 119.5 -107t168.5 -40q153 0 236.5 94.5t83.5 277.5v80q-118 -147 -324 -147q-138 0 -244.5 68t-162.5 182.5t-56 255.5q0 142 56 257t162.5 183.5t244.5 68.5
q206 0 324 -147v133zM524 129q147 0 232.5 103t85.5 260t-86 261.5t-232 104.5q-147 0 -230 -103.5t-83 -262.5q0 -158 83 -260.5t230 -102.5zM817 1153h-172l-117 164l-116 -164h-170l217 281h139z" />
    <glyph glyph-name="Gbreve" unicode="&#x11e;" horiz-adv-x="1464" 
d="M1372 735v-424q-94 -151 -249.5 -239t-342.5 -88q-148 0 -280 58t-225.5 156t-148 233t-54.5 284t54.5 284t148 233t225.5 156t280 58q187 0 341.5 -88t250.5 -240l-131 -63q-77 113 -197 179t-264 66q-159 0 -287 -78.5t-199 -212t-71 -294.5t71 -295t199 -212.5
t287 -78.5q132 0 251.5 59.5t193.5 155.5v244h-449v147h596zM883 1843h129q0 -115 -68.5 -191.5t-179.5 -76.5q-112 0 -180 76.5t-68 191.5h129q0 -63 31.5 -103t87.5 -40q53 0 86 40.5t33 102.5z" />
    <glyph glyph-name="gbreve" unicode="&#x11f;" horiz-adv-x="1110" 
d="M848 987h149v-946q0 -237 -123.5 -370.5t-345.5 -133.5q-128 0 -239.5 59t-171.5 158l123 74q41 -67 119.5 -107t168.5 -40q153 0 236.5 94.5t83.5 277.5v80q-118 -147 -324 -147q-138 0 -244.5 68t-162.5 182.5t-56 255.5q0 142 56 257t162.5 183.5t244.5 68.5
q206 0 324 -147v133zM524 129q147 0 232.5 103t85.5 260t-86 261.5t-232 104.5q-147 0 -230 -103.5t-83 -262.5q0 -158 83 -260.5t230 -102.5zM670 1434h129q0 -115 -69 -192t-179 -77q-112 0 -180 77t-68 192h129q0 -63 31.5 -103.5t87.5 -40.5q53 0 86 41t33 103z" />
    <glyph glyph-name="Gdotaccent" unicode="&#x120;" horiz-adv-x="1464" 
d="M1372 735v-424q-94 -151 -249.5 -239t-342.5 -88q-148 0 -280 58t-225.5 156t-148 233t-54.5 284t54.5 284t148 233t225.5 156t280 58q187 0 341.5 -88t250.5 -240l-131 -63q-77 113 -197 179t-264 66q-159 0 -287 -78.5t-199 -212t-71 -294.5t71 -295t199 -212.5
t287 -78.5q132 0 251.5 59.5t193.5 155.5v244h-449v147h596zM764 1800q34 0 58 -24.5t24 -59.5q0 -34 -24 -58t-58 -24t-58 24t-24 58q0 35 24 59.5t58 24.5z" />
    <glyph glyph-name="gdotaccent" unicode="&#x121;" horiz-adv-x="1110" 
d="M848 987h149v-946q0 -237 -123.5 -370.5t-345.5 -133.5q-128 0 -239.5 59t-171.5 158l123 74q41 -67 119.5 -107t168.5 -40q153 0 236.5 94.5t83.5 277.5v80q-118 -147 -324 -147q-138 0 -244.5 68t-162.5 182.5t-56 255.5q0 142 56 257t162.5 183.5t244.5 68.5
q206 0 324 -147v133zM524 129q147 0 232.5 103t85.5 260t-86 261.5t-232 104.5q-147 0 -230 -103.5t-83 -262.5q0 -158 83 -260.5t230 -102.5zM530 1391q34 0 58 -24.5t24 -59.5q0 -34 -24 -58t-58 -24t-57.5 24t-23.5 58q0 35 23.5 59.5t57.5 24.5z" />
    <glyph glyph-name="Gcommaaccent" unicode="&#x122;" horiz-adv-x="1464" 
d="M1372 735v-424q-94 -151 -249.5 -239t-342.5 -88q-148 0 -280 58t-225.5 156t-148 233t-54.5 284t54.5 284t148 233t225.5 156t280 58q187 0 341.5 -88t250.5 -240l-131 -63q-77 113 -197 179t-264 66q-159 0 -287 -78.5t-199 -212t-71 -294.5t71 -295t199 -212.5
t287 -78.5q132 0 251.5 59.5t193.5 155.5v244h-449v147h596zM680 -104h149l-112 -271h-103z" />
    <glyph glyph-name="gcommaaccent" unicode="&#x123;" horiz-adv-x="1110" 
d="M848 987h149v-946q0 -237 -123.5 -370.5t-345.5 -133.5q-128 0 -239.5 59t-171.5 158l123 74q41 -67 119.5 -107t168.5 -40q153 0 236.5 94.5t83.5 277.5v80q-118 -147 -324 -147q-138 0 -244.5 68t-162.5 182.5t-56 255.5q0 142 56 257t162.5 183.5t244.5 68.5
q206 0 324 -147v133zM524 129q147 0 232.5 103t85.5 260t-86 261.5t-232 104.5q-147 0 -230 -103.5t-83 -262.5q0 -158 83 -260.5t230 -102.5zM477 1192l141 344h97l-84 -344h-154z" />
    <glyph glyph-name="Hcircumflex" unicode="&#x124;" horiz-adv-x="1351" 
d="M1071 1434h148v-1434h-148v643h-790v-643h-148v1434h148v-643h790v643zM965 1563h-172l-117 163l-117 -163h-170l217 280h139z" />
    <glyph glyph-name="hcircumflex" unicode="&#x125;" horiz-adv-x="1024" 
d="M547 1001q375 0 375 -456v-545h-148v545q0 309 -250 309q-119 0 -190.5 -81.5t-71.5 -240.5v-532h-149v1434h149v-562q110 129 285 129zM817 1565h-172l-117 164l-116 -164h-170l217 280h139z" />
    <glyph glyph-name="Hbar" unicode="&#x126;" horiz-adv-x="1404" 
d="M1384 1176v-148h-139v-1028h-147v643h-791v-643h-147v1028h-140v148h140v258h147v-258h791v258h147v-258h139zM1098 791v237h-791v-237h791z" />
    <glyph glyph-name="hbar" unicode="&#x127;" horiz-adv-x="1126" 
d="M639 1001q375 0 375 -456v-545h-148v545q0 309 -250 309q-119 0 -190.5 -82.5t-71.5 -239.5v-532h-149v1135h-174v147h174v152h149v-152h240v-147h-240v-263q110 129 285 129z" />
    <glyph glyph-name="Itilde" unicode="&#x128;" horiz-adv-x="415" 
d="M133 1434h148v-1434h-148v1434zM403 1782l136 -41q-25 -80 -63.5 -123.5t-87.5 -49.5t-99 8t-109 48q-57 37 -102 30t-80 -69l-121 64q58 119 151 147t203 -35q29 -16 46 -24t40 -15t37 -3t27.5 19.5t21.5 43.5z" />
    <glyph glyph-name="itilde" unicode="&#x129;" horiz-adv-x="466" 
d="M195 0v987h149v-987h-149zM465 1372l135 -41q-25 -80 -63.5 -123.5t-87 -49.5t-98.5 8t-109 48q-57 37 -102.5 30t-80.5 -68l-120 63q58 119 151 147.5t203 -34.5q25 -14 38.5 -20.5t34 -15t33 -8t26.5 5t23.5 19.5t16.5 39z" />
    <glyph glyph-name="Imacron" unicode="&#x12a;" horiz-adv-x="413" 
d="M141 1434h148v-1434h-148v1434zM-41 1796h512v-147h-512v147z" />
    <glyph glyph-name="imacron" unicode="&#x12b;" horiz-adv-x="409" 
d="M139 0v987h150v-987h-150zM-41 1386h512v-147h-512v147z" />
    <glyph glyph-name="Ibreve" unicode="&#x12c;" horiz-adv-x="446" 
d="M154 1434h147v-1434h-147v1434zM346 1843h129q0 -115 -68.5 -191.5t-179.5 -76.5q-112 0 -179.5 76.5t-67.5 191.5h129q0 -63 31 -103t87 -40q53 0 86 40.5t33 102.5z" />
    <glyph glyph-name="ibreve" unicode="&#x12d;" horiz-adv-x="393" 
d="M131 0v987h150v-987h-150zM326 1434h129q0 -115 -69 -192t-179 -77q-112 0 -180 77t-68 192h129q0 -63 31.5 -103.5t87.5 -40.5q53 0 86 41t33 103z" />
    <glyph glyph-name="Iogonek" unicode="&#x12e;" horiz-adv-x="413" 
d="M270 0q-73 -32 -129.5 -105.5t-34.5 -132.5q16 -40 68.5 -42t91.5 24v-141q-52 -19 -96 -19q-81 0 -134 51t-46 134q7 74 58 138.5t97 92.5h-14v1434h150v-1434h-11z" />
    <glyph glyph-name="iogonek" unicode="&#x12f;" horiz-adv-x="401" 
d="M274 0q-73 -32 -129 -105.5t-34 -132.5q16 -40 68 -42t91 24v-141q-52 -19 -96 -19q-81 0 -134 51t-46 134q7 74 58 138.5t98 92.5h-17v987h148v-987h-7zM289 1284q0 -34 -24 -58t-58 -24t-58 24t-24 58t24 58t58 24t58 -24t24 -58z" />
    <glyph glyph-name="Idotaccent" unicode="&#x130;" horiz-adv-x="413" 
d="M133 1434h148v-1434h-148v1434zM207 1800q34 0 58 -24.5t24 -59.5q0 -34 -24 -58t-58 -24t-58 24t-24 58q0 35 24 59.5t58 24.5z" />
    <glyph glyph-name="dotlessi" unicode="&#x131;" horiz-adv-x="374" 
d="M113 0v987h149v-987h-149z" />
    <glyph glyph-name="Jcircumflex" unicode="&#x134;" horiz-adv-x="833" 
d="M711 1434v-1051q0 -191 -86.5 -295t-253.5 -104q-113 0 -203.5 51t-124.5 104l109 86q33 -38 88 -66t125 -28q94 0 145 61t51 187v1055h150zM924 1563h-172l-117 163l-117 -163h-170l217 280h140z" />
    <glyph glyph-name="jcircumflex" unicode="&#x135;" horiz-adv-x="423" 
d="M168 -133v1120h149v-1124q0 -164 -52.5 -237.5t-155.5 -86.5q-49 -5 -109 15.5t-113 62.5l84 113q29 -25 60.5 -35t55.5 -6t40 18q26 22 33.5 56.5t7.5 103.5zM526 1153h-172l-116 164l-117 -164h-170l217 281h139z" />
    <glyph glyph-name="Kcommaaccent" unicode="&#x136;" horiz-adv-x="1216" 
d="M1016 0l-516 721l-217 -242v-479h-150v1434h150v-734l663 734h197l-541 -600l594 -834h-180zM559 -156h150l-113 -270h-102z" />
    <glyph glyph-name="kcommaaccent" unicode="&#x137;" horiz-adv-x="968" 
d="M756 0l-348 479l-148 -160v-319h-147v1434h147v-897l416 450h201l-367 -397l428 -590h-182zM422 -104h149l-112 -271h-103z" />
    <glyph glyph-name="Lacute" unicode="&#x139;" horiz-adv-x="1003" 
d="M270 147h713v-147h-860v1434h147v-1287zM309 1843h156l-203 -280h-112z" />
    <glyph glyph-name="lacute" unicode="&#x13a;" horiz-adv-x="372" 
d="M113 1536h147v-1536h-147v1536zM297 1968h156l-203 -280h-113z" />
    <glyph glyph-name="Lcommaaccent" unicode="&#x13b;" horiz-adv-x="1003" 
d="M270 147h713v-147h-860v1434h147v-1287zM510 -156h149l-112 -270h-103z" />
    <glyph glyph-name="lcommaaccent" unicode="&#x13c;" horiz-adv-x="393" 
d="M125 1536h147v-1536h-147v1536zM119 -104h149l-112 -271h-103z" />
    <glyph glyph-name="Lcaron" unicode="&#x13d;" horiz-adv-x="1003" 
d="M270 147h713v-147h-860v1434h147v-1287zM424 1090l82 344h156l-142 -344h-96z" />
    <glyph glyph-name="lcaron" unicode="&#x13e;" horiz-adv-x="524" 
d="M113 1536h147v-1536h-147v1536zM420 1090l82 344h155l-141 -344h-96z" />
    <glyph glyph-name="Ldot" unicode="&#x13f;" horiz-adv-x="1003" 
d="M631 797q34 0 58 -24.5t24 -59.5q0 -34 -24 -58t-58 -24t-58 24t-24 58q0 35 24 59.5t58 24.5zM270 147h713v-147h-860v1434h147v-1287z" />
    <glyph glyph-name="ldot" unicode="&#x140;" horiz-adv-x="663" 
d="M113 1536h147v-1536h-147v1536zM510 561q34 0 58 -24.5t24 -59.5q0 -34 -24 -58t-58 -24t-58 24t-24 58q0 35 24 59.5t58 24.5z" />
    <glyph glyph-name="Lslash" unicode="&#x141;" horiz-adv-x="1157" 
d="M422 147h715v-147h-863v485l-254 -172v179l254 174v768h148v-668l442 303v-180l-442 -301v-441z" />
    <glyph glyph-name="lslash" unicode="&#x142;" horiz-adv-x="612" 
d="M582 1055v-181l-201 -137v-737h-150v635l-200 -137v180l200 137v721h150v-621z" />
    <glyph glyph-name="Nacute" unicode="&#x143;" horiz-adv-x="1355" 
d="M1075 1434h148v-1434h-136l-806 1163v-1163h-148v1434h135l807 -1160v1160zM803 1843h155l-202 -280h-113z" />
    <glyph glyph-name="nacute" unicode="&#x144;" horiz-adv-x="1034" 
d="M547 1001q375 0 375 -456v-545h-148v545q0 309 -252 309q-119 0 -190.5 -82.5t-71.5 -239.5v-532h-147v987h147v-115q113 129 287 129zM643 1434h156l-203 -281h-113z" />
    <glyph glyph-name="Ncommaaccent" unicode="&#x145;" horiz-adv-x="1355" 
d="M1075 1434h148v-1434h-136l-806 1163v-1163h-148v1434h135l807 -1160v1160zM614 -156h150l-113 -270h-102z" />
    <glyph glyph-name="ncommaaccent" unicode="&#x146;" horiz-adv-x="1034" 
d="M547 1001q375 0 375 -456v-545h-148v545q0 309 -252 309q-119 0 -190.5 -82.5t-71.5 -239.5v-532h-147v987h147v-115q113 129 287 129zM465 -104h149l-112 -271h-103z" />
    <glyph glyph-name="Ncaron" unicode="&#x147;" horiz-adv-x="1355" 
d="M1075 1434h148v-1434h-136l-806 1163v-1163h-148v1434h135l807 -1160v1160zM987 1843l-219 -280h-139l-219 280h172l116 -166l117 166h172z" />
    <glyph glyph-name="ncaron" unicode="&#x148;" horiz-adv-x="1034" 
d="M547 1001q375 0 375 -456v-545h-148v545q0 309 -252 309q-119 0 -190.5 -82.5t-71.5 -239.5v-532h-147v987h147v-115q113 129 287 129zM807 1434l-219 -281h-139l-220 281h172l117 -166l117 166h172z" />
    <glyph glyph-name="napostrophe" unicode="&#x149;" horiz-adv-x="1202" 
d="M715 1001q375 0 375 -456v-545h-148v545q0 309 -252 309q-119 0 -190.5 -82.5t-71.5 -239.5v-532h-147v987h147v-115q113 129 287 129zM96 1188h150l-113 -270h-102z" />
    <glyph glyph-name="Eng" unicode="&#x14a;" horiz-adv-x="1355" 
d="M1075 1434h148v-1518q0 -305 -207 -322q-112 -10 -221 76l84 113q42 -36 88 -40.5t67 17.5q25 23 33 58.5t8 101.5v96l-794 1153v-1169h-148v1434h135l807 -1166v1166z" />
    <glyph glyph-name="eng" unicode="&#x14b;" horiz-adv-x="1034" 
d="M547 1001q375 0 375 -456v-629q0 -305 -207 -322q-49 -5 -109 15t-112 61l84 113q42 -36 88 -40.5t67 17.5q26 23 33.5 57.5t7.5 102.5v625q0 309 -250 309q-119 0 -190.5 -82.5t-71.5 -239.5v-532h-149v987h149v-115q110 129 285 129z" />
    <glyph glyph-name="Omacron" unicode="&#x14c;" horiz-adv-x="1574" 
d="M788 1446q148 0 278 -58t221 -156.5t143.5 -233t52.5 -283.5t-52.5 -283.5t-143.5 -233t-221 -156.5t-278 -58q-197 0 -357.5 98.5t-249.5 265.5t-89 367t89 367t249.5 265.5t357.5 98.5zM788 129q157 0 282 79t193 212.5t68 294.5t-68 294.5t-193 212t-282 78.5
q-158 0 -283.5 -78.5t-193 -212t-67.5 -294.5q0 -162 67.5 -295t193 -212t283.5 -79zM530 1796h512v-147h-512v147z" />
    <glyph glyph-name="omacron" unicode="&#x14d;" horiz-adv-x="1099" 
d="M547 1001q139 0 249.5 -68t171 -184t60.5 -257t-60.5 -256.5t-171 -183.5t-249.5 -68q-138 0 -247 68t-168.5 183.5t-59.5 256.5t59.5 257t169 184t246.5 68zM547 129q149 0 240.5 103.5t91.5 259.5t-91.5 261t-240.5 105q-148 0 -237 -104.5t-89 -261.5
q0 -156 88.5 -259.5t237.5 -103.5zM295 1386h512v-147h-512v147z" />
    <glyph glyph-name="Obreve" unicode="&#x14e;" horiz-adv-x="1574" 
d="M788 1446q148 0 278 -58t221 -156.5t143.5 -233t52.5 -283.5t-52.5 -283.5t-143.5 -233t-221 -156.5t-278 -58q-197 0 -357.5 98.5t-249.5 265.5t-89 367t89 367t249.5 265.5t357.5 98.5zM788 129q157 0 282 79t193 212.5t68 294.5t-68 294.5t-193 212t-282 78.5
q-158 0 -283.5 -78.5t-193 -212t-67.5 -294.5q0 -162 67.5 -295t193 -212t283.5 -79zM905 1843h129q0 -115 -68.5 -191.5t-179.5 -76.5q-112 0 -179.5 76.5t-67.5 191.5h129q0 -63 31 -103t87 -40q53 0 86 40.5t33 102.5z" />
    <glyph glyph-name="obreve" unicode="&#x14f;" horiz-adv-x="1099" 
d="M547 1001q139 0 249.5 -68t171 -184t60.5 -257t-60.5 -256.5t-171 -183.5t-249.5 -68q-138 0 -247 68t-168.5 183.5t-59.5 256.5t59.5 257t169 184t246.5 68zM547 129q149 0 240.5 103.5t91.5 259.5t-91.5 261t-240.5 105q-148 0 -237 -104.5t-89 -261.5
q0 -156 88.5 -259.5t237.5 -103.5zM670 1434h129q0 -115 -69 -192t-179 -77q-112 0 -180 77t-68 192h129q0 -63 31.5 -103.5t87.5 -40.5q53 0 86 41t33 103z" />
    <glyph glyph-name="Ohungarumlaut" unicode="&#x150;" horiz-adv-x="1574" 
d="M788 1446q148 0 278 -58t221 -156.5t143.5 -233t52.5 -283.5t-52.5 -283.5t-143.5 -233t-221 -156.5t-278 -58q-197 0 -357.5 98.5t-249.5 265.5t-89 367t89 367t249.5 265.5t357.5 98.5zM788 129q157 0 282 79t193 212.5t68 294.5t-68 294.5t-193 212t-282 78.5
q-158 0 -283.5 -78.5t-193 -212t-67.5 -294.5q0 -162 67.5 -295t193 -212t283.5 -79zM741 1843h156l-203 -280h-112zM1036 1843h156l-203 -280h-112z" />
    <glyph glyph-name="ohungarumlaut" unicode="&#x151;" horiz-adv-x="1099" 
d="M547 1001q139 0 249.5 -68t171 -184t60.5 -257t-60.5 -256.5t-171 -183.5t-249.5 -68q-138 0 -247 68t-168.5 183.5t-59.5 256.5t59.5 257t169 184t246.5 68zM547 129q149 0 240.5 103.5t91.5 259.5t-91.5 261t-240.5 105q-148 0 -237 -104.5t-89 -261.5
q0 -156 88.5 -259.5t237.5 -103.5zM508 1434h156l-203 -281h-113zM803 1434h155l-202 -281h-113z" />
    <glyph glyph-name="OE" unicode="&#x152;" horiz-adv-x="2170" 
d="M1264 147h802v-147h-952v59q-146 -73 -315 -73q-148 0 -280 57.5t-225 155.5t-147.5 232.5t-54.5 283.5t54.5 284t147.5 233t225 156t280 58q167 0 315 -74v62h940v-148h-790v-495h727v-148h-727v-496zM1114 227v975q-137 98 -315 98q-159 0 -286.5 -78.5t-198 -212
t-70.5 -294.5q0 -160 70.5 -293.5t198.5 -212t286 -78.5q177 0 315 96z" />
    <glyph glyph-name="oe" unicode="&#x153;" horiz-adv-x="1869" 
d="M1352 1006q137 0 240 -69.5t154.5 -184t51.5 -256.5q0 -9 -1 -26.5t-1 -25.5h-760q15 -137 104 -226t224 -89q174 0 272 150l129 -62q-64 -108 -167 -169.5t-234 -61.5q-132 0 -239.5 63.5t-170.5 171.5q-63 -109 -169 -172t-238 -63q-138 0 -247.5 68.5t-168.5 184.5
t-59 257q0 140 59 256t168.5 185t247.5 69q131 0 236.5 -63t170.5 -171q60 108 163.5 171t234.5 63zM1352 862q-123 0 -204.5 -74.5t-105.5 -195.5h605q-23 123 -98 196.5t-197 73.5zM547 129q148 0 239 105.5t91 261.5t-91 261t-239 105t-237 -104.5t-89 -261.5t89 -262
t237 -105z" />
    <glyph glyph-name="Racute" unicode="&#x154;" horiz-adv-x="1212" 
d="M1155 0h-170l-307 545h-8h-389v-545h-148v1434h537q131 0 234.5 -61t159.5 -162t56 -222q0 -141 -79 -255t-210 -161zM281 1286v-594h389q133 0 215 86.5t82 210.5t-82 210.5t-215 86.5h-389zM647 1843h156l-203 -280h-113z" />
    <glyph glyph-name="racute" unicode="&#x155;" horiz-adv-x="630" 
d="M537 1001q23 0 73 -4l-28 -149q-30 6 -68 6q-119 0 -190.5 -82.5t-71.5 -239.5v-532h-150v987h150v-115q110 129 285 129zM463 1434h155l-202 -281h-113z" />
    <glyph glyph-name="Rcommaaccent" unicode="&#x156;" horiz-adv-x="1212" 
d="M1155 0h-170l-307 545h-8h-389v-545h-148v1434h537q131 0 234.5 -61t159.5 -162t56 -222q0 -141 -79 -255t-210 -161zM281 1286v-594h389q133 0 215 86.5t82 210.5t-82 210.5t-215 86.5h-389zM541 -104h149l-112 -271h-103z" />
    <glyph glyph-name="rcommaaccent" unicode="&#x157;" horiz-adv-x="630" 
d="M537 1001q23 0 73 -4l-28 -149q-30 6 -68 6q-119 0 -190.5 -82.5t-71.5 -239.5v-532h-150v987h150v-115q110 129 285 129zM98 -156h150l-113 -270h-102z" />
    <glyph glyph-name="Rcaron" unicode="&#x158;" horiz-adv-x="1212" 
d="M1155 0h-170l-307 545h-8h-389v-545h-148v1434h537q131 0 234.5 -61t159.5 -162t56 -222q0 -141 -79 -255t-210 -161zM281 1286v-594h389q133 0 215 86.5t82 210.5t-82 210.5t-215 86.5h-389zM852 1843l-219 -280h-139l-220 280h172l117 -166l117 166h172z" />
    <glyph glyph-name="rcaron" unicode="&#x159;" horiz-adv-x="630" 
d="M539 1001q23 0 73 -4l-28 -149q-30 6 -68 6q-119 0 -190.5 -82.5t-71.5 -239.5v-532h-150v987h150v-115q110 129 285 129zM649 1434l-219 -281h-139l-219 281h172l116 -166l117 166h172z" />
    <glyph glyph-name="Sacute" unicode="&#x15a;" horiz-adv-x="1220" 
d="M633 795q64 -10 113 -20.5t106 -27.5t99 -37t83.5 -50t67 -66.5t41.5 -86t16 -108.5q0 -100 -44.5 -180.5t-118.5 -131t-166.5 -77t-192.5 -26.5q-228 0 -378 91t-198 224l142 49q43 -103 155.5 -160t274.5 -57q62 0 124 14.5t120.5 43.5t95.5 84t37 126q0 47 -16 81.5
t-44 59t-80 44.5t-111 34t-151 31q-94 17 -162 35t-137 49t-112.5 71t-70.5 100.5t-28 137.5q-1 81 30 153t91.5 129t160.5 90.5t228 33.5q184 0 317.5 -86.5t174.5 -220.5l-142 -49q-13 56 -47.5 97.5t-83 65t-103 34.5t-116.5 11q-170 0 -266 -66t-96 -192
q0 -104 88.5 -157t298.5 -90zM694 1843h156l-203 -280h-112z" />
    <glyph glyph-name="sacute" unicode="&#x15b;" horiz-adv-x="872" 
d="M455 569q56 -12 100.5 -25.5t92.5 -37t80 -53t52.5 -74t20.5 -98.5q0 -75 -31 -133.5t-83 -93t-115 -52.5t-132 -18q-140 0 -244.5 63.5t-144.5 167.5l135 55q23 -66 89.5 -102.5t164.5 -36.5q35 0 68.5 7t67 22.5t54.5 46.5t21 74q0 58 -46.5 87.5t-178.5 57.5
q-42 8 -66 13.5t-65 17t-66.5 23t-57.5 31t-51.5 42t-36 55t-22.5 70.5q-19 133 80 228t262 95q128 0 221.5 -57.5t127.5 -155.5l-138 -53q-39 113 -208 119q-102 3 -155 -42.5t-42 -109.5q3 -19 11.5 -34.5t26.5 -27.5t35 -21t49.5 -18.5t55.5 -15.5t68 -16zM530 1434h156
l-203 -281h-112z" />
    <glyph glyph-name="Scircumflex" unicode="&#x15c;" horiz-adv-x="1220" 
d="M633 795q64 -10 113 -20.5t106 -27.5t99 -37t83.5 -50t67 -66.5t41.5 -86t16 -108.5q0 -100 -44.5 -180.5t-118.5 -131t-166.5 -77t-192.5 -26.5q-228 0 -378 91t-198 224l142 49q43 -103 155.5 -160t274.5 -57q62 0 124 14.5t120.5 43.5t95.5 84t37 126q0 47 -16 81.5
t-44 59t-80 44.5t-111 34t-151 31q-94 17 -162 35t-137 49t-112.5 71t-70.5 100.5t-28 137.5q-1 81 30 153t91.5 129t160.5 90.5t228 33.5q184 0 317.5 -86.5t174.5 -220.5l-142 -49q-13 56 -47.5 97.5t-83 65t-103 34.5t-116.5 11q-170 0 -266 -66t-96 -192
q0 -104 88.5 -157t298.5 -90zM899 1563h-172l-117 163l-116 -163h-170l217 280h139z" />
    <glyph glyph-name="scircumflex" unicode="&#x15d;" horiz-adv-x="872" 
d="M455 569q56 -12 100.5 -25.5t92.5 -37t80 -53t52.5 -74t20.5 -98.5q0 -75 -31 -133.5t-83 -93t-115 -52.5t-132 -18q-140 0 -244.5 63.5t-144.5 167.5l135 55q23 -66 89.5 -102.5t164.5 -36.5q35 0 68.5 7t67 22.5t54.5 46.5t21 74q0 58 -46.5 87.5t-178.5 57.5
q-42 8 -66 13.5t-65 17t-66.5 23t-57.5 31t-51.5 42t-36 55t-22.5 70.5q-19 133 80 228t262 95q128 0 221.5 -57.5t127.5 -155.5l-138 -53q-39 113 -208 119q-102 3 -155 -42.5t-42 -109.5q3 -19 11.5 -34.5t26.5 -27.5t35 -21t49.5 -18.5t55.5 -15.5t68 -16zM715 1153h-172
l-117 164l-117 -164h-170l217 281h140z" />
    <glyph glyph-name="Scedilla" unicode="&#x15e;" horiz-adv-x="1218" 
d="M1157 399q0 -97 -42.5 -176.5t-114 -130t-161 -78.5t-188.5 -30l-49 -99q89 10 135.5 -31.5t46.5 -107.5q0 -43 -21 -81t-58 -60q-57 -32 -126.5 -26.5t-138.5 48.5l45 82q49 -36 108 -37.5t87 41.5q14 26 6 52t-35 36q-59 19 -98 -20l-88 61l76 146q-189 18 -313 105.5
t-167 205.5l142 49q43 -103 154.5 -160t273.5 -57q62 0 124.5 14.5t121.5 43.5t96 84t37 126q0 47 -16 81.5t-44 59t-81 44.5t-111.5 34t-149.5 31q-77 14 -136 29t-120.5 37t-105 51t-79 68t-53.5 91.5t-18 116.5q0 81 31 153t91.5 130t161 91.5t228.5 33.5
q184 0 317.5 -87.5t172.5 -221.5l-140 -47q-18 73 -72.5 120.5t-124 66.5t-153.5 19q-171 0 -266.5 -65.5t-95.5 -192.5q0 -104 88 -157t299 -88q64 -11 112 -21.5t105.5 -27.5t99 -37.5t83 -50.5t67 -66.5t41.5 -86t16 -108.5z" />
    <glyph glyph-name="scedilla" unicode="&#x15f;" horiz-adv-x="876" 
d="M805 287q0 -134 -94.5 -212.5t-229.5 -88.5l-49 -101q88 10 135 -31.5t47 -107.5q0 -43 -21 -81t-58 -60q-57 -32 -127.5 -26.5t-137.5 48.5l43 82q51 -36 109 -37.5t86 41.5q14 26 6.5 52t-35.5 36q-57 18 -98 -20l-86 61l74 146q-114 15 -198 76t-120 151l135 55
q23 -65 90 -102t164 -37q34 0 69 8t69.5 24.5t56.5 48.5t22 75q0 56 -47.5 83t-183.5 56q-45 9 -67 14t-65 17t-66.5 23.5t-56.5 31t-52 42t-35.5 55t-22.5 71.5q-19 133 80 228.5t262 95.5q127 0 221 -59t128 -157l-138 -51q-39 111 -208 117q-102 4 -155 -40.5t-42 -108.5
q4 -29 21.5 -49.5t54.5 -36t71.5 -25t98.5 -23.5q58 -13 101 -25.5t93 -36t81.5 -52t53 -72.5t21.5 -98z" />
    <glyph glyph-name="Scaron" unicode="&#x160;" horiz-adv-x="1220" 
d="M633 795q64 -10 113 -20.5t106 -27.5t99 -37t83.5 -50t67 -66.5t41.5 -86t16 -108.5q0 -100 -44.5 -180.5t-118.5 -131t-166.5 -77t-192.5 -26.5q-228 0 -378 91t-198 224l142 49q43 -103 155.5 -160t274.5 -57q62 0 124 14.5t120.5 43.5t95.5 84t37 126q0 47 -16 81.5
t-44 59t-80 44.5t-111 34t-151 31q-94 17 -162 35t-137 49t-112.5 71t-70.5 100.5t-28 137.5q-1 81 30 153t91.5 129t160.5 90.5t228 33.5q184 0 317.5 -86.5t174.5 -220.5l-142 -49q-13 56 -47.5 97.5t-83 65t-103 34.5t-116.5 11q-170 0 -266 -66t-96 -192
q0 -104 88.5 -157t298.5 -90zM899 1843l-219 -280h-139l-219 280h172l116 -166l117 166h172z" />
    <glyph glyph-name="scaron" unicode="&#x161;" horiz-adv-x="872" 
d="M455 569q56 -12 100.5 -25.5t92.5 -37t80 -53t52.5 -74t20.5 -98.5q0 -75 -31 -133.5t-83 -93t-115 -52.5t-132 -18q-140 0 -244.5 63.5t-144.5 167.5l135 55q23 -66 89.5 -102.5t164.5 -36.5q35 0 68.5 7t67 22.5t54.5 46.5t21 74q0 58 -46.5 87.5t-178.5 57.5
q-42 8 -66 13.5t-65 17t-66.5 23t-57.5 31t-51.5 42t-36 55t-22.5 70.5q-19 133 80 228t262 95q128 0 221.5 -57.5t127.5 -155.5l-138 -53q-39 113 -208 119q-102 3 -155 -42.5t-42 -109.5q3 -19 11.5 -34.5t26.5 -27.5t35 -21t49.5 -18.5t55.5 -15.5t68 -16zM715 1434
l-219 -281h-140l-219 281h172l117 -166l117 166h172z" />
    <glyph glyph-name="Tcommaaccent" unicode="&#x162;" horiz-adv-x="1120" 
d="M1079 1434v-148h-444v-1286h-148v1286h-446v148h1038zM483 -156h150l-113 -270h-102z" />
    <glyph glyph-name="tcommaaccent" unicode="&#x163;" horiz-adv-x="653" 
d="M547 174l76 -113q-50 -41 -116 -61t-116 -14q-103 11 -156 85t-53 236v531h-151v149h151v217l150 41v-258h209v-149h-209v-527q0 -68 7 -102.5t32 -56.5q17 -14 46 -18t65 6t65 34zM326 -156h149l-113 -270h-102z" />
    <glyph glyph-name="Tcaron" unicode="&#x164;" horiz-adv-x="1120" 
d="M1079 1434v-148h-444v-1286h-148v1286h-446v148h1038zM850 1843l-219 -280h-139l-220 280h172l117 -166l117 166h172z" />
    <glyph glyph-name="tcaron" unicode="&#x165;" horiz-adv-x="722" 
d="M547 174l76 -113q-50 -41 -116 -61t-116 -14q-103 11 -156 85t-53 236v531h-151v149h151v217l150 41v-258h209v-149h-209v-527q0 -68 7 -102.5t32 -56.5q17 -14 46 -18t65 6t65 34zM618 1081l82 344h156l-141 -344h-97z" />
    <glyph glyph-name="Tbar" unicode="&#x166;" horiz-adv-x="1118" 
d="M1077 1286h-444v-424h325v-147h-325v-715h-148v715h-327v147h327v424h-444v148h1036v-148z" />
    <glyph glyph-name="tbar" unicode="&#x167;" horiz-adv-x="653" 
d="M547 174l76 -113q-53 -43 -116.5 -61.5t-115.5 -13.5q-50 6 -87 25t-65.5 56t-42.5 97.5t-14 144.5v183h-94v147h94v199h-151v149h151v217l150 41v-258h209v-149h-209v-199h149v-147h-149v-179q0 -69 7.5 -104t31.5 -57q16 -14 45.5 -18t66 6t64.5 34z" />
    <glyph glyph-name="Utilde" unicode="&#x168;" horiz-adv-x="1310" 
d="M1040 1434h148v-859q0 -149 -40.5 -264t-112.5 -185.5t-166 -106t-207 -35.5t-209 34.5t-170.5 103.5t-117 183.5t-42.5 263.5v865h147v-871q0 -206 111.5 -319t280.5 -113q166 0 272 114t106 318v871zM852 1782l135 -41q-25 -80 -63.5 -123.5t-87 -49.5t-98.5 8t-109 48
q-57 37 -102.5 30t-80.5 -69l-120 64q58 119 151 147t203 -35q29 -16 46 -24t40 -15t37 -3t27.5 19.5t21.5 43.5z" />
    <glyph glyph-name="utilde" unicode="&#x169;" horiz-adv-x="1024" 
d="M764 987h147v-987h-147v115q-111 -131 -281 -131q-62 0 -115 12.5t-103 45t-85 83t-56.5 131.5t-21.5 186v545h150v-545q0 -309 250 -309q119 0 190.5 81.5t71.5 240.5v532zM709 1372l135 -41q-25 -80 -63.5 -123.5t-87.5 -49.5t-99 8t-109 48q-57 37 -102 30t-80 -68
l-121 63q58 119 151.5 147.5t203.5 -34.5q25 -14 38.5 -20.5t34 -15t33 -8t26.5 5t23.5 19.5t16.5 39z" />
    <glyph glyph-name="Umacron" unicode="&#x16a;" horiz-adv-x="1310" 
d="M1040 1434h148v-859q0 -149 -40.5 -264t-112.5 -185.5t-166 -106t-207 -35.5t-209 34.5t-170.5 103.5t-117 183.5t-42.5 263.5v865h147v-871q0 -206 111.5 -319t280.5 -113q166 0 272 114t106 318v871zM399 1796h512v-147h-512v147z" />
    <glyph glyph-name="umacron" unicode="&#x16b;" horiz-adv-x="1024" 
d="M764 987h147v-987h-147v115q-111 -131 -281 -131q-62 0 -115 12.5t-103 45t-85 83t-56.5 131.5t-21.5 186v545h150v-545q0 -309 250 -309q119 0 190.5 81.5t71.5 240.5v532zM272 1386h512v-147h-512v147z" />
    <glyph glyph-name="Ubreve" unicode="&#x16c;" horiz-adv-x="1310" 
d="M1040 1434h148v-859q0 -149 -40.5 -264t-112.5 -185.5t-166 -106t-207 -35.5t-209 34.5t-170.5 103.5t-117 183.5t-42.5 263.5v865h147v-871q0 -206 111.5 -319t280.5 -113q166 0 272 114t106 318v871zM774 1843h129q0 -115 -68.5 -191.5t-179.5 -76.5
q-112 0 -179.5 76.5t-67.5 191.5h129q0 -63 31 -103t87 -40q53 0 86 40.5t33 102.5z" />
    <glyph glyph-name="ubreve" unicode="&#x16d;" horiz-adv-x="1024" 
d="M764 987h147v-987h-147v115q-111 -131 -281 -131q-62 0 -115 12.5t-103 45t-85 83t-56.5 131.5t-21.5 186v545h150v-545q0 -309 250 -309q119 0 190.5 81.5t71.5 240.5v532zM647 1434h129q0 -115 -69 -192t-179 -77q-112 0 -179.5 77t-67.5 192h129q0 -63 31.5 -103.5
t86.5 -40.5q53 0 86 41t33 103z" />
    <glyph glyph-name="Uring" unicode="&#x16e;" horiz-adv-x="1310" 
d="M1040 1434h148v-859q0 -149 -40.5 -264t-112.5 -185.5t-166 -106t-207 -35.5t-209 34.5t-170.5 103.5t-117 183.5t-42.5 263.5v865h147v-871q0 -206 111.5 -319t280.5 -113q166 0 272 114t106 318v871zM657 1999q94 0 160 -66.5t66 -160.5t-66 -161t-160 -67
q-95 0 -161 67t-66 161t66 160.5t161 66.5zM657 1665q43 0 75 31.5t32 75.5t-32 75t-75 31q-44 0 -76 -31t-32 -75t32 -75.5t76 -31.5z" />
    <glyph glyph-name="uring" unicode="&#x16f;" horiz-adv-x="1024" 
d="M764 987h147v-987h-147v115q-111 -131 -281 -131q-62 0 -115 12.5t-103 45t-85 83t-56.5 131.5t-21.5 186v545h150v-545q0 -309 250 -309q119 0 190.5 81.5t71.5 240.5v532zM524 1589q94 0 160 -66.5t66 -160.5t-66 -160.5t-160 -66.5q-95 0 -161 66.5t-66 160.5
t66 160.5t161 66.5zM524 1255q43 0 75 31.5t32 75.5t-32 75t-75 31q-44 0 -76 -31t-32 -75t32 -75.5t76 -31.5z" />
    <glyph glyph-name="Uhungarumlaut" unicode="&#x170;" horiz-adv-x="1310" 
d="M1040 1434h148v-859q0 -149 -40.5 -264t-112.5 -185.5t-166 -106t-207 -35.5t-209 34.5t-170.5 103.5t-117 183.5t-42.5 263.5v865h147v-871q0 -206 111.5 -319t280.5 -113q166 0 272 114t106 318v871zM612 1843h156l-203 -280h-112zM907 1843h156l-203 -280h-112z" />
    <glyph glyph-name="uhungarumlaut" unicode="&#x171;" horiz-adv-x="1024" 
d="M764 987h147v-987h-147v115q-111 -131 -281 -131q-62 0 -115 12.5t-103 45t-85 83t-56.5 131.5t-21.5 186v545h150v-545q0 -309 250 -309q119 0 190.5 81.5t71.5 240.5v532zM459 1434h155l-202 -281h-113zM754 1434h155l-202 -281h-113z" />
    <glyph glyph-name="Uogonek" unicode="&#x172;" horiz-adv-x="1312" 
d="M1042 1434h148v-883q0 -154 -58 -275.5t-161 -195.5q-54 -50 -99.5 -105t-75.5 -116t-16 -97q16 -40 68.5 -42t91.5 24v-141q-52 -19 -96 -19q-81 0 -134 51t-46 134q11 117 139 231q-60 -16 -141 -16q-112 0 -209 36t-171 105t-116.5 177.5t-42.5 244.5v887h147v-887
q0 -196 112 -306t280 -110q165 0 272.5 111t107.5 305v887z" />
    <glyph glyph-name="uogonek" unicode="&#x173;" horiz-adv-x="1024" 
d="M903 0q-73 -32 -129.5 -105.5t-34.5 -132.5q16 -40 68.5 -42t91.5 24v-141q-52 -19 -96 -19q-81 0 -134 51t-46 134q7 74 58 138.5t97 92.5h-14v115q-113 -129 -281 -129q-381 0 -381 456v545h148v-545q0 -309 250 -309q119 0 191.5 82.5t72.5 239.5v532h147v-987h-8z
" />
    <glyph glyph-name="Wcircumflex" unicode="&#x174;" horiz-adv-x="2045" 
d="M1845 1434h160l-463 -1434h-149l-367 1192l-367 -1192h-149l-469 1434h166l381 -1190l366 1190h144l366 -1190zM1311 1563h-172l-117 163l-117 -163h-170l217 280h140z" />
    <glyph glyph-name="wcircumflex" unicode="&#x175;" horiz-adv-x="1454" 
d="M1290 987h154l-320 -987h-149l-248 748l-248 -748h-149l-320 987h156l242 -747l247 747h144l248 -747zM1016 1153h-172l-117 164l-117 -164h-170l217 281h140z" />
    <glyph glyph-name="Ycircumflex" unicode="&#x176;" horiz-adv-x="1144" 
d="M1145 1434l-498 -889v-545h-149v543l-498 891h170l401 -719l404 719h170zM860 1563h-172l-117 163l-116 -163h-170l217 280h139z" />
    <glyph glyph-name="ycircumflex" unicode="&#x177;" horiz-adv-x="907" 
d="M739 987h158l-346 -956q-96 -252 -166 -350q-109 -145 -307 -93l26 146q37 -7 62 -7.5t49.5 8.5t42.5 26t38.5 51.5t39.5 77.5t45 110l-361 987h160l279 -780zM748 1153h-173l-116 164l-117 -164h-170l217 281h139z" />
    <glyph glyph-name="Ydieresis" unicode="&#x178;" horiz-adv-x="1144" 
d="M1145 1434l-498 -889v-545h-149v543l-498 891h170l401 -719l404 719h170zM418 1800q34 0 58 -24.5t24 -59.5q0 -34 -24 -58t-58 -24t-59 24t-25 58q0 35 25 59.5t59 24.5zM727 1800q35 0 59.5 -24.5t24.5 -59.5q0 -34 -24.5 -58t-59.5 -24q-34 0 -58 24t-24 58
q0 35 24 59.5t58 24.5z" />
    <glyph glyph-name="Zacute" unicode="&#x179;" 
d="M231 150h916v-150h-1116v150l899 1136h-838v148h1026v-148zM694 1843h156l-203 -280h-112z" />
    <glyph glyph-name="zacute" unicode="&#x17a;" horiz-adv-x="899" 
d="M254 147h594v-147h-787v147l566 691h-537v149h729v-149zM545 1434h155l-202 -281h-113z" />
    <glyph glyph-name="Zdotaccent" unicode="&#x17b;" 
d="M231 150h916v-150h-1116v150l899 1136h-838v148h1026v-148zM621 1800q34 0 57.5 -24.5t23.5 -59.5q0 -34 -23.5 -58t-57.5 -24t-58 24t-24 58q0 35 24 59.5t58 24.5z" />
    <glyph glyph-name="zdotaccent" unicode="&#x17c;" horiz-adv-x="899" 
d="M254 147h594v-147h-787v147l566 691h-537v149h729v-149zM467 1391q34 0 58 -24.5t24 -59.5q0 -34 -24 -58t-58 -24t-58 24t-24 58q0 35 24 59.5t58 24.5z" />
    <glyph glyph-name="Zcaron" unicode="&#x17d;" 
d="M231 150h916v-150h-1116v150l899 1136h-838v148h1026v-148zM920 1843l-220 -280h-139l-219 280h172l117 -166l117 166h172z" />
    <glyph glyph-name="zcaron" unicode="&#x17e;" horiz-adv-x="899" 
d="M254 147h594v-147h-787v147l566 691h-537v149h729v-149zM743 1434l-219 -281h-139l-219 281h172l117 -166l116 166h172z" />
    <glyph glyph-name="AEacute" unicode="&#x1fc;" horiz-adv-x="2035" 
d="M1128 147h805v-147h-952v416h-604l-217 -416h-160l752 1434h1169v-148h-793v-495h730v-148h-730v-496zM455 563h526v723h-150zM1169 1843h156l-203 -280h-112z" />
    <glyph glyph-name="aeacute" unicode="&#x1fd;" horiz-adv-x="1718" 
d="M1202 1001q138 0 240 -68.5t153.5 -183t51.5 -257.5q0 -36 -2 -52h-758q14 -136 103 -223.5t224 -87.5q180 0 271 147l131 -63q-65 -107 -168 -167t-234 -60q-134 0 -242 64t-169 173q-31 -57 -80 -106q-138 -131 -342 -131q-141 0 -230.5 67t-89.5 187q0 143 109.5 219
t345.5 114q120 19 167 44.5t46 74.5q-1 30 -10.5 57t-32 56t-70 46t-114.5 17q-62 0 -108 -14.5t-72.5 -41t-41 -53t-24.5 -61.5l-133 31q12 53 39 99t72 86t115.5 63.5t158.5 23.5q121 0 204.5 -47t123.5 -135q63 86 157 134t209 48zM1202 858q-122 0 -203.5 -74.5
t-105.5 -195.5h602q-21 123 -95.5 196.5t-197.5 73.5zM729 424v43q-28 -5 -92.5 -14.5t-97.5 -14.5q-171 -28 -245.5 -68t-74.5 -118q0 -39 19.5 -66.5t50 -39.5t56 -16.5t48.5 -4.5q147 0 242 83t94 216zM975 1434h155l-202 -281h-113z" />
    <glyph glyph-name="Oslashacute" unicode="&#x1fe;" horiz-adv-x="1572" 
d="M1489 1384l-172 -190q164 -200 164 -479q0 -200 -89 -366.5t-249 -264.5t-357 -98q-241 0 -428 147l-163 -182l-111 98l170 189q-162 205 -162 477q0 200 88.5 367t248.5 265.5t357 98.5q241 0 426 -148l166 185zM244 715q0 -212 110 -365l760 840q-138 110 -328 110
q-158 0 -283 -78.5t-192 -211.5t-67 -295zM1329 715q0 212 -112 368l-760 -841q143 -111 329 -111q158 0 283 79t192.5 211.5t67.5 293.5zM893 1843h156l-203 -280h-113z" />
    <glyph glyph-name="oslashacute" unicode="&#x1ff;" horiz-adv-x="1099" 
d="M1049 938l-119 -133q96 -140 96 -313q0 -213 -136.5 -359.5t-344.5 -146.5q-155 0 -277 88l-112 -123l-109 98l117 131q-94 137 -94 312q0 141 59 257t168.5 184t247.5 68q157 0 280 -90l113 125zM219 492q0 -113 47 -199l461 510q-77 55 -182 55q-148 0 -237 -104.5
t-89 -261.5zM877 492q0 108 -50 200l-462 -512q76 -51 180 -51q149 0 240.5 103.5t91.5 259.5zM639 1434h156l-203 -281h-113z" />
    <glyph glyph-name="Scommaaccent" unicode="&#x218;" horiz-adv-x="1220" 
d="M633 795q64 -10 113 -20.5t106 -27.5t99 -37t83.5 -50t67 -66.5t41.5 -86t16 -108.5q0 -100 -44.5 -180.5t-118.5 -131t-166.5 -77t-192.5 -26.5q-228 0 -378 91t-198 224l142 49q43 -103 155.5 -160t274.5 -57q62 0 124 14.5t120.5 43.5t95.5 84t37 126q0 47 -16 81.5
t-44 59t-80 44.5t-111 34t-151 31q-94 17 -162 35t-137 49t-112.5 71t-70.5 100.5t-28 137.5q-1 81 30 153t91.5 129t160.5 90.5t228 33.5q184 0 317.5 -86.5t174.5 -220.5l-142 -49q-13 56 -47.5 97.5t-83 65t-103 34.5t-116.5 11q-170 0 -266 -66t-96 -192
q0 -104 88.5 -157t298.5 -90zM510 -104h149l-112 -271h-103z" />
    <glyph glyph-name="scommaaccent" unicode="&#x219;" horiz-adv-x="872" 
d="M455 569q56 -12 100.5 -25.5t92.5 -37t80 -53t52.5 -74t20.5 -98.5q0 -75 -31 -133.5t-83 -93t-115 -52.5t-132 -18q-140 0 -244.5 63.5t-144.5 167.5l135 55q23 -66 89.5 -102.5t164.5 -36.5q35 0 68.5 7t67 22.5t54.5 46.5t21 74q0 58 -46.5 87.5t-178.5 57.5
q-42 8 -66 13.5t-65 17t-66.5 23t-57.5 31t-51.5 42t-36 55t-22.5 70.5q-19 133 80 228t262 95q128 0 221.5 -57.5t127.5 -155.5l-138 -53q-39 113 -208 119q-102 3 -155 -42.5t-42 -109.5q3 -19 11.5 -34.5t26.5 -27.5t35 -21t49.5 -18.5t55.5 -15.5t68 -16zM322 -156h149
l-113 -270h-102z" />
    <glyph glyph-name="uni021A" unicode="&#x21a;" horiz-adv-x="1120" 
d="M1079 1434v-148h-444v-1286h-148v1286h-446v148h1038zM483 -156h150l-113 -270h-102z" />
    <glyph glyph-name="uni021B" unicode="&#x21b;" horiz-adv-x="653" 
d="M547 174l76 -113q-50 -41 -116 -61t-116 -14q-103 11 -156 85t-53 236v531h-151v149h151v217l150 41v-258h209v-149h-209v-527q0 -68 7 -102.5t32 -56.5q17 -14 46 -18t65 6t65 34zM326 -156h149l-113 -270h-102z" />
    <glyph glyph-name="circumflex" unicode="&#x2c6;" horiz-adv-x="780" 
d="M678 1153h-172l-117 164l-117 -164h-170l217 281h140z" />
    <glyph glyph-name="caron" unicode="&#x2c7;" horiz-adv-x="782" 
d="M680 1434l-219 -281h-139l-220 281h172l117 -166l117 166h172z" />
    <glyph glyph-name="breve" unicode="&#x2d8;" horiz-adv-x="700" 
d="M469 1434h129q0 -115 -69 -192t-179 -77q-112 0 -180 77t-68 192h129q0 -63 31.5 -103.5t87.5 -40.5q53 0 86 41t33 103z" />
    <glyph glyph-name="dotaccent" unicode="&#x2d9;" horiz-adv-x="368" 
d="M184 1391q34 0 58 -24.5t24 -59.5q0 -34 -24 -58t-58 -24t-58 24t-24 58q0 35 24 59.5t58 24.5z" />
    <glyph glyph-name="ring" unicode="&#x2da;" horiz-adv-x="657" 
d="M330 1589q94 0 159.5 -66.5t65.5 -160.5t-65.5 -160.5t-159.5 -66.5q-95 0 -161.5 66.5t-66.5 160.5t66.5 160.5t161.5 66.5zM330 1255q43 0 74.5 31.5t31.5 75.5t-31.5 75t-74.5 31q-45 0 -77 -31t-32 -75t32.5 -75.5t76.5 -31.5z" />
    <glyph glyph-name="ogonek" unicode="&#x2db;" horiz-adv-x="487" 
d="M221 -238q16 -40 68.5 -42t91.5 24v-141q-52 -19 -96 -19q-81 0 -134.5 51t-46.5 134q7 74 58 138.5t98 92.5h125q-73 -32 -129.5 -105.5t-34.5 -132.5z" />
    <glyph glyph-name="tilde" unicode="&#x2dc;" horiz-adv-x="866" 
d="M629 1372l135 -41q-25 -80 -63.5 -123.5t-87 -49.5t-98.5 8t-109 48q-57 37 -102.5 30t-80.5 -68l-121 63q58 119 151.5 147.5t203.5 -34.5q25 -14 38.5 -20.5t34 -15t33 -8t26.5 5t23.5 19.5t16.5 39z" />
    <glyph glyph-name="hungarumlaut" unicode="&#x2dd;" horiz-adv-x="815" 
d="M262 1434h156l-203 -281h-113zM557 1434h156l-203 -281h-113z" />
    <glyph glyph-name="uni0401" unicode="&#x401;" 
d="M379 1661q-34 0 -58 24t-24 58t24 58t58 24q35 0 59.5 -24t24.5 -58t-24.5 -58t-59.5 -24zM784 1661q-34 0 -58 24t-24 58t24 58t58 24t58 -24t24 -58t-24 -58t-58 -24zM270 147h805v-147h-952v1434h940v-148h-793v-495h729v-148h-729v-496z" />
    <glyph glyph-name="uni0402" unicode="&#x402;" horiz-adv-x="1443" 
d="M1341 471v-164q0 -163 -52.5 -236.5t-155.5 -84.5q-49 -6 -109 13.5t-111 61.5l82 113q43 -36 90 -40t68 18q25 23 32 57t7 102v160q0 95 -17 159t-51 97t-76 45t-100 10q-90 -4 -166 -43t-129 -92v-647h-147v1284h-445v150h1037v-150h-445v-457q57 41 137.5 73t157.5 36
q103 7 180 -24.5t123 -95.5t68 -150t22 -195z" />
    <glyph glyph-name="uni0403" unicode="&#x403;" horiz-adv-x="946" 
d="M905 1434v-150h-622v-1284h-150v1434h772zM612 1843h156l-203 -280h-112z" />
    <glyph glyph-name="uni0404" unicode="&#x404;" horiz-adv-x="1452" 
d="M799 131q145 0 265.5 65.5t195.5 180.5l131 -66q-94 -151 -249.5 -238t-342.5 -87q-148 0 -280 57.5t-225 155.5t-147.5 232.5t-54.5 283.5t54.5 284t147.5 233t225 156t280 58q187 0 342.5 -88.5t249.5 -239.5l-131 -63q-75 113 -196 179t-265 66q-219 0 -372.5 -145
t-178.5 -364h715v-148h-715q24 -220 177 -366t374 -146z" />
    <glyph glyph-name="uni0405" unicode="&#x405;" horiz-adv-x="1220" 
d="M633 795q64 -10 113 -20.5t106 -27.5t99 -37t83.5 -50t67 -66.5t41.5 -86t16 -108.5q0 -80 -29.5 -148.5t-80 -117t-118 -82.5t-143 -50.5t-155.5 -16.5q-117 0 -217 26t-169.5 71t-116 100t-69.5 118l142 49q43 -103 155.5 -160t274.5 -57q62 0 124 14.5t120.5 43.5
t95.5 84t37 126q0 47 -16 81.5t-44 59t-80 44.5t-111 34t-151 31q-94 17 -162 35t-137 49t-112.5 71t-70.5 100.5t-28 137.5q-1 81 30 153t91.5 129t160.5 90.5t228 33.5q184 0 317.5 -86.5t174.5 -220.5l-142 -49q-13 56 -47.5 97.5t-83 65t-103 34.5t-116.5 11
q-170 0 -266 -66t-96 -192q0 -104 88.5 -157t298.5 -90z" />
    <glyph glyph-name="uni0406" unicode="&#x406;" horiz-adv-x="413" 
d="M133 1434h148v-1434h-148v1434z" />
    <glyph glyph-name="uni0407" unicode="&#x407;" horiz-adv-x="446" 
d="M154 1434h147v-1434h-147v1434zM74 1800q34 0 58 -24.5t24 -59.5q0 -34 -24 -58t-58 -24t-59 24t-25 58q0 35 25 59.5t59 24.5zM383 1800q35 0 59.5 -24.5t24.5 -59.5q0 -34 -24.5 -58t-59.5 -24q-34 0 -58 24t-24 58q0 35 24 59.5t58 24.5z" />
    <glyph glyph-name="uni0408" unicode="&#x408;" horiz-adv-x="837" 
d="M711 1434v-1051q0 -191 -86.5 -295t-253.5 -104q-113 0 -203.5 51t-124.5 104l109 86q33 -38 88 -66t125 -28q94 0 145 61t51 187v1055h150z" />
    <glyph glyph-name="uni0409" unicode="&#x409;" horiz-adv-x="2091" 
d="M1559 889q192 0 321 -130.5t129 -314.5q0 -186 -126 -315t-324 -129h-537v1284h-530q-4 -433 -33 -674q-51 -434 -213 -559q-52 -42 -128 -53.5t-118 2.5l31 143q78 -16 123 23q113 88 157 463q33 260 33 805h825v-545h390zM1559 147q133 0 214.5 86.5t81.5 210.5
t-81.5 209.5t-214.5 85.5h-390v-592h390z" />
    <glyph glyph-name="uni040A" unicode="&#x40a;" horiz-adv-x="2129" 
d="M1597 791q198 0 324.5 -107.5t126.5 -286.5q0 -182 -123.5 -289.5t-327.5 -107.5h-524v643h-790v-643h-150v1434h150v-643h790v643h148v-643h376zM1597 147q138 0 217.5 65t79.5 185q0 118 -79 182t-218 64h-376v-496h376z" />
    <glyph glyph-name="uni040B" unicode="&#x40b;" horiz-adv-x="1449" 
d="M954 936q83 5 149.5 -14.5t112 -59.5t75.5 -100t43.5 -132t13.5 -159v-471h-148v471q0 95 -17.5 159t-52 97t-76.5 45t-100 10q-89 -4 -167.5 -44t-133.5 -93v-645h-147v1284h-445v150h1039v-150h-447v-459q58 42 140.5 74.5t160.5 36.5z" />
    <glyph glyph-name="uni040C" unicode="&#x40c;" horiz-adv-x="1216" 
d="M1016 0l-516 721l-217 -242v-479h-150v1434h150v-734l663 734h197l-541 -600l594 -834h-180zM705 1843h155l-203 -280h-112z" />
    <glyph glyph-name="uni040E" unicode="&#x40e;" horiz-adv-x="1140" 
d="M958 1434h162l-456 -1051q-81 -187 -160 -272q-47 -52 -102.5 -81.5t-105.5 -35t-87.5 -2t-65.5 13.5l43 141q108 -32 181.5 34t146.5 231l-514 1022h166l426 -846zM709 1843h129q0 -115 -68.5 -191.5t-179.5 -76.5q-112 0 -180 76.5t-68 191.5h129q0 -63 31.5 -103
t87.5 -40q53 0 86 40.5t33 102.5z" />
    <glyph glyph-name="uni040F" unicode="&#x40f;" horiz-adv-x="1308" 
d="M1018 1434h147v-1434h-436v-260h-147v260h-439v1434h150v-1287h725v1287z" />
    <glyph glyph-name="uni0410" unicode="&#x410;" horiz-adv-x="1341" 
d="M1116 0l-155 416h-580l-156 -416h-164l541 1434h135l543 -1434h-164zM436 563h469l-235 635z" />
    <glyph glyph-name="uni0411" unicode="&#x411;" horiz-adv-x="1224" 
d="M281 838h381q115 0 205 -32t146.5 -88.5t85.5 -130.5t29 -161t-29 -163.5t-83.5 -135.5t-141.5 -93t-196 -34h-545v1434h842v-150h-694v-446zM674 147q145 0 222 78t77 197q0 118 -77.5 195t-229.5 77h-385v-547h393z" />
    <glyph glyph-name="uni0412" unicode="&#x412;" horiz-adv-x="1214" 
d="M889 776q110 -49 171.5 -143t61.5 -211q0 -88 -27.5 -163t-81.5 -133.5t-142.5 -92t-202.5 -33.5h-535v1434h500q204 0 305.5 -104.5t101.5 -270.5q0 -89 -39.5 -162.5t-111.5 -120.5zM623 1286l-340 -2v-453h325q143 0 208 62.5t65 165.5q0 105 -58 166t-200 61z
M664 147q145 0 222 78t77 197q0 118 -78 196t-230 78h-372v-549h381z" />
    <glyph glyph-name="uni0413" unicode="&#x413;" horiz-adv-x="946" 
d="M905 1434v-150h-622v-1284h-150v1434h772z" />
    <glyph glyph-name="uni0414" unicode="&#x414;" horiz-adv-x="1466" 
d="M1239 147h145v-407h-147v260h-1026v-260h-150v407h138q215 289 215 1256v31h825v-1287zM561 1284q-11 -815 -192 -1137h721v1137h-529z" />
    <glyph glyph-name="uni0415" unicode="&#x415;" 
d="M270 147h805v-147h-952v1434h940v-148h-793v-495h729v-148h-729v-496z" />
    <glyph glyph-name="uni0416" unicode="&#x416;" horiz-adv-x="1974" 
d="M1774 0l-514 721l-199 -242v-479h-148v479l-198 242l-514 -721h-181l592 834l-540 600h198l643 -734v734h148v-734l643 734h199l-543 -600l594 -834h-180z" />
    <glyph glyph-name="uni0417" unicode="&#x417;" horiz-adv-x="1189" 
d="M809 754q29 -7 58.5 -18t73.5 -37.5t76.5 -61t56.5 -92t24 -127.5q0 -88 -33 -165.5t-95 -138t-160 -95.5t-220 -35q-182 0 -326 74t-203 180l132 69q46 -77 148 -130.5t243 -53.5q163 0 263.5 80.5t100.5 212.5q0 254 -377 254h-194v143h188q148 0 226.5 75.5
t78.5 196.5q0 102 -85.5 161t-202.5 59q-264 0 -363 -199l-135 31q52 141 189.5 225t308.5 84q191 0 314.5 -101t123.5 -251q0 -119 -59 -208.5t-152 -131.5z" />
    <glyph glyph-name="uni0418" unicode="&#x418;" horiz-adv-x="1355" 
d="M1087 1434h136v-1434h-148v1163l-807 -1163h-135v1434h148v-1160z" />
    <glyph glyph-name="uni0419" unicode="&#x419;" horiz-adv-x="1355" 
d="M688 1561q-112 0 -190 77.5t-78 190.5h125q0 -61 40.5 -102t102.5 -41q63 0 104.5 40.5t41.5 102.5h124q0 -113 -78 -190.5t-192 -77.5zM1087 1434h136v-1434h-148v1163l-807 -1163h-135v1434h148v-1160z" />
    <glyph glyph-name="uni041A" unicode="&#x41a;" horiz-adv-x="1216" 
d="M1016 0l-516 721l-217 -242v-479h-150v1434h150v-734l663 734h197l-541 -600l594 -834h-180z" />
    <glyph glyph-name="uni041B" unicode="&#x41b;" horiz-adv-x="1294" 
d="M346 1434h825v-1434h-147v1284h-530q-4 -433 -33 -674q-51 -433 -213 -561q-53 -41 -128 -52.5t-120 3.5l33 143q75 -16 123 23q113 88 157 463q33 260 33 805z" />
    <glyph glyph-name="uni041C" unicode="&#x41c;" horiz-adv-x="1673" 
d="M1403 1434h137v-1434h-149v1149l-506 -791h-101l-501 791v-1149h-150v1434h137l566 -893z" />
    <glyph glyph-name="uni041D" unicode="&#x41d;" horiz-adv-x="1351" 
d="M1071 1434h148v-1434h-148v643h-790v-643h-148v1434h148v-643h790v643z" />
    <glyph glyph-name="uni041E" unicode="&#x41e;" horiz-adv-x="1574" 
d="M788 1446q148 0 278 -58t221 -156.5t143.5 -233t52.5 -283.5t-52.5 -283.5t-143.5 -233t-221 -156.5t-278 -58q-197 0 -357.5 98.5t-249.5 265.5t-89 367t89 367t249.5 265.5t357.5 98.5zM788 129q157 0 282 79t193 212.5t68 294.5t-68 294.5t-193 212t-282 78.5
q-158 0 -283.5 -78.5t-193 -212t-67.5 -294.5q0 -162 67.5 -295t193 -212t283.5 -79z" />
    <glyph glyph-name="uni041F" unicode="&#x41f;" horiz-adv-x="1353" 
d="M133 1434h1088v-1434h-150v1284h-788v-1284h-150v1434z" />
    <glyph glyph-name="uni0420" unicode="&#x420;" horiz-adv-x="1202" 
d="M672 1434q131 0 234 -61t158.5 -162t55.5 -222q0 -184 -128 -314t-320 -130h-389v-545h-150v1434h539zM672 692q131 0 213 86.5t82 210.5t-81 210.5t-214 86.5h-389v-594h389z" />
    <glyph glyph-name="uni0421" unicode="&#x421;" horiz-adv-x="1452" 
d="M799 129q145 0 265.5 66.5t195.5 181.5l131 -66q-94 -151 -249.5 -239t-342.5 -88q-148 0 -280 58t-225 156t-147.5 233t-54.5 284t54.5 284t147.5 233t225 156t280 58q187 0 342.5 -88t249.5 -240l-131 -63q-75 113 -196 179t-265 66q-159 0 -286.5 -78.5t-198 -212
t-70.5 -294.5t70.5 -295t198 -212.5t286.5 -78.5z" />
    <glyph glyph-name="uni0422" unicode="&#x422;" horiz-adv-x="1120" 
d="M1079 1434v-148h-444v-1286h-148v1286h-446v148h1038z" />
    <glyph glyph-name="uni0423" unicode="&#x423;" horiz-adv-x="1140" 
d="M958 1434h162l-456 -1051q-81 -187 -160 -272q-47 -52 -102.5 -81.5t-105.5 -35t-87.5 -2t-65.5 13.5l43 141q108 -32 181.5 34t146.5 231l-514 1022h166l426 -846z" />
    <glyph glyph-name="uni0424" unicode="&#x424;" horiz-adv-x="1691" 
d="M1599 715q0 -138 -53.5 -250t-147.5 -185.5t-215 -116t-263 -52.5v-172h-148v172q-142 10 -264 52.5t-215.5 116t-147 185.5t-53.5 250t53.5 250t147 185.5t215.5 116t264 52.5v172h148v-172q142 -10 263 -52.5t215 -116t147.5 -185.5t53.5 -250zM244 715
q0 -108 41 -193.5t114 -140.5t167 -86t206 -39v918q-112 -8 -205.5 -39t-167 -85.5t-114.5 -140t-41 -194.5zM920 256q112 8 206 39t167 86t114 140.5t41 193.5q0 109 -41 194.5t-114.5 140t-167 85.5t-205.5 39v-918z" />
    <glyph glyph-name="uni0425" unicode="&#x425;" horiz-adv-x="1277" 
d="M1257 0h-182l-436 608l-436 -608h-183l527 735l-498 699h182l408 -570l408 570h182l-500 -699z" />
    <glyph glyph-name="uni0426" unicode="&#x426;" horiz-adv-x="1415" 
d="M1155 147h178v-407h-149v260h-1051v1434h148v-1287h727v1287h147v-1287z" />
    <glyph glyph-name="uni0427" unicode="&#x427;" horiz-adv-x="1245" 
d="M965 1425h147v-1433h-147v620q-81 -55 -189.5 -85.5t-212.5 -30.5q-229 0 -350 131.5t-121 400.5v406h148v-406q0 -385 323 -385q254 0 402 137v645z" />
    <glyph glyph-name="uni0428" unicode="&#x428;" horiz-adv-x="1966" 
d="M1833 1434v-1434h-1700v1434h148v-1287h628v1287h148v-1287h629v1287h147z" />
    <glyph glyph-name="uni0429" unicode="&#x429;" horiz-adv-x="2093" 
d="M1835 147h176v-407h-147v260h-1731v1434h150v-1287h628v1287h148v-1287h629v1287h147v-1287z" />
    <glyph glyph-name="uni042A" unicode="&#x42a;" horiz-adv-x="1349" 
d="M817 889q192 0 321.5 -130.5t129.5 -314.5q0 -186 -126.5 -315t-324.5 -129h-536v1286h-261v148h408v-545h389zM817 147q133 0 215 86.5t82 210.5t-82 210.5t-215 86.5h-389v-594h389z" />
    <glyph glyph-name="uni042B" unicode="&#x42b;" horiz-adv-x="1601" 
d="M670 889q128 0 232 -60.5t161 -162.5t57 -222q0 -186 -126 -315t-324 -129h-537v1434h148v-545h389zM670 147q134 0 215.5 86.5t81.5 210.5t-82 210.5t-215 86.5h-389v-594h389zM1321 1434h147v-1434h-147v1434z" />
    <glyph glyph-name="uni042C" unicode="&#x42c;" horiz-adv-x="1202" 
d="M670 889q192 0 321 -130.5t129 -314.5q0 -185 -126.5 -314.5t-323.5 -129.5h-537v1434h148v-545h389zM670 147q133 0 215 86.5t82 210.5t-82 210.5t-215 86.5h-389v-594h389z" />
    <glyph glyph-name="uni042D" unicode="&#x42d;" horiz-adv-x="1454" 
d="M655 1446q148 0 280 -58t225 -156t147.5 -233t54.5 -284t-54.5 -283.5t-147.5 -232.5t-225 -155.5t-280 -57.5q-188 0 -343 87t-251 238l132 66q77 -115 197 -180.5t265 -65.5q219 0 372.5 146t178.5 366h-717v148h717q-25 220 -178 364.5t-373 144.5q-145 0 -265.5 -65
t-196.5 -180l-132 63q96 153 251 240.5t343 87.5z" />
    <glyph glyph-name="uni042E" unicode="&#x42e;" horiz-adv-x="2070" 
d="M1282 1446q197 0 357.5 -98.5t249.5 -265.5t89 -367t-89 -366.5t-249.5 -264.5t-357.5 -98q-139 0 -262.5 50.5t-213.5 138.5t-147 209t-69 259h-309v-643h-148v1434h148v-643h309q13 137 70.5 257.5t147 208.5t212.5 138.5t262 50.5zM1282 131q158 0 283.5 78.5
t193.5 211.5t68 294t-68 294.5t-193.5 212t-283.5 78.5t-283 -78.5t-192.5 -211.5t-67.5 -295t67.5 -294.5t192.5 -211t283 -78.5z" />
    <glyph glyph-name="uni042F" unicode="&#x42f;" horiz-adv-x="1208" 
d="M549 1434h536v-1434h-147v545h-389h-10l-308 -545h-170l324 573q-129 47 -208 161t-79 255q0 186 126.5 315.5t324.5 129.5zM549 692h389v594h-389q-134 0 -215.5 -86.5t-81.5 -210.5t82 -210.5t215 -86.5z" />
    <glyph glyph-name="uni0430" unicode="&#x430;" horiz-adv-x="962" 
d="M870 0h-147v119q-154 -133 -344 -133q-141 0 -229.5 67.5t-88.5 188.5q0 142 109.5 217.5t345.5 113.5q118 19 165 45t46 74q-1 23 -6 44.5t-20 46.5t-39 43t-65 30t-95 12q-62 0 -108 -14t-73 -40.5t-41.5 -53t-25.5 -62.5l-131 31q11 52 38 99t72 86.5t115.5 63
t157.5 23.5q171 0 266.5 -90.5t95.5 -248.5zM391 125q146 0 241.5 83.5t94.5 215.5v45q-7 -1 -190 -31q-170 -28 -245 -68t-75 -118q0 -38 19.5 -65.5t50 -39.5t56 -17t48.5 -5z" />
    <glyph glyph-name="uni0431" unicode="&#x431;" horiz-adv-x="1069" 
d="M547 987q207 0 328.5 -138t121.5 -353q0 -142 -54 -257.5t-159 -184t-243 -68.5q-195 0 -321 132t-140 333q-6 61 -7 122.5t4 142.5t19 155t43 155t70.5 149.5t106 131.5t145.5 106q100 50 215 84q54 18 76 26.5t54 26t54 39.5l107 -104q-55 -49 -111 -76t-135 -51
q-121 -41 -191 -76q-77 -41 -134.5 -93.5t-94 -112.5t-57.5 -120.5t-33 -130.5q145 162 336 162zM541 129q98 0 169 50t104.5 131.5t33.5 185.5q0 158 -77 253t-224 95q-149 0 -234.5 -96t-85.5 -252q0 -159 83.5 -263t230.5 -104z" />
    <glyph glyph-name="uni0432" unicode="&#x432;" horiz-adv-x="970" 
d="M737 510q74 -28 118 -85t44 -142q0 -127 -86.5 -205t-226.5 -78h-473v987h413q152 0 233 -80t81 -205q0 -103 -103 -192zM526 840h-266v-273h266q72 0 116 34.5t44 100.5q0 71 -38.5 104.5t-121.5 33.5zM586 147q72 0 114.5 34.5t42.5 101.5q0 137 -157 137h-326v-273
h326z" />
    <glyph glyph-name="uni0433" unicode="&#x433;" horiz-adv-x="792" 
d="M741 987v-147h-481v-840h-147v987h628z" />
    <glyph glyph-name="uni0434" unicode="&#x434;" horiz-adv-x="1134" 
d="M918 147h145v-391h-150v244h-735v-244h-147v391h102q73 98 114.5 315.5t41.5 504.5v20h629v-840zM434 840q-12 -454 -129 -693h463v693h-334z" />
    <glyph glyph-name="uni0435" unicode="&#x435;" horiz-adv-x="1048" 
d="M530 1001q206 0 326.5 -145t120.5 -364q0 -8 -1 -26t-1 -26h-760q15 -137 104 -224t224 -87q178 0 272 147l129 -63q-63 -107 -166 -167t-235 -60q-208 0 -345 146.5t-137 359.5q0 216 131 362.5t338 146.5zM530 858q-122 0 -203.5 -74.5t-105.5 -195.5h604
q-23 123 -98 196.5t-197 73.5z" />
    <glyph glyph-name="uni0436" unicode="&#x436;" horiz-adv-x="1486" 
d="M1274 0l-348 479l-123 -153v-326h-150v326l-123 153l-348 -479h-182l428 590l-367 397h201l391 -444v444h150v-444l391 444h203l-369 -397l428 -590h-182z" />
    <glyph glyph-name="uni0437" unicode="&#x437;" horiz-adv-x="862" 
d="M588 506q91 -12 152 -76t61 -158q0 -132 -104.5 -209t-272.5 -77q-261 0 -393 182l114 72q39 -56 112.5 -88.5t156.5 -32.5q98 0 165.5 44t67.5 120q0 69 -60.5 106t-158.5 37h-125v135h96q98 0 150.5 44.5t52.5 115.5q0 65 -48.5 103t-131.5 38q-73 0 -140 -28t-112 -76
l-94 94q61 64 150.5 106.5t199.5 42.5q144 0 234 -76.5t90 -185.5q0 -79 -43.5 -144t-118.5 -89z" />
    <glyph glyph-name="uni0438" unicode="&#x438;" horiz-adv-x="1032" 
d="M782 987h138v-987h-148v733l-522 -733h-137v987h149v-733z" />
    <glyph glyph-name="uni0439" unicode="&#x439;" horiz-adv-x="1032" 
d="M528 1106q-114 0 -191 77.5t-77 190.5h123q0 -62 41 -102.5t104 -40.5q62 0 103 41t41 102h125q0 -112 -78 -190t-191 -78zM782 987h138v-987h-148v733l-522 -733h-137v987h149v-733z" />
    <glyph glyph-name="uni043A" unicode="&#x43a;" horiz-adv-x="970" 
d="M758 0l-348 479l-148 -160v-319h-149v987h149v-450l416 450h201l-367 -397l428 -590h-182z" />
    <glyph glyph-name="uni043B" unicode="&#x43b;" horiz-adv-x="970" 
d="M242 987h616v-987h-149v840h-320q-3 -341 -39.5 -530.5t-130.5 -266.5q-77 -65 -209 -47l29 145q56 -9 86 17q48 39 75.5 169t34.5 271t7 340v49z" />
    <glyph glyph-name="uni043C" unicode="&#x43c;" horiz-adv-x="1275" 
d="M1028 987h135v-987h-147v725l-326 -475h-104l-324 475v-725h-149v987h137l389 -571z" />
    <glyph glyph-name="uni043D" unicode="&#x43d;" horiz-adv-x="1032" 
d="M772 987h148v-987h-148v420h-510v-420h-149v987h149v-420h510v420z" />
    <glyph glyph-name="uni043E" unicode="&#x43e;" horiz-adv-x="1099" 
d="M547 1001q139 0 249.5 -68t171 -184t60.5 -257t-60.5 -256.5t-171 -183.5t-249.5 -68q-138 0 -247 68t-168.5 183.5t-59.5 256.5t59.5 257t169 184t246.5 68zM547 129q149 0 240.5 103.5t91.5 259.5t-91.5 261t-240.5 105q-148 0 -237 -104.5t-89 -261.5
q0 -156 88.5 -259.5t237.5 -103.5z" />
    <glyph glyph-name="uni043F" unicode="&#x43f;" horiz-adv-x="1032" 
d="M113 987h807v-987h-150v840h-510v-840h-147v987z" />
    <glyph glyph-name="uni0440" unicode="&#x440;" horiz-adv-x="1120" 
d="M586 1001q138 0 244.5 -68.5t162.5 -183.5t56 -257t-56 -257t-162.5 -183t-244.5 -68q-203 0 -326 149v-579h-147v1433h147v-135q123 149 326 149zM586 129q147 0 230 102.5t83 260.5q0 159 -83 262.5t-230 103.5q-146 0 -232 -104.5t-86 -261.5t85.5 -260t232.5 -103z
" />
    <glyph glyph-name="uni0441" unicode="&#x441;" horiz-adv-x="993" 
d="M537 129q89 0 160 38.5t116 108.5l129 -63q-63 -106 -168.5 -166.5t-236.5 -60.5q-209 0 -342.5 146t-133.5 360q0 141 59 257t168.5 184t246.5 68q132 0 238 -62t169 -169l-129 -61q-46 70 -117 109.5t-161 39.5q-147 0 -235.5 -104.5t-88.5 -261.5q0 -156 88.5 -259.5
t237.5 -103.5z" />
    <glyph glyph-name="uni0442" unicode="&#x442;" horiz-adv-x="907" 
d="M846 987v-147h-320v-840h-147v840h-318v147h785z" />
    <glyph glyph-name="uni0443" unicode="&#x443;" horiz-adv-x="917" 
d="M750 987h157l-346 -956q-96 -252 -166 -350q-109 -145 -307 -93l27 146q37 -7 62 -7.5t49.5 8.5t42 26t38 51.5t39.5 77.5t45 110l-360 987h159l279 -780z" />
    <glyph glyph-name="uni0444" unicode="&#x444;" horiz-adv-x="1308" 
d="M1247 496q0 -207 -133.5 -347t-382.5 -161v-434h-147v434q-169 12 -289 84t-177 180.5t-57 243.5q0 100 33.5 186.5t97 154.5t164.5 110.5t228 51.5v435h147v-435q249 -21 382.5 -159.5t133.5 -343.5zM211 496q0 -146 96 -246.5t277 -118.5v725q-97 -8 -170 -39
t-116.5 -80t-65 -109t-21.5 -132zM731 133q178 18 272.5 118.5t94.5 244.5q0 147 -90 244.5t-277 113.5v-721z" />
    <glyph glyph-name="uni0445" unicode="&#x445;" horiz-adv-x="931" 
d="M922 0h-183l-274 381l-272 -381h-183l365 508l-344 479h182l252 -352l252 352h184l-344 -479z" />
    <glyph glyph-name="uni0446" unicode="&#x446;" horiz-adv-x="1118" 
d="M901 147h146v-391h-150v244h-784v987h147v-840h492v840h149v-840z" />
    <glyph glyph-name="uni0447" unicode="&#x447;" horiz-adv-x="976" 
d="M715 987h149v-987h-149v387q-64 -33 -137.5 -56.5t-128.5 -23.5q-357 0 -357 381v299h148v-299q0 -118 46.5 -181t155.5 -63q143 0 273 80v463z" />
    <glyph glyph-name="uni0448" unicode="&#x448;" horiz-adv-x="1482" 
d="M1370 987v-987h-1257v987h147v-840h408v840h147v-840h406v840h149z" />
    <glyph glyph-name="uni0449" unicode="&#x449;" horiz-adv-x="1587" 
d="M1370 147h146v-391h-148v244h-1255v987h149v-840h406v840h147v-840h408v840h147v-840z" />
    <glyph glyph-name="uni044A" unicode="&#x44a;" horiz-adv-x="1091" 
d="M672 639q155 0 251.5 -86t96.5 -234q0 -146 -100 -232.5t-248 -86.5h-400v838h-241v149h391v-348h250zM672 147q88 0 141 43.5t53 128.5t-52.5 129t-141.5 44h-250v-345h250z" />
    <glyph glyph-name="uni044B" unicode="&#x44b;" horiz-adv-x="1255" 
d="M993 987h150v-987h-150v987zM489 639q157 0 254 -86t97 -234q0 -146 -101.5 -232.5t-249.5 -86.5h-397v987h148v-348h249zM489 147q90 0 143.5 43.5t53.5 128.5t-53 129t-144 44h-249v-345h249z" />
    <glyph glyph-name="uni044C" unicode="&#x44c;" horiz-adv-x="911" 
d="M492 639q155 0 251.5 -86t96.5 -234q0 -146 -100 -232.5t-248 -86.5h-400v987h150v-348h250zM492 147q88 0 141 43.5t53 128.5t-52.5 129t-141.5 44h-250v-345h250z" />
    <glyph glyph-name="uni044D" unicode="&#x44d;" horiz-adv-x="995" 
d="M449 1001q137 0 246.5 -67.5t169 -182.5t59.5 -255q0 -141 -59.5 -257.5t-169 -185.5t-246.5 -69q-132 0 -238.5 62t-169.5 169l129 64q46 -70 118 -111t161 -41q128 0 213 81.5t106 211.5h-449v147h449q-21 130 -105.5 210.5t-213.5 80.5q-91 0 -162.5 -38.5
t-116.5 -108.5l-129 63q63 106 169 166.5t239 60.5z" />
    <glyph glyph-name="uni044E" unicode="&#x44e;" horiz-adv-x="1482" 
d="M930 1001q208 0 344.5 -147t136.5 -360q0 -215 -136.5 -362.5t-344.5 -147.5q-190 0 -318.5 123t-152.5 313h-197v-420h-149v987h149v-420h197q24 189 152.5 311.5t318.5 122.5zM930 127q149 0 240.5 105.5t91.5 261.5t-91.5 260t-240.5 104t-237.5 -103.5t-88.5 -260.5
t89 -262t237 -105z" />
    <glyph glyph-name="uni044F" unicode="&#x44f;" horiz-adv-x="923" 
d="M414 987h397v-987h-147v346h-250q-13 0 -17 2l-196 -348h-170l215 379q-86 37 -134.5 111.5t-48.5 177.5q0 146 101.5 232.5t249.5 86.5zM414 496h250v342h-250q-90 0 -143.5 -43.5t-53.5 -126.5q0 -85 53 -128.5t144 -43.5z" />
    <glyph glyph-name="uni0451" unicode="&#x451;" horiz-adv-x="1048" 
d="M334 1143q-34 0 -58 24t-24 58q0 35 24 59.5t58 24.5q35 0 59.5 -24.5t24.5 -59.5q0 -34 -24.5 -58t-59.5 -24zM709 1143q-34 0 -58 24t-24 58q0 35 24 59.5t58 24.5t58 -24.5t24 -59.5q0 -34 -24 -58t-58 -24zM530 1001q206 0 326.5 -145t120.5 -364q0 -8 -1 -26t-1 -26
h-760q15 -137 104 -224t224 -87q178 0 272 147l129 -63q-63 -107 -166 -167t-235 -60q-208 0 -345 146.5t-137 359.5q0 216 131 362.5t338 146.5zM530 858q-122 0 -203.5 -74.5t-105.5 -195.5h604q-23 123 -98 196.5t-197 73.5z" />
    <glyph glyph-name="uni0452" unicode="&#x452;" horiz-adv-x="1077" 
d="M600 1001q375 0 375 -456v-631q0 -162 -53 -236.5t-154 -85.5q-50 -5 -109 15.5t-112 62.5l84 111q28 -24 59 -33.5t55.5 -5.5t40.5 18q25 22 33 57.5t8 102.5v625q0 309 -249 309q-119 0 -191 -82.5t-72 -239.5v-532h-149v1135h-146v147h146v152h149v-152h193v-147h-193
v-263q110 129 285 129z" />
    <glyph glyph-name="uni0453" unicode="&#x453;" horiz-adv-x="792" 
d="M741 987v-147h-481v-840h-147v987h628zM541 1434h155l-202 -281h-113z" />
    <glyph glyph-name="uni0454" unicode="&#x454;" horiz-adv-x="983" 
d="M526 129q89 0 161 40.5t116 109.5l129 -62q-63 -107 -169 -169t-237 -62q-138 0 -247.5 68.5t-168.5 184.5t-59 257q0 214 133 359.5t342 145.5q131 0 237 -60.5t169 -166.5l-129 -63q-43 70 -115 108.5t-162 38.5q-130 0 -215 -80.5t-104 -210.5h448v-147h-448
q21 -129 106 -210t213 -81z" />
    <glyph glyph-name="uni0455" unicode="&#x455;" horiz-adv-x="872" 
d="M455 569q56 -12 100.5 -25.5t92.5 -37t80 -53t52.5 -74t20.5 -98.5q0 -75 -31 -133.5t-83 -93t-115 -52.5t-132 -18q-140 0 -244.5 63.5t-144.5 167.5l135 55q23 -66 89.5 -102.5t164.5 -36.5q35 0 68.5 7t67 22.5t54.5 46.5t21 74q0 58 -46.5 87.5t-178.5 57.5
q-42 8 -66 13.5t-65 17t-66.5 23t-57.5 31t-51.5 42t-36 55t-22.5 70.5q-19 133 80 228t262 95q128 0 221.5 -57.5t127.5 -155.5l-138 -53q-39 113 -208 119q-102 3 -155 -42.5t-42 -109.5q3 -19 11.5 -34.5t26.5 -27.5t35 -21t49.5 -18.5t55.5 -15.5t68 -16z" />
    <glyph glyph-name="uni0456" unicode="&#x456;" horiz-adv-x="391" 
d="M121 0v987h149v-987h-149zM195 1176q-34 0 -58 23.5t-24 57.5q0 35 24 59.5t58 24.5q35 0 59.5 -24.5t24.5 -59.5q0 -34 -24.5 -57.5t-59.5 -23.5z" />
    <glyph glyph-name="uni0457" unicode="&#x457;" horiz-adv-x="401" 
d="M133 0v987h150v-987h-150zM53 1391q34 0 58 -24.5t24 -59.5q0 -34 -24 -58t-58 -24t-59 24t-25 58q0 35 25 59.5t59 24.5zM362 1391q35 0 59.5 -24.5t24.5 -59.5q0 -34 -24.5 -58t-59.5 -24q-34 0 -57.5 24t-23.5 58q0 35 23.5 59.5t57.5 24.5z" />
    <glyph glyph-name="uni0458" unicode="&#x458;" horiz-adv-x="417" 
d="M221 1176q-34 0 -58 23.5t-24 57.5q0 35 24 59.5t58 24.5q35 0 59.5 -24.5t24.5 -59.5q0 -34 -24.5 -57.5t-59.5 -23.5zM147 -133v1120h150v-1124q0 -164 -53 -237.5t-156 -86.5q-49 -5 -108.5 15.5t-112.5 62.5l84 113q29 -25 60 -35t55 -6t40 18q26 22 33.5 56.5
t7.5 103.5z" />
    <glyph glyph-name="uni0459" unicode="&#x459;" horiz-adv-x="1523" 
d="M1102 639q155 0 252.5 -86t97.5 -234q0 -146 -101 -232.5t-249 -86.5h-391v838h-322q-3 -339 -39 -528.5t-129 -266.5q-77 -65 -211 -47l29 145q57 -9 88 17q47 39 74 169t34 271t7 340v49h616v-348h244zM1102 147q90 0 143 43.5t53 128.5t-52.5 129t-143.5 44h-244v-345
h244z" />
    <glyph glyph-name="uni045A" unicode="&#x45a;" horiz-adv-x="1576" 
d="M1155 567q162 0 256 -69t94 -213q0 -97 -49 -162.5t-125.5 -94t-175.5 -28.5h-385v420h-510v-420h-147v987h147v-420h510v420h148v-420h237zM1155 147q98 0 147.5 28.5t49.5 109.5q0 80 -49 107.5t-148 27.5h-237v-273h237z" />
    <glyph glyph-name="uni045B" unicode="&#x45b;" horiz-adv-x="1089" 
d="M612 1001q375 0 375 -456v-545h-149v545q0 309 -250 309q-119 0 -190.5 -82.5t-71.5 -239.5v-532h-148v1135h-147v147h147v152h148v-152h192v-147h-192v-263q113 129 286 129z" />
    <glyph glyph-name="uni045C" unicode="&#x45c;" horiz-adv-x="970" 
d="M758 0l-348 479l-148 -160v-319h-149v987h149v-450l416 450h201l-367 -397l428 -590h-182zM582 1434h155l-202 -281h-113z" />
    <glyph glyph-name="uni045E" unicode="&#x45e;" horiz-adv-x="907" 
d="M739 987h158l-346 -956q-96 -252 -166 -350q-109 -145 -307 -93l26 146q37 -7 62 -7.5t49.5 8.5t42.5 26t38.5 51.5t39.5 77.5t45 110l-361 987h160l279 -780zM578 1434h129q0 -115 -69 -192t-179 -77q-112 0 -180 77t-68 192h129q0 -63 31.5 -103.5t87.5 -40.5
q53 0 86 41t33 103z" />
    <glyph glyph-name="uni045F" unicode="&#x45f;" horiz-adv-x="1026" 
d="M766 987h147v-987h-325v-244h-150v244h-325v987h149v-840h504v840z" />
    <glyph glyph-name="uni0490" unicode="&#x490;" horiz-adv-x="944" 
d="M756 1694h147v-410h-622v-1284h-148v1434h623v260z" />
    <glyph glyph-name="uni0491" unicode="&#x491;" horiz-adv-x="792" 
d="M594 1229h147v-391h-479v-838h-149v987h481v242z" />
    <glyph glyph-name="Wgrave" unicode="&#x1e80;" horiz-adv-x="2045" 
d="M1845 1434h160l-463 -1434h-149l-367 1192l-367 -1192h-149l-469 1434h166l381 -1190l366 1190h144l366 -1190zM918 1843l159 -280h-112l-203 280h156z" />
    <glyph glyph-name="wgrave" unicode="&#x1e81;" horiz-adv-x="1454" 
d="M1290 987h154l-320 -987h-149l-248 748l-248 -748h-149l-320 987h156l242 -747l247 747h144l248 -747zM623 1434l159 -281h-112l-203 281h156z" />
    <glyph glyph-name="Wacute" unicode="&#x1e82;" horiz-adv-x="2045" 
d="M1845 1434h160l-463 -1434h-149l-367 1192l-367 -1192h-149l-469 1434h166l381 -1190l366 1190h144l366 -1190zM1147 1843h156l-203 -280h-113z" />
    <glyph glyph-name="wacute" unicode="&#x1e83;" horiz-adv-x="1454" 
d="M1290 987h154l-320 -987h-149l-248 748l-248 -748h-149l-320 987h156l242 -747l247 747h144l248 -747zM852 1434h156l-203 -281h-113z" />
    <glyph glyph-name="Wdieresis" unicode="&#x1e84;" horiz-adv-x="2045" 
d="M1845 1434h160l-463 -1434h-149l-367 1192l-367 -1192h-149l-469 1434h166l381 -1190l366 1190h144l366 -1190zM868 1800q34 0 58 -24.5t24 -59.5q0 -34 -24 -58t-58 -24t-59 24t-25 58q0 35 25 59.5t59 24.5zM1178 1800q35 0 59.5 -24.5t24.5 -59.5q0 -34 -24.5 -58
t-59.5 -24q-34 0 -58 24t-24 58q0 35 24 59.5t58 24.5z" />
    <glyph glyph-name="wdieresis" unicode="&#x1e85;" horiz-adv-x="1454" 
d="M1290 987h154l-320 -987h-149l-248 748l-248 -748h-149l-320 987h156l242 -747l247 747h144l248 -747zM573 1391q34 0 58 -24.5t24 -59.5q0 -34 -24 -58t-58 -24t-59 24t-25 58q0 35 25 59.5t59 24.5zM883 1391q35 0 59.5 -24.5t24.5 -59.5q0 -34 -24.5 -58t-59.5 -24
q-34 0 -58 24t-24 58q0 35 24 59.5t58 24.5z" />
    <glyph glyph-name="Germandbl" unicode="&#x1e9e;" horiz-adv-x="1148" 
d="M672 903q190 -37 292.5 -157.5t102.5 -282.5q0 -97 -30 -177t-81 -135t-121 -93t-148.5 -55.5t-164.5 -16.5v147q74 0 142.5 19t127 57t93.5 103.5t35 150.5q0 145 -109 231t-289 86v135l246 371h-213q-153 0 -212.5 -70t-59.5 -249v-967h-150v967q0 246 101.5 356.5
t320.5 110.5h369v-148z" />
    <glyph glyph-name="Ygrave" unicode="&#x1ef2;" horiz-adv-x="1144" 
d="M1145 1434l-498 -889v-545h-149v543l-498 891h170l401 -719l404 719h170zM469 1843l160 -280h-113l-203 280h156z" />
    <glyph glyph-name="ygrave" unicode="&#x1ef3;" horiz-adv-x="907" 
d="M739 987h158l-346 -956q-96 -252 -166 -350q-109 -145 -307 -93l26 146q37 -7 62 -7.5t49.5 8.5t42.5 26t38.5 51.5t39.5 77.5t45 110l-361 987h160l279 -780zM375 1434l160 -281h-113l-203 281h156z" />
    <glyph glyph-name="endash" unicode="&#x2013;" horiz-adv-x="1081" 
d="M143 700h795v-147h-795v147z" />
    <glyph glyph-name="emdash" unicode="&#x2014;" horiz-adv-x="1259" 
d="M143 700h973v-147h-973v147z" />
    <glyph glyph-name="quoteleft" unicode="&#x2018;" horiz-adv-x="380" 
d="M82 1102l141 344h96l-83 -344h-154z" />
    <glyph glyph-name="quoteright" unicode="&#x2019;" horiz-adv-x="380" 
d="M82 1102l82 344h155l-141 -344h-96z" />
    <glyph glyph-name="quotesinglbase" unicode="&#x201a;" horiz-adv-x="360" 
d="M61 -324l82 344h156l-141 -344h-97z" />
    <glyph glyph-name="quotedblleft" unicode="&#x201c;" horiz-adv-x="624" 
d="M469 1446h94l-82 -344h-155zM82 1102l141 344h96l-83 -344h-154z" />
    <glyph glyph-name="quotedblright" unicode="&#x201d;" horiz-adv-x="626" 
d="M82 1102l82 344h155l-141 -344h-96zM410 1446h155l-143 -344h-96z" />
    <glyph glyph-name="quotedblbase" unicode="&#x201e;" horiz-adv-x="606" 
d="M61 -324l82 344h156l-141 -344h-97zM389 20h156l-144 -344h-96z" />
    <glyph glyph-name="dagger" unicode="&#x2020;" horiz-adv-x="899" 
d="M817 1081v-149h-295v-932h-147v932h-293v149h293v353h147v-353h295z" />
    <glyph glyph-name="daggerdbl" unicode="&#x2021;" horiz-adv-x="899" 
d="M817 932h-293v-430h293v-150h-293v-352h-147v352h-295v150h295v430h-295v149h295v353h147v-353h293v-149z" />
    <glyph glyph-name="ellipsis" unicode="&#x2026;" horiz-adv-x="1087" 
d="M205 139q35 0 59.5 -24t24.5 -58q0 -35 -24.5 -59.5t-59.5 -24.5q-34 0 -58 24.5t-24 59.5q0 34 24 58t58 24zM553 139q35 0 59.5 -24t24.5 -58q0 -35 -24.5 -59.5t-59.5 -24.5q-34 0 -58 24.5t-24 59.5q0 34 24 58t58 24zM901 139q35 0 59.5 -24t24.5 -58
q0 -35 -24.5 -59.5t-59.5 -24.5q-34 0 -58 24.5t-24 59.5q0 34 24 58t58 24z" />
    <glyph glyph-name="perthousand" unicode="&#x2030;" horiz-adv-x="2244" 
d="M1114 1434h176l-897 -1434h-174zM682 1135q0 -131 -90.5 -220.5t-218.5 -89.5q-130 0 -221 89.5t-91 220.5q0 132 91 221.5t221 89.5q129 0 219 -89.5t90 -221.5zM199 1135q0 -75 50.5 -124.5t123.5 -49.5q72 0 122 49.5t50 124.5t-50 124.5t-122 49.5
q-73 0 -123.5 -49.5t-50.5 -124.5zM1133 604q129 0 219 -88.5t90 -220.5t-90 -220.5t-219 -88.5q-130 0 -221 88.5t-91 220.5t91 220.5t221 88.5zM1133 121q72 0 122 49.5t50 124.5t-50 124.5t-122 49.5q-73 0 -124 -49.5t-51 -124.5t51 -124.5t124 -49.5zM1874 604
q129 0 219 -88.5t90 -220.5t-90 -220.5t-219 -88.5q-130 0 -220.5 88.5t-90.5 220.5t90.5 220.5t220.5 88.5zM1874 121q72 0 122 49.5t50 124.5t-50 124.5t-122 49.5q-73 0 -123.5 -49.5t-50.5 -124.5t50.5 -124.5t123.5 -49.5z" />
    <glyph glyph-name="guilsinglleft" unicode="&#x2039;" horiz-adv-x="696" 
d="M553 870l-229 -321l229 -324h-182l-228 324l228 321h182z" />
    <glyph glyph-name="guilsinglright" unicode="&#x203a;" horiz-adv-x="696" 
d="M324 870l229 -321l-229 -324h-181l228 324l-228 321h181z" />
    <glyph glyph-name="Euro" unicode="&#x20ac;" horiz-adv-x="1644" 
d="M971 131q145 0 264.5 65.5t196.5 180.5l131 -66q-96 -151 -250.5 -238t-341.5 -87q-248 0 -433.5 148t-248.5 382h-207l82 148h100q0 8 -1 25.5t-1 25.5q0 9 1 26t1 25h-182l82 149h125q63 233 249 382t433 149q186 0 341 -88.5t251 -239.5l-131 -63q-77 113 -197 179
t-264 66q-186 0 -327 -106.5t-198 -278.5h807l-82 -149h-755q0 -8 -1 -25t-1 -26q0 -8 1 -25.5t1 -25.5h698l-82 -148h-586q57 -173 197.5 -279t327.5 -106z" />
    <glyph glyph-name="ruble" unicode="&#x20bd;" horiz-adv-x="1310" 
d="M778 545h-389v-129h496v-150h-496v-266h-149v266h-179v150h179v129h-179v147h179v742h538q197 0 324 -130t127 -315q0 -120 -58 -221.5t-162 -162t-231 -60.5zM389 1284v-592h389q131 0 213 86.5t82 210.5t-81 209.5t-214 85.5h-389z" />
    <glyph glyph-name="uni2116" unicode="&#x2116;" horiz-adv-x="2101" 
d="M1423 561v148h580v-148h-580zM1075 272v1162h148v-1434h-136l-806 1165v-1165h-148v1434h135zM1710 825q-130 0 -220.5 89.5t-90.5 220.5q0 132 90.5 221.5t220.5 89.5q129 0 219 -89.5t90 -221.5q0 -131 -90.5 -220.5t-218.5 -89.5zM1710 1309q-73 0 -123.5 -49.5
t-50.5 -124.5t50.5 -124.5t123.5 -49.5q72 0 122 49.5t50 124.5t-50 124.5t-122 49.5z" />
    <glyph glyph-name="minus" unicode="&#x2212;" horiz-adv-x="1081" 
d="M143 700h795v-147h-795v147z" />
    <glyph glyph-name="approxequal" unicode="&#x2248;" horiz-adv-x="1218" 
d="M934 547l141 -45q-36 -77 -104 -128t-168 -48q-44 3 -107 23t-112 46q-3 2 -17 9t-18.5 9t-17 8.5t-18 8.5t-16.5 6.5t-17.5 6t-16 4t-17.5 3.5t-16 1q-83 -3 -139 -89l-146 48q21 38 42 66t54.5 56.5t80 44t104.5 15.5q103 0 225 -66q87 -46 152 -51q87 -8 131 72z
M428 780q-83 -3 -139 -86l-146 45q21 38 42 66t54.5 57t80 44.5t104.5 15.5q103 0 225 -66q86 -46 152 -51q50 -4 79.5 14t51.5 58l141 -46q-36 -76 -104.5 -127t-167.5 -47q-44 1 -106.5 21.5t-112.5 46.5q-3 1 -17.5 8.5t-18 9.5t-16.5 8t-18 8t-16 6.5t-17.5 6.5t-16 4
t-18 3t-16.5 1z" />
    <glyph glyph-name="notequal" unicode="&#x2260;" horiz-adv-x="1081" 
d="M938 711h-262l-103 -187h365v-147h-446l-121 -221h-168l121 221h-181v147h263l100 187h-363v149h445l123 223l168 -2l-121 -221h180v-149z" />
    <glyph glyph-name="lessequal" unicode="&#x2264;" horiz-adv-x="987" 
d="M844 1128v-165l-533 -258l533 -259v-165l-701 342v165zM143 39v147l701 2v-147z" />
    <glyph glyph-name="greaterequal" unicode="&#x2265;" horiz-adv-x="989" 
d="M143 39v147l703 2v-147zM143 1128l703 -340v-165l-703 -342v165l535 259l-535 258v165z" />
    <glyph glyph-name="commaaccent" unicode="&#xf6c3;" horiz-adv-x="419" 
d="M168 -104h149l-112 -271h-103z" />
    </font>
</defs>
</svg>
