<?xml version="1.0" standalone="no"?>
<!DOCTYPE svg PUBLIC "-//W3C//DTD SVG 1.1//EN" "http://www.w3.org/Graphics/SVG/1.1/DTD/svg11.dtd" >
<svg xmlns="http://www.w3.org/2000/svg" xmlns:xlink="http://www.w3.org/1999/xlink" version="1.1">
<metadata>
Created by FontForge 20170731 at Thu Jan 12 21:08:46 2023
 By Aleksey,,,
Copyright (c) 2018 by MadeType. All rights reserved.
</metadata>
<defs>
<font id="MADEEvolveSans-Thin" horiz-adv-x="1116" >
  <font-face 
    font-family="MADE Evolve Sans"
    font-weight="250"
    font-stretch="normal"
    units-per-em="2048"
    panose-1="2 0 5 3 0 0 0 2 0 4"
    ascent="1638"
    descent="-410"
    x-height="987"
    cap-height="1434"
    bbox="-113 -461 2191 1946"
    underline-thickness="102"
    underline-position="-307"
    unicode-range="U+0020-F6C3"
  />
<missing-glyph horiz-adv-x="573" 
 />
    <glyph glyph-name=".notdef" horiz-adv-x="573" 
 />
    <glyph glyph-name=".null" horiz-adv-x="0" 
 />
    <glyph glyph-name="nonmarkingreturn" horiz-adv-x="682" 
 />
    <glyph glyph-name="space" unicode=" " horiz-adv-x="573" 
 />
    <glyph glyph-name="exclam" unicode="!" horiz-adv-x="524" 
d="M262 115q23 0 40 -17.5t17 -40.5t-17 -40t-40 -17t-40 17t-17 40t17 40.5t40 17.5zM291 356h-60l-4 1078h70z" />
    <glyph glyph-name="quotedbl" unicode="&#x22;" horiz-adv-x="512" 
d="M125 1102l-23 344h88l-24 -344h-41zM322 1446h88l-25 -344h-41z" />
    <glyph glyph-name="numbersign" unicode="#" horiz-adv-x="1603" 
d="M1485 913h-305l-88 -417h305l-15 -70h-305l-90 -426h-72l89 426h-508l-90 -426h-72l88 426h-320l15 70h321l86 417h-319l16 70h320l94 451h72l-95 -451h510l95 451h71l-94 -451h307zM1018 496l88 417h-508l-88 -417h508z" />
    <glyph glyph-name="dollar" unicode="$" horiz-adv-x="1282" 
d="M645 754q119 -28 206 -60t142 -66t88 -75.5t45.5 -83t12.5 -92.5q0 -49 -13.5 -99t-49.5 -103t-89.5 -93.5t-142 -67.5t-199.5 -28v-193h-72v195q-192 13 -321 102t-170 221l65 23q34 -112 145.5 -187.5t280.5 -87.5v637q-234 56 -346 140t-112 219q0 171 129.5 279
t328.5 110v196h72v-198q163 -13 284 -95t152 -219l-69 -22q-22 111 -119 181.5t-248 82.5v-616zM186 1055q0 -51 21.5 -92t54.5 -69t86.5 -52.5t103.5 -39.5t121 -32v604q-171 -3 -279 -91t-108 -228zM645 57q83 1 157 20.5t134 57t95.5 100t35.5 142.5q0 55 -23.5 99.5
t-60 75t-94.5 56t-113.5 41.5t-130.5 33v-625z" />
    <glyph glyph-name="percent" unicode="%" horiz-adv-x="1499" 
d="M627 1153q0 -125 -84.5 -209t-208.5 -84t-208.5 84t-84.5 209t84.5 209t208.5 84t208.5 -84t84.5 -209zM106 1153q0 -97 65.5 -162t162.5 -65t163 65t66 162t-66 162t-163 65t-162.5 -65t-65.5 -162zM1081 571q125 0 210 -84t85 -208t-85 -208.5t-210 -84.5
q-123 0 -208 84.5t-85 208.5t85 208t208 84zM1081 51q98 0 164 65.5t66 162.5t-66 163t-164 66q-97 0 -162 -66t-65 -163t65 -162.5t162 -65.5zM1116 1434h84l-895 -1434h-84z" />
    <glyph glyph-name="ampersand" unicode="&#x26;" horiz-adv-x="1390" 
d="M188 115q-58 78 -64 183.5t38 203.5q43 97 117 171.5t184 155.5q-93 120 -135 220q-23 55 -25 112.5t17 107.5t53 90.5t85 63.5t111 23q133 0 207 -101.5t37 -232.5q-23 -85 -83 -150.5t-167 -144.5q157 -197 410 -465q40 58 137 223h84q-126 -210 -172 -274l287 -301
h-101q-92 99 -229 242q-89 -110 -197 -182t-221 -80q-264 -20 -373 135zM506 774q-105 -78 -173.5 -146.5t-105.5 -154.5q-35 -82 -28.5 -164.5t53.5 -146.5q46 -66 124.5 -97.5t172.5 -21.5q204 24 381 252q-248 258 -424 479zM563 1372q-62 0 -112 -43.5t-66.5 -109.5
t10.5 -146q25 -70 123 -201q51 38 80.5 62t64 57.5t54.5 66.5t28 70q25 116 -28.5 180t-153.5 64z" />
    <glyph glyph-name="quotesingle" unicode="'" horiz-adv-x="251" 
d="M61 1446h89l-25 -344h-41z" />
    <glyph glyph-name="parenleft" unicode="(" horiz-adv-x="626" 
d="M545 1495q-145 -174 -224.5 -414.5t-85 -484.5t63.5 -483t207 -410l-55 -45q-147 183 -220.5 429.5t-64.5 526.5q9 267 93.5 510t229.5 416z" />
    <glyph glyph-name="parenright" unicode=")" horiz-adv-x="626" 
d="M174 1540q149 -182 222.5 -428.5t64.5 -527.5q-9 -267 -94.5 -510t-231.5 -416l-53 45q145 174 224.5 414.5t84.5 484.5t-64.5 483t-207.5 410z" />
    <glyph glyph-name="asterisk" unicode="*" horiz-adv-x="706" 
d="M625 1251l-242 -123l242 -120l-35 -64l-228 150l17 -271h-72l17 271l-228 -150l-35 64l242 120l-242 123l35 62l228 -150l-17 271h72l-17 -271l228 150z" />
    <glyph glyph-name="plus" unicode="+" horiz-adv-x="1040" 
d="M918 664v-72h-363v-361h-70v361h-362v72h362v362h70v-362h363z" />
    <glyph glyph-name="comma" unicode="," horiz-adv-x="348" 
d="M156 106h90l-144 -344h-41z" />
    <glyph glyph-name="hyphen" unicode="-" horiz-adv-x="921" 
d="M123 664h676v-72h-676v72z" />
    <glyph glyph-name="period" unicode="." horiz-adv-x="358" 
d="M178 115q24 0 41 -17t17 -41q0 -23 -17 -40t-41 -17q-23 0 -39 17t-16 40q0 24 16 41t39 17z" />
    <glyph glyph-name="slash" unicode="/" horiz-adv-x="894" 
d="M717 1538h76l-615 -1853h-76z" />
    <glyph glyph-name="zero" unicode="0" horiz-adv-x="1155" 
d="M578 1446q196 0 315 -196.5t119 -532.5q0 -338 -117 -534.5t-317 -196.5q-201 0 -318 196.5t-117 534.5q0 337 119 533t316 196zM578 57q77 0 139 38.5t101.5 101.5t66.5 150t38 178.5t11 191.5q0 135 -20.5 250.5t-62 208.5t-111.5 146.5t-162 53.5t-162.5 -53.5
t-112.5 -146.5t-63 -208.5t-21 -250.5q0 -100 11.5 -191.5t38.5 -178t67.5 -150t102.5 -102t139 -38.5z" />
    <glyph glyph-name="one" unicode="1" horiz-adv-x="616" 
d="M340 1434h72v-1434h-72v1192q-46 -71 -120.5 -131t-158.5 -82v61q116 59 186.5 161t92.5 233z" />
    <glyph glyph-name="two" unicode="2" horiz-adv-x="1054" 
d="M201 72h700v-72h-778q0 77 27 151.5t81 146.5t105.5 127t130.5 128q299 277 311 506q8 148 -61 230.5t-209 82.5q-68 0 -124 -27t-90.5 -72t-56 -89.5t-32.5 -93.5l-72 16q9 38 24 77.5t46 88t70.5 85.5t101 62t133.5 25q96 0 167 -31t111 -85.5t57 -122t13 -148.5
q-4 -77 -32.5 -153t-79 -147t-103.5 -130t-125 -127q-89 -82 -144 -140.5t-105 -136.5t-66 -151z" />
    <glyph glyph-name="three" unicode="3" horiz-adv-x="1105" 
d="M655 776q146 -43 221.5 -150t75.5 -225q0 -179 -118 -297t-326 -118q-125 0 -245 67t-161 160l74 35q38 -84 133.5 -138.5t198.5 -54.5q168 0 270.5 96.5t102.5 249.5q0 150 -107 244t-278 94h-111v72h104q157 0 240.5 83t83.5 202q0 127 -84 201.5t-205 74.5
q-124 0 -208 -64t-113 -186l-70 13q10 57 40 110.5t78 98.5t119.5 72.5t153.5 27.5q92 0 163 -30t113 -80t63.5 -110.5t21.5 -127.5q0 -103 -63.5 -191t-166.5 -129z" />
    <glyph glyph-name="four" unicode="4" horiz-adv-x="1183" 
d="M1061 430v-70h-191v-360h-71v360h-676v70l676 1004h71v-1004h191zM209 430h590v879z" />
    <glyph glyph-name="five" unicode="5" horiz-adv-x="1126" 
d="M555 936q133 0 226.5 -63t137.5 -167t44 -239q0 -59 -15 -122.5t-49 -128t-82.5 -115.5t-122.5 -83t-162 -32q-74 0 -139.5 19t-108 44.5t-79 60t-53 57t-29.5 44.5l61 37q115 -191 348 -191q153 0 257 118t104 292q0 193 -91 296t-253 103q-58 0 -111 -18.5t-86 -42.5
t-61.5 -55.5t-38.5 -47.5t-18 -30l-1 -2l-69 10l119 754h639v-70h-578l-92 -573q126 145 303 145z" />
    <glyph glyph-name="six" unicode="6" horiz-adv-x="1179" 
d="M592 -14q-75 1 -144 28.5t-131 89t-104 150.5t-59.5 224t-1.5 300q14 144 49.5 259.5t83.5 191.5t109 126t124 71t131 20q54 -1 105.5 -16.5t82 -31.5t64.5 -45t42 -37.5t26 -29.5l-51 -49q-44 55 -114.5 98t-162.5 43q-120 1 -217 -92.5t-153.5 -269.5t-55.5 -402
q57 109 153.5 181t202.5 86q69 10 135.5 -0.5t126 -43t105 -84t72 -129.5t26.5 -173q0 -201 -128 -334.5t-316 -130.5zM223 494q21 -186 110 -301.5t238 -133.5q98 -12 186.5 33.5t144.5 141t56 219.5q0 172 -96.5 272.5t-265.5 85.5q-128 -10 -230.5 -104t-142.5 -213z" />
    <glyph glyph-name="seven" unicode="7" horiz-adv-x="1052" 
d="M102 1434h828v-70l-623 -1364h-80l625 1364h-750v70z" />
    <glyph glyph-name="eight" unicode="8" horiz-adv-x="1179" 
d="M743 780q98 -28 166.5 -92t97.5 -136.5t29 -148.5q0 -178 -123 -296.5t-333 -118.5t-333.5 118.5t-123.5 296.5q0 56 17 111.5t50.5 108t92 94.5t133.5 63q-100 41 -160.5 126t-60.5 186q0 66 25 128t71 113t121.5 82t167.5 31t167 -31t121 -82t70.5 -113t24.5 -128
q0 -101 -60 -186t-160 -126zM266 1092q0 -116 84 -197.5t230 -81.5q144 0 227.5 81.5t83.5 197.5q0 124 -84 204t-227 80t-228.5 -80t-85.5 -204zM580 59q170 0 277.5 96t107.5 248q0 150 -107.5 245t-277.5 95q-171 0 -278 -95t-107 -245q0 -152 107.5 -248t277.5 -96z" />
    <glyph glyph-name="nine" unicode="9" horiz-adv-x="1181" 
d="M588 1446q75 -1 144 -28t131.5 -88.5t105 -151t60 -225t1.5 -300.5q-15 -144 -50.5 -259.5t-83.5 -191t-109 -125.5t-124.5 -71t-132.5 -20q-179 4 -313 153l-6 6l51 50q44 -55 115.5 -98.5t161.5 -43.5q183 0 305.5 212t122.5 552q-56 -108 -154 -179.5t-205 -86.5
q-68 -9 -134.5 1.5t-126.5 43t-105.5 84t-72 129t-26.5 172.5q0 200 129 334t316 131zM956 940q-19 184 -108.5 299t-239.5 133q-72 9 -142 -15.5t-124 -75t-87.5 -129.5t-33.5 -173q0 -172 97 -272.5t266 -85.5q129 10 230.5 104t141.5 215z" />
    <glyph glyph-name="colon" unicode=":" horiz-adv-x="401" 
d="M160 115q23 0 40 -17.5t17 -40.5t-17 -40t-40 -17t-40.5 17t-17.5 40t17.5 40.5t40.5 17.5zM160 866q-23 0 -40.5 16.5t-17.5 39.5q0 24 17 40.5t41 16.5t40.5 -16.5t16.5 -40.5q0 -23 -17 -39.5t-40 -16.5z" />
    <glyph glyph-name="semicolon" unicode=";" horiz-adv-x="401" 
d="M160 866q-23 0 -39.5 16.5t-16.5 39.5q0 24 16 40.5t40 16.5q25 0 41 -16t16 -41q0 -24 -16.5 -40t-40.5 -16zM35 -238l94 344h88l-141 -344h-41z" />
    <glyph glyph-name="less" unicode="&#x3c;" horiz-adv-x="987" 
d="M844 997v-79l-621 -302l621 -301v-79l-701 339v82z" />
    <glyph glyph-name="equal" unicode="=" horiz-adv-x="1101" 
d="M143 821h795v-71h-795v71zM143 416v71h795v-71h-795z" />
    <glyph glyph-name="greater" unicode="&#x3e;" horiz-adv-x="989" 
d="M143 997l703 -340v-82l-703 -339v79l621 301l-621 302v79z" />
    <glyph glyph-name="question" unicode="?" horiz-adv-x="962" 
d="M418 115q24 0 40.5 -17t16.5 -41t-16.5 -40.5t-40.5 -16.5q-23 0 -39.5 17t-16.5 40t16.5 40.5t39.5 17.5zM457 1446q184 0 281.5 -114t76.5 -283q-7 -60 -26.5 -115t-53.5 -108t-57.5 -84.5t-67.5 -84.5q-40 -48 -61 -75t-47 -67.5t-37 -79t-12 -79.5h-72q1 50 14.5 96
t42 92t52 77.5t65.5 80.5q54 66 84.5 108t63.5 110.5t42 136.5q18 144 -67.5 230.5t-220.5 86.5q-117 0 -198.5 -76t-104.5 -219l-72 17q14 89 52 158t90 110t111 61.5t122 20.5z" />
    <glyph glyph-name="at" unicode="@" horiz-adv-x="1916" 
d="M1790 530q5 -77 -0.5 -154t-24.5 -152.5t-50 -133.5t-82 -93.5t-115 -35.5q-187 0 -222 268q-53 -103 -147 -163t-217 -60q-188 0 -307 133.5t-119 329.5q0 194 119 326.5t307 132.5q117 0 209 -54.5t147 -150.5v164h64v-420q0 -98 5.5 -167t22 -136t51 -102t87.5 -35
q71 0 122.5 69t72.5 182t11 246q-11 142 -60 260t-122 199t-167 137.5t-195.5 82.5t-208.5 26q-316 0 -523.5 -173.5t-248.5 -473.5q-29 -215 37.5 -400t218.5 -301q168 -129 393 -150t450 72l25 -61q-131 -58 -288.5 -73.5t-326 24.5t-294.5 137q-165 127 -238.5 327
t-42.5 433q46 328 271 516t567 188q159 0 293 -45.5t226 -120.5t158.5 -175.5t100 -206.5t41.5 -216zM932 72q160 0 255 113t95 284q0 169 -95 282t-255 113q-161 0 -259 -113.5t-98 -281.5q0 -170 98 -283.5t259 -113.5z" />
    <glyph glyph-name="A" unicode="A" horiz-adv-x="1335" 
d="M1178 0l-177 455h-667l-176 -455h-76l553 1434h65l553 -1434h-75zM360 524h615l-307 795z" />
    <glyph glyph-name="B" unicode="B" horiz-adv-x="1337" 
d="M893 770q133 -32 212 -127t79 -248q0 -97 -34.5 -173.5t-94.5 -124t-137 -72.5t-166 -25h-547v1434h512q172 0 279.5 -97.5t107.5 -257.5q0 -111 -56.5 -191t-154.5 -118zM717 1362h-441v-563h441q138 0 224.5 73t86.5 207q0 137 -84 210t-227 73zM752 72q72 0 135 19.5
t112.5 57.5t78 101t28.5 145q0 162 -100 247t-254 85h-476v-655h476z" />
    <glyph glyph-name="C" unicode="C" horiz-adv-x="1550" 
d="M827 59q168 0 306 79.5t219 215.5l65 -30q-93 -156 -247.5 -246t-342.5 -90q-196 0 -356 98.5t-249 265t-89 365.5t89 365.5t249 265t356 98.5q188 0 342.5 -90t247.5 -246l-65 -31q-81 136 -219 215.5t-306 79.5q-176 0 -318 -88.5t-220.5 -238.5t-79.5 -330
q1 -180 79.5 -330t220.5 -239t318 -89z" />
    <glyph glyph-name="D" unicode="D" horiz-adv-x="1511" 
d="M606 1434q216 0 384.5 -81.5t268 -245.5t99.5 -390t-99 -390t-267.5 -245.5t-385.5 -81.5h-401v1434h401zM606 72q141 0 262 43t211.5 123t142.5 203.5t52 275.5q0 203 -88 350.5t-237.5 221t-342.5 73.5h-330v-1290h330z" />
    <glyph glyph-name="E" unicode="E" horiz-adv-x="1308" 
d="M274 72h883v-72h-952v1434h940v-72h-871v-610h807v-70h-807v-610z" />
    <glyph glyph-name="F" unicode="F" horiz-adv-x="1257" 
d="M1145 1362h-869v-610h732v-70h-732v-682h-71v1434h940v-72z" />
    <glyph glyph-name="G" unicode="G" horiz-adv-x="1611" 
d="M856 717h582v-393q-93 -156 -246.5 -246t-341.5 -90q-196 0 -356.5 98.5t-250 265t-89.5 365.5t89.5 365.5t250 265t356.5 98.5q188 0 341.5 -90t246.5 -246l-64 -31q-84 137 -220.5 216t-303.5 79q-177 0 -319.5 -88.5t-221 -238.5t-78.5 -330t78.5 -330t221 -239
t319.5 -89q161 0 296 74t220 201v311h-510v72z" />
    <glyph glyph-name="H" unicode="H" horiz-adv-x="1497" 
d="M1221 1434h71v-1434h-71v680h-945v-680h-71v1434h71v-682h945v682z" />
    <glyph glyph-name="I" unicode="I" horiz-adv-x="479" 
d="M205 1434h69v-1434h-69v1434z" />
    <glyph glyph-name="J" unicode="J" horiz-adv-x="909" 
d="M653 1434h72v-1053q0 -183 -87 -289t-251 -106q-115 0 -202.5 42.5t-133.5 108.5l64 41q34 -49 106 -86t158 -37q134 0 204 89t70 239v1051z" />
    <glyph glyph-name="K" unicode="K" horiz-adv-x="1314" 
d="M1135 0l-557 784l-302 -333v-451h-71v1434h71v-877l793 877h96l-538 -596l596 -838h-88z" />
    <glyph glyph-name="L" unicode="L" horiz-adv-x="1146" 
d="M276 72h789v-72h-860v1434h71v-1362z" />
    <glyph glyph-name="M" unicode="M" horiz-adv-x="1814" 
d="M1544 1434h66v-1434h-72v1298l-606 -921h-47l-609 921v-1298h-71v1434h65l637 -969z" />
    <glyph glyph-name="N" unicode="N" horiz-adv-x="1501" 
d="M1225 1434h71v-1434h-65l-955 1307v-1307h-71v1434h65l955 -1311v1311z" />
    <glyph glyph-name="O" unicode="O" horiz-adv-x="1615" 
d="M807 1446q196 0 356.5 -98.5t250 -265.5t89.5 -367q0 -199 -89.5 -365.5t-250 -265t-356.5 -98.5q-195 0 -355 98.5t-249.5 265t-89.5 365.5q0 200 89.5 367t249.5 265.5t355 98.5zM807 55q177 0 319.5 89.5t220.5 240t78 330.5q0 181 -78 331.5t-220.5 239t-319.5 88.5
q-176 0 -318 -88.5t-220.5 -239t-78.5 -331.5q0 -134 46.5 -255.5t127 -210.5t196 -141.5t247.5 -52.5z" />
    <glyph glyph-name="P" unicode="P" horiz-adv-x="1267" 
d="M719 1434q200 0 333.5 -122t133.5 -317t-132 -316.5t-335 -121.5h-445v-557h-69v1434h514zM719 629q168 0 279.5 99.5t111.5 266.5q0 168 -110 267.5t-281 99.5h-445v-733h445z" />
    <glyph glyph-name="Q" unicode="Q" horiz-adv-x="1656" 
d="M1524 717q0 -146 -49 -276t-138 -230l174 -178l-49 -51l-176 178q-91 -83 -208 -128.5t-249 -45.5q-196 0 -356.5 98.5t-250 265.5t-89.5 367q0 199 89.5 365.5t250 265t356.5 98.5t356.5 -98.5t249.5 -265t89 -365.5zM829 57q236 0 406 154l-156 160l49 49l156 -158
q78 91 121 208t43 247q0 180 -79 330.5t-221.5 239.5t-318.5 89q-133 0 -249 -52.5t-196.5 -141.5t-126.5 -210t-46 -255q0 -136 46 -257t126.5 -210t196.5 -141t249 -52z" />
    <glyph glyph-name="R" unicode="R" horiz-adv-x="1347" 
d="M1214 0h-81l-320 565q-41 -8 -94 -8h-445v-557h-69v1434h514q200 0 333.5 -122t133.5 -317q0 -151 -81.5 -260t-219.5 -153zM719 629q168 0 279.5 99.5t111.5 266.5q0 168 -110 267.5t-281 99.5h-445v-733h445z" />
    <glyph glyph-name="S" unicode="S" horiz-adv-x="1282" 
d="M604 1448q117 0 220 -35t179 -109t99 -176l-68 -22q-25 123 -140 196.5t-290 73.5t-286 -89.5t-111 -231.5q0 -40 13.5 -74t34 -59t56.5 -47.5t69.5 -37.5t85 -31t90 -25.5t97.5 -22.5q122 -28 211.5 -60t145.5 -66.5t90 -76t46.5 -83.5t12.5 -95q0 -49 -14 -99.5
t-50.5 -104.5t-91 -95t-145 -67.5t-203.5 -26.5q-216 0 -362 92t-191 235l68 23q36 -122 163.5 -200.5t321.5 -78.5q85 0 160.5 19t137 57t98 101.5t36.5 144.5q0 57 -25.5 103.5t-64.5 77t-102.5 56.5t-120 41.5t-137.5 32.5q-256 56 -378 142t-122 225q0 175 132 284
t335 109z" />
    <glyph glyph-name="T" unicode="T" horiz-adv-x="1097" 
d="M1077 1434v-72h-483v-1362h-70v1362h-483v72h1036z" />
    <glyph glyph-name="U" unicode="U" horiz-adv-x="1464" 
d="M1188 1434h72v-856q0 -273 -140 -432.5t-389 -159.5t-387.5 157.5t-138.5 434.5v856h71v-856q0 -246 120.5 -384.5t334.5 -138.5t335.5 138.5t121.5 384.5v856z" />
    <glyph glyph-name="V" unicode="V" horiz-adv-x="1282" 
d="M1145 1434h76l-547 -1434h-66l-547 1434h76l504 -1319z" />
    <glyph glyph-name="W" unicode="W" horiz-adv-x="2111" 
d="M1944 1434h75l-467 -1434h-73l-424 1319l-426 -1319h-72l-465 1434h76l428 -1317l424 1317h72l424 -1317z" />
    <glyph glyph-name="X" unicode="X" horiz-adv-x="1230" 
d="M1190 0h-88l-475 674l-477 -674h-89l521 737l-494 697h88l451 -635l448 635h88l-493 -697z" />
    <glyph glyph-name="Y" unicode="Y" horiz-adv-x="1226" 
d="M1186 1434l-537 -957v-477h-69v475l-539 959h82l491 -875l490 875h82z" />
    <glyph glyph-name="Z" unicode="Z" horiz-adv-x="1378" 
d="M233 72h1002v-72h-1092v72l985 1290h-923v72h1014v-72z" />
    <glyph glyph-name="bracketleft" unicode="[" horiz-adv-x="643" 
d="M561 1466h-325v-1710h325v-71h-397v1853h397v-72z" />
    <glyph glyph-name="backslash" unicode="\" horiz-adv-x="894" 
d="M178 1538l615 -1853h-74l-617 1853h76z" />
    <glyph glyph-name="bracketright" unicode="]" horiz-adv-x="643" 
d="M410 1466h-328v72h397v-1853h-397v71h328v1710z" />
    <glyph glyph-name="asciicircum" unicode="^" horiz-adv-x="897" 
d="M774 864h-80l-266 496l-264 -496h-82l307 570h80z" />
    <glyph glyph-name="underscore" unicode="_" horiz-adv-x="1091" 
d="M20 -113l1051 2v-71h-1051v69z" />
    <glyph glyph-name="grave" unicode="`" horiz-adv-x="327" 
d="M106 1434l160 -279h-43l-203 279h86z" />
    <glyph glyph-name="a" unicode="a" horiz-adv-x="1024" 
d="M516 1001q47 0 92 -9.5t91.5 -34t81.5 -61.5t57 -99t22 -140v-657h-69v203q-25 -38 -57.5 -72t-81 -69t-117.5 -55.5t-148 -20.5q-55 0 -105.5 12t-97 38.5t-74.5 76t-28 116.5q0 56 20 102t52 77t81.5 56.5t98 41.5t112.5 31q26 6 70 15t70.5 14.5t62 14.5t57 18.5
t42.5 22t30.5 28.5t9.5 36q0 108 -67 177t-205 69q-131 0 -209.5 -61.5t-103.5 -163.5l-70 16q10 40 26 75.5t47 74t71 66t102 45t137 17.5zM791 412v131q-35 -7 -143.5 -34t-184.5 -42q-168 -35 -236.5 -89.5t-68.5 -148.5q0 -85 67.5 -129.5t171.5 -44.5q166 0 280 105
t114 252z" />
    <glyph glyph-name="b" unicode="b" horiz-adv-x="1200" 
d="M627 1001q137 0 243 -68.5t161.5 -183t55.5 -255.5t-55.5 -256t-161.5 -183.5t-243 -68.5q-134 0 -234.5 64.5t-156.5 176.5v-227h-72v1434h72v-674q56 112 156.5 176.5t234.5 64.5zM627 55q176 0 280.5 125.5t104.5 313.5t-104.5 313t-280.5 125t-280.5 -125
t-104.5 -313t104.5 -313.5t280.5 -125.5z" />
    <glyph glyph-name="c" unicode="c" horiz-adv-x="1091" 
d="M575 55q111 0 197 52.5t139 144.5l68 -33q-63 -108 -168 -170.5t-236 -62.5q-207 0 -340 147t-133 361t133 360.5t340 146.5q131 0 236 -62.5t168 -170.5l-68 -31q-53 91 -139 143t-197 52q-118 0 -209.5 -59t-139.5 -158.5t-48 -220.5t48 -220.5t139.5 -159t209.5 -59.5
z" />
    <glyph glyph-name="d" unicode="d" horiz-adv-x="1191" 
d="M956 1434h72v-1434h-72v227q-56 -112 -157 -176.5t-234 -64.5q-137 0 -243.5 68.5t-163 183.5t-56.5 256t56.5 256t163 183t243.5 68q133 0 234 -64.5t157 -176.5v674zM565 55q176 0 280.5 125.5t104.5 313.5t-104.5 313t-280.5 125t-280.5 -125t-104.5 -313
t104.5 -313.5t280.5 -125.5z" />
    <glyph glyph-name="e" unicode="e" 
d="M993 494q0 -36 -2 -54h-829q18 -167 125 -276t270 -109q111 0 197 52.5t139 144.5l65 -33q-61 -108 -165.5 -170.5t-235.5 -62.5q-137 0 -246.5 68.5t-169 184t-59.5 255.5t59.5 255.5t169 183.5t246.5 68q136 0 236.5 -68.5t150 -182.5t49.5 -256zM557 932
q-173 0 -282 -120.5t-115 -299.5h755q-5 185 -97 302.5t-261 117.5z" />
    <glyph glyph-name="f" unicode="f" horiz-adv-x="641" 
d="M457 1374q-146 0 -146 -200v-187h240v-72h-240v-915h-71v915h-148v72h148v174q0 138 50.5 211.5t166.5 73.5q90 0 184 -66l-39 -59q-69 53 -145 53z" />
    <glyph glyph-name="g" unicode="g" horiz-adv-x="1189" 
d="M954 987h72v-969q0 -219 -116.5 -349t-331.5 -130q-137 0 -247 65t-161 158l61 41q50 -78 142 -135t205 -57q187 0 281.5 113.5t94.5 306.5v196q-56 -112 -156.5 -176.5t-234.5 -64.5q-137 0 -243 68.5t-162 183.5t-56 256t56 255.5t162 183t243 68.5q134 0 234.5 -64.5
t156.5 -176.5v227zM563 55q176 0 280.5 125.5t104.5 313.5t-104.5 313t-280.5 125t-280.5 -125t-104.5 -313t104.5 -313.5t280.5 -125.5z" />
    <glyph glyph-name="h" unicode="h" horiz-adv-x="1107" 
d="M559 1001q182 0 283.5 -118.5t101.5 -321.5v-561h-72v561q0 166 -82.5 268.5t-230.5 102.5q-140 0 -231.5 -109.5t-91.5 -285.5v-537h-72v1434h72v-648q46 98 129 156.5t194 58.5z" />
    <glyph glyph-name="i" unicode="i" horiz-adv-x="450" 
d="M184 0v987h72v-987h-72zM219 1290q24 0 40.5 -16.5t16.5 -40.5t-16.5 -40.5t-40.5 -16.5q-23 0 -39 17t-16 40t16 40t39 17z" />
    <glyph glyph-name="j" unicode="j" horiz-adv-x="473" 
d="M252 1290q23 0 40 -17t17 -40t-17 -40t-40 -17t-40 17t-17 40t17 40t40 17zM215 -182v1169h70v-1169q0 -77 -22 -138t-74 -101t-128 -40q-101 0 -174 62l43 55q57 -45 131 -45t114 54.5t40 152.5z" />
    <glyph glyph-name="k" unicode="k" horiz-adv-x="1028" 
d="M879 0l-392 541l-251 -271v-270h-72v1434h72v-1059l569 612h96l-364 -393l430 -594h-88z" />
    <glyph glyph-name="l" unicode="l" horiz-adv-x="440" 
d="M164 1536h72v-1536h-72v1536z" />
    <glyph glyph-name="m" unicode="m" horiz-adv-x="1732" 
d="M1214 1001q178 0 266.5 -116t88.5 -324v-561h-72v561q0 168 -75 269.5t-220 101.5q-139 0 -220 -107.5t-81 -287.5v-537h-72v561q0 169 -73.5 270t-218.5 101q-139 0 -220 -107.5t-81 -287.5v-537h-72v987h72v-192q45 94 124 150t187 56q255 0 330 -241
q43 110 129.5 175.5t207.5 65.5z" />
    <glyph glyph-name="n" unicode="n" horiz-adv-x="1105" 
d="M559 1001q181 0 282 -118.5t101 -321.5v-561h-72v561q0 166 -82 268.5t-229 102.5q-141 0 -233.5 -109.5t-92.5 -285.5v-537h-69v987h69v-201q48 98 131.5 156.5t194.5 58.5z" />
    <glyph glyph-name="o" unicode="o" horiz-adv-x="1163" 
d="M578 1001q207 0 340 -146.5t133 -360.5t-133 -361t-340 -147q-137 0 -247 68.5t-169.5 184t-59.5 255.5t59.5 255.5t169.5 183.5t247 68zM578 55q177 0 286 126.5t109 312.5t-109 312t-286 126q-118 0 -209.5 -59t-140 -158.5t-48.5 -220.5t48.5 -220.5t140 -159
t209.5 -59.5z" />
    <glyph glyph-name="p" unicode="p" horiz-adv-x="1200" 
d="M627 1004q137 0 243 -69t161.5 -184.5t55.5 -256.5t-55.5 -256t-161.5 -183.5t-243 -68.5q-135 0 -235 64.5t-156 178.5v-675h-72v1433h72v-227q56 113 156.5 178.5t234.5 65.5zM627 57q118 0 206.5 59t133.5 157.5t45 220.5q0 188 -104.5 313t-280.5 125t-280.5 -125
t-104.5 -313q0 -122 45 -220.5t133.5 -157.5t206.5 -59z" />
    <glyph glyph-name="q" unicode="q" horiz-adv-x="1191" 
d="M956 987h72v-1433h-72v675q-55 -113 -156.5 -178t-234.5 -65q-137 0 -243.5 68.5t-163 183.5t-56.5 256t56.5 256.5t163 184.5t243.5 69q133 0 234 -66t157 -178v227zM565 57q118 0 206.5 59t133.5 157.5t45 220.5q0 188 -104.5 313t-280.5 125t-280.5 -125t-104.5 -313
q0 -122 45 -220.5t133.5 -157.5t206.5 -59z" />
    <glyph glyph-name="r" unicode="r" horiz-adv-x="665" 
d="M571 1004q7 0 21.5 -1.5t21.5 -1.5l-12 -71q-10 2 -31 2q-143 0 -239 -109.5t-96 -285.5v-537h-72v987h72v-207q48 101 135 162.5t200 61.5z" />
    <glyph glyph-name="s" unicode="s" horiz-adv-x="903" 
d="M457 530q43 -12 70.5 -19.5t68 -22t66 -28t54.5 -34.5t46 -44t28 -54.5t11 -67.5q0 -131 -96.5 -203.5t-235.5 -72.5q-147 0 -250 64t-137 163l68 31q26 -79 107.5 -134t211.5 -55q109 0 184.5 53t75.5 154q0 77 -70.5 120t-218.5 81q-55 14 -94.5 27t-83.5 34.5t-73 46
t-50 61t-26 81.5q-14 121 73 207t246 86q125 0 210.5 -61.5t119.5 -162.5l-66 -26q-30 83 -97.5 130.5t-166.5 47.5q-128 0 -193 -61.5t-55 -151.5q3 -30 19.5 -56t40.5 -45t60 -35.5t71.5 -28.5t81.5 -24z" />
    <glyph glyph-name="t" unicode="t" horiz-adv-x="630" 
d="M557 102l35 -61q-74 -55 -180 -55q-117 0 -168 72.5t-51 211.5v645h-152v72h152v268l71 21v-289h246v-72h-246v-657q0 -92 35.5 -146.5t112.5 -54.5q80 0 145 45z" />
    <glyph glyph-name="u" unicode="u" horiz-adv-x="1087" 
d="M852 987h72v-987h-72v186q-52 -92 -135 -146t-191 -54q-181 0 -282 119.5t-101 322.5v559h72v-559q0 -166 82 -268.5t229 -102.5q140 0 233 106t93 267v557z" />
    <glyph glyph-name="v" unicode="v" horiz-adv-x="931" 
d="M811 987h76l-373 -987h-76l-372 987h75l336 -887z" />
    <glyph glyph-name="w" unicode="w" horiz-adv-x="1454" 
d="M1337 987h76l-319 -987h-70l-287 872l-288 -872h-70l-318 987h74l283 -870l287 870h63l287 -870z" />
    <glyph glyph-name="x" unicode="x" horiz-adv-x="907" 
d="M846 0h-88l-316 446l-313 -446h-88l358 508l-338 479h89l292 -416l295 416h86l-336 -479z" />
    <glyph glyph-name="y" unicode="y" horiz-adv-x="911" 
d="M791 987h75l-372 -987q-49 -132 -80 -197t-74 -114q-23 -27 -46 -45.5t-49 -26.5t-44 -13t-47 -2.5t-40.5 4.5t-41.5 7l12 70q38 -8 67.5 -7.5t54.5 6.5t47.5 24.5t41.5 41.5t39.5 62.5t39.5 82.5t44 107l-373 987h76l336 -887z" />
    <glyph glyph-name="z" unicode="z" horiz-adv-x="966" 
d="M193 72h671v-72h-762v72l654 843h-627v72h717v-72z" />
    <glyph glyph-name="braceleft" unicode="{" horiz-adv-x="653" 
d="M297 1116q0 -243 -27 -356.5t-90 -147.5q64 -36 90.5 -149.5t26.5 -356.5q0 -107 14 -173.5t49 -104.5t83.5 -52t127.5 -14v-71q-73 0 -122 8t-94.5 33t-72 70t-42 120.5t-15.5 183.5q0 288 -25 381t-118 93v65q93 0 118 92.5t25 378.5q0 90 10 157.5t31.5 113t48.5 74.5
t68.5 44.5t84.5 21t103 5.5v-72q-79 0 -127.5 -14t-83.5 -52t-49 -104.5t-14 -173.5z" />
    <glyph glyph-name="bar" unicode="|" horiz-adv-x="479" 
d="M205 1538h69v-1853h-69v1853z" />
    <glyph glyph-name="braceright" unicode="}" horiz-adv-x="653" 
d="M428 1116q0 -286 25 -378.5t118 -92.5v-65q-93 0 -118 -93t-25 -381q0 -108 -15.5 -183.5t-42 -120.5t-72 -70t-94.5 -33t-122 -8v71q79 0 127.5 14t83.5 52t49 104.5t14 173.5q0 243 26.5 356.5t90.5 149.5q-63 34 -90 147.5t-27 356.5q0 107 -14 173.5t-49 104.5
t-83.5 52t-127.5 14v72q60 0 103 -5.5t84.5 -21t68.5 -44.5t48.5 -74.5t31.5 -113t10 -157.5z" />
    <glyph glyph-name="asciitilde" unicode="~" horiz-adv-x="1052" 
d="M883 702l67 -24q-76 -152 -237 -152q-35 0 -75.5 13t-63 24.5t-64.5 34.5q-101 59 -164 57q-68 -1 -106 -27t-68 -77l-70 24q41 70 94.5 109.5t147.5 42.5q37 1 76.5 -10t63 -23t63.5 -35q97 -59 160 -61q71 -3 110.5 25t65.5 79z" />
    <glyph glyph-name="exclamdown" unicode="&#xa1;" horiz-adv-x="483" 
d="M262 1004q23 0 40 -17.5t17 -40.5t-17 -40t-40 -17t-40 17t-17 40t17 40.5t40 17.5zM231 647h60l6 -1077h-70z" />
    <glyph glyph-name="cent" unicode="&#xa2;" horiz-adv-x="1091" 
d="M575 57q112 0 198.5 52t137.5 143l68 -33q-61 -108 -166.5 -170.5t-237.5 -62.5v-193h-69v197q-180 26 -292 168t-112 336t112 335.5t292 167.5v197h69v-190q131 0 236.5 -63t167.5 -171l-68 -33q-51 90 -138 142.5t-198 52.5v-875zM180 494q0 -166 89 -286.5t237 -144.5
v863q-149 -26 -237.5 -146.5t-88.5 -285.5z" />
    <glyph glyph-name="sterling" unicode="&#xa3;" horiz-adv-x="1218" 
d="M379 72h737v-72h-1014v72h205v522h-157v70h157v278q0 97 17 176t43 130t63 89.5t71.5 58.5t75 32t66 15t51.5 3q113 0 214.5 -68t160.5 -190l-63 -33q-52 104 -136.5 162.5t-175.5 58.5q-25 0 -48.5 -3t-56.5 -14t-60.5 -29t-56 -51t-48.5 -77t-32.5 -111t-12.5 -149
v-278h481v-70h-481v-522z" />
    <glyph glyph-name="currency" unicode="&#xa4;" horiz-adv-x="1357" 
d="M1118 731q0 -156 -102 -282l178 -177l-49 -51l-180 178q-118 -106 -287 -106q-165 0 -287 106l-178 -178l-49 51l178 177q-104 123 -104 282q0 163 104 283l-178 178l49 49l178 -176q122 106 287 106q169 0 287 -106l180 176l49 -49l-178 -178q102 -123 102 -283z
M678 367q152 0 256 106.5t104 257.5q0 153 -104 260t-256 107q-151 0 -256 -107.5t-105 -259.5q0 -151 105.5 -257.5t255.5 -106.5z" />
    <glyph glyph-name="yen" unicode="&#xa5;" horiz-adv-x="1349" 
d="M1247 1434l-497 -885h346v-72h-385v-125h385v-71h-385v-281h-72v281h-385v71h385v123v2h-385v72h344l-496 885h82l490 -875l491 875h82z" />
    <glyph glyph-name="brokenbar" unicode="&#xa6;" horiz-adv-x="481" 
d="M205 -315v706h71v-706h-71zM205 1538h71v-707h-71v707z" />
    <glyph glyph-name="section" unicode="&#xa7;" horiz-adv-x="1208" 
d="M829 219q124 -102 119 -258q-3 -83 -41.5 -155t-117 -120t-183.5 -48q-130 0 -229.5 79t-122.5 201l70 19q17 -90 92.5 -159t189.5 -69q123 0 195.5 76.5t75.5 179.5q2 38 -7.5 72t-24 59.5t-44 51t-52.5 42t-66 38t-69.5 33t-76.5 32.5l-73.5 31.5t-68.5 32.5t-67.5 38
t-56 41.5t-50 50.5t-33 58.5t-20.5 70.5q-15 115 41.5 220t169.5 159q-124 102 -119 256q5 130 96.5 227t247.5 97q128 0 227.5 -79t122.5 -200l-67 -20q-19 91 -94.5 159t-188.5 68q-124 0 -196.5 -76t-75.5 -178q-2 -44 9 -81.5t35 -67t52.5 -53.5t69.5 -46t78 -39t86 -38
q7 -3 10 -4q48 -20 73.5 -31.5t68.5 -32.5t67.5 -37.5t56 -42t49.5 -50.5t33 -58t20 -70q15 -115 -41.5 -220.5t-169.5 -158.5zM240 625q3 -25 11 -47.5t25 -43t31 -36t42.5 -33.5t45.5 -28.5t54.5 -28t54 -25t59.5 -25.5q139 -57 197 -92q42 14 80 40.5t71.5 65.5t50 96
t9.5 122q-4 33 -18 61.5t-40.5 53t-50.5 42.5t-67.5 39.5t-70.5 33.5t-79 34q-149 65 -196 94q-42 -15 -80 -41t-71.5 -65t-49.5 -95.5t-8 -121.5z" />
    <glyph glyph-name="dieresis" unicode="&#xa8;" horiz-adv-x="696" 
d="M485 1343q23 0 40.5 -17t17.5 -40t-17.5 -40t-40.5 -17t-40 17t-17 40t17 40t40 17zM211 1343q23 0 40 -17t17 -40t-17 -40t-40 -17t-40 17t-17 40t17 40t40 17z" />
    <glyph glyph-name="copyright" unicode="&#xa9;" horiz-adv-x="1687" 
d="M854 1065q-138 0 -223.5 -98.5t-85.5 -243.5q0 -146 85.5 -244t223.5 -98q87 0 155 40t109 111l51 -26q-49 -84 -130.5 -133t-184.5 -49q-162 0 -265.5 115t-103.5 284q0 167 103.5 282t265.5 115q103 0 184.5 -49t130.5 -133l-51 -27q-41 71 -109 112.5t-155 41.5z
M848 1446q197 0 364.5 -99t265 -268t97.5 -366t-98 -364.5t-266 -265t-365 -97.5t-366 97.5t-268 265t-99 364.5t99.5 366t269 268t366.5 99zM846 51q134 0 257 52.5t212 141t141.5 211.5t52.5 257q0 180 -88.5 333.5t-241 243.5t-331.5 90q-134 0 -258 -53t-214 -142.5
t-144 -213t-54 -258.5q0 -134 53.5 -257t143.5 -211.5t213 -141t258 -52.5z" />
    <glyph glyph-name="guillemotleft" unicode="&#xab;" horiz-adv-x="913" 
d="M459 870l-230 -321l230 -322h-88l-228 322l228 321h88zM770 870l-227 -321l227 -322h-86l-229 322l229 321h86z" />
    <glyph glyph-name="registered" unicode="&#xae;" horiz-adv-x="1687" 
d="M848 1446q197 0 364.5 -99t265 -268t97.5 -366t-98 -364.5t-266 -265t-365 -97.5t-366 97.5t-268 265t-99 364.5t99.5 366t269 268t366.5 99zM846 51q134 0 257 52.5t212 141t141.5 211.5t52.5 257q0 180 -88.5 333.5t-241 243.5t-331.5 90q-134 0 -258 -53t-214 -142.5
t-144 -213t-54 -258.5q0 -134 53.5 -257t143.5 -211.5t213 -141t258 -52.5zM1157 862q0 -82 -41.5 -140t-111.5 -85l163 -289h-63l-154 275q-35 -7 -63 -7h-242v-268h-55v762h297q114 0 192 -67t78 -181zM645 672h242q90 0 149.5 49t59.5 141t-60 142.5t-149 50.5h-242v-383
z" />
    <glyph glyph-name="macron" unicode="&#xaf;" horiz-adv-x="819" 
d="M154 1368h512v-70h-512v70z" />
    <glyph glyph-name="degree" unicode="&#xb0;" horiz-adv-x="833" 
d="M416 1446q125 0 210 -84.5t85 -208.5t-85 -208.5t-210 -84.5q-123 0 -208 84.5t-85 208.5t85 208.5t208 84.5zM416 926q98 0 163.5 65t65.5 162t-65.5 162t-163.5 65q-97 0 -162.5 -65t-65.5 -162t65.5 -162t162.5 -65z" />
    <glyph glyph-name="plusminus" unicode="&#xb1;" horiz-adv-x="1040" 
d="M123 115v71h795v-71h-795zM557 756h361v-72h-361v-360h-72v360h-362v72h362v362h72v-362z" />
    <glyph glyph-name="acute" unicode="&#xb4;" horiz-adv-x="552" 
d="M311 1434h88l-202 -279h-43z" />
    <glyph glyph-name="paragraph" unicode="&#xb6;" horiz-adv-x="1124" 
d="M1001 1434v-72h-147v-1677h-72v1677h-278v-1677h-70v1083q-77 0 -147 38.5t-117 116t-47 177.5q0 76 28.5 140.5t74 106t100 64.5t108.5 23h567z" />
    <glyph glyph-name="cedilla" unicode="&#xb8;" horiz-adv-x="651" 
d="M315 -113q89 10 136 -32.5t47 -108.5q0 -43 -21.5 -81t-58.5 -60q-57 -32 -126.5 -25.5t-137.5 49.5l26 45q65 -46 141.5 -43.5t110.5 56.5q31 47 12.5 96.5t-69.5 60.5q-17 6 -47 3t-49 -15l-33 25l69 143h58z" />
    <glyph glyph-name="guillemotright" unicode="&#xbb;" horiz-adv-x="915" 
d="M543 870l229 -321l-229 -322h-86l227 322l-227 321h86zM231 870l228 -321l-228 -322h-88l230 322l-230 321h88z" />
    <glyph glyph-name="questiondown" unicode="&#xbf;" horiz-adv-x="870" 
d="M514 889q-24 0 -40.5 16.5t-16.5 40.5t16.5 41t40.5 17q23 0 39 -17t16 -41q0 -23 -16 -40t-39 -17zM780 -76l70 -16q-14 -89 -52 -158t-90 -110t-111 -61.5t-122 -20.5q-184 0 -281.5 114t-76.5 283q7 60 26.5 114.5t53.5 108t57.5 84t67.5 84.5q40 48 61 75t47 67.5
t37 79t12 79.5h72q-1 -50 -14 -95.5t-42.5 -92.5t-51.5 -76t-66 -82q-43 -52 -64.5 -80.5t-53 -77t-48.5 -96.5t-23 -100q-10 -72 9 -132.5t59.5 -100.5t97 -62.5t121.5 -22.5q116 0 198.5 75.5t106.5 219.5z" />
    <glyph glyph-name="Agrave" unicode="&#xc0;" horiz-adv-x="1335" 
d="M1178 0l-177 455h-667l-176 -455h-76l553 1434h65l553 -1434h-75zM360 524h615l-307 795zM508 1843l160 -278h-43l-203 278h86z" />
    <glyph glyph-name="Aacute" unicode="&#xc1;" horiz-adv-x="1335" 
d="M1178 0l-177 455h-667l-176 -455h-76l553 1434h65l553 -1434h-75zM360 524h615l-307 795zM827 1843h88l-202 -278h-43z" />
    <glyph glyph-name="Acircumflex" unicode="&#xc2;" horiz-adv-x="1335" 
d="M1178 0l-177 455h-667l-176 -455h-76l553 1434h65l553 -1434h-75zM360 524h615l-307 795zM928 1565h-92l-168 223l-166 -223h-92l217 278h84z" />
    <glyph glyph-name="Atilde" unicode="&#xc3;" horiz-adv-x="1335" 
d="M1178 0l-177 455h-667l-176 -455h-76l553 1434h65l553 -1434h-75zM360 524h615l-307 795zM911 1729l64 -13q-22 -87 -64 -122t-104 -35q-35 0 -67.5 14.5t-57 35t-48 40.5t-49 34.5t-50.5 14.5q-36 0 -61.5 -22.5t-49.5 -67.5l-57 28q14 24 27 42t35 39t52 32.5t66 11.5
q40 0 78 -21.5t63.5 -47t58.5 -47t64 -21.5q40 0 65.5 28.5t34.5 76.5z" />
    <glyph glyph-name="Adieresis" unicode="&#xc4;" horiz-adv-x="1335" 
d="M1178 0l-177 455h-667l-176 -455h-76l553 1434h65l553 -1434h-75zM360 524h615l-307 795zM805 1753q23 0 40 -17t17 -40t-17 -40.5t-40 -17.5t-40 17.5t-17 40.5t17 40t40 17zM530 1753q23 0 40.5 -17t17.5 -40t-17.5 -40.5t-40.5 -17.5t-40 17.5t-17 40.5t17 40t40 17z
" />
    <glyph glyph-name="Aring" unicode="&#xc5;" horiz-adv-x="1335" 
d="M1178 0l-177 455h-667l-176 -455h-76l553 1434h65l553 -1434h-75zM360 524h615l-307 795zM668 1911q78 0 132 -55t54 -132t-54 -131.5t-132 -54.5q-77 0 -132 55t-55 131t55.5 131.5t131.5 55.5zM668 1597q54 0 91.5 37t37.5 90t-37.5 90t-91.5 37q-52 0 -89.5 -37.5
t-37.5 -89.5t37.5 -89.5t89.5 -37.5z" />
    <glyph glyph-name="AE" unicode="&#xc6;" horiz-adv-x="2107" 
d="M1073 72h883v-72h-952v459h-623l-240 -459h-80l752 1434h1131v-72h-871v-610h807v-70h-807v-610zM420 528h584v834h-148z" />
    <glyph glyph-name="Ccedilla" unicode="&#xc7;" horiz-adv-x="1550" 
d="M827 59q168 0 305.5 79t221.5 216l63 -30q-90 -151 -239.5 -241.5t-331.5 -94.5l-49 -101q89 10 135.5 -32.5t46.5 -108.5q0 -43 -21.5 -81t-58.5 -60q-57 -32 -126.5 -25.5t-137.5 49.5l24 45q67 -46 143.5 -43.5t110.5 56.5q31 47 12.5 96.5t-69.5 60.5q-17 6 -47.5 3
t-50.5 -15l-33 25l66 133q-140 7 -263 67t-209.5 157t-136 228t-49.5 275q0 199 89.5 365.5t249.5 265t355 98.5q188 0 342.5 -90t247.5 -244l-63 -33q-84 137 -221.5 217t-305.5 80q-176 0 -318 -89t-220.5 -239.5t-79.5 -330.5q1 -180 79.5 -330t220.5 -239t318 -89z" />
    <glyph glyph-name="Egrave" unicode="&#xc8;" horiz-adv-x="1308" 
d="M274 72h883v-72h-952v1434h940v-72h-871v-610h807v-70h-807v-610zM602 1843l160 -278h-43l-203 278h86z" />
    <glyph glyph-name="Eacute" unicode="&#xc9;" horiz-adv-x="1308" 
d="M274 72h883v-72h-952v1434h940v-72h-871v-610h807v-70h-807v-610zM776 1843h88l-202 -278h-44z" />
    <glyph glyph-name="Ecircumflex" unicode="&#xca;" horiz-adv-x="1308" 
d="M274 72h883v-72h-952v1434h940v-72h-871v-610h807v-70h-807v-610zM940 1565h-92l-168 223l-166 -223h-92l217 278h84z" />
    <glyph glyph-name="Edieresis" unicode="&#xcb;" horiz-adv-x="1308" 
d="M274 72h883v-72h-952v1434h940v-72h-871v-610h807v-70h-807v-610zM817 1753q23 0 40 -17t17 -40t-17 -40.5t-40 -17.5t-40 17.5t-17 40.5t17 40t40 17zM543 1753q23 0 40 -17t17 -40t-17 -40.5t-40 -17.5t-40.5 17.5t-17.5 40.5t17.5 40t40.5 17z" />
    <glyph glyph-name="Igrave" unicode="&#xcc;" horiz-adv-x="479" 
d="M205 1434h69v-1434h-69v1434zM90 1843l160 -278h-43l-203 278h86z" />
    <glyph glyph-name="Iacute" unicode="&#xcd;" horiz-adv-x="479" 
d="M205 1434h69v-1434h-69v1434zM391 1843h88l-203 -278h-43z" />
    <glyph glyph-name="Icircumflex" unicode="&#xce;" horiz-adv-x="477" 
d="M203 1434h69v-1434h-69v1434zM498 1565h-92l-168 223l-166 -223h-92l217 278h84z" />
    <glyph glyph-name="Idieresis" unicode="&#xcf;" horiz-adv-x="479" 
d="M205 1434h69v-1434h-69v1434zM377 1753q23 0 40 -17t17 -40t-17 -40.5t-40 -17.5t-40.5 17.5t-17.5 40.5t17.5 40t40.5 17zM102 1753q23 0 40.5 -17t17.5 -40t-17.5 -40.5t-40.5 -17.5t-40 17.5t-17 40.5t17 40t40 17z" />
    <glyph glyph-name="Eth" unicode="&#xd0;" horiz-adv-x="1550" 
d="M645 1434q216 0 384.5 -81.5t268 -245.5t99.5 -390t-99 -390t-267.5 -245.5t-385.5 -81.5h-399v682h-185v70h185v682h399zM645 72q141 0 263 43t214 123t144.5 203.5t52.5 275.5t-51.5 275.5t-142.5 203.5t-213.5 123t-266.5 43h-330v-610h422v-70h-422v-610h330z" />
    <glyph glyph-name="Ntilde" unicode="&#xd1;" horiz-adv-x="1501" 
d="M1225 1434h71v-1434h-65l-955 1307v-1307h-71v1434h65l955 -1311v1311zM1036 1729l64 -13q-22 -87 -64 -122t-104 -35q-35 0 -67.5 14.5t-57.5 35t-48 40.5t-49 34.5t-51 14.5q-36 0 -61 -22.5t-49 -67.5l-57 28q14 24 27 42t35 39t52 32.5t66 11.5q40 0 78 -21.5
t63.5 -47t58.5 -47t64 -21.5q40 0 65.5 28.5t34.5 76.5z" />
    <glyph glyph-name="Ograve" unicode="&#xd2;" horiz-adv-x="1615" 
d="M807 1446q196 0 356.5 -98.5t250 -265.5t89.5 -367q0 -199 -89.5 -365.5t-250 -265t-356.5 -98.5q-195 0 -355 98.5t-249.5 265t-89.5 365.5q0 200 89.5 367t249.5 265.5t355 98.5zM807 55q177 0 319.5 89.5t220.5 240t78 330.5q0 181 -78 331.5t-220.5 239t-319.5 88.5
q-176 0 -318 -88.5t-220.5 -239t-78.5 -331.5q0 -134 46.5 -255.5t127 -210.5t196 -141.5t247.5 -52.5zM690 1843l160 -278h-43l-203 278h86z" />
    <glyph glyph-name="Oacute" unicode="&#xd3;" horiz-adv-x="1615" 
d="M807 1446q196 0 356.5 -98.5t250 -265.5t89.5 -367q0 -199 -89.5 -365.5t-250 -265t-356.5 -98.5q-195 0 -355 98.5t-249.5 265t-89.5 365.5q0 200 89.5 367t249.5 265.5t355 98.5zM807 55q177 0 319.5 89.5t220.5 240t78 330.5q0 181 -78 331.5t-220.5 239t-319.5 88.5
q-176 0 -318 -88.5t-220.5 -239t-78.5 -331.5q0 -134 46.5 -255.5t127 -210.5t196 -141.5t247.5 -52.5zM946 1843h88l-203 -278h-43z" />
    <glyph glyph-name="Ocircumflex" unicode="&#xd4;" horiz-adv-x="1615" 
d="M807 1446q196 0 356.5 -98.5t250 -265.5t89.5 -367q0 -199 -89.5 -365.5t-250 -265t-356.5 -98.5q-195 0 -355 98.5t-249.5 265t-89.5 365.5q0 200 89.5 367t249.5 265.5t355 98.5zM807 55q177 0 319.5 89.5t220.5 240t78 330.5q0 181 -78 331.5t-220.5 239t-319.5 88.5
q-176 0 -318 -88.5t-220.5 -239t-78.5 -331.5q0 -134 46.5 -255.5t127 -210.5t196 -141.5t247.5 -52.5zM1067 1565h-92l-168 223l-166 -223h-92l217 278h84z" />
    <glyph glyph-name="Otilde" unicode="&#xd5;" horiz-adv-x="1615" 
d="M807 1446q196 0 356.5 -98.5t250 -265.5t89.5 -367q0 -199 -89.5 -365.5t-250 -265t-356.5 -98.5q-195 0 -355 98.5t-249.5 265t-89.5 365.5q0 200 89.5 367t249.5 265.5t355 98.5zM807 55q177 0 319.5 89.5t220.5 240t78 330.5q0 181 -78 331.5t-220.5 239t-319.5 88.5
q-176 0 -318 -88.5t-220.5 -239t-78.5 -331.5q0 -134 46.5 -255.5t127 -210.5t196 -141.5t247.5 -52.5zM1073 1729l64 -13q-22 -87 -64 -122t-104 -35q-35 0 -67.5 14.5t-57.5 35t-48 40.5t-49 34.5t-51 14.5q-36 0 -61 -22.5t-49 -67.5l-58 28q19 33 37.5 56.5t57.5 46
t86 22.5q40 0 78 -21.5t63.5 -47t58.5 -47t64 -21.5q40 0 65.5 28.5t34.5 76.5z" />
    <glyph glyph-name="Odieresis" unicode="&#xd6;" horiz-adv-x="1615" 
d="M807 1446q196 0 356.5 -98.5t250 -265.5t89.5 -367q0 -199 -89.5 -365.5t-250 -265t-356.5 -98.5q-195 0 -355 98.5t-249.5 265t-89.5 365.5q0 200 89.5 367t249.5 265.5t355 98.5zM807 55q177 0 319.5 89.5t220.5 240t78 330.5q0 181 -78 331.5t-220.5 239t-319.5 88.5
q-176 0 -318 -88.5t-220.5 -239t-78.5 -331.5q0 -134 46.5 -255.5t127 -210.5t196 -141.5t247.5 -52.5zM946 1753q23 0 40.5 -17t17.5 -40t-17.5 -40.5t-40.5 -17.5t-40 17.5t-17 40.5t17 40t40 17zM672 1753q23 0 40 -17t17 -40t-17 -40.5t-40 -17.5t-40.5 17.5t-17.5 40.5
t17.5 40t40.5 17z" />
    <glyph glyph-name="multiply" unicode="&#xd7;" horiz-adv-x="917" 
d="M795 911l-285 -282l283 -287l-50 -49l-284 285l-285 -285l-51 51l285 285l-283 284l49 50l285 -285l284 285z" />
    <glyph glyph-name="Oslash" unicode="&#xd8;" horiz-adv-x="1615" 
d="M1313 1223q91 -99 140.5 -230t49.5 -278q0 -199 -89.5 -365.5t-249.5 -265t-355 -98.5q-264 0 -457 172l-166 -183l-51 50l166 184q-90 99 -139 229.5t-49 276.5q0 200 89.5 367t250 265.5t356.5 98.5q259 0 455 -172l166 182l53 -47zM190 715q0 -129 42 -245.5
t118 -205.5l864 955q-168 155 -405 155q-177 0 -319.5 -88.5t-221 -239t-78.5 -331.5zM809 55q176 0 318.5 89.5t221 240t78.5 330.5q0 264 -163 454l-865 -956q171 -158 410 -158z" />
    <glyph glyph-name="Ugrave" unicode="&#xd9;" horiz-adv-x="1464" 
d="M1188 1434h72v-856q0 -273 -140 -432.5t-389 -159.5t-387.5 157.5t-138.5 434.5v856h71v-856q0 -246 120.5 -384.5t334.5 -138.5t335.5 138.5t121.5 384.5v856zM614 1843l160 -278h-43l-203 278h86z" />
    <glyph glyph-name="Uacute" unicode="&#xda;" horiz-adv-x="1464" 
d="M1188 1434h72v-856q0 -273 -140 -432.5t-389 -159.5t-387.5 157.5t-138.5 434.5v856h71v-856q0 -246 120.5 -384.5t334.5 -138.5t335.5 138.5t121.5 384.5v856zM870 1843h88l-202 -278h-43z" />
    <glyph glyph-name="Ucircumflex" unicode="&#xdb;" horiz-adv-x="1464" 
d="M1188 1434h72v-856q0 -273 -140 -432.5t-389 -159.5t-387.5 157.5t-138.5 434.5v856h71v-856q0 -246 120.5 -384.5t334.5 -138.5t335.5 138.5t121.5 384.5v856zM991 1565h-92l-168 223l-166 -223h-92l217 278h84z" />
    <glyph glyph-name="Udieresis" unicode="&#xdc;" horiz-adv-x="1464" 
d="M1188 1434h72v-856q0 -273 -140 -432.5t-389 -159.5t-387.5 157.5t-138.5 434.5v856h71v-856q0 -246 120.5 -384.5t334.5 -138.5t335.5 138.5t121.5 384.5v856zM870 1753q23 0 40.5 -17t17.5 -40t-17.5 -40.5t-40.5 -17.5t-40 17.5t-17 40.5t17 40t40 17zM596 1753
q23 0 40 -17t17 -40t-17 -40.5t-40 -17.5t-40 17.5t-17 40.5t17 40t40 17z" />
    <glyph glyph-name="Yacute" unicode="&#xdd;" horiz-adv-x="1226" 
d="M1186 1434l-537 -957v-477h-69v475l-539 959h82l491 -875l490 875h82zM772 1843h88l-203 -278h-43z" />
    <glyph glyph-name="Thorn" unicode="&#xde;" horiz-adv-x="1267" 
d="M719 1155q131 0 237 -54t168 -155t62 -229q0 -196 -132 -317t-335 -121h-445v-279h-69v1434h69v-279h445zM719 350q168 0 279.5 100t111.5 267q0 168 -110 267t-281 99h-445v-733h445z" />
    <glyph glyph-name="germandbls" unicode="&#xdf;" horiz-adv-x="1089" 
d="M694 780q100 -29 168 -90t96.5 -130t28.5 -144q0 -116 -53 -213t-158.5 -157t-245.5 -60h-22v69h22q169 0 278.5 103.5t109.5 257.5q0 148 -107.5 236.5t-280.5 88.5h-22v72h22q144 0 217.5 81.5t73.5 203.5q0 121 -72 198.5t-206 77.5q-143 0 -225 -107.5t-82 -324.5
v-942h-72v948q0 234 98 366t281 132q89 0 158.5 -31t110 -82.5t61 -111.5t20.5 -123q0 -107 -50.5 -192.5t-148.5 -125.5z" />
    <glyph glyph-name="agrave" unicode="&#xe0;" horiz-adv-x="1024" 
d="M516 1001q47 0 92 -9.5t91.5 -34t81.5 -61.5t57 -99t22 -140v-657h-69v203q-25 -38 -57.5 -72t-81 -69t-117.5 -55.5t-148 -20.5q-55 0 -105.5 12t-97 38.5t-74.5 76t-28 116.5q0 56 20 102t52 77t81.5 56.5t98 41.5t112.5 31q26 6 70 15t70.5 14.5t62 14.5t57 18.5
t42.5 22t30.5 28.5t9.5 36q0 108 -67 177t-205 69q-131 0 -209.5 -61.5t-103.5 -163.5l-70 16q10 40 26 75.5t47 74t71 66t102 45t137 17.5zM791 412v131q-35 -7 -143.5 -34t-184.5 -42q-168 -35 -236.5 -89.5t-68.5 -148.5q0 -85 67.5 -129.5t171.5 -44.5q166 0 280 105
t114 252zM381 1434l160 -279h-43l-203 279h86z" />
    <glyph glyph-name="aacute" unicode="&#xe1;" horiz-adv-x="1024" 
d="M516 1001q47 0 92 -9.5t91.5 -34t81.5 -61.5t57 -99t22 -140v-657h-69v203q-25 -38 -57.5 -72t-81 -69t-117.5 -55.5t-148 -20.5q-55 0 -105.5 12t-97 38.5t-74.5 76t-28 116.5q0 56 20 102t52 77t81.5 56.5t98 41.5t112.5 31q26 6 70 15t70.5 14.5t62 14.5t57 18.5
t42.5 22t30.5 28.5t9.5 36q0 108 -67 177t-205 69q-131 0 -209.5 -61.5t-103.5 -163.5l-70 16q10 40 26 75.5t47 74t71 66t102 45t137 17.5zM791 412v131q-35 -7 -143.5 -34t-184.5 -42q-168 -35 -236.5 -89.5t-68.5 -148.5q0 -85 67.5 -129.5t171.5 -44.5q166 0 280 105
t114 252zM629 1434h88l-203 -279h-43z" />
    <glyph glyph-name="acircumflex" unicode="&#xe2;" horiz-adv-x="1024" 
d="M516 1001q47 0 92 -9.5t91.5 -34t81.5 -61.5t57 -99t22 -140v-657h-69v203q-25 -38 -57.5 -72t-81 -69t-117.5 -55.5t-148 -20.5q-55 0 -105.5 12t-97 38.5t-74.5 76t-28 116.5q0 56 20 102t52 77t81.5 56.5t98 41.5t112.5 31q26 6 70 15t70.5 14.5t62 14.5t57 18.5
t42.5 22t30.5 28.5t9.5 36q0 108 -67 177t-205 69q-131 0 -209.5 -61.5t-103.5 -163.5l-70 16q10 40 26 75.5t47 74t71 66t102 45t137 17.5zM791 412v131q-35 -7 -143.5 -34t-184.5 -42q-168 -35 -236.5 -89.5t-68.5 -148.5q0 -85 67.5 -129.5t171.5 -44.5q166 0 280 105
t114 252zM774 1155h-92l-168 223l-166 -223h-92l217 279h84z" />
    <glyph glyph-name="atilde" unicode="&#xe3;" horiz-adv-x="1024" 
d="M516 1001q47 0 92 -9.5t91.5 -34t81.5 -61.5t57 -99t22 -140v-657h-69v203q-25 -38 -57.5 -72t-81 -69t-117.5 -55.5t-148 -20.5q-55 0 -105.5 12t-97 38.5t-74.5 76t-28 116.5q0 56 20 102t52 77t81.5 56.5t98 41.5t112.5 31q26 6 70 15t70.5 14.5t62 14.5t57 18.5
t42.5 22t30.5 28.5t9.5 36q0 108 -67 177t-205 69q-131 0 -209.5 -61.5t-103.5 -163.5l-70 16q10 40 26 75.5t47 74t71 66t102 45t137 17.5zM791 412v131q-35 -7 -143.5 -34t-184.5 -42q-168 -35 -236.5 -89.5t-68.5 -148.5q0 -85 67.5 -129.5t171.5 -44.5q166 0 280 105
t114 252zM745 1319l64 -12q-22 -87 -64 -122.5t-104 -35.5q-35 0 -67.5 14.5t-57 35t-48 40.5t-49 34.5t-50.5 14.5q-36 0 -61.5 -22.5t-49.5 -67.5l-57 29q14 24 27 42t35 39t52 32.5t66 11.5q40 0 78 -21.5t63.5 -47.5t58.5 -47.5t64 -21.5q40 0 65.5 28.5t34.5 76.5z" />
    <glyph glyph-name="adieresis" unicode="&#xe4;" horiz-adv-x="1024" 
d="M516 1001q47 0 92 -9.5t91.5 -34t81.5 -61.5t57 -99t22 -140v-657h-69v203q-25 -38 -57.5 -72t-81 -69t-117.5 -55.5t-148 -20.5q-55 0 -105.5 12t-97 38.5t-74.5 76t-28 116.5q0 56 20 102t52 77t81.5 56.5t98 41.5t112.5 31q26 6 70 15t70.5 14.5t62 14.5t57 18.5
t42.5 22t30.5 28.5t9.5 36q0 108 -67 177t-205 69q-131 0 -209.5 -61.5t-103.5 -163.5l-70 16q10 40 26 75.5t47 74t71 66t102 45t137 17.5zM791 412v131q-35 -7 -143.5 -34t-184.5 -42q-168 -35 -236.5 -89.5t-68.5 -148.5q0 -85 67.5 -129.5t171.5 -44.5q166 0 280 105
t114 252zM643 1343q23 0 40 -17t17 -40t-17 -40t-40 -17t-40 17t-17 40t17 40t40 17zM369 1343q23 0 40 -17t17 -40t-17 -40t-40 -17t-40.5 17t-17.5 40t17.5 40t40.5 17z" />
    <glyph glyph-name="aring" unicode="&#xe5;" horiz-adv-x="1024" 
d="M516 1001q47 0 92 -9.5t91.5 -34t81.5 -61.5t57 -99t22 -140v-657h-69v203q-25 -38 -57.5 -72t-81 -69t-117.5 -55.5t-148 -20.5q-55 0 -105.5 12t-97 38.5t-74.5 76t-28 116.5q0 56 20 102t52 77t81.5 56.5t98 41.5t112.5 31q26 6 70 15t70.5 14.5t62 14.5t57 18.5
t42.5 22t30.5 28.5t9.5 36q0 108 -67 177t-205 69q-131 0 -209.5 -61.5t-103.5 -163.5l-70 16q10 40 26 75.5t47 74t71 66t102 45t137 17.5zM791 412v131q-35 -7 -143.5 -34t-184.5 -42q-168 -35 -236.5 -89.5t-68.5 -148.5q0 -85 67.5 -129.5t171.5 -44.5q166 0 280 105
t114 252zM512 1501q78 0 132 -54.5t54 -131.5t-54 -132t-132 -55q-76 0 -131 55t-55 132t55 131.5t131 54.5zM512 1188q54 0 91.5 37t37.5 90t-37.5 90t-91.5 37q-52 0 -89.5 -37t-37.5 -90t37.5 -90t89.5 -37z" />
    <glyph glyph-name="ae" unicode="&#xe6;" horiz-adv-x="1837" 
d="M1714 494q0 -38 -2 -54h-829q18 -167 125 -276t270 -109q111 0 197 52t139 143l65 -33q-62 -107 -166 -169t-235 -62q-152 0 -267 82t-169 219q-10 -32 -39 -84q-22 -35 -57 -70t-86 -69.5t-122.5 -56t-150.5 -21.5q-54 0 -104.5 12t-97 38t-75 75.5t-28.5 115.5
q0 57 20 103t52.5 77.5t82 57t99 41t113.5 29.5q28 7 70 15.5t71 15t65 15.5t59.5 18.5t44.5 22t31.5 28.5t10.5 36q0 107 -70 175.5t-209 68.5q-132 0 -216 -62t-109 -161l-70 16q14 51 40 95.5t70.5 88t118 69t166.5 25.5q52 0 102 -12t100.5 -39t87.5 -78.5t52 -121.5
q60 117 168 184t246 67q136 0 236.5 -68.5t150 -182.5t49.5 -256zM1278 930q-173 0 -282 -120t-115 -298h755q-5 183 -97 300.5t-261 117.5zM803 412v131q-34 -7 -148.5 -34t-191.5 -42q-168 -35 -236.5 -90t-68.5 -150q0 -84 67.5 -128t171.5 -44q168 0 287 105t119 252z
" />
    <glyph glyph-name="ccedilla" unicode="&#xe7;" horiz-adv-x="1091" 
d="M578 57q111 0 197 51.5t138 143.5l66 -33q-58 -102 -154.5 -164t-218.5 -69l-49 -99q89 10 135.5 -32.5t46.5 -108.5q0 -43 -22 -81t-60 -60q-57 -32 -125.5 -25.5t-136.5 49.5l25 45q67 -46 142.5 -43.5t109.5 56.5q30 47 11.5 96.5t-69.5 60.5q-17 6 -47 3t-49 -15
l-33 25l64 129q-130 7 -233 77t-158.5 183.5t-55.5 247.5q0 140 59.5 256t169.5 185t247 69q130 0 234.5 -63t166.5 -171l-66 -33q-53 91 -138.5 143t-196.5 52q-118 0 -209.5 -59t-140 -158.5t-48.5 -220.5q0 -186 110 -311.5t288 -125.5z" />
    <glyph glyph-name="egrave" unicode="&#xe8;" 
d="M993 494q0 -36 -2 -54h-829q18 -167 125 -276t270 -109q111 0 197 52.5t139 144.5l65 -33q-61 -108 -165.5 -170.5t-235.5 -62.5q-137 0 -246.5 68.5t-169 184t-59.5 255.5t59.5 255.5t169 183.5t246.5 68q136 0 236.5 -68.5t150 -182.5t49.5 -256zM557 932
q-173 0 -282 -120.5t-115 -299.5h755q-5 185 -97 302.5t-261 117.5zM420 1434l160 -279h-43l-203 279h86z" />
    <glyph glyph-name="eacute" unicode="&#xe9;" 
d="M993 494q0 -36 -2 -54h-829q18 -167 125 -276t270 -109q111 0 197 52.5t139 144.5l65 -33q-61 -108 -165.5 -170.5t-235.5 -62.5q-137 0 -246.5 68.5t-169 184t-59.5 255.5t59.5 255.5t169 183.5t246.5 68q136 0 236.5 -68.5t150 -182.5t49.5 -256zM557 932
q-173 0 -282 -120.5t-115 -299.5h755q-5 185 -97 302.5t-261 117.5zM696 1434h88l-202 -279h-43z" />
    <glyph glyph-name="ecircumflex" unicode="&#xea;" 
d="M993 494q0 -36 -2 -54h-829q18 -167 125 -276t270 -109q111 0 197 52.5t139 144.5l65 -33q-61 -108 -165.5 -170.5t-235.5 -62.5q-137 0 -246.5 68.5t-169 184t-59.5 255.5t59.5 255.5t169 183.5t246.5 68q136 0 236.5 -68.5t150 -182.5t49.5 -256zM557 932
q-173 0 -282 -120.5t-115 -299.5h755q-5 185 -97 302.5t-261 117.5zM817 1155h-92l-168 223l-166 -223h-92l217 279h84z" />
    <glyph glyph-name="edieresis" unicode="&#xeb;" 
d="M993 494q0 -36 -2 -54h-829q18 -167 125 -276t270 -109q111 0 197 52.5t139 144.5l65 -33q-61 -108 -165.5 -170.5t-235.5 -62.5q-137 0 -246.5 68.5t-169 184t-59.5 255.5t59.5 255.5t169 183.5t246.5 68q136 0 236.5 -68.5t150 -182.5t49.5 -256zM557 932
q-173 0 -282 -120.5t-115 -299.5h755q-5 185 -97 302.5t-261 117.5zM696 1343q23 0 40.5 -17t17.5 -40t-17.5 -40t-40.5 -17t-40 17t-17 40t17 40t40 17zM422 1343q23 0 40 -17t17 -40t-17 -40t-40 -17t-40 17t-17 40t17 40t40 17z" />
    <glyph glyph-name="igrave" unicode="&#xec;" horiz-adv-x="450" 
d="M184 0v987h72v-987h-72zM61 1434l160 -279h-43l-203 279h86z" />
    <glyph glyph-name="iacute" unicode="&#xed;" horiz-adv-x="450" 
d="M184 0v987h72v-987h-72zM358 1434h88l-202 -279h-43z" />
    <glyph glyph-name="icircumflex" unicode="&#xee;" horiz-adv-x="450" 
d="M186 0v987h72v-987h-72zM481 1155h-92l-168 223l-166 -223h-92l217 279h84z" />
    <glyph glyph-name="idieresis" unicode="&#xef;" horiz-adv-x="450" 
d="M188 0v987h72v-987h-72zM362 1323q23 0 40.5 -17t17.5 -40t-17.5 -40.5t-40.5 -17.5t-40 17.5t-17 40.5t17 40t40 17zM88 1323q23 0 40 -17t17 -40t-17 -40.5t-40 -17.5t-40 17.5t-17 40.5t17 40t40 17z" />
    <glyph glyph-name="eth" unicode="&#xf0;" horiz-adv-x="1204" 
d="M680 1419q132 -92 223.5 -220.5t132 -264t44.5 -274.5t-30.5 -262.5t-99.5 -217.5q-60 -86 -153.5 -140t-208.5 -54q-139 0 -250.5 68t-173.5 184.5t-62 255.5q0 214 133 360.5t340 146.5q166 0 285 -98.5t158 -253.5q-5 112 -33 215.5t-67.5 180t-91.5 143t-99.5 108.5
t-95.5 72l-223 -225l-50 49l209 213q-140 75 -293 98l13 72q184 -34 331 -117l181 184l51 -51zM588 55q176 0 278.5 125.5t102.5 313.5q0 199 -106.5 317.5t-287.5 118.5q-178 0 -287.5 -125t-109.5 -311q0 -120 51.5 -220.5t146 -159.5t212.5 -59z" />
    <glyph glyph-name="ntilde" unicode="&#xf1;" horiz-adv-x="1105" 
d="M559 1001q181 0 282 -118.5t101 -321.5v-561h-72v561q0 166 -82 268.5t-229 102.5q-141 0 -233.5 -109.5t-92.5 -285.5v-537h-69v987h69v-201q48 98 131.5 156.5t194.5 58.5zM799 1319l63 -12q-22 -87 -64 -122.5t-104 -35.5q-35 0 -67.5 14.5t-57 35t-48 40.5t-49 34.5
t-50.5 14.5q-36 0 -61.5 -22.5t-49.5 -67.5l-57 29q14 24 27 42t35 39t52 32.5t66 11.5q40 0 78 -21.5t63.5 -47.5t58.5 -47.5t64 -21.5q40 0 66 28.5t35 76.5z" />
    <glyph glyph-name="ograve" unicode="&#xf2;" horiz-adv-x="1163" 
d="M578 1001q207 0 340 -146.5t133 -360.5t-133 -361t-340 -147q-137 0 -247 68.5t-169.5 184t-59.5 255.5t59.5 255.5t169.5 183.5t247 68zM578 55q177 0 286 126.5t109 312.5t-109 312t-286 126q-118 0 -209.5 -59t-140 -158.5t-48.5 -220.5t48.5 -220.5t140 -159
t209.5 -59.5zM438 1434l160 -279h-43l-203 279h86z" />
    <glyph glyph-name="oacute" unicode="&#xf3;" horiz-adv-x="1163" 
d="M578 1001q207 0 340 -146.5t133 -360.5t-133 -361t-340 -147q-137 0 -247 68.5t-169.5 184t-59.5 255.5t59.5 255.5t169.5 183.5t247 68zM578 55q177 0 286 126.5t109 312.5t-109 312t-286 126q-118 0 -209.5 -59t-140 -158.5t-48.5 -220.5t48.5 -220.5t140 -159
t209.5 -59.5zM715 1434h88l-203 -279h-43z" />
    <glyph glyph-name="ocircumflex" unicode="&#xf4;" horiz-adv-x="1163" 
d="M578 1001q207 0 340 -146.5t133 -360.5t-133 -361t-340 -147q-137 0 -247 68.5t-169.5 184t-59.5 255.5t59.5 255.5t169.5 183.5t247 68zM578 55q177 0 286 126.5t109 312.5t-109 312t-286 126q-118 0 -209.5 -59t-140 -158.5t-48.5 -220.5t48.5 -220.5t140 -159
t209.5 -59.5zM836 1155h-93l-168 223l-165 -223h-93l218 279h83z" />
    <glyph glyph-name="otilde" unicode="&#xf5;" horiz-adv-x="1163" 
d="M578 1001q207 0 340 -146.5t133 -360.5t-133 -361t-340 -147q-137 0 -247 68.5t-169.5 184t-59.5 255.5t59.5 255.5t169.5 183.5t247 68zM578 55q177 0 286 126.5t109 312.5t-109 312t-286 126q-118 0 -209.5 -59t-140 -158.5t-48.5 -220.5t48.5 -220.5t140 -159
t209.5 -59.5zM821 1319l64 -12q-22 -87 -64 -122.5t-104 -35.5q-35 0 -67.5 14.5t-57.5 35t-48 40.5t-49 34.5t-51 14.5q-36 0 -61 -22.5t-49 -67.5l-58 29q19 33 37.5 56.5t57.5 46t86 22.5q40 0 78 -21.5t63.5 -47.5t58.5 -47.5t64 -21.5q40 0 65.5 28.5t34.5 76.5z" />
    <glyph glyph-name="odieresis" unicode="&#xf6;" horiz-adv-x="1163" 
d="M578 1001q207 0 340 -146.5t133 -360.5t-133 -361t-340 -147q-137 0 -247 68.5t-169.5 184t-59.5 255.5t59.5 255.5t169.5 183.5t247 68zM578 55q177 0 286 126.5t109 312.5t-109 312t-286 126q-118 0 -209.5 -59t-140 -158.5t-48.5 -220.5t48.5 -220.5t140 -159
t209.5 -59.5zM715 1343q23 0 40 -17t17 -40t-17 -40t-40 -17t-40.5 17t-17.5 40t17.5 40t40.5 17zM440 1343q23 0 40.5 -17t17.5 -40t-17.5 -40t-40.5 -17t-40 17t-17 40t17 40t40 17z" />
    <glyph glyph-name="divide" unicode="&#xf7;" horiz-adv-x="1040" 
d="M123 664h795v-72h-795v72zM520 920q-23 0 -39 17t-16 40t16 40t39 17q24 0 41 -17t17 -40t-17 -40t-41 -17zM520 336q25 0 41.5 -16t16.5 -41q0 -24 -17 -41t-41 -17q-23 0 -39 17t-16 41q0 25 16 41t39 16z" />
    <glyph glyph-name="oslash" unicode="&#xf8;" horiz-adv-x="1161" 
d="M932 836q117 -142 117 -342q0 -140 -59 -255.5t-168.5 -184t-246.5 -68.5q-180 0 -307 114l-112 -125l-54 50l117 127q-117 139 -117 342q0 214 133 360.5t340 146.5q181 0 308 -114l112 123l52 -47zM178 494q0 -167 90 -287l566 627q-104 96 -259 96q-178 0 -287.5 -125
t-109.5 -311zM575 55q177 0 286.5 126.5t109.5 312.5q0 166 -88 286l-568 -626q110 -99 260 -99z" />
    <glyph glyph-name="ugrave" unicode="&#xf9;" horiz-adv-x="1087" 
d="M852 987h72v-987h-72v186q-52 -92 -135 -146t-191 -54q-181 0 -282 119.5t-101 322.5v559h72v-559q0 -166 82 -268.5t229 -102.5q140 0 233 106t93 267v557zM416 1434l159 -279h-43l-202 279h86z" />
    <glyph glyph-name="uacute" unicode="&#xfa;" horiz-adv-x="1087" 
d="M852 987h72v-987h-72v186q-52 -92 -135 -146t-191 -54q-181 0 -282 119.5t-101 322.5v559h72v-559q0 -166 82 -268.5t229 -102.5q140 0 233 106t93 267v557zM672 1434h88l-203 -279h-43z" />
    <glyph glyph-name="ucircumflex" unicode="&#xfb;" horiz-adv-x="1087" 
d="M852 987h72v-987h-72v186q-52 -92 -135 -146t-191 -54q-181 0 -282 119.5t-101 322.5v559h72v-559q0 -166 82 -268.5t229 -102.5q140 0 233 106t93 267v557zM813 1155h-92l-168 223l-166 -223h-92l217 279h84z" />
    <glyph glyph-name="udieresis" unicode="&#xfc;" horiz-adv-x="1087" 
d="M852 987h72v-987h-72v186q-52 -92 -135 -146t-191 -54q-181 0 -282 119.5t-101 322.5v559h72v-559q0 -166 82 -268.5t229 -102.5q140 0 233 106t93 267v557zM692 1343q23 0 40.5 -17t17.5 -40t-17.5 -40t-40.5 -17t-40 17t-17 40t17 40t40 17zM418 1343q23 0 40 -17
t17 -40t-17 -40t-40 -17t-40.5 17t-17.5 40t17.5 40t40.5 17z" />
    <glyph glyph-name="yacute" unicode="&#xfd;" horiz-adv-x="911" 
d="M791 987h75l-372 -987q-49 -132 -80 -197t-74 -114q-23 -27 -46 -45.5t-49 -26.5t-44 -13t-47 -2.5t-40.5 4.5t-41.5 7l12 70q38 -8 67.5 -7.5t54.5 6.5t47.5 24.5t41.5 41.5t39.5 62.5t39.5 82.5t44 107l-373 987h76l336 -887zM614 1434h88l-202 -279h-43z" />
    <glyph glyph-name="thorn" unicode="&#xfe;" horiz-adv-x="1200" 
d="M627 1001q137 0 243 -68.5t161.5 -183t55.5 -255.5t-55.5 -256t-161.5 -183.5t-243 -68.5q-134 0 -234.5 64.5t-156.5 176.5v-673h-72v1880h72v-674q56 112 156.5 176.5t234.5 64.5zM627 55q176 0 280.5 125.5t104.5 313.5q0 187 -104 311.5t-281 124.5t-281 -124.5
t-104 -311.5q0 -188 104.5 -313.5t280.5 -125.5z" />
    <glyph glyph-name="ydieresis" unicode="&#xff;" horiz-adv-x="911" 
d="M791 987h75l-372 -987q-49 -132 -80 -197t-74 -114q-23 -27 -46 -45.5t-49 -26.5t-44 -13t-47 -2.5t-40.5 4.5t-41.5 7l12 70q38 -8 67.5 -7.5t54.5 6.5t47.5 24.5t41.5 41.5t39.5 62.5t39.5 82.5t44 107l-373 987h76l336 -887zM614 1343q23 0 40.5 -17t17.5 -40
t-17.5 -40t-40.5 -17t-40 17t-17 40t17 40t40 17zM340 1343q23 0 40 -17t17 -40t-17 -40t-40 -17t-40 17t-17 40t17 40t40 17z" />
    <glyph glyph-name="Amacron" unicode="&#x100;" horiz-adv-x="1335" 
d="M1178 0l-177 455h-667l-176 -455h-76l553 1434h65l553 -1434h-75zM360 524h615l-307 795zM412 1778h512v-70h-512v70z" />
    <glyph glyph-name="amacron" unicode="&#x101;" horiz-adv-x="1024" 
d="M516 1001q47 0 92 -9.5t91.5 -34t81.5 -61.5t57 -99t22 -140v-657h-69v203q-25 -38 -57.5 -72t-81 -69t-117.5 -55.5t-148 -20.5q-55 0 -105.5 12t-97 38.5t-74.5 76t-28 116.5q0 56 20 102t52 77t81.5 56.5t98 41.5t112.5 31q26 6 70 15t70.5 14.5t62 14.5t57 18.5
t42.5 22t30.5 28.5t9.5 36q0 108 -67 177t-205 69q-131 0 -209.5 -61.5t-103.5 -163.5l-70 16q10 40 26 75.5t47 74t71 66t102 45t137 17.5zM791 412v131q-35 -7 -143.5 -34t-184.5 -42q-168 -35 -236.5 -89.5t-68.5 -148.5q0 -85 67.5 -129.5t171.5 -44.5q166 0 280 105
t114 252zM256 1368h512v-70h-512v70z" />
    <glyph glyph-name="Abreve" unicode="&#x102;" horiz-adv-x="1335" 
d="M1178 0l-177 455h-667l-176 -455h-76l553 1434h65l553 -1434h-75zM360 524h615l-307 795zM819 1800h60q0 -101 -56.5 -165t-152.5 -64q-98 0 -154.5 64t-56.5 165h59q0 -74 43 -122t109 -48q68 0 108.5 47.5t40.5 122.5z" />
    <glyph glyph-name="abreve" unicode="&#x103;" horiz-adv-x="1024" 
d="M516 1001q47 0 92 -9.5t91.5 -34t81.5 -61.5t57 -99t22 -140v-657h-69v203q-25 -38 -57.5 -72t-81 -69t-117.5 -55.5t-148 -20.5q-55 0 -105.5 12t-97 38.5t-74.5 76t-28 116.5q0 56 20 102t52 77t81.5 56.5t98 41.5t112.5 31q26 6 70 15t70.5 14.5t62 14.5t57 18.5
t42.5 22t30.5 28.5t9.5 36q0 108 -67 177t-205 69q-131 0 -209.5 -61.5t-103.5 -163.5l-70 16q10 40 26 75.5t47 74t71 66t102 45t137 17.5zM791 412v131q-35 -7 -143.5 -34t-184.5 -42q-168 -35 -236.5 -89.5t-68.5 -148.5q0 -85 67.5 -129.5t171.5 -44.5q166 0 280 105
t114 252zM672 1391h59q0 -101 -56.5 -165.5t-152.5 -64.5q-98 0 -154.5 64.5t-56.5 165.5h60q0 -74 42.5 -122t108.5 -48q68 0 109 47.5t41 122.5z" />
    <glyph glyph-name="Aogonek" unicode="&#x104;" horiz-adv-x="1314" 
d="M1292 -313v-84q-56 -17 -96 -17q-78 0 -132.5 50.5t-47.5 132.5q7 73 61.5 136.5t106.5 94.5h-6l-177 455h-667l-176 -455h-76l553 1434h65l553 -1434h-6q-68 -37 -124 -109t-50 -135q7 -73 77 -93t142 24zM360 526h615l-307 795z" />
    <glyph glyph-name="aogonek" unicode="&#x105;" horiz-adv-x="1024" 
d="M901 -313v-84q-53 -17 -94 -17q-79 0 -133 50t-47 133q4 51 37 102.5t66 80.5t63 48h-2v205q-24 -39 -57 -73t-81.5 -69.5t-117.5 -56t-148 -20.5q-55 0 -105.5 12t-97 38.5t-74.5 76t-28 116.5q0 56 20 102t52 77t81.5 56.5t98 41.5t112.5 31q26 6 70 15t70.5 14.5
t62 14.5t57 18.5t42.5 22t30.5 28.5t9.5 36q0 108 -67 177t-205 69q-131 0 -209.5 -61.5t-103.5 -163.5l-70 16q13 52 37 96t66.5 88.5t114.5 70.5t165 26q47 0 92 -9.5t91.5 -34.5t81.5 -63t57 -100t22 -140v-657h-2q-69 -37 -124.5 -109t-49.5 -135q7 -73 76 -93t141 24z
M791 412v133q-18 -4 -132.5 -33t-195.5 -45q-167 -33 -236 -88.5t-69 -149.5q0 -85 67 -128.5t172 -43.5q167 0 280.5 102t113.5 253z" />
    <glyph glyph-name="Cacute" unicode="&#x106;" horiz-adv-x="1550" 
d="M827 59q168 0 306 79.5t219 215.5l65 -30q-93 -156 -247.5 -246t-342.5 -90q-196 0 -356 98.5t-249 265t-89 365.5t89 365.5t249 265t356 98.5q188 0 342.5 -90t247.5 -246l-65 -31q-81 136 -219 215.5t-306 79.5q-176 0 -318 -88.5t-220.5 -238.5t-79.5 -330
q1 -180 79.5 -330t220.5 -239t318 -89zM932 1843h88l-203 -278h-43z" />
    <glyph glyph-name="cacute" unicode="&#x107;" horiz-adv-x="1091" 
d="M575 55q111 0 197 52.5t139 144.5l68 -33q-63 -108 -168 -170.5t-236 -62.5q-207 0 -340 147t-133 361t133 360.5t340 146.5q131 0 236 -62.5t168 -170.5l-68 -31q-53 91 -139 143t-197 52q-118 0 -209.5 -59t-139.5 -158.5t-48 -220.5t48 -220.5t139.5 -159t209.5 -59.5
zM698 1434h88l-202 -279h-43z" />
    <glyph glyph-name="Ccircumflex" unicode="&#x108;" horiz-adv-x="1550" 
d="M827 59q168 0 306 79.5t219 215.5l65 -30q-93 -156 -247.5 -246t-342.5 -90q-196 0 -356 98.5t-249 265t-89 365.5t89 365.5t249 265t356 98.5q188 0 342.5 -90t247.5 -246l-65 -31q-81 136 -219 215.5t-306 79.5q-176 0 -318 -88.5t-220.5 -238.5t-79.5 -330
q1 -180 79.5 -330t220.5 -239t318 -89zM1087 1565h-92l-168 223l-165 -223h-93l217 278h84z" />
    <glyph glyph-name="ccircumflex" unicode="&#x109;" horiz-adv-x="1091" 
d="M575 55q111 0 197 52.5t139 144.5l68 -33q-63 -108 -168 -170.5t-236 -62.5q-207 0 -340 147t-133 361t133 360.5t340 146.5q131 0 236 -62.5t168 -170.5l-68 -31q-53 91 -139 143t-197 52q-118 0 -209.5 -59t-139.5 -158.5t-48 -220.5t48 -220.5t139.5 -159t209.5 -59.5
zM842 1155h-92l-168 223l-166 -223h-92l217 279h84z" />
    <glyph glyph-name="Cdotaccent" unicode="&#x10a;" horiz-adv-x="1550" 
d="M827 59q168 0 306 79.5t219 215.5l65 -30q-93 -156 -247.5 -246t-342.5 -90q-196 0 -356 98.5t-249 265t-89 365.5t89 365.5t249 265t356 98.5q188 0 342.5 -90t247.5 -246l-65 -31q-81 136 -219 215.5t-306 79.5q-176 0 -318 -88.5t-220.5 -238.5t-79.5 -330
q1 -180 79.5 -330t220.5 -239t318 -89zM840 1753q24 0 40.5 -16.5t16.5 -40.5t-16.5 -41t-40.5 -17q-23 0 -39.5 17.5t-16.5 40.5t16.5 40t39.5 17z" />
    <glyph glyph-name="cdotaccent" unicode="&#x10b;" horiz-adv-x="1091" 
d="M575 55q111 0 197 52.5t139 144.5l68 -33q-63 -108 -168 -170.5t-236 -62.5q-207 0 -340 147t-133 361t133 360.5t340 146.5q131 0 236 -62.5t168 -170.5l-68 -31q-53 91 -139 143t-197 52q-118 0 -209.5 -59t-139.5 -158.5t-48 -220.5t48 -220.5t139.5 -159t209.5 -59.5
zM582 1343q24 0 40.5 -16.5t16.5 -40.5t-16.5 -40.5t-40.5 -16.5q-23 0 -39.5 17t-16.5 40t16.5 40t39.5 17z" />
    <glyph glyph-name="Ccaron" unicode="&#x10c;" horiz-adv-x="1550" 
d="M827 59q168 0 306 79.5t219 215.5l65 -30q-93 -156 -247.5 -246t-342.5 -90q-196 0 -356 98.5t-249 265t-89 365.5t89 365.5t249 265t356 98.5q188 0 342.5 -90t247.5 -246l-65 -31q-81 136 -219 215.5t-306 79.5q-176 0 -318 -88.5t-220.5 -238.5t-79.5 -330
q1 -180 79.5 -330t220.5 -239t318 -89zM983 1843h92l-217 -278h-84l-217 278h92l166 -223z" />
    <glyph glyph-name="ccaron" unicode="&#x10d;" horiz-adv-x="1091" 
d="M575 55q111 0 197 52.5t139 144.5l68 -33q-63 -108 -168 -170.5t-236 -62.5q-207 0 -340 147t-133 361t133 360.5t340 146.5q131 0 236 -62.5t168 -170.5l-68 -31q-53 91 -139 143t-197 52q-118 0 -209.5 -59t-139.5 -158.5t-48 -220.5t48 -220.5t139.5 -159t209.5 -59.5
zM750 1434h92l-217 -279h-84l-217 279h92l166 -224z" />
    <glyph glyph-name="Dcaron" unicode="&#x10e;" horiz-adv-x="1511" 
d="M606 1434q216 0 384.5 -81.5t268 -245.5t99.5 -390t-99 -390t-267.5 -245.5t-385.5 -81.5h-401v1434h401zM606 72q141 0 262 43t211.5 123t142.5 203.5t52 275.5q0 203 -88 350.5t-237.5 221t-342.5 73.5h-330v-1290h330zM860 1843h92l-217 -278h-84l-217 278h92
l166 -223z" />
    <glyph glyph-name="dcaron" unicode="&#x10f;" horiz-adv-x="1247" 
d="M956 1434h72v-1434h-72v227q-56 -112 -157 -176.5t-234 -64.5q-137 0 -243.5 68.5t-163 183.5t-56.5 256t56.5 256t163 183t243.5 68q133 0 234 -64.5t157 -176.5v674zM565 55q176 0 280.5 125.5t104.5 313.5t-104.5 313t-280.5 125t-280.5 -125t-104.5 -313
t104.5 -313.5t280.5 -125.5zM1186 1090l94 344h90l-143 -344h-41z" />
    <glyph glyph-name="Dcroat" unicode="&#x110;" horiz-adv-x="1550" 
d="M645 1434q216 0 384.5 -81.5t268 -245.5t99.5 -390t-99 -390t-267.5 -245.5t-385.5 -81.5h-399v682h-185v70h185v682h399zM645 72q141 0 263 43t214 123t144.5 203.5t52.5 275.5t-51.5 275.5t-142.5 203.5t-213.5 123t-266.5 43h-330v-610h422v-70h-422v-610h330z" />
    <glyph glyph-name="dcroat" unicode="&#x111;" horiz-adv-x="1226" 
d="M1227 1243v-72h-199v-1171h-72v227q-56 -112 -157 -176.5t-234 -64.5q-137 0 -243.5 68.5t-163 183.5t-56.5 256t56.5 256t163 183t243.5 68q133 0 234 -64.5t157 -176.5v411h-294v72h294v191h72v-191h199zM565 55q176 0 280.5 125.5t104.5 313.5q0 187 -104 311.5
t-281 124.5t-281 -124.5t-104 -311.5q0 -188 104.5 -313.5t280.5 -125.5z" />
    <glyph glyph-name="Emacron" unicode="&#x112;" horiz-adv-x="1308" 
d="M274 72h883v-72h-952v1434h940v-72h-871v-610h807v-70h-807v-610zM424 1778h512v-70h-512v70z" />
    <glyph glyph-name="emacron" unicode="&#x113;" 
d="M993 494q0 -36 -2 -54h-829q18 -167 125 -276t270 -109q111 0 197 52.5t139 144.5l65 -33q-61 -108 -165.5 -170.5t-235.5 -62.5q-137 0 -246.5 68.5t-169 184t-59.5 255.5t59.5 255.5t169 183.5t246.5 68q136 0 236.5 -68.5t150 -182.5t49.5 -256zM557 932
q-173 0 -282 -120.5t-115 -299.5h755q-5 185 -97 302.5t-261 117.5zM303 1368h512v-70h-512v70z" />
    <glyph glyph-name="Ebreve" unicode="&#x114;" horiz-adv-x="1308" 
d="M274 72h883v-72h-952v1434h940v-72h-871v-610h807v-70h-807v-610zM831 1800h60q0 -101 -56.5 -165t-152.5 -64q-98 0 -154.5 64t-56.5 165h59q0 -74 43 -122t109 -48q68 0 108.5 47.5t40.5 122.5z" />
    <glyph glyph-name="ebreve" unicode="&#x115;" 
d="M993 494q0 -36 -2 -54h-829q18 -167 125 -276t270 -109q111 0 197 52.5t139 144.5l65 -33q-61 -108 -165.5 -170.5t-235.5 -62.5q-137 0 -246.5 68.5t-169 184t-59.5 255.5t59.5 255.5t169 183.5t246.5 68q136 0 236.5 -68.5t150 -182.5t49.5 -256zM557 932
q-173 0 -282 -120.5t-115 -299.5h755q-5 185 -97 302.5t-261 117.5zM709 1391h59q0 -101 -56.5 -165.5t-152.5 -64.5q-98 0 -154.5 64.5t-56.5 165.5h60q0 -74 42.5 -122t108.5 -48q68 0 109 47.5t41 122.5z" />
    <glyph glyph-name="Edotaccent" unicode="&#x116;" horiz-adv-x="1308" 
d="M274 72h883v-72h-952v1434h940v-72h-871v-610h807v-70h-807v-610zM682 1753q24 0 40.5 -16.5t16.5 -40.5t-16.5 -41t-40.5 -17q-23 0 -39 17t-16 41q0 23 16 40t39 17z" />
    <glyph glyph-name="edotaccent" unicode="&#x117;" 
d="M993 494q0 -36 -2 -54h-829q18 -167 125 -276t270 -109q111 0 197 52.5t139 144.5l65 -33q-61 -108 -165.5 -170.5t-235.5 -62.5q-137 0 -246.5 68.5t-169 184t-59.5 255.5t59.5 255.5t169 183.5t246.5 68q136 0 236.5 -68.5t150 -182.5t49.5 -256zM557 932
q-173 0 -282 -120.5t-115 -299.5h755q-5 185 -97 302.5t-261 117.5zM557 1343q24 0 40.5 -16.5t16.5 -40.5t-16.5 -40.5t-40.5 -16.5q-23 0 -39 17t-16 40t16 40t39 17z" />
    <glyph glyph-name="Eogonek" unicode="&#x118;" horiz-adv-x="1308" 
d="M1200 -313v-84q-53 -17 -94 -17q-79 0 -133 50t-47 133q4 51 37 102.5t66 80.5t63 48h-887v1434h940v-70h-869v-610h805v-72h-805v-610h881v-72q-69 -37 -124.5 -109t-49.5 -135q7 -73 76 -93t141 24z" />
    <glyph glyph-name="eogonek" unicode="&#x119;" horiz-adv-x="1114" 
d="M991 494q0 -36 -2 -54h-827q15 -166 122.5 -274.5t270.5 -108.5q111 0 197.5 51.5t138.5 143.5l67 -33q-66 -116 -180 -178q-92 -61 -148.5 -141.5t-51.5 -143.5q7 -73 77 -93t142 24v-84q-56 -17 -97 -17q-78 0 -132.5 50.5t-47.5 132.5q12 117 137 227
q-55 -10 -102 -10q-207 0 -340 147t-133 361q0 140 59 256t168 185t246 69q136 0 236.5 -69.5t150 -183.5t49.5 -257zM555 932q-173 0 -282 -120.5t-115 -299.5h755q-2 119 -41 212.5t-121 150.5t-196 57z" />
    <glyph glyph-name="Ecaron" unicode="&#x11a;" horiz-adv-x="1308" 
d="M274 72h883v-72h-952v1434h940v-72h-871v-610h807v-70h-807v-610zM848 1843h92l-217 -278h-84l-217 278h92l166 -223z" />
    <glyph glyph-name="ecaron" unicode="&#x11b;" 
d="M993 494q0 -36 -2 -54h-829q18 -167 125 -276t270 -109q111 0 197 52.5t139 144.5l65 -33q-61 -108 -165.5 -170.5t-235.5 -62.5q-137 0 -246.5 68.5t-169 184t-59.5 255.5t59.5 255.5t169 183.5t246.5 68q136 0 236.5 -68.5t150 -182.5t49.5 -256zM557 932
q-173 0 -282 -120.5t-115 -299.5h755q-5 185 -97 302.5t-261 117.5zM725 1434h92l-217 -279h-84l-217 279h92l166 -224z" />
    <glyph glyph-name="Gcircumflex" unicode="&#x11c;" horiz-adv-x="1611" 
d="M856 717h582v-393q-93 -156 -246.5 -246t-341.5 -90q-196 0 -356.5 98.5t-250 265t-89.5 365.5t89.5 365.5t250 265t356.5 98.5q188 0 341.5 -90t246.5 -246l-64 -31q-84 137 -220.5 216t-303.5 79q-177 0 -319.5 -88.5t-221 -238.5t-78.5 -330t78.5 -330t221 -239
t319.5 -89q161 0 296 74t220 201v311h-510v72zM1096 1565h-92l-168 223l-166 -223h-92l217 278h84z" />
    <glyph glyph-name="gcircumflex" unicode="&#x11d;" horiz-adv-x="1189" 
d="M954 987h72v-969q0 -219 -116.5 -349t-331.5 -130q-137 0 -247 65t-161 158l61 41q50 -78 142 -135t205 -57q187 0 281.5 113.5t94.5 306.5v196q-56 -112 -156.5 -176.5t-234.5 -64.5q-137 0 -243 68.5t-162 183.5t-56 256t56 255.5t162 183t243 68.5q134 0 234.5 -64.5
t156.5 -176.5v227zM563 55q176 0 280.5 125.5t104.5 313.5t-104.5 313t-280.5 125t-280.5 -125t-104.5 -313t104.5 -313.5t280.5 -125.5zM844 1155h-92l-168 223l-166 -223h-92l217 279h84z" />
    <glyph glyph-name="Gbreve" unicode="&#x11e;" horiz-adv-x="1611" 
d="M856 717h582v-393q-93 -156 -246.5 -246t-341.5 -90q-196 0 -356.5 98.5t-250 265t-89.5 365.5t89.5 365.5t250 265t356.5 98.5q188 0 341.5 -90t246.5 -246l-64 -31q-84 137 -220.5 216t-303.5 79q-177 0 -319.5 -88.5t-221 -238.5t-78.5 -330t78.5 -330t221 -239
t319.5 -89q161 0 296 74t220 201v311h-510v72zM987 1800h60q0 -101 -56.5 -165t-152.5 -64q-98 0 -154.5 64t-56.5 165h59q0 -74 43 -122t109 -48q68 0 108.5 47.5t40.5 122.5z" />
    <glyph glyph-name="gbreve" unicode="&#x11f;" horiz-adv-x="1189" 
d="M954 987h72v-969q0 -219 -116.5 -349t-331.5 -130q-137 0 -247 65t-161 158l61 41q50 -78 142 -135t205 -57q187 0 281.5 113.5t94.5 306.5v196q-56 -112 -156.5 -176.5t-234.5 -64.5q-137 0 -243 68.5t-162 183.5t-56 256t56 255.5t162 183t243 68.5q134 0 234.5 -64.5
t156.5 -176.5v227zM563 55q176 0 280.5 125.5t104.5 313.5t-104.5 313t-280.5 125t-280.5 -125t-104.5 -313t104.5 -313.5t280.5 -125.5zM735 1391h60q0 -101 -56.5 -165.5t-152.5 -64.5q-98 0 -154.5 64.5t-56.5 165.5h59q0 -74 43 -122t109 -48q68 0 108.5 47.5
t40.5 122.5z" />
    <glyph glyph-name="Gdotaccent" unicode="&#x120;" horiz-adv-x="1611" 
d="M856 717h582v-393q-93 -156 -246.5 -246t-341.5 -90q-196 0 -356.5 98.5t-250 265t-89.5 365.5t89.5 365.5t250 265t356.5 98.5q188 0 341.5 -90t246.5 -246l-64 -31q-84 137 -220.5 216t-303.5 79q-177 0 -319.5 -88.5t-221 -238.5t-78.5 -330t78.5 -330t221 -239
t319.5 -89q161 0 296 74t220 201v311h-510v72zM836 1753q24 0 40.5 -16.5t16.5 -40.5t-16.5 -41t-40.5 -17q-23 0 -39.5 17.5t-16.5 40.5t16.5 40t39.5 17z" />
    <glyph glyph-name="gdotaccent" unicode="&#x121;" horiz-adv-x="1189" 
d="M954 987h72v-969q0 -219 -116.5 -349t-331.5 -130q-137 0 -247 65t-161 158l61 41q50 -78 142 -135t205 -57q187 0 281.5 113.5t94.5 306.5v196q-56 -112 -156.5 -176.5t-234.5 -64.5q-137 0 -243 68.5t-162 183.5t-56 256t56 255.5t162 183t243 68.5q134 0 234.5 -64.5
t156.5 -176.5v227zM563 55q176 0 280.5 125.5t104.5 313.5t-104.5 313t-280.5 125t-280.5 -125t-104.5 -313t104.5 -313.5t280.5 -125.5zM604 1343q24 0 41 -16.5t17 -40.5t-17 -40.5t-41 -16.5q-23 0 -39 17t-16 40t16 40t39 17z" />
    <glyph glyph-name="Gcommaaccent" unicode="&#x122;" horiz-adv-x="1611" 
d="M774 -158h82l-111 -270h-40zM856 717h582v-393q-93 -156 -246.5 -246t-341.5 -90q-196 0 -356.5 98.5t-250 265t-89.5 365.5t89.5 365.5t250 265t356.5 98.5q188 0 341.5 -90t246.5 -246l-64 -31q-84 137 -220.5 216t-303.5 79q-177 0 -319.5 -88.5t-221 -238.5
t-78.5 -330t78.5 -330t221 -239t319.5 -89q161 0 296 74t220 201v311h-510v72z" />
    <glyph glyph-name="gcommaaccent" unicode="&#x123;" horiz-adv-x="1189" 
d="M954 987h72v-969q0 -219 -116.5 -349t-331.5 -130q-137 0 -247 65t-161 158l61 41q50 -78 142 -135t205 -57q187 0 281.5 113.5t94.5 306.5v196q-56 -112 -156.5 -176.5t-234.5 -64.5q-137 0 -243 68.5t-162 183.5t-56 256t56 255.5t162 183t243 68.5q134 0 234.5 -64.5
t156.5 -176.5v227zM563 55q176 0 280.5 125.5t104.5 313.5t-104.5 313t-280.5 125t-280.5 -125t-104.5 -313t104.5 -313.5t280.5 -125.5zM575 1184l144 344h41l-96 -344h-89z" />
    <glyph glyph-name="Hcircumflex" unicode="&#x124;" horiz-adv-x="1497" 
d="M1221 1434h71v-1434h-71v680h-945v-680h-71v1434h71v-682h945v682zM1008 1565h-93l-167 223l-166 -223h-93l218 278h84z" />
    <glyph glyph-name="hcircumflex" unicode="&#x125;" horiz-adv-x="1107" 
d="M559 1001q182 0 283.5 -118.5t101.5 -321.5v-561h-72v561q0 166 -82.5 268.5t-230.5 102.5q-140 0 -231.5 -109.5t-91.5 -285.5v-537h-72v1434h72v-648q46 98 129 156.5t194 58.5zM854 1567h-92l-168 223l-166 -223h-92l217 278h84z" />
    <glyph glyph-name="Hbar" unicode="&#x126;" horiz-adv-x="1525" 
d="M1444 1137v-70h-137v-1067h-72v682h-946v-682h-70v1067h-137v70h137v297h70v-297h946v297h72v-297h137zM1235 752v315h-946v-315h946z" />
    <glyph glyph-name="hbar" unicode="&#x127;" horiz-adv-x="1130" 
d="M584 1001q181 0 282 -118.5t101 -321.5v-561h-72v561q0 166 -82 268.5t-229 102.5q-141 0 -233.5 -109.5t-92.5 -285.5v-537h-70v1174h-147v69h147v191h70v-191h270v-69h-270v-388q48 98 131.5 156.5t194.5 58.5z" />
    <glyph glyph-name="Itilde" unicode="&#x128;" horiz-adv-x="481" 
d="M205 1434h69v-1434h-69v1434zM485 1729l64 -13q-22 -87 -64 -122t-104 -35q-35 0 -67.5 14.5t-57 35t-48 40.5t-49 34.5t-50.5 14.5q-36 0 -61.5 -22.5t-49.5 -67.5l-57 28q14 24 27 42t35 39t52 32.5t66 11.5q40 0 78 -21.5t63.5 -47t58.5 -47t64 -21.5q40 0 65.5 28.5
t34.5 76.5z" />
    <glyph glyph-name="itilde" unicode="&#x129;" horiz-adv-x="450" 
d="M190 0v987h72v-987h-72zM471 1298l64 -12q-22 -87 -64 -122.5t-104 -35.5q-43 0 -83.5 22t-66.5 48t-59.5 48t-63.5 22q-36 0 -61 -22.5t-49 -67.5l-58 28q14 24 27 42t35 39t52 32.5t66 11.5q40 0 78.5 -21.5t63.5 -47t58.5 -47t64.5 -21.5q40 0 65.5 28t34.5 76z" />
    <glyph glyph-name="Imacron" unicode="&#x12a;" horiz-adv-x="479" 
d="M205 1434h69v-1434h-69v1434zM-16 1778h512v-70h-512v70z" />
    <glyph glyph-name="imacron" unicode="&#x12b;" horiz-adv-x="450" 
d="M188 0v987h72v-987h-72zM-31 1307h512v-70h-512v70z" />
    <glyph glyph-name="Ibreve" unicode="&#x12c;" horiz-adv-x="477" 
d="M203 1434h69v-1434h-69v1434zM389 1800h60q0 -101 -56.5 -165t-152.5 -64q-98 0 -154.5 64t-56.5 165h59q0 -74 43 -122t109 -48q68 0 108.5 47.5t40.5 122.5z" />
    <glyph glyph-name="ibreve" unicode="&#x12d;" horiz-adv-x="450" 
d="M184 0v987h72v-987h-72zM371 1391h59q0 -101 -56.5 -165.5t-152.5 -64.5q-98 0 -154.5 64.5t-56.5 165.5h60q0 -74 42.5 -122t108.5 -48q68 0 109 47.5t41 122.5z" />
    <glyph glyph-name="Iogonek" unicode="&#x12e;" horiz-adv-x="481" 
d="M317 -313v-84q-53 -17 -94 -17q-79 0 -133 50t-47 133q4 51 37 102.5t66 80.5t63 48h-2v1434h72v-1434h-5q-69 -37 -124.5 -109t-49.5 -135q7 -73 76 -93t141 24z" />
    <glyph glyph-name="iogonek" unicode="&#x12f;" horiz-adv-x="450" 
d="M223 1176q-24 0 -40.5 16.5t-16.5 40.5t16.5 40.5t40.5 16.5q23 0 39.5 -17t16.5 -40t-16.5 -40t-39.5 -17zM299 -313v-84q-53 -17 -94 -17q-79 0 -133.5 50t-48.5 133q7 73 61 136t106 95h-4v987h72v-987h-2q-69 -37 -124.5 -109t-49.5 -135q6 -73 75.5 -93t141.5 24z
" />
    <glyph glyph-name="Idotaccent" unicode="&#x130;" horiz-adv-x="481" 
d="M205 1434h69v-1434h-69v1434zM240 1753q24 0 40.5 -16.5t16.5 -40.5t-16.5 -41t-40.5 -17q-23 0 -39.5 17.5t-16.5 40.5t16.5 40t39.5 17z" />
    <glyph glyph-name="dotlessi" unicode="&#x131;" horiz-adv-x="450" 
d="M190 0v987h72v-987h-72z" />
    <glyph glyph-name="Jcircumflex" unicode="&#x134;" horiz-adv-x="909" 
d="M653 1434h72v-1053q0 -183 -87 -289t-251 -106q-115 0 -202.5 42.5t-133.5 108.5l64 41q34 -49 106 -86t158 -37q134 0 204 89t70 239v1051zM948 1565h-92l-168 223l-166 -223h-92l217 278h84z" />
    <glyph glyph-name="jcircumflex" unicode="&#x135;" horiz-adv-x="473" 
d="M215 -182v1169h70v-1169q0 -77 -22 -138t-74 -101t-128 -40q-101 0 -174 62l43 55q57 -45 131 -45t114 54.5t40 152.5zM506 1155h-92l-168 223l-166 -223h-92l217 279h84z" />
    <glyph glyph-name="Kcommaaccent" unicode="&#x136;" horiz-adv-x="1314" 
d="M582 -158h82l-111 -270h-41zM1135 0l-557 784l-302 -333v-451h-71v1434h71v-877l793 877h96l-538 -596l596 -838h-88z" />
    <glyph glyph-name="kcommaaccent" unicode="&#x137;" horiz-adv-x="1028" 
d="M879 0l-392 541l-251 -271v-270h-72v1434h72v-1059l569 612h96l-364 -393l430 -594h-88zM487 -158h82l-110 -270h-41z" />
    <glyph glyph-name="Lacute" unicode="&#x139;" horiz-adv-x="1146" 
d="M276 72h789v-72h-860v1434h71v-1362zM395 1843h88l-202 -278h-43z" />
    <glyph glyph-name="lacute" unicode="&#x13a;" horiz-adv-x="440" 
d="M164 1536h72v-1536h-72v1536zM338 1946h88l-203 -279h-43z" />
    <glyph glyph-name="Lcommaaccent" unicode="&#x13b;" horiz-adv-x="1146" 
d="M602 -158h82l-111 -270h-41zM276 72h789v-72h-860v1434h71v-1362z" />
    <glyph glyph-name="lcommaaccent" unicode="&#x13c;" horiz-adv-x="440" 
d="M164 1536h72v-1536h-72v1536zM152 -158h81l-110 -270h-41z" />
    <glyph glyph-name="Lcaron" unicode="&#x13d;" horiz-adv-x="1146" 
d="M276 72h789v-72h-860v1434h71v-1362zM522 1090l94 344h91l-144 -344h-41z" />
    <glyph glyph-name="lcaron" unicode="&#x13e;" horiz-adv-x="483" 
d="M164 1536h72v-1536h-72v1536zM422 1090l94 344h90l-143 -344h-41z" />
    <glyph glyph-name="Ldot" unicode="&#x13f;" horiz-adv-x="1146" 
d="M662 772q24 0 40.5 -16.5t16.5 -40.5t-16.5 -41t-40.5 -17q-23 0 -39.5 17.5t-16.5 40.5t16.5 40t39.5 17zM276 72h789v-72h-860v1434h71v-1362z" />
    <glyph glyph-name="ldot" unicode="&#x140;" horiz-adv-x="649" 
d="M164 1536h72v-1536h-72v1536zM510 535q24 0 40.5 -17t16.5 -41t-16.5 -40.5t-40.5 -16.5q-23 0 -39 17t-16 40q0 24 16 41t39 17z" />
    <glyph glyph-name="Lslash" unicode="&#x141;" horiz-adv-x="1239" 
d="M367 72h790v-72h-862v532l-254 -174v86l254 174v816h72v-766l518 354v-86l-518 -354v-510z" />
    <glyph glyph-name="lslash" unicode="&#x142;" horiz-adv-x="632" 
d="M612 1008v-86l-239 -164v-758h-72v709l-240 -164v86l240 164v741h72v-692z" />
    <glyph glyph-name="Nacute" unicode="&#x143;" horiz-adv-x="1501" 
d="M1225 1434h71v-1434h-65l-955 1307v-1307h-71v1434h65l955 -1311v1311zM909 1843h88l-202 -278h-43z" />
    <glyph glyph-name="nacute" unicode="&#x144;" horiz-adv-x="1105" 
d="M559 1001q181 0 282 -118.5t101 -321.5v-561h-72v561q0 166 -82 268.5t-229 102.5q-141 0 -233.5 -109.5t-92.5 -285.5v-537h-69v987h69v-201q48 98 131.5 156.5t194.5 58.5zM711 1434h88l-203 -279h-43z" />
    <glyph glyph-name="Ncommaaccent" unicode="&#x145;" horiz-adv-x="1501" 
d="M664 -158h81l-110 -270h-41zM1225 1434h71v-1434h-65l-955 1307v-1307h-71v1434h65l955 -1311v1311z" />
    <glyph glyph-name="ncommaaccent" unicode="&#x146;" horiz-adv-x="1105" 
d="M559 1001q181 0 282 -118.5t101 -321.5v-561h-72v561q0 166 -82 268.5t-229 102.5q-141 0 -233.5 -109.5t-92.5 -285.5v-537h-69v987h69v-201q48 98 131.5 156.5t194.5 58.5zM516 -158h82l-111 -270h-41z" />
    <glyph glyph-name="Ncaron" unicode="&#x147;" horiz-adv-x="1501" 
d="M1225 1434h71v-1434h-65l-955 1307v-1307h-71v1434h65l955 -1311v1311zM944 1843h92l-217 -278h-84l-217 278h92l166 -223z" />
    <glyph glyph-name="ncaron" unicode="&#x148;" horiz-adv-x="1105" 
d="M559 1001q181 0 282 -118.5t101 -321.5v-561h-72v561q0 166 -82 268.5t-229 102.5q-141 0 -233.5 -109.5t-92.5 -285.5v-537h-69v987h69v-201q48 98 131.5 156.5t194.5 58.5zM741 1434h93l-218 -279h-84l-217 279h93l165 -224z" />
    <glyph glyph-name="napostrophe" unicode="&#x149;" horiz-adv-x="1173" 
d="M627 1001q181 0 282 -118.5t101 -321.5v-561h-72v561q0 166 -82 268.5t-229 102.5q-141 0 -233.5 -109.5t-92.5 -285.5v-537h-70v987h70v-201q48 98 131.5 156.5t194.5 58.5zM90 1188h82l-111 -270h-41z" />
    <glyph glyph-name="Eng" unicode="&#x14a;" horiz-adv-x="1501" 
d="M1225 1434h71v-1434v-119q0 -117 -57.5 -197.5t-165.5 -80.5q-97 0 -176 61l45 57q59 -47 131 -47t112 57t40 140v137l-949 1303v-1311h-71v1434h65l955 -1315v1315z" />
    <glyph glyph-name="eng" unicode="&#x14b;" horiz-adv-x="1105" 
d="M559 1001q181 0 282 -118.5t101 -321.5v-680q0 -118 -57 -198t-166 -80q-98 0 -174 61l43 57q59 -47 131 -47t112.5 57t40.5 140v690q0 165 -82.5 267t-230.5 102q-141 0 -232 -108.5t-91 -284.5v-537h-72v987h72v-201q47 98 129.5 156.5t193.5 58.5z" />
    <glyph glyph-name="Omacron" unicode="&#x14c;" horiz-adv-x="1615" 
d="M807 1446q196 0 356.5 -98.5t250 -265.5t89.5 -367q0 -199 -89.5 -365.5t-250 -265t-356.5 -98.5q-195 0 -355 98.5t-249.5 265t-89.5 365.5q0 200 89.5 367t249.5 265.5t355 98.5zM807 55q177 0 319.5 89.5t220.5 240t78 330.5q0 181 -78 331.5t-220.5 239t-319.5 88.5
q-176 0 -318 -88.5t-220.5 -239t-78.5 -331.5q0 -134 46.5 -255.5t127 -210.5t196 -141.5t247.5 -52.5zM553 1778h512v-70h-512v70z" />
    <glyph glyph-name="omacron" unicode="&#x14d;" horiz-adv-x="1163" 
d="M578 1001q207 0 340 -146.5t133 -360.5t-133 -361t-340 -147q-137 0 -247 68.5t-169.5 184t-59.5 255.5t59.5 255.5t169.5 183.5t247 68zM578 55q177 0 286 126.5t109 312.5t-109 312t-286 126q-118 0 -209.5 -59t-140 -158.5t-48.5 -220.5t48.5 -220.5t140 -159
t209.5 -59.5zM322 1368h512v-70h-512v70z" />
    <glyph glyph-name="Obreve" unicode="&#x14e;" horiz-adv-x="1615" 
d="M807 1446q196 0 356.5 -98.5t250 -265.5t89.5 -367q0 -199 -89.5 -365.5t-250 -265t-356.5 -98.5q-195 0 -355 98.5t-249.5 265t-89.5 365.5q0 200 89.5 367t249.5 265.5t355 98.5zM807 55q177 0 319.5 89.5t220.5 240t78 330.5q0 181 -78 331.5t-220.5 239t-319.5 88.5
q-176 0 -318 -88.5t-220.5 -239t-78.5 -331.5q0 -134 46.5 -255.5t127 -210.5t196 -141.5t247.5 -52.5zM958 1800h60q0 -101 -56.5 -165t-152.5 -64q-98 0 -154.5 64t-56.5 165h59q0 -74 43 -122t109 -48q68 0 108.5 47.5t40.5 122.5z" />
    <glyph glyph-name="obreve" unicode="&#x14f;" horiz-adv-x="1163" 
d="M578 1001q207 0 340 -146.5t133 -360.5t-133 -361t-340 -147q-137 0 -247 68.5t-169.5 184t-59.5 255.5t59.5 255.5t169.5 183.5t247 68zM578 55q177 0 286 126.5t109 312.5t-109 312t-286 126q-118 0 -209.5 -59t-140 -158.5t-48.5 -220.5t48.5 -220.5t140 -159
t209.5 -59.5zM727 1391h59q0 -101 -56 -165.5t-152 -64.5q-98 0 -154.5 64.5t-56.5 165.5h59q0 -74 43 -122t109 -48q68 0 108.5 47.5t40.5 122.5z" />
    <glyph glyph-name="Ohungarumlaut" unicode="&#x150;" horiz-adv-x="1615" 
d="M807 1446q196 0 356.5 -98.5t250 -265.5t89.5 -367q0 -199 -89.5 -365.5t-250 -265t-356.5 -98.5q-195 0 -355 98.5t-249.5 265t-89.5 365.5q0 200 89.5 367t249.5 265.5t355 98.5zM807 55q177 0 319.5 89.5t220.5 240t78 330.5q0 181 -78 331.5t-220.5 239t-319.5 88.5
q-176 0 -318 -88.5t-220.5 -239t-78.5 -331.5q0 -134 46.5 -255.5t127 -210.5t196 -141.5t247.5 -52.5zM821 1843h88l-202 -278h-43zM1071 1843h88l-203 -278h-43z" />
    <glyph glyph-name="ohungarumlaut" unicode="&#x151;" horiz-adv-x="1163" 
d="M578 1001q207 0 340 -146.5t133 -360.5t-133 -361t-340 -147q-137 0 -247 68.5t-169.5 184t-59.5 255.5t59.5 255.5t169.5 183.5t247 68zM578 55q177 0 286 126.5t109 312.5t-109 312t-286 126q-118 0 -209.5 -59t-140 -158.5t-48.5 -220.5t48.5 -220.5t140 -159
t209.5 -59.5zM590 1434h88l-203 -279h-43zM840 1434h88l-203 -279h-43z" />
    <glyph glyph-name="OE" unicode="&#x152;" horiz-adv-x="2240" 
d="M1206 72h881v-72h-952v68q-149 -82 -328 -82q-196 0 -356 98.5t-249 265t-89 365.5q0 200 89 367t249 265.5t356 98.5q174 0 328 -82v70h940v-72h-869v-610h805v-70h-805v-610zM807 55q180 0 328 95v1130q-147 94 -328 94q-177 0 -319.5 -88.5t-221 -239t-78.5 -331.5
q0 -180 78.5 -330.5t221 -240t319.5 -89.5z" />
    <glyph glyph-name="oe" unicode="&#x153;" horiz-adv-x="2007" 
d="M1884 494q0 -38 -2 -54h-829q18 -167 125 -276t270 -109q111 0 197 52t139 143l67 -33q-63 -107 -168 -169t-235 -62q-152 0 -267 82t-169 219q-54 -137 -168 -219t-266 -82q-138 0 -248 68.5t-169 184t-59 255.5t59 255.5t169 183.5t248 68q152 0 266 -82t168 -219
q54 137 169 219t267 82q136 0 236.5 -68.5t150 -182.5t49.5 -256zM1448 930q-173 0 -282 -120t-115 -298h755q-2 118 -41 211t-121 150t-196 57zM578 55q176 0 285.5 126.5t109.5 312.5t-109.5 311t-285.5 125q-178 0 -288 -125t-110 -311q0 -121 48.5 -220.5t140 -159
t209.5 -59.5z" />
    <glyph glyph-name="Racute" unicode="&#x154;" horiz-adv-x="1347" 
d="M1214 0h-81l-320 565q-41 -8 -94 -8h-445v-557h-69v1434h514q200 0 333.5 -122t133.5 -317q0 -151 -81.5 -260t-219.5 -153zM719 629q168 0 279.5 99.5t111.5 266.5q0 168 -110 267.5t-281 99.5h-445v-733h445zM786 1843h88l-202 -278h-43z" />
    <glyph glyph-name="racute" unicode="&#x155;" horiz-adv-x="665" 
d="M571 1004q7 0 21.5 -1.5t21.5 -1.5l-12 -71q-10 2 -31 2q-143 0 -239 -109.5t-96 -285.5v-537h-72v987h72v-207q48 101 135 162.5t200 61.5zM547 1434h88l-203 -279h-43z" />
    <glyph glyph-name="Rcommaaccent" unicode="&#x156;" horiz-adv-x="1347" 
d="M1214 0h-81l-320 565q-41 -8 -94 -8h-445v-557h-69v1434h514q200 0 333.5 -122t133.5 -317q0 -151 -81.5 -260t-219.5 -153zM719 629q168 0 279.5 99.5t111.5 266.5q0 168 -110 267.5t-281 99.5h-445v-733h445zM631 -158h82l-111 -270h-41z" />
    <glyph glyph-name="rcommaaccent" unicode="&#x157;" horiz-adv-x="665" 
d="M571 1004q7 0 21.5 -1.5t21.5 -1.5l-12 -71q-10 2 -31 2q-143 0 -239 -109.5t-96 -285.5v-537h-72v987h72v-207q48 101 135 162.5t200 61.5zM147 -158h82l-110 -270h-41z" />
    <glyph glyph-name="Rcaron" unicode="&#x158;" horiz-adv-x="1347" 
d="M1214 0h-81l-320 565q-41 -8 -94 -8h-445v-557h-69v1434h514q200 0 333.5 -122t133.5 -317q0 -151 -81.5 -260t-219.5 -153zM719 629q168 0 279.5 99.5t111.5 266.5q0 168 -110 267.5t-281 99.5h-445v-733h445zM836 1843h92l-217 -278h-84l-217 278h92l166 -223z" />
    <glyph glyph-name="rcaron" unicode="&#x159;" horiz-adv-x="665" 
d="M573 1004q7 0 21.5 -1.5t21.5 -1.5l-12 -71q-10 2 -31 2q-143 0 -239 -109.5t-96 -285.5v-537h-72v987h72v-207q48 101 135 162.5t200 61.5zM559 1434h92l-217 -279h-84l-217 279h92l166 -224z" />
    <glyph glyph-name="Sacute" unicode="&#x15a;" horiz-adv-x="1282" 
d="M604 1448q117 0 220 -35t179 -109t99 -176l-68 -22q-25 123 -140 196.5t-290 73.5t-286 -89.5t-111 -231.5q0 -40 13.5 -74t34 -59t56.5 -47.5t69.5 -37.5t85 -31t90 -25.5t97.5 -22.5q122 -28 211.5 -60t145.5 -66.5t90 -76t46.5 -83.5t12.5 -95q0 -49 -14 -99.5
t-50.5 -104.5t-91 -95t-145 -67.5t-203.5 -26.5q-216 0 -362 92t-191 235l68 23q36 -122 163.5 -200.5t321.5 -78.5q85 0 160.5 19t137 57t98 101.5t36.5 144.5q0 57 -25.5 103.5t-64.5 77t-102.5 56.5t-120 41.5t-137.5 32.5q-256 56 -378 142t-122 225q0 175 132 284
t335 109zM768 1843h88l-203 -278h-43z" />
    <glyph glyph-name="sacute" unicode="&#x15b;" horiz-adv-x="903" 
d="M457 530q43 -12 70.5 -19.5t68 -22t66 -28t54.5 -34.5t46 -44t28 -54.5t11 -67.5q0 -131 -96.5 -203.5t-235.5 -72.5q-147 0 -250 64t-137 163l68 31q26 -79 107.5 -134t211.5 -55q109 0 184.5 53t75.5 154q0 77 -70.5 120t-218.5 81q-55 14 -94.5 27t-83.5 34.5t-73 46
t-50 61t-26 81.5q-14 121 73 207t246 86q125 0 210.5 -61.5t119.5 -162.5l-66 -26q-30 83 -97.5 130.5t-166.5 47.5q-128 0 -193 -61.5t-55 -151.5q3 -30 19.5 -56t40.5 -45t60 -35.5t71.5 -28.5t81.5 -24zM580 1434h88l-203 -279h-43z" />
    <glyph glyph-name="Scircumflex" unicode="&#x15c;" horiz-adv-x="1282" 
d="M604 1448q117 0 220 -35t179 -109t99 -176l-68 -22q-25 123 -140 196.5t-290 73.5t-286 -89.5t-111 -231.5q0 -40 13.5 -74t34 -59t56.5 -47.5t69.5 -37.5t85 -31t90 -25.5t97.5 -22.5q122 -28 211.5 -60t145.5 -66.5t90 -76t46.5 -83.5t12.5 -95q0 -49 -14 -99.5
t-50.5 -104.5t-91 -95t-145 -67.5t-203.5 -26.5q-216 0 -362 92t-191 235l68 23q36 -122 163.5 -200.5t321.5 -78.5q85 0 160.5 19t137 57t98 101.5t36.5 144.5q0 57 -25.5 103.5t-64.5 77t-102.5 56.5t-120 41.5t-137.5 32.5q-256 56 -378 142t-122 225q0 175 132 284
t335 109zM911 1565h-92l-168 223l-166 -223h-92l217 278h84z" />
    <glyph glyph-name="scircumflex" unicode="&#x15d;" horiz-adv-x="903" 
d="M457 530q43 -12 70.5 -19.5t68 -22t66 -28t54.5 -34.5t46 -44t28 -54.5t11 -67.5q0 -131 -96.5 -203.5t-235.5 -72.5q-147 0 -250 64t-137 163l68 31q26 -79 107.5 -134t211.5 -55q109 0 184.5 53t75.5 154q0 77 -70.5 120t-218.5 81q-55 14 -94.5 27t-83.5 34.5t-73 46
t-50 61t-26 81.5q-14 121 73 207t246 86q125 0 210.5 -61.5t119.5 -162.5l-66 -26q-30 83 -97.5 130.5t-166.5 47.5q-128 0 -193 -61.5t-55 -151.5q3 -30 19.5 -56t40.5 -45t60 -35.5t71.5 -28.5t81.5 -24zM721 1155h-92l-168 223l-166 -223h-92l217 279h84z" />
    <glyph glyph-name="Scedilla" unicode="&#x15e;" horiz-adv-x="1284" 
d="M1161 377q0 -49 -13.5 -98.5t-49 -103t-89 -94.5t-141.5 -68t-198 -29l-49 -97q89 10 135.5 -32.5t46.5 -108.5q0 -43 -21.5 -81t-58.5 -60q-57 -32 -126 -25.5t-138 49.5l26 45q67 -46 142.5 -43.5t109.5 56.5q31 47 12.5 96.5t-69.5 60.5q-17 6 -47 3t-49 -15l-33 25
l63 129q-199 9 -334 99t-178 226l68 23q37 -122 164.5 -200.5t320.5 -78.5q67 0 129.5 11.5t118.5 37t97 62.5t65.5 91.5t24.5 119.5q0 57 -26 103.5t-65 77t-103 56.5t-121 41.5t-138 32.5q-255 56 -377.5 142t-122.5 225q0 175 132.5 284t334.5 109q118 0 221.5 -35
t179 -109t97.5 -176l-68 -22q-25 124 -139.5 197t-290.5 73t-285.5 -88.5t-109.5 -232.5q0 -40 13.5 -74t33.5 -58.5t56.5 -47.5t68.5 -37.5t85 -30.5t89.5 -25.5t97.5 -23.5q153 -35 254.5 -75.5t156 -89t76 -99.5t21.5 -117z" />
    <glyph glyph-name="scedilla" unicode="&#x15f;" horiz-adv-x="903" 
d="M801 260q0 -127 -90.5 -199t-223.5 -77l-47 -97q89 10 136 -32.5t47 -108.5q0 -43 -22 -81t-60 -60q-57 -32 -125.5 -25.5t-136.5 49.5l24 45q67 -46 142.5 -43.5t109.5 56.5q30 47 12.5 96.5t-67.5 60.5q-19 6 -49.5 3t-49.5 -15l-32 25l63 127q-132 9 -225 71.5
t-125 155.5l68 31q26 -79 107.5 -134t211.5 -55q109 0 184.5 53t75.5 154q0 40 -19.5 71t-61 54.5t-89.5 40t-121 35.5q-54 14 -93.5 27t-83.5 34.5t-72.5 46t-49.5 61t-26 81.5q-14 121 73 207t246 86q115 0 206 -63t124 -161l-66 -26q-30 81 -100.5 129.5t-163.5 48.5
q-128 0 -193.5 -62t-54.5 -151q4 -38 26.5 -68t62 -52t82.5 -38t102 -31q43 -12 70.5 -19.5t68 -22t66 -28t54.5 -34.5t46 -44t28 -54.5t11 -67.5z" />
    <glyph glyph-name="Scaron" unicode="&#x160;" horiz-adv-x="1282" 
d="M604 1448q117 0 220 -35t179 -109t99 -176l-68 -22q-25 123 -140 196.5t-290 73.5t-286 -89.5t-111 -231.5q0 -40 13.5 -74t34 -59t56.5 -47.5t69.5 -37.5t85 -31t90 -25.5t97.5 -22.5q122 -28 211.5 -60t145.5 -66.5t90 -76t46.5 -83.5t12.5 -95q0 -49 -14 -99.5
t-50.5 -104.5t-91 -95t-145 -67.5t-203.5 -26.5q-216 0 -362 92t-191 235l68 23q36 -122 163.5 -200.5t321.5 -78.5q85 0 160.5 19t137 57t98 101.5t36.5 144.5q0 57 -25.5 103.5t-64.5 77t-102.5 56.5t-120 41.5t-137.5 32.5q-256 56 -378 142t-122 225q0 175 132 284
t335 109zM819 1843h92l-217 -278h-84l-217 278h92l166 -223z" />
    <glyph glyph-name="scaron" unicode="&#x161;" horiz-adv-x="903" 
d="M457 530q43 -12 70.5 -19.5t68 -22t66 -28t54.5 -34.5t46 -44t28 -54.5t11 -67.5q0 -131 -96.5 -203.5t-235.5 -72.5q-147 0 -250 64t-137 163l68 31q26 -79 107.5 -134t211.5 -55q109 0 184.5 53t75.5 154q0 77 -70.5 120t-218.5 81q-55 14 -94.5 27t-83.5 34.5t-73 46
t-50 61t-26 81.5q-14 121 73 207t246 86q125 0 210.5 -61.5t119.5 -162.5l-66 -26q-30 83 -97.5 130.5t-166.5 47.5q-128 0 -193 -61.5t-55 -151.5q3 -30 19.5 -56t40.5 -45t60 -35.5t71.5 -28.5t81.5 -24zM629 1434h92l-217 -279h-84l-217 279h92l166 -224z" />
    <glyph glyph-name="Tcommaaccent" unicode="&#x162;" horiz-adv-x="1097" 
d="M1077 1434v-72h-483v-1362h-70v1362h-483v72h1036zM510 -158h82l-111 -270h-41z" />
    <glyph glyph-name="tcommaaccent" unicode="&#x163;" horiz-adv-x="630" 
d="M557 102l35 -61q-74 -55 -180 -55q-117 0 -168 72.5t-51 211.5v645h-152v72h152v268l71 21v-289h246v-72h-246v-657q0 -92 35.5 -146.5t112.5 -54.5q80 0 145 45zM319 -158h82l-110 -270h-41z" />
    <glyph glyph-name="Tcaron" unicode="&#x164;" horiz-adv-x="1097" 
d="M1077 1434v-72h-483v-1362h-70v1362h-483v72h1036zM727 1843h92l-217 -278h-84l-217 278h92l166 -223z" />
    <glyph glyph-name="tcaron" unicode="&#x165;" horiz-adv-x="659" 
d="M557 102l35 -61q-74 -55 -180 -55q-117 0 -168 72.5t-51 211.5v645h-152v72h152v268l71 21v-289h246v-72h-246v-657q0 -92 35.5 -146.5t112.5 -54.5q80 0 145 45zM598 1081l94 344h90l-143 -344h-41z" />
    <glyph glyph-name="Tbar" unicode="&#x166;" horiz-adv-x="1099" 
d="M1079 1362h-483v-539h365v-71h-365v-752h-72v752h-364v71h364v539h-483v72h1038v-72z" />
    <glyph glyph-name="tbar" unicode="&#x167;" horiz-adv-x="628" 
d="M559 104l33 -61q-73 -57 -180 -57q-116 0 -167.5 72.5t-51.5 209.5v279h-99v71h99v297h-152v72h152v266l71 21v-287h246v-72h-246v-297h193v-71h-193v-291q0 -90 36 -144.5t112 -54.5q79 0 147 47z" />
    <glyph glyph-name="Utilde" unicode="&#x168;" horiz-adv-x="1464" 
d="M1188 1434h72v-856q0 -273 -140 -432.5t-389 -159.5t-387.5 157.5t-138.5 434.5v856h71v-856q0 -246 120.5 -384.5t334.5 -138.5t335.5 138.5t121.5 384.5v856zM997 1729l64 -13q-22 -87 -64 -122t-104 -35q-35 0 -67.5 14.5t-57 35t-48 40.5t-49 34.5t-50.5 14.5
q-36 0 -61.5 -22.5t-49.5 -67.5l-57 28q14 24 27 42t35 39t52 32.5t66 11.5q40 0 78 -21.5t63.5 -47t58.5 -47t64 -21.5q40 0 65.5 28.5t34.5 76.5z" />
    <glyph glyph-name="utilde" unicode="&#x169;" horiz-adv-x="1087" 
d="M852 987h72v-987h-72v186q-52 -92 -135 -146t-191 -54q-181 0 -282 119.5t-101 322.5v559h72v-559q0 -166 82 -268.5t229 -102.5q140 0 233 106t93 267v557zM799 1319l63 -12q-22 -87 -64 -122.5t-104 -35.5q-35 0 -67.5 14.5t-57 35t-48 40.5t-49 34.5t-50.5 14.5
q-36 0 -61.5 -22.5t-49.5 -67.5l-57 29q14 24 27 42t35 39t52 32.5t66 11.5q40 0 78 -21.5t63.5 -47.5t58.5 -47.5t64 -21.5q40 0 66 28.5t35 76.5z" />
    <glyph glyph-name="Umacron" unicode="&#x16a;" horiz-adv-x="1464" 
d="M1188 1434h72v-856q0 -273 -140 -432.5t-389 -159.5t-387.5 157.5t-138.5 434.5v856h71v-856q0 -246 120.5 -384.5t334.5 -138.5t335.5 138.5t121.5 384.5v856zM477 1778h512v-70h-512v70z" />
    <glyph glyph-name="umacron" unicode="&#x16b;" horiz-adv-x="1087" 
d="M852 987h72v-987h-72v186q-52 -92 -135 -146t-191 -54q-181 0 -282 119.5t-101 322.5v559h72v-559q0 -166 82 -268.5t229 -102.5q140 0 233 106t93 267v557zM299 1368h512v-70h-512v70z" />
    <glyph glyph-name="Ubreve" unicode="&#x16c;" horiz-adv-x="1464" 
d="M1188 1434h72v-856q0 -273 -140 -432.5t-389 -159.5t-387.5 157.5t-138.5 434.5v856h71v-856q0 -246 120.5 -384.5t334.5 -138.5t335.5 138.5t121.5 384.5v856zM883 1800h59q0 -101 -56.5 -165t-152.5 -64q-98 0 -154.5 64t-56.5 165h60q0 -74 42.5 -122t108.5 -48
q68 0 109 47.5t41 122.5z" />
    <glyph glyph-name="ubreve" unicode="&#x16d;" horiz-adv-x="1087" 
d="M852 987h72v-987h-72v186q-52 -92 -135 -146t-191 -54q-181 0 -282 119.5t-101 322.5v559h72v-559q0 -166 82 -268.5t229 -102.5q140 0 233 106t93 267v557zM705 1391h59q0 -101 -56.5 -165.5t-152.5 -64.5q-98 0 -154.5 64.5t-56.5 165.5h59q0 -74 43 -122t109 -48
q68 0 109 47.5t41 122.5z" />
    <glyph glyph-name="Uring" unicode="&#x16e;" horiz-adv-x="1464" 
d="M1188 1434h72v-856q0 -273 -140 -432.5t-389 -159.5t-387.5 157.5t-138.5 434.5v856h71v-856q0 -246 120.5 -384.5t334.5 -138.5t335.5 138.5t121.5 384.5v856zM733 1911q78 0 132.5 -55t54.5 -132t-54.5 -131.5t-132.5 -54.5q-77 0 -131.5 55t-54.5 131q0 77 55 132
t131 55zM733 1597q54 0 91.5 37t37.5 90t-37.5 90t-91.5 37q-53 0 -90 -37.5t-37 -89.5t37 -89.5t90 -37.5z" />
    <glyph glyph-name="uring" unicode="&#x16f;" horiz-adv-x="1087" 
d="M852 987h72v-987h-72v186q-52 -92 -135 -146t-191 -54q-181 0 -282 119.5t-101 322.5v559h72v-559q0 -166 82 -268.5t229 -102.5q140 0 233 106t93 267v557zM555 1501q78 0 132 -54.5t54 -131.5t-54 -132t-132 -55q-76 0 -131 55t-55 132t54.5 131.5t131.5 54.5z
M555 1188q54 0 91.5 37t37.5 90t-37.5 90t-91.5 37q-53 0 -90 -37t-37 -90t37 -90t90 -37z" />
    <glyph glyph-name="Uhungarumlaut" unicode="&#x170;" horiz-adv-x="1464" 
d="M1188 1434h72v-856q0 -273 -140 -432.5t-389 -159.5t-387.5 157.5t-138.5 434.5v856h71v-856q0 -246 120.5 -384.5t334.5 -138.5t335.5 138.5t121.5 384.5v856zM725 1843h88l-203 -278h-43zM975 1843h88l-203 -278h-43z" />
    <glyph glyph-name="uhungarumlaut" unicode="&#x171;" horiz-adv-x="1087" 
d="M852 987h72v-987h-72v186q-52 -92 -135 -146t-191 -54q-181 0 -282 119.5t-101 322.5v559h72v-559q0 -166 82 -268.5t229 -102.5q140 0 233 106t93 267v557zM526 1434h88l-202 -279h-43zM776 1434h88l-202 -279h-44z" />
    <glyph glyph-name="Uogonek" unicode="&#x172;" horiz-adv-x="1464" 
d="M1190 1434h70v-856q0 -181 -62 -315t-180 -204q-104 -64 -170 -150t-60 -153q7 -73 77.5 -93t140.5 24v-84q-53 -17 -95 -17q-79 0 -133 50t-47 133q4 59 43 120t98 111q-60 -14 -139 -14q-250 0 -389 157.5t-139 434.5v856h71v-856q0 -245 121.5 -383t335.5 -138
t335.5 138t121.5 383v856z" />
    <glyph glyph-name="uogonek" unicode="&#x173;" horiz-adv-x="1087" 
d="M965 -313v-84q-56 -17 -97 -17q-78 0 -132.5 50.5t-47.5 132.5q7 73 61.5 136.5t106.5 94.5h-4v186q-52 -92 -135 -146t-189 -54q-181 0 -283 119.5t-102 322.5v559h72v-559q0 -166 82.5 -268.5t230.5 -102.5q140 0 232 105.5t92 267.5v557h72v-987h-2
q-70 -37 -125.5 -109t-48.5 -135q6 -73 75.5 -93t141.5 24z" />
    <glyph glyph-name="Wcircumflex" unicode="&#x174;" horiz-adv-x="2111" 
d="M1944 1434h75l-467 -1434h-73l-424 1319l-426 -1319h-72l-465 1434h76l428 -1317l424 1317h72l424 -1317zM1315 1565h-92l-168 223l-166 -223h-92l217 278h84z" />
    <glyph glyph-name="wcircumflex" unicode="&#x175;" horiz-adv-x="1454" 
d="M1337 987h76l-319 -987h-70l-287 872l-288 -872h-70l-318 987h74l283 -870l287 870h63l287 -870zM997 1155h-92l-168 223l-166 -223h-92l217 279h84z" />
    <glyph glyph-name="Ycircumflex" unicode="&#x176;" horiz-adv-x="1226" 
d="M1186 1434l-537 -957v-477h-69v475l-539 959h82l491 -875l490 875h82zM872 1565h-92l-168 223l-166 -223h-92l217 278h84z" />
    <glyph glyph-name="ycircumflex" unicode="&#x177;" horiz-adv-x="911" 
d="M791 987h75l-372 -987q-49 -132 -80 -197t-74 -114q-23 -27 -46 -45.5t-49 -26.5t-44 -13t-47 -2.5t-40.5 4.5t-41.5 7l12 70q38 -8 67.5 -7.5t54.5 6.5t47.5 24.5t41.5 41.5t39.5 62.5t39.5 82.5t44 107l-373 987h76l336 -887zM735 1155h-92l-168 223l-166 -223h-92
l217 279h84z" />
    <glyph glyph-name="Ydieresis" unicode="&#x178;" horiz-adv-x="1226" 
d="M1186 1434l-537 -957v-477h-69v475l-539 959h82l491 -875l490 875h82zM752 1753q23 0 40 -17t17 -40t-17 -40.5t-40 -17.5t-40.5 17.5t-17.5 40.5t17.5 40t40.5 17zM477 1753q23 0 40.5 -17t17.5 -40t-17.5 -40.5t-40.5 -17.5t-40 17.5t-17 40.5t17 40t40 17z" />
    <glyph glyph-name="Zacute" unicode="&#x179;" horiz-adv-x="1378" 
d="M233 72h1002v-72h-1092v72l985 1290h-923v72h1014v-72zM848 1843h88l-203 -278h-43z" />
    <glyph glyph-name="zacute" unicode="&#x17a;" horiz-adv-x="966" 
d="M193 72h671v-72h-762v72l654 843h-627v72h717v-72zM621 1434h88l-203 -279h-43z" />
    <glyph glyph-name="Zdotaccent" unicode="&#x17b;" horiz-adv-x="1378" 
d="M233 72h1002v-72h-1092v72l985 1290h-923v72h1014v-72zM729 1753q24 0 40.5 -16.5t16.5 -40.5t-16.5 -41t-40.5 -17q-23 0 -39 17t-16 41q0 23 16 40t39 17z" />
    <glyph glyph-name="zdotaccent" unicode="&#x17c;" horiz-adv-x="966" 
d="M193 72h671v-72h-762v72l654 843h-627v72h717v-72zM504 1343q24 0 40.5 -16.5t16.5 -40.5t-16.5 -40.5t-40.5 -16.5q-23 0 -39 17t-16 40t16 40t39 17z" />
    <glyph glyph-name="Zcaron" unicode="&#x17d;" horiz-adv-x="1378" 
d="M233 72h1002v-72h-1092v72l985 1290h-923v72h1014v-72zM918 1843h92l-217 -278h-84l-217 278h92l166 -223z" />
    <glyph glyph-name="zcaron" unicode="&#x17e;" horiz-adv-x="966" 
d="M193 72h671v-72h-762v72l654 843h-627v72h717v-72zM672 1434h92l-217 -279h-84l-217 279h92l166 -224z" />
    <glyph glyph-name="AEacute" unicode="&#x1fc;" horiz-adv-x="2107" 
d="M1073 72h883v-72h-952v459h-623l-240 -459h-80l752 1434h1131v-72h-871v-610h807v-70h-807v-610zM420 528h584v834h-148zM1167 1843h88l-202 -278h-43z" />
    <glyph glyph-name="aeacute" unicode="&#x1fd;" horiz-adv-x="1837" 
d="M1714 494q0 -38 -2 -54h-829q18 -167 125 -276t270 -109q111 0 197 52t139 143l65 -33q-62 -107 -166 -169t-235 -62q-152 0 -267 82t-169 219q-10 -32 -39 -84q-22 -35 -57 -70t-86 -69.5t-122.5 -56t-150.5 -21.5q-54 0 -104.5 12t-97 38t-75 75.5t-28.5 115.5
q0 57 20 103t52.5 77.5t82 57t99 41t113.5 29.5q28 7 70 15.5t71 15t65 15.5t59.5 18.5t44.5 22t31.5 28.5t10.5 36q0 107 -70 175.5t-209 68.5q-132 0 -216 -62t-109 -161l-70 16q14 51 40 95.5t70.5 88t118 69t166.5 25.5q52 0 102 -12t100.5 -39t87.5 -78.5t52 -121.5
q60 117 168 184t246 67q136 0 236.5 -68.5t150 -182.5t49.5 -256zM1278 930q-173 0 -282 -120t-115 -298h755q-5 183 -97 300.5t-261 117.5zM803 412v131q-34 -7 -148.5 -34t-191.5 -42q-168 -35 -236.5 -90t-68.5 -150q0 -84 67.5 -128t171.5 -44q168 0 287 105t119 252z
M1038 1434h88l-202 -279h-43z" />
    <glyph glyph-name="Oslashacute" unicode="&#x1fe;" horiz-adv-x="1615" 
d="M1313 1223q91 -99 140.5 -230t49.5 -278q0 -199 -89.5 -365.5t-249.5 -265t-355 -98.5q-264 0 -457 172l-166 -183l-51 50l166 184q-90 99 -139 229.5t-49 276.5q0 200 89.5 367t250 265.5t356.5 98.5q259 0 455 -172l166 182l53 -47zM190 715q0 -129 42 -245.5
t118 -205.5l864 955q-168 155 -405 155q-177 0 -319.5 -88.5t-221 -239t-78.5 -331.5zM809 55q176 0 318.5 89.5t221 240t78.5 330.5q0 264 -163 454l-865 -956q171 -158 410 -158zM932 1843h88l-203 -278h-43z" />
    <glyph glyph-name="oslashacute" unicode="&#x1ff;" horiz-adv-x="1163" 
d="M932 836q117 -142 117 -342q0 -140 -59 -255.5t-168.5 -184t-246.5 -68.5q-180 0 -307 114l-112 -125l-54 50l117 127q-117 139 -117 342q0 214 133 360.5t340 146.5q181 0 308 -114l112 123l52 -47zM178 494q0 -167 90 -287l566 627q-104 96 -259 96q-178 0 -287.5 -125
t-109.5 -311zM575 55q177 0 286.5 126.5t109.5 312.5q0 166 -88 286l-568 -626q110 -99 260 -99zM729 1434h88l-203 -279h-43z" />
    <glyph glyph-name="Scommaaccent" unicode="&#x218;" horiz-adv-x="1282" 
d="M604 1448q117 0 220 -35t179 -109t99 -176l-68 -22q-25 123 -140 196.5t-290 73.5t-286 -89.5t-111 -231.5q0 -40 13.5 -74t34 -59t56.5 -47.5t69.5 -37.5t85 -31t90 -25.5t97.5 -22.5q122 -28 211.5 -60t145.5 -66.5t90 -76t46.5 -83.5t12.5 -95q0 -49 -14 -99.5
t-50.5 -104.5t-91 -95t-145 -67.5t-203.5 -26.5q-216 0 -362 92t-191 235l68 23q36 -122 163.5 -200.5t321.5 -78.5q85 0 160.5 19t137 57t98 101.5t36.5 144.5q0 57 -25.5 103.5t-64.5 77t-102.5 56.5t-120 41.5t-137.5 32.5q-256 56 -378 142t-122 225q0 175 132 284
t335 109zM549 -158h82l-111 -270h-41z" />
    <glyph glyph-name="scommaaccent" unicode="&#x219;" horiz-adv-x="903" 
d="M457 530q43 -12 70.5 -19.5t68 -22t66 -28t54.5 -34.5t46 -44t28 -54.5t11 -67.5q0 -131 -96.5 -203.5t-235.5 -72.5q-147 0 -250 64t-137 163l68 31q26 -79 107.5 -134t211.5 -55q109 0 184.5 53t75.5 154q0 77 -70.5 120t-218.5 81q-55 14 -94.5 27t-83.5 34.5t-73 46
t-50 61t-26 81.5q-14 121 73 207t246 86q125 0 210.5 -61.5t119.5 -162.5l-66 -26q-30 83 -97.5 130.5t-166.5 47.5q-128 0 -193 -61.5t-55 -151.5q3 -30 19.5 -56t40.5 -45t60 -35.5t71.5 -28.5t81.5 -24zM383 -158h82l-111 -270h-41z" />
    <glyph glyph-name="uni021A" unicode="&#x21a;" horiz-adv-x="1097" 
d="M1077 1434v-72h-483v-1362h-70v1362h-483v72h1036zM510 -158h82l-111 -270h-41z" />
    <glyph glyph-name="uni021B" unicode="&#x21b;" horiz-adv-x="630" 
d="M557 102l35 -61q-74 -55 -180 -55q-117 0 -168 72.5t-51 211.5v645h-152v72h152v268l71 21v-289h246v-72h-246v-657q0 -92 35.5 -146.5t112.5 -54.5q80 0 145 45zM299 -158h82l-111 -270h-41z" />
    <glyph glyph-name="circumflex" unicode="&#x2c6;" horiz-adv-x="825" 
d="M672 1155h-92l-168 223l-166 -223h-92l217 279h84z" />
    <glyph glyph-name="caron" unicode="&#x2c7;" horiz-adv-x="825" 
d="M580 1434h92l-217 -279h-84l-217 279h92l166 -224z" />
    <glyph glyph-name="breve" unicode="&#x2d8;" horiz-adv-x="727" 
d="M514 1391h59q0 -101 -56 -165.5t-152 -64.5q-98 0 -154.5 64.5t-56.5 165.5h59q0 -74 43 -122t109 -48q68 0 108.5 47.5t40.5 122.5z" />
    <glyph glyph-name="dotaccent" unicode="&#x2d9;" horiz-adv-x="419" 
d="M209 1343q24 0 40.5 -16.5t16.5 -40.5t-16.5 -40.5t-40.5 -16.5q-23 0 -39 17t-16 40t16 40t39 17z" />
    <glyph glyph-name="ring" unicode="&#x2da;" horiz-adv-x="679" 
d="M340 1501q78 0 132 -54.5t54 -131.5t-54 -132t-132 -55q-76 0 -131 55t-55 132t55 131.5t131 54.5zM340 1188q54 0 91.5 37t37.5 90t-37.5 90t-91.5 37q-52 0 -89.5 -37t-37.5 -90t37.5 -90t89.5 -37z" />
    <glyph glyph-name="ogonek" unicode="&#x2db;" horiz-adv-x="583" 
d="M430 -313v-84q-53 -17 -94 -17q-79 0 -133 50t-47 133q4 51 37 102.5t66 80.5t63 48h65q-69 -37 -124.5 -109t-49.5 -135q7 -73 76 -93t141 24z" />
    <glyph glyph-name="tilde" unicode="&#x2dc;" horiz-adv-x="915" 
d="M698 1319l64 -12q-22 -87 -64 -122.5t-104 -35.5q-35 0 -67.5 14.5t-57 35t-48 40.5t-49 34.5t-50.5 14.5q-36 0 -61.5 -22.5t-49.5 -67.5l-57 29q14 24 27 42t35 39t52 32.5t66 11.5q40 0 78 -21.5t63.5 -47.5t58.5 -47.5t64 -21.5q40 0 65.5 28.5t34.5 76.5z" />
    <glyph glyph-name="hungarumlaut" unicode="&#x2dd;" horiz-adv-x="802" 
d="M311 1434h88l-202 -279h-43zM561 1434h88l-203 -279h-43z" />
    <glyph glyph-name="uni0401" unicode="&#x401;" horiz-adv-x="1308" 
d="M461 1661q-23 0 -39 17t-16 40q0 24 16 41t39 17q24 0 40.5 -17t16.5 -41t-16.5 -40.5t-40.5 -16.5zM866 1661q-23 0 -40 17t-17 40t17 40.5t40 17.5t40.5 -17.5t17.5 -40.5t-17.5 -40t-40.5 -17zM274 72h883v-72h-952v1434h940v-72h-871v-610h807v-70h-807v-610z" />
    <glyph glyph-name="uni0402" unicode="&#x402;" horiz-adv-x="1486" 
d="M938 938q182 0 283.5 -116.5t101.5 -319.5v-240q0 -118 -57 -198t-166 -80q-98 0 -174 61l43 57q59 -47 131 -47t112.5 57t40.5 138v252q0 164 -83.5 264t-231.5 100q-104 0 -200.5 -47t-141.5 -98v-721h-72v1362h-483v72h1038v-72h-483v-555q50 48 148.5 89.5
t193.5 41.5z" />
    <glyph glyph-name="uni0403" unicode="&#x403;" horiz-adv-x="1054" 
d="M973 1434v-70h-697v-1364h-71v1434h768zM725 1843h88l-203 -278h-43z" />
    <glyph glyph-name="uni0404" unicode="&#x404;" horiz-adv-x="1550" 
d="M827 57q168 0 305.5 79t221.5 216l63 -30q-93 -156 -247.5 -246t-342.5 -90q-195 0 -355 98.5t-249.5 265t-89.5 365.5t89.5 365.5t249.5 265t355 98.5q188 0 342.5 -90t247.5 -246l-63 -31q-84 137 -221.5 216t-305.5 79q-170 0 -308.5 -82.5t-218.5 -223.5t-89 -312
h790v-72h-790q7 -173 86.5 -315.5t219 -226t310.5 -83.5z" />
    <glyph glyph-name="uni0405" unicode="&#x405;" horiz-adv-x="1282" 
d="M604 1448q117 0 220 -35t179 -109t99 -176l-68 -22q-25 123 -140 196.5t-290 73.5t-286 -89.5t-111 -231.5q0 -40 13.5 -74t34 -59t56.5 -47.5t69.5 -37.5t85 -31t90 -25.5t97.5 -22.5q122 -28 211.5 -60t145.5 -66.5t90 -76t46.5 -83.5t12.5 -95q0 -49 -14 -99.5
t-50.5 -104.5t-91 -95t-145 -67.5t-203.5 -26.5q-216 0 -362 92t-191 235l68 23q36 -122 163.5 -200.5t321.5 -78.5q85 0 160.5 19t137 57t98 101.5t36.5 144.5q0 57 -25.5 103.5t-64.5 77t-102.5 56.5t-120 41.5t-137.5 32.5q-256 56 -378 142t-122 225q0 175 132 284
t335 109z" />
    <glyph glyph-name="uni0406" unicode="&#x406;" horiz-adv-x="479" 
d="M205 1434h69v-1434h-69v1434z" />
    <glyph glyph-name="uni0407" unicode="&#x407;" horiz-adv-x="481" 
d="M201 1434h69v-1434h-69v1434zM373 1753q23 0 40 -17t17 -40t-17 -40.5t-40 -17.5t-40.5 17.5t-17.5 40.5t17.5 40t40.5 17zM98 1753q23 0 40.5 -17t17.5 -40t-17.5 -40.5t-40.5 -17.5t-40 17.5t-17 40.5t17 40t40 17z" />
    <glyph glyph-name="uni0408" unicode="&#x408;" horiz-adv-x="909" 
d="M653 1434h72v-1053q0 -183 -87 -289t-251 -106q-115 0 -202.5 42.5t-133.5 108.5l64 41q34 -49 106 -86t158 -37q134 0 204 89t70 239v1051z" />
    <glyph glyph-name="uni0409" unicode="&#x409;" horiz-adv-x="2220" 
d="M1620 877q203 0 335 -121.5t132 -317.5q0 -128 -62 -229t-168 -155t-237 -54h-514v1362h-684q0 -141 -1.5 -246t-6.5 -236t-14.5 -227.5t-26.5 -200.5t-40 -177.5t-57.5 -135.5t-78.5 -96q-86 -67 -197 -43l16 70q78 -19 136 28q45 36 79.5 108t55.5 179t34.5 214.5
t19 259t7.5 266t2 278.5v31h826v-557h444zM1620 72q170 0 280.5 99.5t110.5 266.5q0 168 -112 268.5t-279 100.5h-444v-735h444z" />
    <glyph glyph-name="uni040A" unicode="&#x40a;" horiz-adv-x="2324" 
d="M1722 754q213 0 341 -93t128 -282q0 -127 -63.5 -214t-167 -126t-238.5 -39h-501v682h-945v-682h-71v1434h71v-680h945v680h71v-680h430zM1722 72q87 0 156 16.5t123 51.5t83.5 95.5t29.5 143.5q0 67 -20 119.5t-55 86.5t-85.5 56t-107 31.5t-124.5 9.5h-430v-610h430z
" />
    <glyph glyph-name="uni040B" unicode="&#x40b;" horiz-adv-x="1488" 
d="M940 938q182 0 283.5 -116.5t101.5 -319.5v-502h-70v502q0 164 -83.5 264t-231.5 100q-106 0 -205.5 -49t-140.5 -100v-717h-72v1362h-481v72h1036v-72h-483v-557q50 48 149.5 90.5t196.5 42.5z" />
    <glyph glyph-name="uni040C" unicode="&#x40c;" horiz-adv-x="1314" 
d="M1135 0l-557 784l-302 -333v-451h-71v1434h71v-877l793 877h96l-538 -596l596 -838h-88zM786 1843h88l-202 -278h-43z" />
    <glyph glyph-name="uni040E" unicode="&#x40e;" horiz-adv-x="1165" 
d="M1165 1434l-463 -1074q-26 -59 -42 -92t-51 -89t-70 -91q-52 -52 -113.5 -77.5t-114 -23t-102.5 16.5l22 68q114 -35 205.5 25t169.5 222l-565 1115h80l522 -1031l444 1031h78zM778 1800h60q0 -101 -56.5 -165t-152.5 -64q-98 0 -154.5 64t-56.5 165h59q0 -74 43 -122
t109 -48q68 0 108.5 47.5t40.5 122.5z" />
    <glyph glyph-name="uni040F" unicode="&#x40f;" horiz-adv-x="1431" 
d="M1157 1434h70v-1434h-475v-260h-72v260h-475v1434h71v-1362h881v1362z" />
    <glyph glyph-name="uni0410" unicode="&#x410;" horiz-adv-x="1335" 
d="M1178 0l-177 455h-667l-176 -455h-76l553 1434h65l553 -1434h-75zM360 524h615l-307 795z" />
    <glyph glyph-name="uni0411" unicode="&#x411;" horiz-adv-x="1316" 
d="M752 799q122 0 218 -44t155 -136.5t59 -221.5q0 -98 -34.5 -175t-94.5 -124.5t-137 -72.5t-166 -25h-547v1434h835v-70h-766v-565h478zM752 72q72 0 134 19.5t112 57.5t79 102t29 146q0 161 -100 245.5t-254 84.5h-478v-655h478z" />
    <glyph glyph-name="uni0412" unicode="&#x412;" horiz-adv-x="1337" 
d="M893 770q133 -32 212 -127t79 -248q0 -97 -34.5 -173.5t-94.5 -124t-137 -72.5t-166 -25h-547v1434h512q172 0 279.5 -97.5t107.5 -257.5q0 -111 -56.5 -191t-154.5 -118zM717 1362h-441v-563h441q138 0 224.5 73t86.5 207q0 137 -84 210t-227 73zM752 72q72 0 135 19.5
t112.5 57.5t78 101t28.5 145q0 162 -100 247t-254 85h-476v-655h476z" />
    <glyph glyph-name="uni0413" unicode="&#x413;" horiz-adv-x="931" 
d="M952 1434v-70h-696v-1364h-72v1434h768z" />
    <glyph glyph-name="uni0414" unicode="&#x414;" horiz-adv-x="1445" 
d="M1198 72h145v-332h-71v260h-1180v-260h-72v332h76q173 103 238 567q45 314 45 737v58h819v-1362zM207 72h919v1292h-675q0 -110 -2 -196t-8.5 -226t-23 -254.5t-42 -236.5t-69 -219.5t-99.5 -159.5z" />
    <glyph glyph-name="uni0415" unicode="&#x415;" horiz-adv-x="1308" 
d="M274 72h883v-72h-952v1434h940v-72h-871v-610h807v-70h-807v-610z" />
    <glyph glyph-name="uni0416" unicode="&#x416;" horiz-adv-x="1990" 
d="M1841 0l-557 784l-264 -313v-471h-72v471l-262 313l-559 -784h-86l596 840l-539 594h97l753 -856v856h72v-856l756 856h96l-539 -594l596 -840h-88z" />
    <glyph glyph-name="uni0417" unicode="&#x417;" horiz-adv-x="1267" 
d="M825 762q60 -18 109 -45.5t91 -69t65.5 -101.5t23.5 -134q0 -78 -32 -152.5t-92.5 -136.5t-160 -99.5t-223.5 -37.5q-93 0 -175.5 18.5t-136.5 44.5t-97 59t-63.5 57t-31.5 44l62 35q9 -16 27 -36t56 -48t84.5 -50t119.5 -37.5t155 -15.5q190 0 310 98.5t120 256.5
q0 311 -438 311h-192v70h198q96 0 168.5 26.5t112.5 71t59 95.5t19 108q0 128 -100 205t-261 77q-81 0 -151 -22t-118 -58.5t-79.5 -73.5t-52.5 -77l-70 20q23 52 64 99.5t99.5 89.5t140 67t173.5 25q110 0 196 -30.5t136 -82t75 -112.5t25 -127q0 -102 -53 -193t-162 -139z
" />
    <glyph glyph-name="uni0418" unicode="&#x418;" horiz-adv-x="1501" 
d="M1231 1434h65v-1434h-71v1307l-955 -1307h-65v1434h69v-1311z" />
    <glyph glyph-name="uni0419" unicode="&#x419;" horiz-adv-x="1501" 
d="M760 1579q-95 0 -160.5 58t-73.5 149h60q8 -66 56 -107t118 -41q72 0 120 41t56 107h59q-8 -91 -73.5 -149t-161.5 -58zM1231 1434h65v-1434h-71v1307l-955 -1307h-65v1434h69v-1311z" />
    <glyph glyph-name="uni041A" unicode="&#x41a;" horiz-adv-x="1314" 
d="M1135 0l-557 784l-302 -333v-451h-71v1434h71v-877l793 877h96l-538 -596l596 -838h-88z" />
    <glyph glyph-name="uni041B" unicode="&#x41b;" horiz-adv-x="1380" 
d="M352 1434h824v-1434h-70v1364h-682q-1 -145 -2.5 -247t-6.5 -235.5t-14.5 -228.5t-26.5 -200.5t-40 -178.5t-58 -135t-79 -96q-83 -67 -197 -43l16 70q45 -10 75 -3.5t63 31.5q45 36 79.5 108t55.5 179.5t34.5 215t19 259.5t7.5 266.5t2 278.5v29z" />
    <glyph glyph-name="uni041C" unicode="&#x41c;" horiz-adv-x="1814" 
d="M1544 1434h66v-1434h-72v1298l-606 -921h-47l-609 921v-1298h-71v1434h65l637 -969z" />
    <glyph glyph-name="uni041D" unicode="&#x41d;" horiz-adv-x="1497" 
d="M1221 1434h71v-1434h-71v680h-945v-680h-71v1434h71v-682h945v682z" />
    <glyph glyph-name="uni041E" unicode="&#x41e;" horiz-adv-x="1615" 
d="M807 1446q196 0 356.5 -98.5t250 -265.5t89.5 -367q0 -199 -89.5 -365.5t-250 -265t-356.5 -98.5q-195 0 -355 98.5t-249.5 265t-89.5 365.5q0 200 89.5 367t249.5 265.5t355 98.5zM807 55q177 0 319.5 89.5t220.5 240t78 330.5q0 181 -78 331.5t-220.5 239t-319.5 88.5
q-176 0 -318 -88.5t-220.5 -239t-78.5 -331.5q0 -134 46.5 -255.5t127 -210.5t196 -141.5t247.5 -52.5z" />
    <glyph glyph-name="uni041F" unicode="&#x41f;" horiz-adv-x="1497" 
d="M205 1434h1087v-1434h-71v1364h-947v-1364h-69v1434z" />
    <glyph glyph-name="uni0420" unicode="&#x420;" horiz-adv-x="1267" 
d="M719 1434q200 0 333.5 -122t133.5 -317t-132 -316.5t-335 -121.5h-445v-557h-69v1434h514zM719 629q168 0 279.5 99.5t111.5 266.5q0 168 -110 267.5t-281 99.5h-445v-733h445z" />
    <glyph glyph-name="uni0421" unicode="&#x421;" horiz-adv-x="1550" 
d="M827 59q168 0 306 79.5t219 215.5l65 -30q-93 -156 -247.5 -246t-342.5 -90q-196 0 -356 98.5t-249 265t-89 365.5t89 365.5t249 265t356 98.5q188 0 342.5 -90t247.5 -246l-65 -31q-81 136 -219 215.5t-306 79.5q-176 0 -318 -88.5t-220.5 -238.5t-79.5 -330
q1 -180 79.5 -330t220.5 -239t318 -89z" />
    <glyph glyph-name="uni0422" unicode="&#x422;" horiz-adv-x="1097" 
d="M1077 1434v-72h-483v-1362h-70v1362h-483v72h1036z" />
    <glyph glyph-name="uni0423" unicode="&#x423;" horiz-adv-x="1165" 
d="M1165 1434l-463 -1074q-26 -59 -42 -92t-51 -89t-70 -91q-52 -52 -113.5 -77.5t-114 -23t-102.5 16.5l22 68q114 -35 205.5 25t169.5 222l-565 1115h80l522 -1031l444 1031h78z" />
    <glyph glyph-name="uni0424" unicode="&#x424;" horiz-adv-x="1775" 
d="M1642 717q0 -142 -57.5 -257t-157 -188.5t-228 -114t-275.5 -44.5v-172h-72v172q-147 4 -276 44.5t-228.5 114t-157 188.5t-57.5 257t57.5 256.5t157 188.5t228.5 115t276 46v170h72v-170q147 -5 275.5 -46t228 -115t157 -188.5t57.5 -256.5zM211 717q0 -128 51 -229.5
t140 -166t203 -99.5t247 -40v1069q-105 -3 -199.5 -25.5t-175.5 -66.5t-140 -105.5t-92.5 -148t-33.5 -188.5zM924 182q133 5 247 40t203.5 99.5t141 166t51.5 229.5q0 127 -51.5 229t-141 166.5t-204 99.5t-246.5 39v-1069z" />
    <glyph glyph-name="uni0425" unicode="&#x425;" horiz-adv-x="1230" 
d="M1190 0h-88l-475 674l-477 -674h-89l521 737l-494 697h88l451 -635l448 635h88l-493 -697z" />
    <glyph glyph-name="uni0426" unicode="&#x426;" horiz-adv-x="1466" 
d="M1227 72h178v-332h-72v260h-1128v1434h71v-1362h881v1362h70v-1362z" />
    <glyph glyph-name="uni0427" unicode="&#x427;" horiz-adv-x="1353" 
d="M1077 1434h72v-1434h-72v686q-63 -80 -198.5 -135t-272.5 -55q-106 0 -190 29.5t-148.5 90.5t-99.5 163.5t-35 240.5v414h72v-414q0 -226 102.5 -340.5t298.5 -114.5q164 0 289.5 65.5t181.5 147.5v656z" />
    <glyph glyph-name="uni0428" unicode="&#x428;" horiz-adv-x="2109" 
d="M1833 1434h72v-1434h-1700v1434h69v-1362h746v1362h70v-1362h743v1362z" />
    <glyph glyph-name="uni0429" unicode="&#x429;" horiz-adv-x="2144" 
d="M1905 72h178v-332h-72v260h-1806v1434h71v-1362h744v1362h72v-1362h741v1362h72v-1362z" />
    <glyph glyph-name="uni042A" unicode="&#x42a;" horiz-adv-x="1417" 
d="M815 877q205 0 337 -121.5t132 -317.5q0 -193 -134.5 -315.5t-334.5 -122.5h-514v1364h-260v70h332v-557h442zM815 72q171 0 281 99.5t110 266.5q0 168 -111 268.5t-280 100.5h-442v-735h442z" />
    <glyph glyph-name="uni042B" unicode="&#x42b;" horiz-adv-x="1705" 
d="M1432 1434h69v-1434h-69v1434zM719 877q204 0 336.5 -121.5t132.5 -317.5q0 -193 -134.5 -315.5t-334.5 -122.5h-514v1434h71v-557h443zM719 72q171 0 281 99.5t110 266.5q0 168 -112 268.5t-279 100.5h-443v-735h443z" />
    <glyph glyph-name="uni042C" unicode="&#x42c;" horiz-adv-x="1320" 
d="M719 877q204 0 336.5 -121.5t132.5 -317.5q0 -193 -134.5 -315.5t-334.5 -122.5h-514v1434h71v-557h443zM719 72q171 0 281 99.5t110 266.5q0 168 -112 268.5t-279 100.5h-443v-735h443z" />
    <glyph glyph-name="uni042D" unicode="&#x42d;" horiz-adv-x="1550" 
d="M721 1444q196 0 356.5 -98.5t250 -265t89.5 -365.5t-89.5 -365.5t-250 -265t-356.5 -98.5q-188 0 -342.5 90.5t-245.5 245.5l64 30q84 -137 220.5 -216t303.5 -79q172 0 311.5 83.5t219 226t87.5 315.5h-792v72h792q-9 171 -89 312t-219 223.5t-310 82.5
q-167 0 -303.5 -79t-220.5 -216l-64 31q91 155 245.5 245.5t342.5 90.5z" />
    <glyph glyph-name="uni042E" unicode="&#x42e;" horiz-adv-x="2162" 
d="M1356 1446q196 0 356 -98.5t249 -265t89 -365.5q0 -200 -89 -367t-249 -265.5t-356 -98.5q-144 0 -271.5 54.5t-218.5 148t-146 221.5t-61 272h-383v-682h-71v1434h71v-680h383q9 191 100.5 349t248.5 250.5t348 92.5zM1356 57q176 0 318.5 88.5t221 239.5t78.5 332
q0 180 -78.5 330.5t-221 239.5t-318.5 89q-177 0 -319.5 -89t-221 -239.5t-78.5 -330.5q0 -181 78.5 -332t221 -239.5t319.5 -88.5z" />
    <glyph glyph-name="uni042F" unicode="&#x42f;" horiz-adv-x="1353" 
d="M635 1434h514v-1434h-72v557h-442q-34 0 -100 8l-322 -565h-80l330 584q-136 45 -216.5 153.5t-80.5 257.5q0 195 134.5 317t334.5 122zM635 629h442v735h-442q-171 0 -281 -100t-110 -269q0 -167 111.5 -266.5t279.5 -99.5z" />
    <glyph glyph-name="uni0430" unicode="&#x430;" horiz-adv-x="1024" 
d="M516 1001q47 0 92 -9.5t91.5 -34t81.5 -61.5t57 -99t22 -140v-657h-69v203q-25 -38 -57.5 -72t-81 -69t-117.5 -55.5t-148 -20.5q-55 0 -105.5 12t-97 38.5t-74.5 76t-28 116.5q0 56 20 102t52 77t81.5 56.5t98 41.5t112.5 31q26 6 70 15t70.5 14.5t62 14.5t57 18.5
t42.5 22t30.5 28.5t9.5 36q0 108 -67 177t-205 69q-131 0 -209.5 -61.5t-103.5 -163.5l-70 16q10 40 26 75.5t47 74t71 66t102 45t137 17.5zM791 412v131q-35 -7 -143.5 -34t-184.5 -42q-168 -35 -236.5 -89.5t-68.5 -148.5q0 -85 67.5 -129.5t171.5 -44.5q166 0 280 105
t114 252z" />
    <glyph glyph-name="uni0431" unicode="&#x431;" horiz-adv-x="1132" 
d="M569 985q207 0 329 -138t122 -353q0 -141 -55 -256t-160 -183.5t-242 -68.5q-185 0 -306 123.5t-144 310.5q-9 67 -9.5 143t7 171t34 188.5t67 182t110.5 164.5t161 124q93 48 209 82q7 2 29 9.5t30 10t27 9.5t27.5 11.5t24 11.5t25.5 14t22 15.5t22 18.5l51 -49
q-11 -11 -22.5 -20.5t-26 -18t-23.5 -15t-27 -14t-25 -11t-29 -11.5t-26.5 -9.5t-29.5 -10t-28 -9.5q-122 -39 -195 -78q-289 -154 -342 -575q63 106 167 168.5t226 62.5zM563 57q176 0 277.5 124.5t101.5 312.5q0 187 -98 303t-275 116q-178 0 -281.5 -117t-103.5 -302
q0 -188 101.5 -312.5t277.5 -124.5z" />
    <glyph glyph-name="uni0432" unicode="&#x432;" horiz-adv-x="1034" 
d="M750 502q83 -24 132.5 -85.5t49.5 -152.5q0 -121 -81 -192.5t-208 -71.5h-479v987h430q122 0 205.5 -72t83.5 -192q0 -155 -133 -221zM594 915h-358v-385h358q96 0 156.5 50.5t60.5 142.5t-61.5 142t-155.5 50zM643 72q96 0 156.5 50.5t60.5 141.5q0 92 -62 143.5
t-155 51.5h-407v-387h407z" />
    <glyph glyph-name="uni0433" unicode="&#x433;" horiz-adv-x="833" 
d="M793 987v-72h-557v-915h-72v987h629z" />
    <glyph glyph-name="uni0434" unicode="&#x434;" horiz-adv-x="1085" 
d="M1004 72v-314h-70v242h-885v-242h-69v314h79q56 60 94 155t56 216t25.5 229.5t9.5 245.5v69h614v-915h146zM150 72h638v843h-475q-1 -135 -7 -241t-22.5 -223t-50 -213t-83.5 -166z" />
    <glyph glyph-name="uni0435" unicode="&#x435;" 
d="M993 494q0 -36 -2 -54h-829q18 -167 125 -276t270 -109q111 0 197 52.5t139 144.5l65 -33q-61 -108 -165.5 -170.5t-235.5 -62.5q-137 0 -246.5 68.5t-169 184t-59.5 255.5t59.5 255.5t169 183.5t246.5 68q136 0 236.5 -68.5t150 -182.5t49.5 -256zM557 932
q-173 0 -282 -120.5t-115 -299.5h755q-5 185 -97 302.5t-261 117.5z" />
    <glyph glyph-name="uni0436" unicode="&#x436;" horiz-adv-x="1497" 
d="M1368 0l-389 541l-215 -252v-289h-72v289l-213 252l-391 -541h-88l430 594l-364 393h96l530 -594v594h72v-594l530 594h99l-365 -393l428 -594h-88z" />
    <glyph glyph-name="uni0437" unicode="&#x437;" horiz-adv-x="878" 
d="M598 506q76 -20 137.5 -83t61.5 -153q0 -121 -99 -202.5t-272 -81.5q-128 0 -235 57.5t-150 128.5l61 37q45 -60 124 -106t198 -46q131 0 214 56t83 155t-78.5 148t-220.5 49h-123v70h137q106 0 175 52.5t69 145.5q0 95 -67 147t-183 52q-164 0 -278 -127l-50 43
q54 63 140 109.5t192 46.5q147 0 232.5 -73.5t85.5 -195.5q0 -75 -42 -136.5t-112 -92.5z" />
    <glyph glyph-name="uni0438" unicode="&#x438;" horiz-adv-x="1112" 
d="M883 987h65v-987h-71v870l-670 -870h-64v987h70v-868z" />
    <glyph glyph-name="uni0439" unicode="&#x439;" horiz-adv-x="1112" 
d="M557 1108q-95 0 -160 58t-73 149h59q8 -66 56 -108t118 -42t119 42t57 108h60q-8 -91 -73.5 -149t-162.5 -58zM883 987h65v-987h-71v870l-670 -870h-64v987h70v-868z" />
    <glyph glyph-name="uni043A" unicode="&#x43a;" horiz-adv-x="1026" 
d="M877 0l-390 541l-254 -271v-270h-69v987h69v-612l570 612h98l-364 -393l428 -594h-88z" />
    <glyph glyph-name="uni043B" unicode="&#x43b;" horiz-adv-x="1021" 
d="M788 987h70v-987h-70v915h-469q0 -382 -32 -592.5t-123 -285.5q-67 -56 -164 -37l14 70q63 -12 105 22q41 34 68 113t39.5 200.5t17 238t4.5 278.5v65h540z" />
    <glyph glyph-name="uni043C" unicode="&#x43c;" horiz-adv-x="1333" 
d="M1106 987h63v-987h-69v858l-420 -608h-47l-418 608v-858h-72v987h66l448 -653z" />
    <glyph glyph-name="uni043D" unicode="&#x43d;" horiz-adv-x="1134" 
d="M899 987h72v-987h-72v459h-663v-459h-72v987h72v-457h663v457z" />
    <glyph glyph-name="uni043E" unicode="&#x43e;" horiz-adv-x="1163" 
d="M578 1001q207 0 340 -146.5t133 -360.5t-133 -361t-340 -147q-137 0 -247 68.5t-169.5 184t-59.5 255.5t59.5 255.5t169.5 183.5t247 68zM578 55q177 0 286 126.5t109 312.5t-109 312t-286 126q-118 0 -209.5 -59t-140 -158.5t-48.5 -220.5t48.5 -220.5t140 -159
t209.5 -59.5z" />
    <glyph glyph-name="uni043F" unicode="&#x43f;" horiz-adv-x="1132" 
d="M164 987h805v-987h-70v915h-666v-915h-69v987z" />
    <glyph glyph-name="uni0440" unicode="&#x440;" horiz-adv-x="1200" 
d="M627 1004q137 0 243 -69t161.5 -184.5t55.5 -256.5t-55.5 -256t-161.5 -183.5t-243 -68.5q-135 0 -235 64.5t-156 178.5v-675h-72v1433h72v-227q56 113 156.5 178.5t234.5 65.5zM627 57q118 0 206.5 59t133.5 157.5t45 220.5q0 188 -104.5 313t-280.5 125t-280.5 -125
t-104.5 -313q0 -122 45 -220.5t133.5 -157.5t206.5 -59z" />
    <glyph glyph-name="uni0441" unicode="&#x441;" horiz-adv-x="1091" 
d="M575 55q111 0 197 52.5t139 144.5l68 -33q-63 -108 -168 -170.5t-236 -62.5q-207 0 -340 147t-133 361t133 360.5t340 146.5q131 0 236 -62.5t168 -170.5l-68 -31q-53 91 -139 143t-197 52q-118 0 -209.5 -59t-139.5 -158.5t-48 -220.5t48 -220.5t139.5 -159t209.5 -59.5
z" />
    <glyph glyph-name="uni0442" unicode="&#x442;" horiz-adv-x="866" 
d="M825 987v-72h-356v-915h-72v915h-356v72h784z" />
    <glyph glyph-name="uni0443" unicode="&#x443;" horiz-adv-x="911" 
d="M791 987h75l-372 -987q-49 -132 -80 -197t-74 -114q-23 -27 -46 -45.5t-49 -26.5t-44 -13t-47 -2.5t-40.5 4.5t-41.5 7l12 70q38 -8 67.5 -7.5t54.5 6.5t47.5 24.5t41.5 41.5t39.5 62.5t39.5 82.5t44 107l-373 987h76l336 -887z" />
    <glyph glyph-name="uni0444" unicode="&#x444;" horiz-adv-x="1392" 
d="M1280 494q0 -103 -35 -192t-102 -158.5t-173.5 -111t-242.5 -46.5v-432h-72v432q-136 5 -243 46.5t-174 111t-101.5 158.5t-34.5 192q0 104 34.5 192.5t101 158t173.5 111t244 45.5v433h72v-433q137 -4 244 -45.5t173.5 -111t101 -158t34.5 -192.5zM178 494
q0 -91 26 -165.5t80.5 -135t149 -96.5t221.5 -40v875q-124 -5 -217.5 -41t-149 -96t-83 -135.5t-27.5 -165.5zM727 57q127 4 220.5 40t148 96.5t80.5 135t26 165.5q0 90 -27 165t-82.5 135.5t-148.5 96.5t-217 41v-875z" />
    <glyph glyph-name="uni0445" unicode="&#x445;" horiz-adv-x="948" 
d="M866 0h-88l-315 446l-313 -446h-89l359 508l-338 479h88l293 -416l295 416h86l-336 -479z" />
    <glyph glyph-name="uni0446" unicode="&#x446;" horiz-adv-x="1159" 
d="M1098 72v-314h-72v242h-862v987h72v-915h645v915h71v-915h146z" />
    <glyph glyph-name="uni0447" unicode="&#x447;" horiz-adv-x="1019" 
d="M784 987h72v-987h-72v412q-57 -41 -147 -73t-186 -32q-87 0 -151.5 24t-101.5 62t-59.5 94t-29.5 109t-7 119v272h70v-272q0 -174 65.5 -255t213.5 -81q107 0 192.5 33t140.5 77v498z" />
    <glyph glyph-name="uni0448" unicode="&#x448;" horiz-adv-x="1585" 
d="M1350 987h71v-987h-1257v987h72v-915h522v915h69v-915h523v915z" />
    <glyph glyph-name="uni0449" unicode="&#x449;" horiz-adv-x="1626" 
d="M1565 72v-314h-72v242h-1329v987h69v-915h523v915h71v-915h521v915h71v-915h146z" />
    <glyph glyph-name="uni044A" unicode="&#x44a;" 
d="M653 641q149 0 250 -86t101 -236q0 -148 -101.5 -233.5t-249.5 -85.5h-391v915h-242v72h314v-346h319zM653 72q116 0 194.5 64t78.5 183q0 120 -78 185t-195 65h-319v-497h319z" />
    <glyph glyph-name="uni044B" unicode="&#x44b;" horiz-adv-x="1337" 
d="M1104 987h70v-987h-70v987zM555 641q149 0 249.5 -86t100.5 -236q0 -148 -101 -233.5t-249 -85.5h-391v987h69v-346h322zM555 72q115 0 193.5 64.5t78.5 182.5q0 120 -77.5 185t-194.5 65h-322v-497h322z" />
    <glyph glyph-name="uni044C" unicode="&#x44c;" horiz-adv-x="1017" 
d="M555 641q149 0 249.5 -86t100.5 -236q0 -148 -101 -233.5t-249 -85.5h-391v987h72v-346h319zM555 72q115 0 193.5 64.5t78.5 182.5q0 120 -77.5 185t-194.5 65h-319v-497h319z" />
    <glyph glyph-name="uni044D" unicode="&#x44d;" horiz-adv-x="1091" 
d="M506 1004q137 0 246 -69t168 -185t59 -256q0 -214 -133 -361t-340 -147q-132 0 -237.5 62.5t-166.5 170.5l68 33q51 -91 137.5 -143t198.5 -52q168 0 276 114.5t119 287.5h-526v71h526q-11 172 -119 287t-276 115q-111 0 -198 -52.5t-138 -142.5l-68 33q62 108 167.5 171
t236.5 63z" />
    <glyph glyph-name="uni044E" unicode="&#x44e;" horiz-adv-x="1568" 
d="M983 1004q137 0 246 -69t168 -185t59 -256q0 -214 -133 -361t-340 -147q-131 0 -237 63t-167 170.5t-69 239.5h-274v-459h-72v987h72v-457h274q12 202 144 338t329 136zM983 57q118 0 209.5 59t139.5 158t48 220t-48 220.5t-139.5 158.5t-209.5 59t-209.5 -59
t-139.5 -158.5t-48 -220.5t48 -220t139.5 -158t209.5 -59z" />
    <glyph glyph-name="uni044F" unicode="&#x44f;" horiz-adv-x="1005" 
d="M455 987h387v-987h-72v348h-315q-51 0 -90 8l-201 -356h-82l213 379q-87 35 -139 110t-52 179q0 148 101.5 233.5t249.5 85.5zM455 420h315v495h-315q-115 0 -194 -64t-79 -183q0 -120 78 -184t195 -64z" />
    <glyph glyph-name="uni0451" unicode="&#x451;" 
d="M354 1143q-24 0 -40.5 16.5t-16.5 40.5t16.5 40.5t40.5 16.5q23 0 39.5 -17t16.5 -40t-16.5 -40t-39.5 -17zM727 1143q-23 0 -39 17t-16 40t16 40t39 17q24 0 40.5 -16.5t16.5 -40.5t-16.5 -40.5t-40.5 -16.5zM993 494q0 -36 -2 -54h-829q18 -167 125 -276t270 -109
q111 0 197 52.5t139 144.5l65 -33q-61 -108 -165.5 -170.5t-235.5 -62.5q-137 0 -246.5 68.5t-169 184t-59.5 255.5t59.5 255.5t169 183.5t246.5 68q136 0 236.5 -68.5t150 -182.5t49.5 -256zM557 932q-173 0 -282 -120.5t-115 -299.5h755q-5 185 -97 302.5t-261 117.5z" />
    <glyph glyph-name="uni0452" unicode="&#x452;" horiz-adv-x="1130" 
d="M584 1001q181 0 282 -118.5t101 -321.5v-684q0 -118 -58 -198t-166 -80q-101 0 -176 61l45 55q57 -45 131 -45q72 0 113 57t41 138v696q0 166 -83 268.5t-230 102.5q-141 0 -232.5 -109t-91.5 -286v-537h-72v1174h-147v69h147v191h72v-191h268v-69h-268v-388
q46 98 129.5 156.5t194.5 58.5z" />
    <glyph glyph-name="uni0453" unicode="&#x453;" horiz-adv-x="833" 
d="M793 987v-72h-557v-915h-72v987h629zM629 1434h88l-203 -279h-43z" />
    <glyph glyph-name="uni0454" unicode="&#x454;" horiz-adv-x="1089" 
d="M575 57q111 0 197.5 51.5t138.5 143.5l66 -33q-61 -108 -166 -170.5t-236 -62.5q-207 0 -340 147t-133 361t133 360.5t340 146.5q131 0 236 -62t166 -169l-66 -33q-53 91 -139 143t-197 52q-168 0 -276 -115t-119 -287h525v-71h-525q11 -173 119 -287.5t276 -114.5z" />
    <glyph glyph-name="uni0455" unicode="&#x455;" horiz-adv-x="903" 
d="M457 530q43 -12 70.5 -19.5t68 -22t66 -28t54.5 -34.5t46 -44t28 -54.5t11 -67.5q0 -131 -96.5 -203.5t-235.5 -72.5q-147 0 -250 64t-137 163l68 31q26 -79 107.5 -134t211.5 -55q109 0 184.5 53t75.5 154q0 77 -70.5 120t-218.5 81q-55 14 -94.5 27t-83.5 34.5t-73 46
t-50 61t-26 81.5q-14 121 73 207t246 86q125 0 210.5 -61.5t119.5 -162.5l-66 -26q-30 83 -97.5 130.5t-166.5 47.5q-128 0 -193 -61.5t-55 -151.5q3 -30 19.5 -56t40.5 -45t60 -35.5t71.5 -28.5t81.5 -24z" />
    <glyph glyph-name="uni0456" unicode="&#x456;" horiz-adv-x="450" 
d="M184 0v987h72v-987h-72zM219 1290q24 0 40.5 -16.5t16.5 -40.5t-16.5 -40.5t-40.5 -16.5q-23 0 -39 17t-16 40t16 40t39 17z" />
    <glyph glyph-name="uni0457" unicode="&#x457;" horiz-adv-x="450" 
d="M188 0v987h72v-987h-72zM362 1323q23 0 40.5 -17t17.5 -40t-17.5 -40.5t-40.5 -17.5t-40 17.5t-17 40.5t17 40t40 17zM88 1323q23 0 40 -17t17 -40t-17 -40.5t-40 -17.5t-40 17.5t-17 40.5t17 40t40 17z" />
    <glyph glyph-name="uni0458" unicode="&#x458;" horiz-adv-x="473" 
d="M252 1290q23 0 40 -17t17 -40t-17 -40t-40 -17t-40 17t-17 40t17 40t40 17zM215 -182v1169h70v-1169q0 -77 -22 -138t-74 -101t-128 -40q-101 0 -174 62l43 55q57 -45 131 -45t114 54.5t40 152.5z" />
    <glyph glyph-name="uni0459" unicode="&#x459;" horiz-adv-x="1611" 
d="M1149 641q149 0 249.5 -86t100.5 -236q0 -148 -101 -233.5t-249 -85.5h-363v915h-467q0 -380 -33 -591.5t-124 -286.5q-65 -57 -162 -37l14 70q63 -12 103 22q41 34 68.5 113.5t40.5 200t17.5 238.5t4.5 278v65h610v-346h291zM1149 72q115 0 193.5 64.5t78.5 182.5
q0 120 -77.5 185t-194.5 65h-291v-497h291z" />
    <glyph glyph-name="uni045A" unicode="&#x45a;" horiz-adv-x="1699" 
d="M1243 530q344 0 344 -258q0 -139 -92.5 -205.5t-251.5 -66.5h-344v459h-663v-459h-72v987h72v-457h663v457h72v-457h272zM1243 72q266 0 266 200q0 56 -20 94.5t-58.5 58t-83 27t-104.5 7.5h-272v-387h272z" />
    <glyph glyph-name="uni045B" unicode="&#x45b;" horiz-adv-x="1130" 
d="M584 1001q181 0 282 -118.5t101 -321.5v-561h-72v561q0 166 -82 268.5t-229 102.5q-141 0 -233.5 -109.5t-92.5 -285.5v-537h-70v1174h-147v69h147v191h70v-191h270v-69h-270v-388q48 98 131.5 156.5t194.5 58.5z" />
    <glyph glyph-name="uni045C" unicode="&#x45c;" horiz-adv-x="1026" 
d="M877 0l-390 541l-254 -271v-270h-69v987h69v-612l570 612h98l-364 -393l428 -594h-88zM670 1434h88l-203 -279h-43z" />
    <glyph glyph-name="uni045E" unicode="&#x45e;" horiz-adv-x="911" 
d="M791 987h75l-372 -987q-49 -132 -80 -197t-74 -114q-23 -27 -46 -45.5t-49 -26.5t-44 -13t-47 -2.5t-40.5 4.5t-41.5 7l12 70q38 -8 67.5 -7.5t54.5 6.5t47.5 24.5t41.5 41.5t39.5 62.5t39.5 82.5t44 107l-373 987h76l336 -887zM631 1391h59q0 -101 -56.5 -165.5
t-152.5 -64.5q-98 0 -154.5 64.5t-56.5 165.5h60q0 -74 42.5 -122t108.5 -48q68 0 109 47.5t41 122.5z" />
    <glyph glyph-name="uni045F" unicode="&#x45f;" 
d="M881 987h71v-987h-358v-242h-72v242h-358v72v915h72v-915h645v915z" />
    <glyph glyph-name="uni0490" unicode="&#x490;" horiz-adv-x="931" 
d="M881 1694h71v-332h-696v-1362h-72v1434h697v260z" />
    <glyph glyph-name="uni0491" unicode="&#x491;" horiz-adv-x="831" 
d="M791 1231v-316h-558v-915h-69v987h557v244h70z" />
    <glyph glyph-name="Wgrave" unicode="&#x1e80;" horiz-adv-x="2111" 
d="M1944 1434h75l-467 -1434h-73l-424 1319l-426 -1319h-72l-465 1434h76l428 -1317l424 1317h72l424 -1317zM915 1843l160 -278h-43l-203 278h86z" />
    <glyph glyph-name="wgrave" unicode="&#x1e81;" horiz-adv-x="1454" 
d="M1337 987h76l-319 -987h-70l-287 872l-288 -872h-70l-318 987h74l283 -870l287 870h63l287 -870zM578 1434l159 -279h-43l-202 279h86z" />
    <glyph glyph-name="Wacute" unicode="&#x1e82;" horiz-adv-x="2111" 
d="M1944 1434h75l-467 -1434h-73l-424 1319l-426 -1319h-72l-465 1434h76l428 -1317l424 1317h72l424 -1317zM1212 1843h88l-202 -278h-43z" />
    <glyph glyph-name="wacute" unicode="&#x1e83;" horiz-adv-x="1454" 
d="M1337 987h76l-319 -987h-70l-287 872l-288 -872h-70l-318 987h74l283 -870l287 870h63l287 -870zM895 1434h88l-203 -279h-43z" />
    <glyph glyph-name="Wdieresis" unicode="&#x1e84;" horiz-adv-x="2111" 
d="M1944 1434h75l-467 -1434h-73l-424 1319l-426 -1319h-72l-465 1434h76l428 -1317l424 1317h72l424 -1317zM1192 1753q23 0 40 -17t17 -40t-17 -40.5t-40 -17.5t-40 17.5t-17 40.5t17 40t40 17zM918 1753q23 0 40 -17t17 -40t-17 -40.5t-40 -17.5t-40.5 17.5t-17.5 40.5
t17.5 40t40.5 17z" />
    <glyph glyph-name="wdieresis" unicode="&#x1e85;" horiz-adv-x="1454" 
d="M1337 987h76l-319 -987h-70l-287 872l-288 -872h-70l-318 987h74l283 -870l287 870h63l287 -870zM874 1343q23 0 40.5 -17t17.5 -40t-17.5 -40t-40.5 -17t-40 17t-17 40t17 40t40 17zM600 1343q23 0 40 -17t17 -40t-17 -40t-40 -17t-40 17t-17 40t17 40t40 17z" />
    <glyph glyph-name="Germandbl" unicode="&#x1e9e;" horiz-adv-x="1277" 
d="M680 907q97 -10 179 -42.5t147 -86.5t102 -137t37 -186q0 -116 -43.5 -207t-120 -147.5t-174 -85.5t-211.5 -29v69q38 0 76.5 4t87 15.5t91 29.5t84 49.5t71.5 72t48.5 99.5t18.5 130q0 97 -36 170t-87.5 113t-121 64t-123.5 31t-109 7v71l315 451h-329
q-151 0 -228.5 -108t-77.5 -289v-965h-71v965q0 222 99 345.5t278 123.5h415v-72z" />
    <glyph glyph-name="Ygrave" unicode="&#x1ef2;" horiz-adv-x="1226" 
d="M1186 1434l-537 -957v-477h-69v475l-539 959h82l491 -875l490 875h82zM475 1843l160 -278h-43l-203 278h86z" />
    <glyph glyph-name="ygrave" unicode="&#x1ef3;" horiz-adv-x="911" 
d="M791 987h75l-372 -987q-49 -132 -80 -197t-74 -114q-23 -27 -46 -45.5t-49 -26.5t-44 -13t-47 -2.5t-40.5 4.5t-41.5 7l12 70q38 -8 67.5 -7.5t54.5 6.5t47.5 24.5t41.5 41.5t39.5 62.5t39.5 82.5t44 107l-373 987h76l336 -887zM317 1434l160 -279h-43l-203 279h86z" />
    <glyph glyph-name="endash" unicode="&#x2013;" horiz-adv-x="1040" 
d="M123 664h795v-72h-795v72z" />
    <glyph glyph-name="emdash" unicode="&#x2014;" horiz-adv-x="1216" 
d="M123 664h971v-72h-971v72z" />
    <glyph glyph-name="quoteleft" unicode="&#x2018;" horiz-adv-x="307" 
d="M102 1102l144 344h41l-97 -344h-88z" />
    <glyph glyph-name="quoteright" unicode="&#x2019;" horiz-adv-x="307" 
d="M102 1102l95 344h90l-144 -344h-41z" />
    <glyph glyph-name="quotesinglbase" unicode="&#x201a;" horiz-adv-x="307" 
d="M102 -324l95 344h90l-144 -344h-41z" />
    <glyph glyph-name="quotedblleft" unicode="&#x201c;" horiz-adv-x="557" 
d="M455 1446h41l-95 -344h-90zM102 1102l144 344h41l-97 -344h-88z" />
    <glyph glyph-name="quotedblright" unicode="&#x201d;" horiz-adv-x="557" 
d="M102 1102l95 344h90l-144 -344h-41zM408 1446h88l-142 -344h-43z" />
    <glyph glyph-name="quotedblbase" unicode="&#x201e;" horiz-adv-x="516" 
d="M102 -324l95 344h90l-144 -344h-41zM408 20h88l-142 -344h-43z" />
    <glyph glyph-name="dagger" unicode="&#x2020;" horiz-adv-x="899" 
d="M817 1042v-71h-332v-971h-71v971h-332v71h332v392h71v-392h332z" />
    <glyph glyph-name="daggerdbl" unicode="&#x2021;" horiz-adv-x="899" 
d="M817 971h-334v-508h334v-72h-334v-391h-69v391h-332v72h332v508h-332v71h332v392h69v-392h334v-71z" />
    <glyph glyph-name="ellipsis" unicode="&#x2026;" horiz-adv-x="849" 
d="M137 115q24 0 41 -17t17 -41q0 -23 -16.5 -40t-41.5 -17q-23 0 -39 17t-16 40q0 24 16 41t39 17zM403 115q24 0 41 -17t17 -41q0 -23 -16.5 -40t-41.5 -17q-23 0 -39 17t-16 40q0 24 16 41t39 17zM670 115q24 0 40.5 -17t16.5 -41t-16.5 -40.5t-40.5 -16.5
q-23 0 -39.5 17t-16.5 40t16.5 40.5t39.5 17.5z" />
    <glyph glyph-name="perthousand" unicode="&#x2030;" horiz-adv-x="2185" 
d="M627 1153q0 -125 -84.5 -209t-208.5 -84t-208.5 84t-84.5 209t84.5 209t208.5 84t208.5 -84t84.5 -209zM106 1153q0 -97 65.5 -162t162.5 -65t163 65t66 162t-66 162t-163 65t-162.5 -65t-65.5 -162zM1081 571q125 0 210 -84t85 -208t-85 -208.5t-210 -84.5
q-123 0 -208 84.5t-85 208.5t85 208t208 84zM1081 51q98 0 164 65.5t66 162.5t-66 163t-164 66q-97 0 -162 -66t-65 -163t65 -162.5t162 -65.5zM1116 1434h84l-895 -1434h-84zM1767 571q125 0 210 -84t85 -208t-85 -208.5t-210 -84.5q-123 0 -207.5 84.5t-84.5 208.5
t84.5 208t207.5 84zM1767 51q98 0 164 65.5t66 162.5t-66 163t-164 66q-97 0 -162 -66t-65 -163t65 -162.5t162 -65.5z" />
    <glyph glyph-name="guilsinglleft" unicode="&#x2039;" horiz-adv-x="602" 
d="M459 870l-230 -321l230 -322h-88l-228 322l228 321h88z" />
    <glyph glyph-name="guilsinglright" unicode="&#x203a;" horiz-adv-x="602" 
d="M229 870l230 -321l-230 -322h-86l228 322l-228 321h86z" />
    <glyph glyph-name="Euro" unicode="&#x20ac;" horiz-adv-x="1667" 
d="M956 57q167 0 304 79t221 216l63 -30q-91 -155 -245.5 -245.5t-342.5 -90.5q-255 0 -441.5 159.5t-238.5 407.5h-174l41 72h123q-6 43 -6 90t6 90h-164l41 72h133q52 248 238.5 407.5t441.5 159.5q188 0 342.5 -90.5t245.5 -245.5l-63 -31q-84 137 -221 216t-304 79
q-226 0 -388.5 -138t-213.5 -357h879l-39 -72h-850q-6 -43 -6 -90t6 -90h752l-41 -70h-701q51 -220 213.5 -359t388.5 -139z" />
    <glyph glyph-name="ruble" unicode="&#x20bd;" horiz-adv-x="1376" 
d="M776 557h-444v-174h573v-72h-573v-311h-72v311h-178v72h178v174h-178v72h178v805h516q130 0 236 -54t168.5 -155t62.5 -230q0 -195 -132 -316.5t-335 -121.5zM332 1362v-733h444q168 0 278.5 99.5t110.5 266.5q0 168 -109.5 267.5t-279.5 99.5h-444z" />
    <glyph glyph-name="uni2116" unicode="&#x2116;" horiz-adv-x="2197" 
d="M1782 825q-124 0 -208.5 85t-84.5 208q0 125 84.5 210t208.5 85q123 0 208 -85.5t85 -209.5q0 -123 -85 -208t-208 -85zM1782 1348q-97 0 -163.5 -66t-66.5 -164q0 -96 66.5 -161.5t163.5 -65.5t162 65t65 162q0 98 -65 164t-162 66zM1225 123v1311h71v-1434h-65
l-955 1307v-1307h-71v1434h65zM1495 639v70h580v-70h-580z" />
    <glyph glyph-name="minus" unicode="&#x2212;" horiz-adv-x="1040" 
d="M123 664h795v-72h-795v72z" />
    <glyph glyph-name="approxequal" unicode="&#x2248;" horiz-adv-x="1091" 
d="M365 795q-67 -1 -104.5 -27.5t-70.5 -77.5l-67 25q40 69 92.5 108.5t146.5 42.5q54 1 100.5 -16.5t102.5 -50.5q35 -20 54 -30.5t49.5 -20.5t58.5 -11q71 -3 110.5 25.5t63.5 77.5l68 -23q-75 -151 -236 -151q-87 0 -203 71q-37 21 -56 30.5t-50 19t-59 8.5zM727 455
q71 -3 110.5 25t63.5 77l68 -22q-76 -152 -236 -152q-86 0 -203 72q-35 20 -55.5 30t-51 19t-58.5 8q-67 -1 -104.5 -27t-70.5 -77l-67 22q19 33 37 56.5t46 47t67 36.5t89 14q54 1 100 -16.5t103 -51.5q101 -59 162 -61z" />
    <glyph glyph-name="notequal" unicode="&#x2260;" horiz-adv-x="1101" 
d="M938 750h-285l-145 -263h430v-71h-469l-141 -260h-82l143 260h-246v71h285l143 263h-428v71h467l144 260h80l-142 -260h246v-71z" />
    <glyph glyph-name="lessequal" unicode="&#x2264;" horiz-adv-x="989" 
d="M143 121v72h703v-72h-703zM846 1085v-77l-623 -303l623 -302v-77l-703 340v79z" />
    <glyph glyph-name="greaterequal" unicode="&#x2265;" horiz-adv-x="987" 
d="M143 121v72h701v-72h-701zM143 1085l701 -340v-79l-701 -340v77l621 302l-621 303v77z" />
    <glyph glyph-name="commaaccent" unicode="&#xf6c3;" horiz-adv-x="458" 
d="M223 -158h82l-110 -270h-41z" />
    </font>
</defs>
</svg>
